<svg version="1.2" xmlns="http://www.w3.org/2000/svg" viewBox="0 0 1024 1024" width="1024" height="1024">
	<title>paperPlane-svg</title>
	<style>
		.s0 { fill: #000000 } 
		.s1 { fill: #fefefe } 
		.s2 { fill: #b9ff66 } 
	</style>
	<path class="s0" d="m404.6 561.1c0.9 0 0.4-0.1 1.3 0.7 0.4 1.4 0.6 1.8 0.3 3.3-2.1 2.2-8.7 3-11.7 3.6-0.8-0.5-1.2-0.8-1.7-1.6-0.5-0.9-0.3-1-0.1-1.9 2.7-2.5 8.3-3.2 11.9-4.1z"/>
	<path class="s0" d="m115.9 897.7c4.4 1.6 8.7 6.8 11.1 10.7 0.1 1.6-0.2 1.9-1.1 3.2-0.6 0-1.3 0-1.9-0.2-3-1.2-8.3-7.4-9.1-10.5-0.4-1.5 0.2-1.9 1-3.2z"/>
	<path class="s0" d="m413.7 585.3c1.3 0.2 2.4 0.1 3.2 1.3 2.4 3.4 1.1 12.2 0.5 16.2-1.6-0.4-2.4-0.3-3.7-1.5-1.8-4.1-1.3-11.8 0-16z"/>
	<path class="s0" d="m338.4 774.2l2.1-0.2c1.1 0.9 1.5 1 1.9 2.3q-0.1 0.3-0.2 0.6c-2.1 3.1-9.6 3.7-12.9 4.2-1.5 0-2.1 0-3.3-0.8-0.6-1.1-0.8-1.2-0.5-2.3 2.6-2.7 9.3-3.2 12.9-3.8z"/>
	<path class="s0" d="m271.3 597.5c0.7 0 1.2 0.2 1.9 0.3 0.9 1.2 1.1 1.2 1.2 2.7-2.2 3.1-9.2 4.4-12.8 5.5-1.5 0.1-2.1-0.1-3.3-1-0.1-0.7-0.3-1 0-1.7 1.7-3.3 9.5-4.7 13-5.8z"/>
	<path class="s0" d="m260.9 756.4c3.9 1.3 11.5 4.8 13.4 8.4 0.2 1.5-0.2 2.1-0.9 3.3-0.4-0.1-1-0.2-1.4-0.3-3.8-1.2-10.3-4.4-12.1-8.1 0-1.6 0.3-1.9 1-3.3z"/>
	<path class="s0" d="m451 539.9c1 0.1 1.4 0.4 2.3 0.8 0.3 0.6 0.7 0.9 0.5 1.5-1 3.7-9.3 7.5-12.6 9.1-0.4-0.1-0.9-0.3-1.3-0.6-1-0.8-1.1-1.2-1.2-2.4 2.1-3.7 8.6-6.4 12.3-8.4z"/>
	<path class="s0" d="m304.1 587.1c0.8 0 1.6 0.2 2.4 0.3 0.8 0.9 0.9 0.9 1 2.1-2 3.3-9.9 4.5-13.5 5.4-1.4 0.1-1.6 0.2-2.8-0.5-0.6-1.4-0.7-1.5-0.3-2.9 3-2.7 9.3-3.5 13.2-4.4z"/>
	<path class="s0" d="m371.7 569.5c1.4-0.1 2.3-0.1 3.6 0.2 0.9 1 1.2 1 1.2 2.4-2.2 3-9.2 3.8-12.8 4.8-0.4 0.1-1.3 0.2-1.7 0.2-1.3 0-1.7-0.6-2.6-1.4-0.1-0.7-0.4-1.1 0.1-1.7 1.8-2.6 9.2-3.6 12.2-4.5z"/>
	<path class="s0" d="m184.1 635.8c1.3 0.1 2.3 0.4 3.2 1.2l-0.1 1.4c-2.3 3.8-7.8 6.4-11.6 8.6l-2.6-0.7c-0.8-0.9-0.9-0.8-0.9-2 1.8-3.6 8.5-6.5 12-8.5z"/>
	<path class="s0" d="m128.3 675.5c0.5-0.1 1.3-0.1 1.7-0.1 1.3 0.2 1.5 0.6 2 1.6-0.4 3.6-7.7 9-10.5 11.6-1 0-1.6 0-2.5-0.5-0.7-0.5-0.6-0.9-0.8-1.6 1.2-4.3 6.8-8.2 10.1-11z"/>
	<path class="s0" d="m247.6 466.4c1.1 0 2-0.1 2.9 0.4 0.7 0.4 0.6 0.7 0.8 1.4-1.1 4.2-7.1 8.6-10.3 11.5-1-0.3-1.9-0.5-2.7-1.3-0.6-0.5-0.4-1-0.5-1.8 1.8-4.1 6.5-7.3 9.8-10.2z"/>
	<path class="s0" d="m338.1 578.1c1.6-0.2 2.5-0.3 3.9 0.5 0.2 1.1 0.3 1.4-0.4 2.4-1.1 1.5-4.1 2.7-5.9 3-2.3 0.3-4.6 0.9-6.9 1.4l-2.3 0.1c-0.8-0.4-1.1-0.6-1.5-1.4-0.4-0.8-0.2-0.9 0-1.6 2.9-2.9 9.1-3.5 13.1-4.4z"/>
	<path class="s0" d="m246.2 948.2c3.9-0.2 9.9-1.3 13.3 0.8 0.6 1.2 0.6 1.2 0.2 2.6-1.3 1.2-2.9 1.1-4.6 1.2-3.9 0.3-8.3 0.5-12.2 0-0.2-0.3-0.5-0.5-0.6-0.8-0.6-1.1-0.7-1.5-0.3-2.6 1.3-1.1 2.7-1 4.2-1.2z"/>
	<path class="s0" d="m234.8 735.4q0.2 0.1 0.5 0.2c3.1 1.6 10.1 7.7 11.2 10.9-0.4 1.4-0.7 1.5-1.8 2.5-2-0.8-3.6-1.8-5.4-3.1-2.6-1.9-6.2-4.4-6.7-7.9 0.6-1.5 0.9-1.7 2.2-2.6z"/>
	<path class="s0" d="m154.9 654.5c1.5 0 2.2 0 3.5 0.9l0.1 1.1c-1.8 4-8 7.3-11.7 9.6-1.1-0.1-2.1-0.4-3-1-0.7-0.5-0.5-0.8-0.6-1.6 1.9-3.7 8.2-6.8 11.7-9z"/>
	<path class="s0" d="m291.8 944.2c1.5-0.3 2.6-0.2 3.9 0.6 0.8 1.1 0.8 1.1 0.6 2.4-2.5 2.6-9.1 2.8-12.7 3.3-1.7 0.1-3 0.2-4.5-0.7-0.5-1.2-0.5-1.2-0.1-2.5 2.9-2.5 9-2.6 12.8-3.1z"/>
	<path class="s0" d="m332.7 435.9q0.3 0 0.6 0c4.3 0 11.3 0.6 14.4 3.9 1.2 1.3 1 2.3 1.1 4-4.2 0.1-12.2-1.4-15.6-3.7-0.9-1.6-0.7-2.4-0.5-4.2z"/>
	<path class="s0" d="m238.1 609.5c0.6-0.1 0.8-0.1 1.4-0.1 1.2 0.1 2 0.2 2.8 1.1-0.1 0.5-0.1 0.7-0.4 1.1-1.7 3.4-9.2 5.8-12.7 7.2-1.4 0.2-1.7 0.2-3-0.2-0.7-1.3-0.8-1.3-0.6-2.8 2.6-3.3 8.7-4.8 12.5-6.3z"/>
	<path class="s0" d="m400.7 508.4c0.8 0 2-0.1 2.7 0.3 1.7 0.8 3.2 4.9 3.8 6.6 1.1 3.1 2.6 7.1 1.1 10.1-0.4 0.1-1.2 0.1-1.6 0.1-1.2-0.2-1.8-0.9-2.3-1.9-2-3.4-4.8-11.5-3.7-15.2z"/>
	<path class="s0" d="m388.1 476.2c0.6 0.4 0.7 0.4 1.3 0.9 2.6 2.1 7.2 9.8 7.1 13.2-0.1 1.6-0.7 1.9-1.7 2.9-0.3-0.1-1.1-0.5-1.4-0.7-2.4-1.8-7.4-10-7.3-13.2 0.1-1.6 1-2.1 2-3.1z"/>
	<path class="s0" d="m478.3 521.4c0.9-0.1 1.3 0 2.1 0.2 1 1.1 1.3 1.2 1.4 2.6-1.6 3.8-8 7.1-11.5 9-1.4 0.2-2 0.2-3.2-0.4l-0.3-1.1c1.6-4.2 7.9-7.9 11.5-10.3z"/>
	<path class="s0" d="m206 945.5c1.6 0 3.1 0.1 4.7 0.2 3.8 0.4 10.1 0.3 12.6 3.4 0.2 1.5 0 1.8-0.7 3.2q-0.4 0-0.7 0c-4.2 0.2-12.6-0.8-15.7-3.7-0.6-1.4-0.5-1.6-0.2-3.1z"/>
	<path class="s0" d="m223.2 490.8c0.4 0.1 0.9 0.1 1.3 0.3 1.4 0.4 1.6 0.7 2.2 1.9-0.4 4.3-5.8 9.5-8.5 12.8-0.9 0-1.6-0.2-2.3-0.8-0.7-0.5-0.9-1.1-0.9-2-0.1-3.5 5.8-9.6 8.2-12.2z"/>
	<path class="s0" d="m179.3 616.7l1.7 0.4c2 1.8 2.4 5.3 2.5 7.9 0.2 3.7 0.5 7-2.2 9.8-0.5-0.2-0.9-0.4-1.3-0.8-1.8-1.6-2.3-6.2-2.5-8.5-0.2-3.3-0.5-6.2 1.8-8.8z"/>
	<path class="s0" d="m386.2 724.3c0.4 0 0.9 0 1.3 0.1 1.4 0.2 1.5 0.4 2.2 1.4 0.4 4.6-3.3 10.7-5.7 14.5-0.5 0-1.1 0-1.5-0.1-1.4-0.3-1.5-0.6-2.2-1.7-0.4-4.7 3.6-10.3 5.9-14.2z"/>
	<path class="s0" d="m189.5 549.3c1.4 0.5 2.5 0.7 3.3 2 1.1 4.5-2.1 10.7-3.9 14.7-1.4 0-2 0-3.2-0.8-0.4-0.5-0.6-1-0.7-1.7-0.5-4.2 2.1-10.9 4.5-14.2z"/>
	<path class="s0" d="m180.2 582.9c1.5 0.1 2.2 0.1 3.4 1 2 4.1 0 12.8-1 17.3-0.5 0-1.2-0.1-1.6-0.2-1.1-0.4-1.6-1-2.1-2-1.9-3.9 0-12.1 1.3-16.1z"/>
	<path class="s0" d="m203.7 519.3q0.3 0 0.6 0c1.6 0.2 2.1 0.6 3.1 1.8 0.8 3.9-4.3 10.6-6.3 14.1q-0.2 0-0.5 0c-1.6-0.3-2.3-0.9-3.2-2.3-0.3-4.4 4.2-9.9 6.3-13.6z"/>
	<path class="s0" d="m82.6 835.7c1.2 0.1 1.9 0.2 2.9 0.8 1.7 2 2.8 4.6 3.5 7.2 0.9 3.2 2.1 6.1 0.4 9.1-1-0.1-1.8-0.3-2.7-0.7-1.5-1.9-2.6-4.2-3.3-6.5-1.1-3.2-2.3-6.8-0.8-9.9z"/>
	<path class="s0" d="m365.8 449.8c0.8 0.2 1.5 0.5 2.2 0.9 2.8 1.6 8.9 6.7 9.4 10.1 0.2 1.5-0.8 2.3-1.5 3.5q-0.2-0.1-0.4-0.2c-3.8-2-9.9-7.2-11.3-11.4 0.2-1.5 0.6-1.8 1.6-2.9z"/>
	<path class="s0" d="m211.3 709.7c4 1.5 8 6.9 10.1 10.5 0.9 1.6 1.2 2.2 0.7 3.9l-1.4 0.8c-0.9-0.1-1.7-0.2-2.4-0.7-2.3-1.7-8.3-8.4-8.6-11.5-0.1-1.4 0.7-2 1.6-3z"/>
	<path class="s0" d="m397.4 915.9c1.5 0 1.7-0.1 3 0.6 0.7 1.3 0.9 1.4 0.6 2.7-2.7 3.4-8.9 4.6-12.9 6-1.4 0.4-2 0.3-3.3-0.1l-0.1-0.8-0.9-0.5 0.4 0.9-0.1-1.7c2.7-3.4 9.3-5.4 13.3-7.1z"/>
	<path class="s0" d="m139 921.4c0.7 0 1 0 1.7 0 3.4 0.2 12.1 4.4 14.1 7.3 0.9 1.3 0.4 2.1 0.2 3.6q-0.5 0-0.9 0.1c-3.8 0.4-9.3-3.4-12.1-5.7-2-1.7-2.8-2.6-3-5.3z"/>
	<path class="s0" d="m364.1 928c0.4 0 1-0.1 1.4 0 1.2 0.2 1.6 0.8 2.3 1.7v1.2c-2.9 3.2-10.1 4.2-14.1 5.3-0.6 0-1.6 0.1-2.2 0-1.3-0.4-1.5-0.9-2.2-1.9l0.3-1c3.1-3.1 10.3-4.1 14.5-5.3z"/>
	<path class="s0" d="m412.3 620.3c1.5 0.1 2.4 0.1 3.6 1.2 1.7 4.7-0.2 12.5-1.2 17.4-1.4-0.1-2.3-0.2-3.5-1.1-2.2-4.4 0.2-12.7 1.1-17.5z"/>
	<path class="s0" d="m193.4 679.7c0.6 0.1 0.9 0.2 1.4 0.4 2.9 1.3 7.3 10.3 8.2 13.4 0.4 1.6-0.3 2.5-1.1 3.9-0.5-0.2-1.2-0.3-1.7-0.6-3.3-2.2-6.8-9.6-7.8-13.3-0.4-1.6 0.3-2.5 1-3.8z"/>
	<path class="s0" d="m291.2 771.2c3.6 0.3 13.4 2.2 15.6 4.9 0.9 1.2 0.6 2.2 0.5 3.5-1 0.1-2 0.2-3 0.2-3.8-0.2-10.3-1.2-12.6-4.4-1.1-1.4-0.7-2.5-0.5-4.2z"/>
	<path class="s0" d="m78.9 765.3c1.2 0 2.1 0.1 3.2 0.7 0.2 0.5 0.3 0.5 0.4 1.2 0.5 3.1-1.5 14.8-3.1 17.4l-1.8-0.4c-0.6-0.8-0.9-1.2-1.2-2.2-1-4.1 0.3-13.2 2.5-16.7z"/>
	<path class="s0" d="m368.4 752.3c0.4 0 1.2 0 1.6 0.2 1.2 0.3 1.4 0.9 1.7 2-1.1 4.9-7.4 9.8-10.9 13.1-0.4-0.1-1.1-0.1-1.5-0.3-1.2-0.6-1.2-1.2-1.5-2.3 1-3.7 8-9.5 10.6-12.7z"/>
	<path class="s0" d="m635.1 666.7c0.5 0 1.5 0.1 1.9 0.3 0.8 0.4 1.2 0.8 1.4 1.6 1.1 3.7-2.8 13.6-4.6 17.1-0.4 0-0.8 0-1.1-0.2-1.2-0.3-1.5-0.6-2.2-1.6-0.6-5 2.6-12.7 4.6-17.2z"/>
	<path class="s0" d="m400 689.2c1.5 0.5 2.2 1 2.9 2.3 0.4 4.6-2.5 12.6-5.2 16.2-0.4 0-0.9-0.1-1.3-0.2-1.3-0.4-1.4-0.7-2-1.8-0.2-4.8 3-12.5 5.6-16.5z"/>
	<path class="s0" d="m329.7 937.1c1 0.1 2.1 0.3 2.9 0.9 0.5 0.5 0.4 0.9 0.4 1.6-2.6 3.6-10.6 4.4-14.9 5.3q-0.1 0-0.1 0c-1.7 0-1.8 0.1-3.1-0.9-0.4-1.3-0.5-1.3 0.1-2.6 3.8-2.8 10.1-3.4 14.7-4.3z"/>
	<path class="s0" d="m431.6 902.5c1.6 0.1 2.6 0.5 3.7 1.6l-0.2 1c-3.1 3.7-9.5 6-14 7.5-1.4-0.1-2.6-0.5-3.6-1.6l0.2-1.1c3.3-3.6 9.4-5.5 13.9-7.4z"/>
	<path class="s0" d="m171.7 935.7q0.4 0 0.8 0c4.1 0.3 13 2.9 15.7 5.9 0.4 1.6 0.1 2.1-0.3 3.6q-0.4 0.1-0.8 0.1c-3.3 0.3-12.7-3.1-14.8-5.6-1.1-1.4-0.8-2.3-0.6-4z"/>
	<path class="s0" d="m76.8 801.2c0.7 0 1.6 0 2.3 0.2 0.9 0.4 1.2 1 1.6 1.9 1.4 3.3 2.8 12.7 1.6 16-0.9 0.1-1.7 0.3-2.6 0.1-0.8-0.1-1.1-0.5-1.5-1.2-2.6-4.1-2.3-12.4-1.4-17z"/>
	<path class="s0" d="m525.1 846.3c0.8 0.5 1.2 0.7 1.7 1.6 0.4 0.7 0.4 1.3 0.1 2-1.5 3.9-10.1 8.5-13.7 10.3l-1.1-0.5c-0.9-1.1-0.9-1-0.9-2.4 2.5-4.5 9.6-8.3 13.9-11z"/>
	<path class="s0" d="m407.7 655.8c0.4 0 0.9 0.1 1.3 0.2 1.3 0.3 1.7 0.6 2.3 1.8 1.4 3.4-1.8 13-3.5 16.1-0.4 0-1.2-0.2-1.6-0.3-1.1-0.4-1.5-1-1.8-2.1-1.3-3.9 1.3-12.4 3.3-15.7z"/>
	<path class="s0" d="m652 595.9c1 0 1.8 0.1 2.7 0.3 0.4 0.5 0.5 0.5 0.8 1.2 1.4 3.3-1.6 14.1-3.4 17.2-0.8 0-1.4 0-2.2-0.2-0.7-0.2-1-0.7-1.3-1.4-1.3-3.7 1.9-13.5 3.4-17.1z"/>
	<path class="s0" d="m610.6 734.2l1.9 0.5c0.8 0.7 1.2 1 1.2 2.2 0.1 4.2-5.1 12.2-7.8 15.3-0.4-0.1-0.9-0.1-1.2-0.2-1.4-0.5-1.4-0.8-1.9-2 0.5-4.8 5-11.7 7.8-15.8z"/>
	<path class="s0" d="m278.9 447.5c0.3 0.1 0.8 0.3 1.1 0.5 1.2 0.8 1.3 1.2 1.6 2.5-1.5 3.6-9.6 6.6-13.2 8.4-0.7-0.2-1.6-0.5-2.1-1-1.1-0.9-1-1.3-1-2.5 2.5-3.9 9.5-6.1 13.6-7.9z"/>
	<path class="s0" d="m205.9 624c0.5-0.1 0.8-0.1 1.4 0 1.2 0.1 1.9 0.4 2.7 1.3l-0.2 1c-2.9 4-9.3 6.5-13.5 8.8-0.7 0.2-1.3 0.2-2 0.2-0.3-0.3-1-0.9-1.3-1.4-0.3-0.6-0.5-1.3-0.3-2 1.2-2.8 10.4-6.4 13.2-7.9z"/>
	<path class="s0" d="m181.7 647.8l2.3 0.3c2.7 2.6 4.3 10.2 4.7 13.9 0.2 2-0.4 2.8-1.6 4.3l-1.5-0.5c-3-2.8-4.7-10.6-5.2-14.6-0.1-1.7 0.2-2.1 1.3-3.4z"/>
	<path class="s0" d="m309.3 437.1c1.9-0.2 3.4-0.5 5 0.7 0.6 1.2 0.6 1.2 0.3 2.6-1.4 1.6-2.6 2.3-4.7 2.6-2.1 0.3-4.2 0.9-6.2 1.4-0.9 0.1-2 0.4-2.9 0.2-1.3-0.3-1.9-1-2.6-2-0.1-1.1-0.1-1.7 0.4-2.7 3-1.7 7.3-2.1 10.7-2.8z"/>
	<path class="s0" d="m463.5 886.5c0.5-0.1 0.7-0.1 1.3 0 1.4 0.1 2.1 0.3 3 1.4 0 0.1 0 0.3-0.1 0.5-1 3.7-10.4 7.4-13.8 9.1-1.2 0.1-2.3-0.4-3.4-0.8-0.3-0.4-0.7-0.7-0.5-1.2 0.8-3.3 10.5-7.4 13.5-9z"/>
	<path class="s0" d="m87.6 730.8c1.6 0.3 2.4 0.5 3.4 1.9 0.7 4.7-3.3 12.1-5 16.7h-2c-1-0.7-1.3-0.9-1.6-2.1-1-3.8 3.2-13.1 5.2-16.5z"/>
	<path class="s0" d="m95.7 867.7l2 0.1c3.2 2 6.5 9.1 7.7 12.6 0.7 2 0.3 2.9-0.6 4.7-0.7-0.2-1.4-0.3-2-0.7-3.2-1.7-6.7-9.1-7.8-12.4-0.6-1.9-0.2-2.6 0.7-4.3z"/>
	<path class="s0" d="m594.3 765.2c0.2 0.1 0.5 0.2 0.8 0.3 1.3 0.8 1.4 1.1 1.9 2.5-1 5.5-5.6 11.6-9 15.9-1.4-0.7-2.8-1.3-3.5-2.7 0.9-3.4 7.5-13.1 9.8-16z"/>
	<path class="s0" d="m657.5 560.3c0.5 0 1.1 0 1.5 0.1 1.3 0.3 1.8 0.8 2.3 1.9 1.7 3.7-0.9 13.1-2.2 16.9-0.9 0-1.6 0-2.4-0.2-0.8-0.2-1.1-0.6-1.4-1.3-1.7-4.3 0.9-13.1 2.2-17.4z"/>
	<path class="s0" d="m495.4 867.3c1.1 0.3 1.7 0.7 2.6 1.3 0.2 0.7 0.5 1 0.3 1.7-1.4 3.6-10.8 7.9-14.3 9.9-1-0.3-1.8-0.6-2.5-1.4-0.5-0.7-0.3-1-0.2-1.8 2.5-4.1 9.9-7.3 14.1-9.7z"/>
	<path class="s0" d="m105.5 700.3c0.8 0.1 1.5 0.1 2.2 0.4 0.7 0.3 0.7 0.8 0.9 1.5-0.7 4.6-6.9 12-10.2 15.3-0.4-0.1-1-0.3-1.4-0.5-1-0.8-1.3-1.6-1.2-2.7 0.3-4.1 6.8-11.3 9.7-14z"/>
	<path class="s0" d="m644.9 630.4c0.7 0.2 1.4 0.6 2.2 0.9 0.6 0.8 0.8 1.4 0.8 2.4 0.1 4.2-2 13.6-4.9 16.7-1.1-0.4-2.1-0.9-3.1-1.4-0.2-0.5-0.3-0.6-0.3-1.1-0.3-3 3.5-14.9 5.3-17.5z"/>
	<path class="s0" d="m574.1 795.4c0.8 0.1 1.6 0.2 2.3 0.4 0.9 0.9 1.2 1.2 1 2.6-0.6 3.9-8 11.2-11.2 13.7l-1.8-0.2c-1-0.7-1-0.6-1.3-1.8 1-4.2 8.2-11.2 11-14.7z"/>
	<path class="s0" d="m623.8 700.8l2.3 0.2c0.9 0.7 1.1 0.9 1.3 2.1 0.9 4.6-4 13.4-6.5 17.2-1.6-0.3-1.9-0.2-3-1.5-0.6-4.9 3.7-13.7 5.9-18z"/>
	<path class="s0" d="m551.3 821.8l1.7 0.5c0.5 0.5 1 0.8 1 1.6 0 3.8-9.3 11.2-12.1 13.8-0.5-0.1-1.5-0.2-2-0.5-1.2-0.7-1.2-1.2-1.4-2.4 1.8-4.9 8.8-9.8 12.8-13z"/>
	<path class="s0" d="m409.7 541.7c1 0.2 1.7 0.3 2.6 0.6 2.9 3.3 3 10.6 3.5 14.8 1.2-0.4 2.5-1 3.7-1.3 1.2-0.3 1.8 0.1 2.8 0.7 0.2 0.9 0.4 0.9 0 1.9-0.9 2.6-3.4 3.2-5.7 4.2 0.3 1.5 0.6 3-0.1 4.5-1.1 0.5-1.2 0.6-2.4 0.5-1.3-0.8-1.9-1.6-2.4-2.9-1.5-4-3.6-19.4-2-23z"/>
	<path class="s0" d="m913.2 386.9c6.8-7.4 14.2-14.1 21.2-21.2 6.3-6.4 12.3-13.4 18.9-19.5 1.2-1.1 2.4-2.3 4-2.7 0.3 0.7 0.4 0.6 0.2 1.3-0.4 1-37.3 39.4-40.5 41.3-4.3 5-20.9 23.3-26.6 25.4l0.5-0.2-0.3-1c6.5-8.3 15-16.1 22.6-23.4z"/>
	<path class="s0" d="m586.8 887.3l1.2 0.2 0.3 0.9c-2.1 3.6-15.7 14.9-19.6 18.6l-52 49.6c-1.1 0.2-0.6 0.3-1.5-0.2 0.3-1.2 0.9-1.9 1.7-2.9 7.6-8.5 17.1-16.2 25.4-24.2 14.6-14.1 28.8-29 44.5-42z"/>
	<path class="s0" d="m308.5 337.5c6.8-6.6 27.6-30.7 34.2-33.5-0.6 2.8-26 28.6-30.4 33-7.3 7.8-14.9 15.2-22.4 22.9-6 6.2-14.4 17.1-21.3 21.2 6-10.8 30.5-34 39.9-43.6z"/>
	<path class="s0" d="m952.5 323.9c2.6-2.9 5-6 8.5-7.8l0.9 0.1c0 1.3-0.7 2.3-1.6 3.2-1.2 1.3-2.8 2.8-4.2 3.9-10 10.3-20.2 20.4-30.1 30.7-5.8 5.7-11.7 11.3-17.2 17.3-2.8 2.9-14.4 16.7-17.6 17l-0.6-0.5c0.5-2.4 13.3-14.8 16-17.4 5.5-5.8 11-11.8 17-17.1 3.6-4.1 7.7-7.9 11.5-11.9 5.7-5.9 11.2-12.3 17.4-17.5z"/>
	<path class="s0" d="m542.1 906.9q19.6-19.3 39.6-38.2c3.4-3.1 7.1-7.7 11-9.8h1.1c0.1 1.1-0.2 1.3-0.9 2.2-4.2 5.1-10.1 9.8-14.9 14.4-10.9 10.2-21.8 20.4-32.3 31-7.7 7.9-15.8 15.4-23.7 23-2.5 2.4-5 5.8-7.9 7.6-0.7 0.5-0.9 0.7-1.8 0.5l-0.3-0.8c0.7-2.3 26.1-26.4 30.1-29.9z"/>
	<path class="s0" d="m465.6 730.3c8.3 0 18.1 1.6 24.3 7.8q0.1 0.2 0.2 0.4c4.1 3.1 6.9 7.3 7.6 12.4 0.7 5.7-1.5 11.8-5.1 16.2-1.7 2.1-4.1 4.3-6.4 5.7-1.9 1.2-3.6 2.2-5.7 3-2.3 0.9-4.5 1.6-6.9 2.1-8 1.7-17.7 1.2-24.7-3.4-1-0.6-2-1.2-2.9-1.9-4.6-3.8-7.7-8.9-8.2-14.9-0.5-6.7 2.2-13.2 6.6-18.2 5.7-6.5 12.8-8.7 21.2-9.2z"/>
	<path class="s1" d="m463 732.5c10.4-0.1 18.8 1.6 26.7 8.7 3.3 3.5 6 6.8 6 11.8 0 5.9-3.6 11.5-7.7 15.5-1 0.9-2.1 1.8-3.1 2.6-3 1.6-5.9 2.8-9.1 4-9.5 1.8-16.7 1.6-25.6-2.4-4.9-3.1-8.4-7-9.6-12.9-1.2-6 0.4-11.9 3.9-16.9 4.8-6.7 10.7-9.1 18.5-10.4z"/>
	<path class="s0" d="m465.9 749q0.2 0 0.5 0c2.3 0.3 4.4 0.9 5.8 2.8 0.7 1 1 2.3 0.7 3.5-0.5 2-2 3.3-3.6 4.4-0.7 0-1.4 0.1-2.1 0-1.6-0.3-3.1-1-4.1-2.3-1-1.3-1.2-2.6-0.9-4.1 0.4-2.1 2-3.2 3.7-4.3z"/>
	<path class="s0" d="m767.5 746.2c9.6-4.8 21.6-5.2 31.8-1.8 4.7 1.6 8.8 4.1 11.9 8.1 3.9 4.9 5 10.4 4.3 16.5q-0.2 2.4-1.1 4.7c-2.9 6.8-7.8 11.2-14.7 13.9q-2.3 0.8-4.6 1.5c-9.4 1.9-19.8 1.6-28.3-3.3-5.3-3.2-9.5-8.1-10.9-14.2-1.4-6.1 0.2-12.5 3.3-17.8 1.5-3.4 5.2-5.9 8.3-7.6z"/>
	<path class="s1" d="m769.1 747.9c10.1-4.1 20.9-4.9 31.2-0.6 3.5 1.5 6.5 3.5 9.1 6.3 3.5 5.1 5 9.9 4 16.1-0.2 1.5-0.7 2.9-1.2 4.4-5.6 8.4-11.7 11.3-21.2 13.6-5.8 0.5-11.5 0.4-17-1.5-6-2-11.5-5.9-14.2-11.7-2.6-5.6-1.9-11.4 0-17 2.3-4.4 5.3-7 9.3-9.6z"/>
	<path class="s0" d="m783 760.6c1.5-0.1 3-0.2 4.4 0.2 1.7 0.4 3.5 1.7 4.2 3.4 0.5 1.1 0.4 2.2-0.1 3.3-1 1.9-2.6 2.4-4.5 3.1-1.4-0.1-3 0-4.5-0.4-2.1-0.5-3.5-1.7-4.6-3.6 0-0.9-0.2-1.5 0.2-2.4 1-2.1 2.9-2.7 4.9-3.6z"/>
	<path class="s0" d="m107.4 518.7c8.2-0.1 16.6 2.9 22.4 8.8 0.5 0.6 0.9 1.2 1.4 1.8 4.1 4.5 6.6 10 6.3 16.2-0.3 6.9-4.3 13.2-9.4 17.6q-1.9 1.7-4 3.1-2.2 1.3-4.5 2.3c-6.1 2.2-12.4 3.2-18.7 1.1-4.5-0.6-9.8-3.6-13.4-6.3-5.1-3.6-9.4-8.7-10.2-15-0.9-5.9 1.3-12 4.9-16.7 6.2-8.1 15.4-11.7 25.2-12.9z"/>
	<path class="s1" d="m106.9 521.4c9.4 0.1 14.3 2.9 21.6 8.2l0.3 0.5c4.1 6.5 7.9 10.5 5.9 18.8-1.7 6.8-7 12.4-12.9 15.9-1.7 1-3.5 1.7-5.4 2.5-6.8 1.7-12.4 0.9-19-1.1-3-1.3-6.1-3-8.7-4.9-4.4-3.3-8.4-8-9-13.7-0.6-5.4 1.7-10.9 5-15.1 5.5-6.8 13.8-10.1 22.2-11.1z"/>
	<path class="s0" d="m103.4 539c2.4-0.1 4.3 0 6.3 1.5 1.3 1.1 2.2 2.5 2.3 4.2 0.1 2.3-1.2 4-2.8 5.6-2 0.2-3.8-0.2-5.4-1.4-1.5-1.1-2.4-2.7-2.6-4.5-0.2-2.3 0.8-3.7 2.2-5.4z"/>
	<path class="s0" d="m462.8 118.6c1.2-1.9 2.9-3.6 4.7-5 8.3-6.7 18.2-8.6 28.5-7.5 8.9 2.1 17.4 6.3 22.4 14.3 3.1 5.1 4.2 10.8 2.8 16.6-1.6 6.5-6 11.3-11.7 14.4-0.6 0.4-1.2 0.6-1.9 0.8-6 4-16 4.9-23 3.9-9.3-1.4-16.8-5.7-22.5-13.2l-2.2-4.1c-0.4-1.5-1-3.1-1.2-4.8-0.9-5.8 0.6-10.7 4.1-15.4z"/>
	<path class="s1" d="m463.5 121.4c1.6-2.1 3.2-4 5.3-5.7 7.7-6.3 16.7-8.3 26.5-7.2 8.2 1.7 15.9 5.2 20.6 12.5 2.9 4.4 4.2 9.7 3 14.9-1.6 6.6-6.4 10.8-11.9 14.2-6.4 2.8-13 4.5-20 3.9-9.4-0.8-17.1-5.5-23-12.7-0.9-1.5-1.6-3-2.4-4.5-1.5-6-0.7-10.1 1.9-15.4z"/>
	<path class="s0" d="m485.9 126.1c0.9-0.1 1.7-0.2 2.6-0.2 1.8 0.1 3.9 1 5.1 2.4 0.8 1 1.2 2.2 1 3.5-0.3 2.1-1.8 3.2-3.3 4.4q-0.7 0.1-1.3 0.2c-2.1 0-4.1-0.6-5.6-2.1-1-1.1-1.6-2.3-1.5-3.8 0.2-2.1 1.4-3.2 3-4.4z"/>
	<path class="s0" d="m957.9 770.7c-2 6.1-4.8 12-7.4 17.9l-10.1 23.6c-3.5 8-8.2 21.4-12.6 28.4-2.1 8-6.7 16.3-9.9 23.9-5.8 13.4-11 27.1-16.8 40.5-0.4 0.7-0.7 1.6-1.5 1.9-3.7 1.2-11-1-15-1.4-4 0-8.2-0.6-12.2-0.9-7.1-0.2-14.6-0.6-21.6-1.5-5.1 0-10.2-0.5-15.3-0.9 1.6-2.2 3.3-4.1 5.2-6 3.7-5.7 9.8-11 14.5-16l35.6-38.6 31.2-33.1c5.3-5.7 10.3-11.9 16.1-17.1 6.3-6.8 12.6-14.9 19.8-20.7z"/>
	<path class="s2" d="m941.6 791.1c2.8-2.9 5.5-5.9 8.4-8.8-3.7 13.8-11 27.5-16.7 40.6-1.5 3.4-4.8 8.9-5.1 12.5-4.2 8-7.5 16.5-11 24.8q-9.2 22.2-18.7 44.2c-1.6 1.1-8.3-0.3-10.5-0.4-4.5-0.9-9.6-0.9-14.2-1.2l-15.2-1.1c-3.3-0.3-16.1-0.4-18.3-2l0.4-0.8z"/>
	<path class="s0" d="m389.3 56.2c-2.1 3.8-4.4 7.6-7 11-13.5 23.7-27.3 47.3-40.4 71.1q-8.6 15.9-17.4 31.7c-2.7 4.8-5.2 10-8.4 14.6l-0.2 0.3c-2.9 0.8-14.5-1.2-18.2-1.9-8.5-0.5-17-2.2-25.5-3.3-7.8-1-15.7-1.5-23.4-2.8-1.9 0.1-4-0.4-6-0.7 8-9.1 21-18 30.6-26l76.7-63.1c4.6-4 9.7-7.6 14.4-11.5 8-6.6 15.9-14 24.8-19.4z"/>
	<path class="s2" d="m350.4 89.6c9.6-7.3 18.8-16.4 29.2-22.4q-18.4 31.7-36.2 63.8c-9.5 17.2-18.4 35.1-28.8 51.8-5.1-0.4-10.1-1.1-15.2-1.5-2.9-1.3-38.9-5.5-44.1-5.7l-7.7-1c9.6-8.9 20.2-17 30.3-25.4q36-30 72.5-59.6z"/>
	<path class="s0" d="m66.6 98.4c-1.6-3.9-3.2-7.8-4.4-11.8l0.3-0.5c6.3-0.1 15.4 2.8 21.8 4.2l68 14c8.6 1.7 24.3 3.6 31.9 6.6-2.7 4.5-10.9 18.9-14.2 21.7-11.2 18.1-24 35.5-35.9 53.2-4.9 7.2-9.8 14.4-14.5 21.7-1.7 2.5-3.1 5.6-5 8-0.4 0.5-0.8 0.8-1.4 1.2-2.6-1.3-6.2-14.6-7.8-18.2-2.9-7-6.1-14.2-8.2-21.4-2.1-4.2-3.6-8.8-5.3-13.1-4.2-9.7-7.7-19.7-11.5-29.5-4.6-12-9.5-23.9-13.8-36.1z"/>
	<path class="s2" d="m65 88.6q9.4 1.7 18.7 3.8 33.8 7.2 67.7 13.9c9.8 2 19.9 3.6 29.6 6-4.1 6.3-8.3 12.5-12.3 18.8q-19.3 27.5-37.8 55.5c-5.8 8.6-11.1 18.2-17.5 26.1-2.5-4.7-4.1-9.8-5.9-14.9-3-7.9-5.8-16.1-9.3-23.8-1-3.7-2.8-7.4-4.3-10.9-3.6-8.6-6.7-17.5-10.1-26.3l-15.7-40.6z"/>
	<path class="s0" d="m192.1 319.2c6.1-3.4 12.3-7.3 18.7-10-9.6 25.2-20.2 50.1-29.9 75.3l-12.7 33.4c-2.3 6-4.4 12.3-7.2 18.2-10.1-3.3-19.9-7-29.9-10.7-4.6-1.8-9.5-3.3-14.1-5.2-5.6-1.4-11-3.7-16.4-5.6q-12-4.3-24.1-8.3l-4.9-1.9c-5.1-1.8-10.2-3.4-15.2-5.5q-0.2 0-0.4-0.1c-2.6-0.5-7.3-1.4-8.8-3.7 0.5-1.5 1.3-1.7 2.7-2.6 3.9-1.9 7.7-4 11.6-6 10.4-5.7 21.1-11.2 31.8-16.3 7.6-4.4 16.1-8.3 24.1-12.1 2.9-2.7 40-20.7 46-23.9 9.5-4.9 18.9-10.6 28.7-15z"/>
	<path class="s2" d="m206.5 313.6c-2.3 7.6-5.8 15.1-8.7 22.5l-12.3 30.9c-8.7 22-16.6 44.5-25.7 66.5-8.5-2.8-16.8-6.1-25.2-9.2-5.1-1.8-10.4-3.5-15.4-5.5-13.6-4.4-27-9.4-40.4-14.2l-7.4-2.7-8.3-2.9c-3.7-1.7-8.1-2.9-12-4.3 4-2.8 9.1-5 13.5-7.2 10.6-4.9 21.1-10.7 31.4-16.3 7.5-3.4 14.7-7.2 22-10.9q38.4-19.7 76.3-40.1c4.1-2.1 8.1-4.5 12.2-6.6z"/>
	<path class="s0" d="m669.3 829c1.5-7.8 6.9-24.2 10.2-31.2l3.8 8.5q13.2 25.1 26 50.3 6.8 13.7 13.9 27.3c3.1 5.9 6.5 11.8 9.2 18 4.4 7.6 8.2 15.6 12.1 23.5 1.9 3.9 4.3 7.9 5.7 12 1.4 2 2.2 4.1 3.1 6.3-10.6 2.1-21.1 4.3-31.6 6.7-5.1 1.2-11.3 3.3-16.4 3.6-4.7 1.3-9.3 2.3-14 3.3l-49.9 11.9c-6.6 1.5-13.5 3.8-20.2 4.5l1.9-5.7c3.2-9.1 5.7-18.4 9-27.4 5.8-21.8 14.6-45.3 22.1-66.7 5.2-15 9.7-30.1 15.1-44.9z"/>
	<path class="s2" d="m670.4 832.7c0.6-3.7 7.3-26.3 9.3-28.1l1.5 2.4 16.5 32.1c3.1 6.1 6.1 13.4 9.9 19q11.2 22.9 23.2 45.4c4.7 9.5 10 18.7 14.4 28.4l4.6 10.1-32.1 6.9c-4.4 1-10.5 1.6-14.5 3.5-4 1-8.1 2.1-12.2 2.8-7 1.7-63.7 15.8-66 15 0.1-0.7 0.3-1.4 0.5-2.1 3.1-9.2 5.7-18.5 8.9-27.7 0.6-3.5 2-7.1 3.1-10.4 2.6-8.4 5.5-16.8 8.3-25.2z"/>
	<path class="s0" d="m917.6 517.2c2.9-3.3 5.7-6.9 9.2-9.5q0.4 5.7 0.6 11.3c0.2 3.4 0.6 6.8 0.6 10.2 0.5 6 1 12.1 1.1 18.1 0.5 4.1 0.9 8.6 0.8 12.8 1.2 13.4 2 27.1 2.6 40.6v4.2c1.4 10.1 1.4 20.6 2.1 30.8 0.7 9.5 2.1 19.5 1.9 29 0.3 2.6 0.6 5.1 0.5 7.7 1 6.6 1 13.3 1.6 19.9-3.2-1.4-6.6-2.7-9.6-4.4-18.4-8.1-36.2-17.9-54.3-26.6l-36.9-18c-7.7-3.7-15.7-7-23.1-11.2 2.8-4.1 6.4-7.8 9.7-11.5 6.8-7.6 13.8-15 20.6-22.6l45.5-51.4c8.9-10 18.1-19.6 27.1-29.4z"/>
	<path class="s2" d="m924.9 512c0.2 3.4-0.1 8.2 0.9 11.4 0.2 2 0.2 4.1 0.5 6.1l1.3 22.7c0 3.9 0.2 8 0.8 11.9 0.4 10.8 0.1 23 2.1 33.6 0 6.9 0.6 13.8 1.1 20.6-0.4 9.9 1 20.4 1.7 30.3 0.6 8.1 0.7 16.7 2.1 24.6l0.2 4.4c0.1 3.7 0.3 7.4 0.4 11.1l-4.9-2-65-31.9c-16-7.9-31.8-16-48.1-23.2 2.7-3.9 6.4-7.5 9.6-11.1q11.5-13.2 23.2-26.1 33.2-37.7 67.1-74.6z"/>
	<path class="s0" d="m962.3 88.2c1.3-0.1 1.9 0 3.1 0.5 0.5 0.7 0.9 0.9 1.1 1.8 0.4 2.7-1.6 6.6-2.7 8.9-26 54.2-49.9 109.4-74.7 164.1l-108.1 236q-22.1 48.9-44.6 97.5-5.2 11.3-10.2 22.7c-1.7 3.9-3.3 9-5.7 12.5-1.5 2-4.4 3.6-6.9 3.9-9.1 1.3-12.1-9.4-14.8-15.9-21.7-51.9-55.9-96.7-94.4-137.3-7.5-7.9-16.3-18.2-25-24.7q-0.2-0.2-0.5-0.4-43 29.5-86.5 58.2c-1.8 1.1-3.8 2.6-5.9 2.3-0.3-0.3-0.7-0.6-0.8-0.9-0.9-2.1 1.3-21 1.6-25.1 2.4-32 1.3-64.6-6-96-4.9-20.9-12.1-41.3-24.4-59.1-22.5-32.5-62.7-52.8-99.4-64.8-6.3-2.1-12.6-4.3-19-6.1-7.1-1.9-16.7-2.5-22.8-6.3-1.1-1.6-1.6-3-1.8-5-0.4-2.5-1.2-7.4 0.5-9.4 3.3-3.8 29.5-12 35.5-14.1q62.8-22.1 127-39.7c86.6-23.1 174.8-39.6 262.5-58.4q85.7-18.1 171.7-35c17-3.2 34.1-7.9 51.2-10.2z"/>
	<path class="s1" d="m918.9 124.1l0.3 0.1c-1.3 3.1-72.5 68.1-82.1 77.2q-73.2 69.7-144.8 141c-37 36.5-74.8 72.6-110 110.7-9.4-9.3-19.7-17.5-30.1-25.7-9.1-7-19.2-13.1-27.9-20.7 13.4-9.3 26.4-19.6 39.6-29.3l77.9-56.8c9-6.5 18.2-12.6 27.2-19l109.3-77.8q48.7-34.7 97.6-68.9c14.4-10.2 28.5-20.9 43-30.8z"/>
	<path class="s0" d="m615.3 352c1.7-0.1 2.7 0 4.3 0.6 0.7 0.9 1 1.2 0.7 2.4-0.6 2.8-3.7 4.2-6 5.3-0.6 0.1-1.3 0.3-2 0.3-1.3 0-1.8-0.4-2.7-1.4-0.1-0.8-0.1-1.4 0.2-2.2 1.1-3 2.7-3.7 5.5-5z"/>
	<path class="s0" d="m649.5 325.9c1.2 0 1.9 0.3 3 0.8 0.7 1.1 0.8 1 0.6 2.4-3.2 5-15.4 12.5-20.8 16-1.3 0-2.2 0-3.1-1-0.7-0.9-0.9-1.7-0.5-2.8 1.4-3.9 16.8-12.8 20.8-15.4z"/>
	<path class="s0" d="m595.9 366.3c0.6 0.2 0.8 0.2 1.4 0.5 1.2 0.7 1.7 1.8 2 3-0.1 0.5-0.2 1-0.4 1.4-0.8 1.6-44.1 32.5-48.7 35-1.1 0-1.9-0.5-2.8-1-0.8-1.1-0.9-1.2-0.8-2.5 4.1-4.9 19.3-14.4 25.2-18.7 8-5.8 15.8-12.3 24.1-17.7z"/>
	<path class="s2" d="m904.7 125.9l0.4 0.1v0.5c-8.5 7.1-18.5 13.1-27.6 19.5l-64.5 45.3-194.9 139.2-59.3 43.1c-13.9 10.2-28.3 20.2-41.5 31.4-3 10.1-4.8 20.8-7.4 31.1-3.3 13.2-7.2 26.2-11.1 39.2-1.9 6.4-3.4 12.9-5.5 19.3 0.6-7.5 1.2-14.9 1.3-22.4 0.5-31.4-2.2-64.2-11.9-94.2-3.5-10.6-8-20.7-12.3-30.9 51.5-26.7 103.5-52.2 155.2-78.5q98.9-51.4 198.9-100.9 24.8-12.4 49.4-25.4c10.2-5.4 20.3-11.3 30.8-16.4z"/>
	<path class="s1" d="m941.9 98.7c0.6-0.1 1.3 0 1.9 0-2.5 3-35.5 18.4-42.3 21.9l-94.8 48.3-188.7 96.6-109.1 55.4c-13.9 7.1-27.9 13.9-41.7 21.3-18.9-30.7-48-50.9-80.6-65-15.1-7.1-31-12.1-47-16.6-6.4-1.8-13-3.1-19.2-5.3-0.2-0.5-0.4-0.7-0.5-1.4-0.3-1.4-0.5-3.3 0.4-4.5 2.3-3.1 15.9-6.1 20.1-7.8 13.5-5.4 27.3-9.8 41.1-14.4 19.3-6.3 38.5-12.6 58-18.3q23.7-7.1 47.5-13.7 77.8-19.9 156.6-35.4l115-23.9 127-26.1c18.7-3.7 37.5-8.3 56.3-11.1z"/>
	<path class="s0" d="m487.7 203.1c1.6 0 2.7 0.3 4 1.1 0.3 1.1 0.4 1.4-0.2 2.6-1.6 2.9-5 3.9-7.9 4.8-0.4 0.1-0.6 0.2-1.1 0.2-1.3-0.1-1.9-0.7-2.7-1.6-0.2-1.4-0.1-2.2 0.7-3.5 1.7-2.7 4.2-3 7.2-3.6z"/>
	<path class="s0" d="m813.2 129.6q0.3-0.1 0.5-0.1c1.2 0 2.4 0.5 3.2 1.4 0.3 1.1 0.3 1.5-0.2 2.6-1.5 2.7-6.4 3.4-9.1 4-1.6 0.1-2.4 0.1-3.7-0.9-0.7-1.4-0.8-1.4-0.4-2.9 2.2-2.7 6.5-3.3 9.7-4.1z"/>
	<path class="s0" d="m695.5 208.9c1.1 0.1 1.9 0.6 2.9 1 0.8 1 0.7 0.9 0.5 2.2-2.1 3.5-8 5.7-11.7 7.5-0.3 0-0.6 0-0.9-0.1-1.3-0.2-2.3-0.7-3.1-1.8 0.1-0.4 0.1-0.6 0.2-1.1 1.7-3.8 8.5-6.2 12.1-7.7z"/>
	<path class="s0" d="m383.4 257.4c9-0.4 37.7 15 46.7 20.8 3.6 2.2 11 6.2 12 10.6-0.1 1.4-0.6 2-1.5 3.1-0.7 0-1.4 0.1-2.1-0.1-3.1-1.1-11.1-8-14.3-10.1-5.2-3.4-10.9-6.5-16.5-9.2-4.6-2.2-23.4-7.9-24.8-11.8-0.4-1.4 0-2 0.5-3.3z"/>
	<path class="s0" d="m462.1 209.5c1.4 0 1.7-0.1 2.9 0.5 0.8 1.4 1.1 1.7 1 3.3-1 1.9-3 2.8-5 3.5-8.5 3.1-17.9 5.1-26.6 7.7-19.8 5.9-40.2 12.3-59.4 19.9-0.4 0-0.9 0.1-1.3 0-1-0.2-2.2-1-2.6-2.1-0.5-1.2-0.3-1.6 0.2-2.7 5.6-5 77.7-25.5 90.8-30.1z"/>
	<path class="s0" d="m784 137.2q0.8-0.2 1.6-0.2c1.6-0.1 2.7 0.5 3.9 1.5 0.2 1.1 0.4 1.4-0.3 2.4-0.9 1.2-2.4 1.6-3.7 2-13.4 3.7-27.4 5.9-40.9 8.8l-82 17.8c-1.7 0.2-2.5 0.5-4.1-0.2-0.8-1.3-1-1.4-0.9-2.9 1.4-1.8 3-2.4 5.1-3 4.6-1.4 9.5-2 14.2-3l31.6-6.9c25.1-5.4 50.2-11.7 75.5-16.3z"/>
	<path class="s0" d="m669 223.4c0.8 0.2 1.7 0.4 2.3 0.9 1.1 0.8 1 1.5 1 2.7-0.8 1.4-1.6 2.2-3 3-6.4 3.7-13.3 6.9-19.8 10.3l-44.3 22.7-90.8 46.7c-13.1 6.7-26 14-39.3 20.4-1.2-0.2-2.3-0.5-3.1-1.4-0.6-0.6-0.4-1-0.3-1.8 1-1.5 2.4-2.4 4-3.3 7.6-4.4 15.7-8.2 23.5-12.2l52.5-26.9c21.5-10.8 42.8-22.1 64.1-33.2 17.8-9.2 35.7-18.1 53.2-27.9z"/>
	<path class="s1" d="m954.7 102.5c0 3.3-30.6 67.9-35.1 77.8q-81.7 182.1-165.4 363.4-11.1 23.7-21.8 47.5c-3.8 8.6-13.1 32.7-18.1 38.5-0.8 0.4-1.6 0.4-2.5 0.1-3.9-0.8-5.8-8.3-7.2-11.6-10.8-26-21.2-44.1-36.7-67.4-22.8-34.5-51.6-65.2-81.2-93.8 7.3-8.6 15.6-16.6 23.5-24.5l32.5-32.5q58-58.2 117.2-115.2 68.9-68.1 140.3-133.7l32.5-29.6c7.2-6.6 13.9-13.5 22-19z"/>
	<path class="s0" d="m891.1 203.8c0.7 0.1 1.7 0.1 2.4 0.3 1.1 0.5 1.9 1.3 2.3 2.5 0.6 2.5-1.4 5.5-2.7 7.4-0.7 0-1.7 0.1-2.3-0.2-1.4-0.4-1.6-0.9-2.2-2.1-0.3-3 1-5.3 2.5-7.9z"/>
	<path class="s0" d="m884.4 220.2c1.3 0.2 2 0.5 3.1 1.3 0.5 0.7 0.8 1 0.8 1.9 0 3.9-9.4 25.6-12.2 28.4-0.5-0.1-1-0.2-1.4-0.3-1.4-0.5-1.7-0.7-2.4-1.9-0.4-4.9 9.5-24.5 12.1-29.4z"/>
	<path class="s0" d="m713.9 343.4c0.9 0 1.5 0.2 2.3 0.5 1 1.1 1 1.1 1.2 2.5-0.8 1.9-2 3.4-3.3 4.8-12.4 13.3-26 25.4-38.8 38.3q-14.6 14.8-29.5 29.5c-4.6 4.6-9.2 10-14.4 13.7-0.7-0.1-1.4-0.2-2-0.5-1.2-0.6-1.6-1.2-2-2.5 0.3-1.8 0.7-2.2 2-3.6 7-7.6 14.9-14.5 22.2-21.7l39.4-38.6c7.3-7.1 14.7-16.5 22.9-22.4z"/>
	<path class="s0" d="m605.7 454.5c1.4-0.1 2.5-0.1 3.8 0.2 5.6 4.4 10.6 11 15.4 16.3q17.2 18.9 33.2 38.9 15.9 19.9 30.6 40.8c2.3 3.3 6.4 8 7.7 11.8 0.4 1.2 0 2.1-0.6 3.2-1.1 0.3-2.3 0.6-3.4 0.2-1.6-0.5-16.8-22.7-18.7-25.2-6.8-9.3-13.4-18.8-20.8-27.6q-14.5-17.4-29.4-34.6c-3.8-4.3-15.9-15.9-18-20.3-0.6-1.3-0.2-2.4 0.2-3.7z"/>
	<path class="s0" d="m867.8 259.3c0.6 0.1 1.4 0.1 2 0.3 1.3 0.5 1.4 0.8 2 2 0.1 4.3-21.4 48.7-24.5 55.5q-48.7 107.9-98.9 215.2c-3.6 7.7-16.9 39.4-20.9 44.2-0.9-0.2-2.5-0.6-3.2-1.2-0.9-0.8-1.3-1.7-1.2-2.9 0.3-2.5 31.9-68.5 35.2-75.4q17.1-36.4 33.7-73l45.9-100.4c9.2-20.3 17.6-41.1 27.5-61.1 0.6-1.3 1.3-2.2 2.4-3.2z"/>
</svg>