<svg version="1.2" xmlns="http://www.w3.org/2000/svg" viewBox="0 0 1024 1023" width="1024" height="1023">
	<title>crea-una-imagen-vectorial-que-simbolice-la-gesti-n (1)-svg</title>
	<style>
		.s0 { fill: #b9ff66 } 
		.s1 { fill: #2c3446 } 
		.s2 { fill: #2c303b } 
		.s3 { fill: #fefefe } 
		.s4 { fill: #71dd04 } 
		.s5 { fill: #c54449 } 
	</style>
	<path class="s0" d="m496.9 68.9c0.3-1.5 0.3-2 1.5-3.1 4.2-1.3 60.3-0.4 70.2-0.4l99.7 0.1c20.8-0.1 41.6-0.5 62.4-0.2-0.1 24-1 48.4-0.1 72.4 1.1 6 0.4 13.1 0.5 19.2 14.2 10.2 29 19.9 42.9 30.5 5.8 4.5 11.3 9.6 16.9 14.4 4.6 4 9.4 7.8 14 11.9 6 5.5 11.6 11.4 17.3 17.2 14.7 14.8 28.7 29.9 41.3 46.5 39.7 52.5 72.7 121.1 83.4 186.1 9 55 4.6 111.8-7.9 165.8-1.9 8-4.1 16.1-6.5 24-1.1 3.8-2.7 7.6-3.7 11.5 32.7 44 45.6 92.3 37.5 146.8-6.9 46.4-30.8 89.6-68.7 117.7-30.1 22.2-59.9 30.5-96.9 31.4-11.4 0.3-22.8 0.2-34-1.5-32.8-4.9-62.1-20.1-87.9-40.6-20.8 7-41.2 14.6-62.6 19.8q-3.8 0.9-7.6 1.7-3.7 0.8-7.5 1.6-3.8 0.8-7.6 1.5-3.8 0.6-7.6 1.3-3.8 0.6-7.7 1.1-3.8 0.6-7.6 1.1-3.8 0.5-7.7 0.9-3.8 0.4-7.7 0.7-3.8 0.4-7.7 0.6-3.8 0.3-7.7 0.5-3.9 0.2-7.7 0.3-3.9 0.1-7.7 0.2-3.9 0-7.8 0-3.8 0-7.7-0.1-3.9-0.1-7.7-0.2-3.9-0.2-7.7-0.4-3.9-0.3-7.7-0.6-3.9-0.3-7.7-0.7-3.9-0.3-7.7-0.8-3.9-0.4-7.7-1-3.8-0.5-7.6-1.1-3.9-0.5-7.7-1.2-3.8-0.7-7.6-1.4-3.8-0.7-7.5-1.5-3.8-0.8-7.6-1.7-3.7-0.9-7.5-1.8-3.7-0.9-7.5-2-3.7-1-7.4-2-3.7-1.1-7.4-2.3-3.7-1.1-7.4-2.3-3.6-1.2-7.3-2.5-3.6-1.3-7.3-2.7-3.5-1.3-6.9-2.7-3.5-1.4-7-2.9-3.4-1.5-6.8-3-3.5-1.5-6.9-3.1-3.4-1.6-6.7-3.3-3.4-1.7-6.7-3.4-3.4-1.7-6.7-3.5-3.3-1.8-6.6-3.6-3.2-1.8-6.5-3.7-3.2-1.9-6.4-3.9-3.2-2-6.4-4-3.2-2-6.3-4.1-3.1-2-6.2-4.2-3.1-2.1-6.2-4.3-3-2.2-6-4.4-3-2.2-6-4.5-3-2.3-5.9-4.7-2.9-2.3-5.8-4.7-2.9-2.4-5.8-4.9-2.8-2.4-5.6-4.9-2.8-2.5-5.6-5.1-2.7-2.5-5.4-5.1-2.7-2.6-5.4-5.3-2.6-2.6-5.2-5.3-2.7-2.7-5.2-5.5-2.6-2.7-5.1-5.5-2.5-2.8-5-5.6-2.4-2.9-4.8-5.8-2.4-2.8-4.8-5.8-2.4-2.9-4.7-5.9-2.3-2.9-4.5-5.9-2.3-3-4.4-6.1c-5.9-8.3-14.9-19.3-19-28.4l-60.1 0.1c-9.7 0-20.9 1.1-30.3-0.7q-1-0.2-2-0.4-1-0.3-2-0.6-1-0.4-1.9-0.8-1-0.3-1.9-0.8-0.9-0.5-1.8-1-0.9-0.5-1.7-1.1-0.8-0.6-1.6-1.2-0.8-0.7-1.6-1.4c-6.6-6.2-8.8-13.8-9-22.7-0.7-28.4 0.1-57.1 0.1-85.6v-155.4-84-25.4c0-4.7-0.3-9.8 0.2-14.5 0.7-5.3 3.7-10.7 7.4-14.5q0.7-0.7 1.4-1.3 0.8-0.7 1.6-1.3 0.8-0.6 1.6-1.1 0.8-0.5 1.7-1 0.8-0.5 1.7-0.9 0.9-0.4 1.8-0.8 0.9-0.3 1.9-0.6 0.9-0.3 1.9-0.5c7.7-1.8 16.5-1 24.4-0.9q16 0 32 0c14.5-29.3 34-56.7 54.9-81.7 11-13.3 23.6-25.1 36.2-36.9q2.6-2.4 5.2-4.8 2.6-2.4 5.3-4.7 2.6-2.3 5.3-4.6 2.7-2.3 5.5-4.6 2.7-2.2 5.5-4.4 2.7-2.2 5.5-4.4 2.9-2.1 5.7-4.2 2.8-2.2 5.7-4.2 2.9-2.1 5.8-4.1 2.9-2 5.9-4 2.9-1.9 5.9-3.9 2.9-1.9 5.9-3.8 3-1.8 6.1-3.7 3-1.8 6.1-3.5 3-1.8 6.1-3.5 3.1-1.8 6.3-3.4 3.1-1.7 6.2-3.3 3.2-1.6 6.3-3.2 3.2-1.6 6.4-3.1 3.2-1.5 6.4-3 3.3-1.4 6.5-2.8 3.3-1.4 6.5-2.8 3.3-1.4 6.6-2.7 3.3-1.3 6.6-2.5 3.3-1.3 6.6-2.5 3.4-1.1 6.7-2.3 3.4-1.1 6.7-2.2 3.4-1.1 6.8-2.1 3.4-1.1 6.8-2 3.4-1 6.8-1.9 3.4-0.9 6.9-1.8 3.4-0.9 6.8-1.7c25.8-5.9 51.6-9.1 78-11.4-0.1-8.9-0.9-18.6 0.2-27.5z"/>
	<path class="s1" d="m834.5 321.2l1.5 0.7c1.4 3.2 0.5 9 0.3 12.5l-1.3-0.4c-1.9-2.5-0.8-9.6-0.5-12.8z"/>
	<path class="s2" d="m811.5 300.1c3.2-0.2 7.5-0.9 10.5 0.1 0.9 0.3 0.9 1 1.3 1.8q-0.3 0.1-0.5 0.2c-2.8 0.8-8 1-10.6-0.2z"/>
	<path class="s1" d="m791.3 299.7c3.4 0 9.1-1.2 12 0.9l0.1 1.6c-3.2 0.2-9.4 1.3-12-0.7z"/>
	<path class="s1" d="m771.1 299.5c3.1 0.1 9.8-0.8 12 1.3l-0.2 1.5c-2.9 0.2-8.7 1.2-11.1-0.4-0.7-0.4-0.6-1.6-0.7-2.4z"/>
	<path class="s1" d="m831.1 300.1c2.1-0.1 3.2-0.2 4.8 1.1 1.4 3.1 0.6 7 0.4 10.3-0.9-0.3-0.6-0.1-1.4-0.5-2-1.1-0.4-5.4-1.2-7.3-0.3-0.8-1.2-0.8-2-1.1-0.8-1-0.6-1.1-0.6-2.5z"/>
	<path class="s2" d="m383.3 185.2c2.7-0.1 7.4-0.9 9.6 0.8 0.1 1.3 0.1 1.3-0.5 2.4-3 0.3-7.7 1.1-10.1-0.9 0.1-1.3 0.3-1.3 1-2.3z"/>
	<path class="s2" d="m342.5 185.1c2.7-0.1 7.3-0.9 9.3 0.9 0.2 1.3 0.1 1.4-0.4 2.6-2.9 0.2-6.2 0.8-8.9-0.5-0.7-1.4-0.4-1.5 0-3z"/>
	<path class="s2" d="m384.5 829.1c2.8-0.3 6.4-1 8.7 0.9 0.2 1.4 0 1.6-0.7 2.9q-2 0.1-4 0.2c-1.7 0-3.3 0.1-4.7-1.2-0.2-1.4 0-1.5 0.7-2.8z"/>
	<path class="s1" d="m305.5 279.9l1.2 0.5c1.1 1.1 1.1 3.4 1.1 4.9-0.1 2.5-0.2 4.1-2.2 5.9-0.2-0.2-0.9-0.7-1.1-1-1.1-1.4-1.1-5-0.9-6.8 0.2-1.7 0.5-2.4 1.9-3.5z"/>
	<path class="s2" d="m427.4 185.2c1.9-0.1 3.9-0.4 5.6 0.5 1.2 0.5 1.4 0.6 1.8 1.8-0.9 1-2 1.1-3.3 1.4-2.8 0.1-6 0.6-8.2-1.4v-1c1.5-1.2 2.2-1.1 4.1-1.3z"/>
	<path class="s2" d="m362.1 185.2c3.3-0.2 7-0.8 10 0.5 0.8 1.2 0.7 1.4 0.5 2.8-3.2 0.3-7.1 1.2-10.2-0.2-0.7-1.3-0.5-1.7-0.3-3.1z"/>
	<path class="s2" d="m324.9 799.2c0.1 0 0.3 0.1 0.5 0.2 1.1 0.8 1.4 1.7 1.6 3 0.4 2.8 0.5 7.8-1.1 10.2q-0.3-0.2-0.6-0.4c-1.1-0.6-1.4-1.1-1.6-2.3-0.6-3.4-0.8-7.9 1.2-10.7z"/>
	<path class="s2" d="m322 185c3.2-0.1 6.9-0.9 9.9 0.4 0.7 1.3 0.5 1.8 0.4 3.2-3 0.2-6.5 1-9.4-0.1-1.1-1.3-0.9-1.8-0.9-3.5z"/>
	<path class="s1" d="m305.1 184.5c1.4 0.1 2.9 0.1 4.2 0.5 1.2 0.3 2.1 1 2.7 2.1l-0.3 0.9c-1.4 0.8-2.7 0.8-4.2 0.8-0.4 1-0.7 2-1.5 2.7-0.6 0.5-0.9 0.3-1.6 0.2-0.7-1-1-1.7-1.1-2.9-0.1-1.9 0.6-2.9 1.8-4.3z"/>
	<path class="s2" d="m303.6 240.2c1.6 0.2 2.2 0 3.4 1.1 1 3 0.4 6.5 0.3 9.6q-0.2 0-0.4 0c-0.9 0-2.3 0.2-2.8-0.5-1.9-2.2-0.7-7.5-0.5-10.2z"/>
	<path class="s2" d="m303.6 260.2c1.7 0.2 2.4 0 3.5 1.2 1.1 3 0.6 6.8 0 9.8-1.7 0-1.9 0.3-3.1-0.9-1.1-3.1-0.5-6.8-0.4-10.1z"/>
	<path class="s2" d="m402.9 185.1c2.9-0.1 8.6-1 10.8 1 0.1 1.3-0.1 1.3-1 2.4-3 0.3-7.8 1.3-10.4-0.6-0.3-1.4-0.1-1.5 0.6-2.8z"/>
	<path class="s1" d="m304.3 199.2l1.9 0.4c0.5 0.5 0.6 0.5 0.9 1.2 1.1 2.3 0.7 8.2-0.3 10.5-0.8-0.2-1.5-0.4-2.3-0.6-0.4-0.7-0.5-0.6-0.8-1.4-1.1-2.5-0.5-7.7 0.6-10.1z"/>
	<path class="s2" d="m304.5 219.7c1.4 0.7 2.1 0.8 2.8 2.3 1.1 2.6 0.3 7.3-0.6 9.8-0.9-0.1-1.5-0.2-2.3-0.5-0.5-0.5-0.5-0.5-0.8-1.3-1.1-2.7-0.3-7.7 0.9-10.3z"/>
	<path class="s2" d="m324.4 777c0.8 0.2 1.4 0.5 2.1 0.8 1.9 3.1 0.7 8.5 0.3 12l-2.3-0.5c-0.6-0.8-0.9-1.5-1-2.6-0.5-2.6-0.6-7.5 0.9-9.7z"/>
	<path class="s2" d="m443.6 185.1c3.2-0.2 8.4-1.3 11.1 0.6 0.4 1.4 0.2 1.8-0.2 3.2-3.4 0.1-7.6 0.7-10.7-1-0.7-1.3-0.5-1.4-0.2-2.8z"/>
	<path class="s2" d="m341.4 829.1c3.3-0.1 8.5-1.1 11.1 1.1 0 1.4-0.2 1.5-1 2.7-2.3 0.1-4.7 0.3-7.1 0.2-1.4 0-2.6-0.1-3.7-1.1-0.2-1.4 0-1.6 0.7-2.9z"/>
	<path class="s2" d="m323.7 753.2c0.9 0.1 1.6 0.4 2.4 0.7 1.9 3.2 0.8 10.1 0.6 13.8-1.2 0-1.5 0-2.6-0.6-1.8-3.8-0.6-9.9-0.4-13.9z"/>
	<path class="s2" d="m361.6 829c3.5-0.2 9.5-1.3 12.4 0.8 0.4 1.4 0.1 1.6-0.5 3-3.7 0-7.6 0.7-11.1-0.5-1-1.3-0.8-1.7-0.8-3.3z"/>
	<path class="s2" d="m325.1 819.8c0.9 0.5 1.2 0.7 1.9 1.5 0.8 2.3 0.5 4.9 0.4 7.3 1.3 0.5 2.5 1.1 3.8 1.8l0.2 1-1 1.5c-1.3 0-3.1 0.2-4.2-0.4-1.6-0.7-2.5-2.9-2.7-4.5-0.4-2.3 0.2-6.2 1.6-8.2z"/>
	<path class="s1" d="m756.5 293c0.9 0 1.9 0 2.8 0.1 2.2 0.2 4.5 1.7 5.7 3.4 1.2 1.7 1.6 3.7 1.1 5.6-0.6 3-2.6 4.4-5 5.8-1.2 0.2-2.4 0.3-3.5 0.2-1.9-0.2-3.8-1.6-4.9-3.1-1.3-1.8-1.7-4.1-1.2-6.2 0.7-2.9 2.6-4.4 5-5.8z"/>
	<path class="s1" d="m304.8 299.1c1.6 0.1 3.3 0.3 4.8 1.1 2 1 3.7 2.9 4.4 5.1q0.1 0.4 0.2 0.8 0.1 0.4 0.1 0.9 0.1 0.4 0.1 0.8 0 0.5-0.1 0.9 0 0.4-0.1 0.8-0.1 0.5-0.2 0.9-0.2 0.4-0.3 0.8-0.2 0.4-0.4 0.7c-1.6 2.9-4.1 4.2-7.1 5.1-1.7-0.1-3.3-0.3-4.9-1.2-2.1-1.1-3.8-3-4.4-5.3q-0.2-0.5-0.2-0.9-0.1-0.5-0.2-1 0-0.4 0-0.9 0-0.5 0.1-1 0.1-0.4 0.2-0.9 0.1-0.4 0.3-0.9 0.2-0.4 0.4-0.8 0.2-0.4 0.4-0.8c1.7-2.5 4.1-3.5 6.9-4.2z"/>
	<path class="s1" d="m471.7 177.5c1.2 0 2.6 0.1 3.8 0.4 2.4 0.7 4.8 2.5 5.9 4.8 1.1 2.2 1.1 4.5 0.2 6.8-1.2 3.3-3.7 4.8-6.7 6.2-1.5 0.1-2.9 0.1-4.4-0.4-2.2-0.7-4.3-2.4-5.3-4.5-1.2-2.3-1.2-4.9-0.3-7.3 1.3-3.3 3.7-4.7 6.8-6z"/>
	<path class="s1" d="m474.9 779.7q6.6-0.1 13.1 0.3c1.4 4 2.2 8.1 3 12.3 3.3 1 6.2 1.5 9.4 3.1 2.7-3.2 5.6-6.6 9.1-9 4.2 2.5 8.3 5 11.8 8.3q-3.1 5.8-6 11.7l5.2 6c3.3-0.5 6.5-1.6 9.8-2.6 2 2.7 3.5 6.2 4.6 9.3 0.9 2.4 1.3 4.9 0.1 7.3-1.7 3.3-6.5 4.1-9.7 5v9.7c2 0.5 4.1 0.9 6 1.7 1.7 0.6 3.2 2.1 3.7 3.8 1.2 4-3 10.8-4.8 14.5-3.9-0.7-7.7-1.7-11.6-2.8l-5.2 7.4c2.2 3.5 4.3 7.1 6.6 10.5-4.1 4.4-8.6 7.1-14.1 9.5-2.8-2.7-5.2-5.8-7.6-8.7-2.7 1.1-5.1 2.2-7.9 2.8 0 3.9 0.5 8.1-0.6 11.8-1 1.1-1.3 1.1-2.7 1.5-3.4 0-12.2 1-14.5-1.8-2.4-2.7-1.7-9.1-1.6-12.7-2.6-0.2-4.9-0.7-7.3-1.4-2.5 2.6-5 7.5-8.8 8.3-3.3 0.8-10.6-5.9-13.5-8 1.7-3.8 3.8-7.5 5.8-11.2-1.5-2.2-3.1-4.4-4.7-6.5-3.7 0.5-8.6 2.4-12.1 0.3-3.3-2-4.5-9.2-5.4-12.8 3-2.3 6.8-4.2 10.1-6.1-0.4-2.6-0.6-5.2-0.8-7.8-4-2-7.9-4-11.5-6.6 1.5-4.6 3-9.2 5.3-13.5 4.2 0.4 8.2 1.3 12.3 2.3 2.1-2.5 3.8-5.2 5.6-7.9-2-3.7-4.2-7.2-6-11.1 3.8-3.6 8.3-6.7 12.7-9.6 3.5 2.6 6.5 5.6 9.3 8.8 2.7-1.1 5.5-1.9 8.3-2.7 0.4-3.7 0.5-8.3 2.2-11.6 0.7-1.4 1-1.3 2.4-1.8z"/>
	<path class="s3" d="m478.3 807.1q0.2 0 0.5 0c7.3-0.7 14.3 1 20.1 5.7 6.2 5.1 10.4 13 11.1 21 0.7 7.4-2.2 15.1-6.9 20.8q-0.4 0.5-0.8 1-0.5 0.5-1 1-0.4 0.5-0.9 1-0.5 0.4-1.1 0.9-0.5 0.4-1 0.8-0.6 0.4-1.1 0.8-0.6 0.4-1.2 0.7-0.5 0.4-1.1 0.7-0.6 0.3-1.2 0.6-0.7 0.3-1.3 0.6-0.6 0.2-1.2 0.4-0.7 0.3-1.3 0.5-0.7 0.2-1.3 0.3-0.7 0.2-1.3 0.3-0.7 0.2-1.4 0.3-0.7 0.1-1.3 0.1c-7.5 0.4-14.1-0.3-20.5-4.7q-0.6-0.5-1.2-0.9-0.5-0.4-1.1-0.9-0.5-0.5-1.1-0.9-0.5-0.5-1-1.1-0.5-0.5-0.9-1-0.5-0.6-1-1.1-0.4-0.6-0.8-1.2-0.4-0.5-0.8-1.2-0.4-0.6-0.8-1.2-0.3-0.6-0.7-1.2-0.3-0.7-0.6-1.3-0.3-0.7-0.5-1.4-0.3-0.6-0.5-1.3-0.3-0.7-0.4-1.4-0.2-0.7-0.4-1.4-0.2-0.7-0.3-1.4c-1.3-7.6 1-15.9 5.5-22.1 5.1-7.1 12.3-10.4 20.8-11.8z"/>
	<path class="s1" d="m478.6 813.6q0.8-0.1 1.6-0.1 0.7 0 1.5 0 0.8 0.1 1.6 0.2 0.8 0.1 1.5 0.2 0.8 0.2 1.6 0.4 0.7 0.2 1.5 0.4 0.7 0.3 1.4 0.6 0.7 0.3 1.4 0.7c5.6 2.9 9.8 8.3 11.6 14.3 1.7 5.6 0.7 11.4-2.2 16.4-3.6 6.1-9.3 9.3-16 11-5.6 0.2-10.7-0.2-15.6-3.3q-0.5-0.3-0.9-0.6-0.5-0.3-0.9-0.6-0.4-0.4-0.8-0.7-0.4-0.4-0.8-0.8-0.4-0.3-0.8-0.7-0.4-0.4-0.7-0.8-0.4-0.5-0.7-0.9-0.4-0.4-0.7-0.9-0.3-0.4-0.6-0.9-0.3-0.5-0.5-0.9-0.3-0.5-0.6-1-0.2-0.5-0.4-1-0.2-0.5-0.4-1-0.2-0.5-0.4-1.1-0.2-0.5-0.3-1-0.1-0.5-0.2-1.1-0.2-0.5-0.2-1-0.1-0.6-0.2-1.1 0-0.5-0.1-1.1 0-0.5 0-1 0-0.6 0-1.1 0-0.6 0.1-1.1 0-0.5 0.1-1.1 0.1-0.5 0.2-1 0.1-0.5 0.2-1.1 0.1-0.5 0.3-1 0.1-0.5 0.3-1 0.2-0.5 0.4-1 0.2-0.5 0.4-1 0.2-0.5 0.5-1 0.2-0.5 0.5-0.9 0.3-0.5 0.6-0.9c4-6.1 9.8-8.9 16.7-10.4z"/>
	<path class="s3" d="m479.2 818.2c3.5 0.1 6.6 0.4 9.7 2q0.4 0.2 0.8 0.4 0.4 0.2 0.8 0.5 0.4 0.2 0.7 0.5 0.4 0.2 0.8 0.5 0.3 0.3 0.7 0.6 0.3 0.3 0.6 0.6 0.3 0.3 0.6 0.6 0.4 0.3 0.6 0.7 0.3 0.3 0.6 0.7 0.3 0.3 0.5 0.7 0.3 0.4 0.5 0.7 0.3 0.4 0.5 0.8 0.2 0.4 0.4 0.8 0.2 0.4 0.3 0.8 0.2 0.4 0.4 0.9 0.1 0.4 0.2 0.8 0.2 0.4 0.3 0.9 0.1 0.4 0.2 0.8 0 0.4 0.1 0.9 0 0.4 0.1 0.8 0 0.5 0 0.9 0 0.4 0 0.9 0 0.4 0 0.8 0 0.5-0.1 0.9-0.1 0.4-0.1 0.9-0.1 0.4-0.2 0.8-0.1 0.4-0.2 0.8-0.1 0.5-0.3 0.9-0.1 0.4-0.3 0.8-0.2 0.4-0.3 0.8-0.2 0.4-0.4 0.8-0.2 0.3-0.4 0.7c-3.1 5.2-7.8 7.4-13.3 9-4.2 0.2-8.3-0.6-11.8-2.9q-0.4-0.2-0.8-0.5-0.3-0.3-0.7-0.6-0.3-0.2-0.7-0.5-0.3-0.3-0.6-0.7-0.3-0.3-0.6-0.6-0.3-0.3-0.6-0.7-0.3-0.3-0.5-0.7-0.3-0.4-0.6-0.7-0.2-0.4-0.4-0.8-0.2-0.4-0.5-0.8-0.2-0.4-0.3-0.8-0.2-0.4-0.4-0.8-0.2-0.4-0.3-0.9-0.1-0.4-0.3-0.8-0.1-0.5-0.2-0.9-0.1-0.4-0.1-0.9c-0.9-4.7 0.3-9.4 3.2-13.2 3.1-4.1 7.4-6.4 12.4-7.2z"/>
	<path class="s3" d="m825.3 377.1h0.7c4 1.6 4.3 9.1 7.4 11.9 1 1 1.3 1 2.7 0.9 3.8-2.4 5.3-8.4 6.9-12.5q8.8-0.3 17.5 0.9c0.7 4.8 0.9 9.6 1 14.5l7.6 2.4c2.7-2.8 5.2-5.9 7.7-8.9 5.3 2.2 10.3 5.1 15.2 8-0.7 4-1.6 7.8-2.8 11.6 2.3 1.9 4.1 3.8 5.9 6.1 3.8-1.2 7.5-2.9 11.2-4.5 4.5 4.2 7.9 9.1 11 14.5-1.6 3.6-4.1 6-6.9 8.8 1.6 2.7 3.2 5.3 4.9 7.9 3.7-0.2 7.4-0.8 11.1-1.3 0.5 0.8 0.9 1.5 1.4 2.3 2 3.8 5.9 10.3 4.4 14.7-1.4 3.9-5.6 5.4-9.1 7.1l2.1 9.7c3.7 1.7 7.3 3.4 10.9 5.3l-0.1 14.7c-0.8 1.1-1.7 2.1-2.6 3.2-3.3 0.1-6.2 0.5-9.4 1.4q-1.3 4.6-2.7 9.2c2.9 1.9 6.4 3.8 7.5 7.4 1.4 4.6-3 11.1-5 15.1l-13.1-0.2c-1.9 2.5-3 5.1-4 8q2.6 5.3 5.5 10.5c-2.4 2.8-5.3 5.5-7.9 8-1.8 1.9-4.1 3.7-6.8 3.6-3.7-0.1-6-3.1-8.4-5.5q-4.9 2.3-9.8 4.5c0.5 3.8 0.8 7.6 1.1 11.4-5.2 3.7-9.8 6.1-16 7.9-3.3-3-5.3-6.1-7.4-9.9-3.3 0.5-6.5 1.3-9.8 2-0.4 2.5-1 5-1.6 7.5-0.4 1.7-1.1 3.2-1.9 4.8-4.4-0.1-12.7 1.4-16.2-1.6-3-2.6-3-7.5-3.3-11.1-2.9-0.2-6-1.5-8.9-1.2-2.8 0.3-5.2 6.2-7.1 8.4q-0.2 0.2-0.3 0.3-0.4-0.1-0.8-0.1c-3.6-0.8-13.3-3.7-15.2-6.9-2-3.4-0.2-7.6 0.6-11.2-3.1-1.5-6-3-8.9-4.8-3.2 1.9-6 4-8.9 6.4-2.7-1.6-5.4-3.4-7.7-5.6-2.3-2.1-4.4-4.7-4.4-7.9-0.1-4.2 2.9-6.9 5.5-9.7-2.1-3.2-4.5-6.1-6.8-9.1l-12.3 2.7c-3.4-5.2-5.9-10.7-7.6-16.7 3.4-2.7 7-5.2 11-6.9-1-3.3-2.1-6.7-2.7-10.1-4.2-1.4-8.5-2.8-13-3.2-0.5-5.6-0.8-11.2-0.7-16.8 3.8-2.2 7.9-2.8 12.2-3.1l0.2-2.4c0.2-3 0.7-5.5 1.5-8.4-3-1.7-7.9-3-9.5-6.4-1.7-3.6 2.6-12.9 3.9-16.9q6.3 1 12.5 1.7c1.5-3.1 3.5-6 5.2-9q-3.8-3.9-7.6-8c1.5-3.5 3.3-7.6 5.5-10.7 1.3-1.8 3-3.4 5.3-3.7 3.9-0.5 8.1 2.3 11 4.6l5.7-3.7c-1-3.7-3.2-9.2-1.8-12.9 1.7-4.6 9.4-7.3 13.5-9.2l9.3 9.1q3.3-0.5 6.7-0.9c0.6-3.8-0.3-10.9 2-13.9 2.2-2.9 10.2-3.4 13.7-4.1z"/>
	<path class="s4" d="m833.9 406.2c18.8-0.1 35.5 5.6 49.8 17.8q1.3 1.2 2.6 2.4 1.4 1.3 2.6 2.6 1.3 1.3 2.4 2.6 1.2 1.4 2.3 2.8 1.2 1.4 2.2 2.9 1 1.4 2 3 1 1.5 1.9 3.1 0.9 1.5 1.7 3.1 0.8 1.6 1.5 3.3 0.7 1.6 1.4 3.3 0.6 1.7 1.2 3.4 0.5 1.7 1 3.5 0.5 1.7 0.9 3.5 0.3 1.8 0.6 3.5 0.3 1.8 0.5 3.6 0.2 1.8 0.4 3.6c1.3 20.5-5 40.1-18.6 55.6-13.6 15.4-32.7 22.1-52.7 23.5q-0.2 0-0.4 0c-18.1 1.5-38.7-8.6-51.8-20.4-13.5-12.2-21.2-30.7-22.2-48.7q0-0.9-0.1-1.8 0-1 0-1.9 0-0.9 0-1.8 0-0.9 0-1.9 0.1-0.9 0.1-1.8 0.1-0.9 0.2-1.9 0.1-0.9 0.2-1.8 0.1-0.9 0.2-1.8 0.1-0.9 0.3-1.9 0.1-0.9 0.3-1.8 0.2-0.9 0.4-1.8 0.2-0.9 0.4-1.8 0.2-0.9 0.4-1.8 0.3-0.9 0.6-1.8 0.2-0.8 0.5-1.7 0.3-0.9 0.6-1.8 0.3-0.8 0.6-1.7 0.4-0.9 0.7-1.7 0.4-0.9 0.8-1.7 0.3-0.9 0.7-1.7 0.4-0.8 0.8-1.7 0.4-0.8 0.9-1.6 0.4-0.8 0.9-1.6 0.4-0.8 0.9-1.6 0.5-0.8 1-1.6 0.5-0.8 1-1.5 0.5-0.8 1.1-1.6 0.5-0.7 1-1.5 0.6-0.7 1.2-1.4 0.5-0.7 1.1-1.5 0.6-0.7 1.2-1.4 0.6-0.7 1.3-1.3c13.3-14.7 31.8-22.9 51.4-23.8z"/>
	<path class="s3" d="m872.4 447.6q0.8-0.1 1.6-0.2c3.1-0.2 5.3 0.7 7.6 2.9 1.5 1.4 2.5 3.2 2.6 5.3q0 0.6-0.1 1.2-0.1 0.6-0.2 1.2-0.2 0.6-0.5 1.1-0.3 0.6-0.6 1.1c-3.6 5-8.6 9.2-12.7 13.7-7.5 8.1-15.2 15.8-22.8 23.8-4.4 4.6-8.5 9.6-13.1 14-2 1.9-3.5 2.8-6.2 2.7-6.1-0.1-21.6-18.8-26.4-23.8-3.2-3.7-7.1-6.8-10-10.8q-0.1-1.3-0.3-2.6c-0.2-2.7 0.3-6.1 2.2-8.1 1.4-1.5 3.7-2.2 5.7-2.1 7.2 0.4 23 19.8 28.5 25.5 6.9-7.8 14.4-15.1 21.7-22.7 6.8-7.1 14.6-17.4 23-22.2z"/>
	<path class="s1" d="m496.9 68.9c0.3-1.5 0.3-2 1.5-3.1 4.2-1.3 60.3-0.4 70.2-0.4l99.7 0.1c20.8-0.1 41.6-0.5 62.4-0.2-0.1 24-1 48.4-0.1 72.4-0.3 8.1 0 16.2 0 24.2v42.8l0.3 150.6-233.8-0.3v-183.5c0-34.2 0.7-68.5-0.2-102.6z"/>
	<path class="s3" d="m525.9 261.5q33.6-0.1 67.2 0.1 0.2 21.2 0.1 42.3c0 8.3 0.5 16.9-0.3 25.2-22 1.2-45.1 0.3-67.1 0.2q-0.3-33.9 0.1-67.8z"/>
	<path class="s4" d="m540.6 276c12.8-0.8 26.1-0.1 38.9 0 0.9 10.7 1 28.9-0.1 39.4-12.8 0.7-25.9 0.2-38.8 0.1-0.5-5.7-0.2-11.7-0.2-17.4 0-7.3-0.2-14.7 0.2-22.1z"/>
	<path class="s3" d="m527.2 93.7c22-0.3 44.1 0 66.1 0.2 0.3 22.4 0.6 45.1 0 67.5l-0.8 0.5-66.4 0.1c0-8.1-1.2-65.3 1.1-68.3z"/>
	<path class="s4" d="m540.1 107.6l40.4-0.1q0.1 20.1-0.2 40.2l-40.2 0.2c-0.3-13.4 0-26.9 0-40.3z"/>
	<path class="s3" d="m526.4 177.7q33.4-0.2 66.8 0.1c0.1 6.7 0.8 66-0.8 68.3q-33.1 0.4-66.1 0.1c-0.8-22.2-1.1-46.4 0.1-68.5z"/>
	<path class="s4" d="m540.3 192c13.3-0.1 26.8 0.4 40.1 0.5 0.2 13 0 26-0.2 39l-39.9 0.6z"/>
	<path class="s3" d="m622.6 261.2q40.6-0.2 81.2 0.2c0.8 22.7 0.2 45.6 0.2 68.4-27.1 0.5-54.4-0.3-81.5-0.5 0-22.6-0.7-45.4 0.1-68.1z"/>
	<path class="s1" d="m632.2 302.6c10.6-0.4 21.4-0.2 32-0.2 5.1 0 10.3-0.4 15.5-0.2 2.3 0.1 5.5 0.4 7.1 2.4 0.7 1 0.8 2.4 0.6 3.6-0.4 1.5-1.4 2-2.6 2.8-10.4 0.3-20.9 0.2-31.3 0.3-6.3 0.1-13.4 0.8-19.6-0.2-1.4-0.2-2.3-0.5-3.3-1.4-0.6-0.8-0.9-1.4-0.9-2.4 0-2.1 1-3.4 2.5-4.7z"/>
	<path class="s1" d="m631.6 278.5c15.8-0.5 31.7-0.3 47.5-0.2 2.8 0 6.5-0.2 8.6 1.9 0.5 1.2 0.7 2 0.5 3.3-0.3 1.8-1.2 2.6-2.5 3.5-10.4 0.3-20.9 0.1-31.4 0.1-6.4 0.1-13.1 0.6-19.5 0.1-1.4-0.1-2.9-0.3-4.1-1.2-1-0.6-1.6-1.5-1.6-2.8-0.1-2.1 1.1-3.3 2.5-4.7z"/>
	<path class="s3" d="m621.9 94c27.3-1.1 54.9-0.2 82.3-0.1-0.1 22.6 0.2 45.2-0.1 67.8-27.3 1-54.9 0.2-82.3-0.1-0.3-22.5-0.1-45.1 0.1-67.6z"/>
	<path class="s1" d="m630.7 110.6q16.7 0.2 33.4 0.3c6.5 0 13.9-0.8 20.2 0.3 1.3 0.2 2 0.6 3 1.5 0.6 1.2 0.9 2.2 0.5 3.5-0.4 1.5-1.2 2-2.5 2.8-10.5 0.4-21.1 0.1-31.6 0.1-7 0-14.5 0.5-21.4-0.3-1.5-0.2-2.3-0.5-3.4-1.5-0.6-1.1-0.9-1.5-0.8-2.8 0.2-1.8 1.3-2.8 2.6-3.9z"/>
	<path class="s1" d="m629.6 132c6.4-0.4 54.2-0.6 56.3 1 0.8 0.7 1.2 1.5 1.3 2.6 0.3 1.8-0.5 3.2-1.6 4.7-7.7 1.1-16.4 0.3-24.2 0.3-9 0-18.4 0.4-27.4-0.2-1.8-0.2-3.4-0.4-5-1.2-0.5-0.8-0.9-1-1-2-0.4-2.1 0.4-3.5 1.6-5.2z"/>
	<path class="s3" d="m668.6 176.8q17.7-0.2 35.4 0v69.6c-15.4 0.3-30.8 0.1-46.3 0.1l-35.7-0.1c-0.2-23.1 0.3-46.4 0.5-69.6 15.3-0.3 30.7 0 46.1-0.1z"/>
	<path class="s4" d="m637.1 194.3c16.1 0 32.5-0.8 48.5 0 0.5 4.9 1.3 30.1-0.3 33.4l-1.2 0.1c-7.6-0.2-45.2 0.7-49.3-1.1-0.3-0.8-0.5-1.5-0.6-2.3-0.4-3.9-1.1-28 0.5-29.9z"/>
	<path class="s1" d="m654.8 553.6c-1.5 4.2-3.3 8.2-7.5 10.4-3.5 2-8.7 2.3-12.5 1.1-3.1-0.9-5.6-2.9-7.1-5.8-2.1-3.8-2.4-8.5-1-12.6 1.3-3.9 3.9-7.2 7.6-9 3.2-1.5 6.7-1.4 9.9-0.2 5.5 2.2 8.2 5.8 10.3 11h36c5.5 0 11.7-0.6 17.1 0.2 1.5 0.2 1.8 0.2 2.9 1.1 1.1 7.5 0.1 17 0.1 24.7q-0.1 26.1 0.3 52.2c8.6-4.5 17.1-9.1 26.2-12.7 22.4-9 47.5-11.6 71.5-10 47.4 3.2 89.1 25.1 120.2 60.8 32.7 44 45.6 92.3 37.5 146.8-6.9 46.4-30.8 89.6-68.7 117.7-30.1 22.2-59.9 30.5-96.9 31.4-11.4 0.3-22.8 0.2-34-1.5-32.8-4.9-62.1-20.1-87.9-40.6-23.6-21.9-40.6-46.5-51-77.1h-37.5c0.1 2 0.2 3.9 0 5.9-0.1 1.8-0.5 3.3-2 4.5-1 0.3-1.6 0.4-2.6 0.1-1.1-0.3-2.1-0.9-2.6-2-1.1-2.4-1-30 0-32.9 0.6-1.5 1.3-2.4 2.8-3.2 0.9 0.2 1.3 0.1 1.9 0.8 3.6 3.7 2 15.3 2 20.5l36.3-0.1c-10.3-30.1-9.4-63.7-1.3-94.2 9.2-34.7 26.3-63.7 52.4-88.4 8.9-8.3 18.4-16 28.9-22.1 0.1-25.4 0.7-51.1-0.4-76.5z"/>
	<path class="s3" d="m942.8 851.2l2.1 0.4 0.5 0.8c-0.5 5.2-4.8 10.9-7.4 15.4l-0.8 0.7-0.4-0.5c0.8-5.3 3.7-11.9 6-16.8z"/>
	<path class="s3" d="m680.3 906.7c3.6 0.3 7.1 0.4 10.5 1.6 4.6 6.4 10.9 11.3 15.5 17.8q-0.6 0-1.2-0.1c-3.5-0.3-22.2-16.1-24.8-19.3z"/>
	<path class="s3" d="m714.4 695.7q0.2 0 0.4 0.1c3.4 1.2 6.2 10.1 7.9 13.4-0.9 3-2 6-1.8 9.2-1.4 1.2-2.9 2.3-4.3 3.4-2.8-8.7-3.8-17.1-2.2-26.1z"/>
	<path class="s3" d="m705.6 642.4l0.8 0.4c0.1 1 0.3 2 0.1 3-0.6 2.6-5.8 5-8 6.4-6.3 3.9-12.2 9.7-17.6 14.8-2.1 2-4 4.4-6.4 6-1-0.6-1.4-0.7-2-1.8 4.6-7.4 25.1-23.9 33.1-28.8z"/>
	<path class="s3" d="m692.6 662.6c3.6-0.4 7-0.8 10.2 1.1 1.1 0.6 2.1 1.1 3.3 1.5l0.5 0.2c-0.7 4.7-2.8 9.1-3.4 13.8-0.3 2.3 0.2 2.6 1.5 4.4 0.5 2.2-1.3 5.1-1.6 7.4-0.6 4.9 1.9 12.9 0.2 17.3-0.2 0.6-0.4 1-1 1.3l-0.4-0.9-0.8 0.6c-2.2-1.9-4.3-5.4-6.1-7.9-1-2.9-2.2-5.8-3.3-8.7 0.7-1.6 1.3-3.1 2.5-4.4 0.6-0.7 0.9-1 1.3-1.9 0.3-0.7 0.2-0.5 0-1.2l-2.2 0.6c-0.5-0.3-1-0.5-1.5-0.9q-0.2-0.2-0.4-0.4c-5.7 1.8-10.1-0.8-15.2-3.3 0.7-1 2.1-2.4 2.6-3.5 0.6-1.7-0.4-2.9-1-4.4 4.5-4.4 9.1-8 14.8-10.7z"/>
	<path class="s3" d="m740.1 657.2c0.5 0 0.7 0 1.2 0.3 4.3 2.1 6.3 5.1 7.4 9.7l0.1 0.7c1.3 0.7 1.5-1.4 3.1-1.4q0.6 1.1 1.1 2.2l0.4 0.8c1.1 0.3 11.6-3.2 14.2-3.6 3 4.8 7.3 8.6 10.2 13.4-0.2 4.5 2.5 5.4 2.9 8.7 0.3 2.6-0.8 4.9-2.4 6.9-4.1 5.2-8.8 7.3-15.2 8.1-6.7 8.5-10.2 18.6-21.3 22.5-2.4 0.8-5.5 2.2-8 2.1-1.4 0-2.2-0.4-3.2-1.4-1.5-1.6-2.2-4.6-2.9-6.6-2.8-8.7-2.1-11.3 1.9-19.3 0.6-1.2 1.4-2.3 1.5-3.7l-0.8-0.6c-0.7 0.4-1.1 0.6-1.8 0.7 0-1.4 0.2-1.9-0.5-3.1-2.6-0.9-5.8 1.4-8.3 2.2-2.6-0.5-5.9-0.8-7.6-3.3-0.1-2.5 3.2-4.3 4.5-6.3-0.1-4.7-5.4-9.5-7.4-13.7 1.8-2.1 3.7-4.1 5.6-6.1 6.1 1 13.9 1.3 19.4-1.8 1.6-2.5 3.3-5.9 5.9-7.4z"/>
	<path class="s3" d="m711.6 638.6c4.3-3.9 9.4-6.3 14.5-8.9q2.2-1.2 4.4-2.2 2.2-1.1 4.5-2.1 2.2-1 4.5-1.9 2.3-1 4.6-1.8 2.4-0.9 4.7-1.6 2.3-0.8 4.7-1.5 2.4-0.7 4.8-1.3 2.4-0.6 4.8-1.2 2.4-0.5 4.8-0.9 2.4-0.5 4.9-0.9 2.4-0.3 4.9-0.6 2.4-0.3 4.9-0.5 2.5-0.2 4.9-0.4 2.5-0.1 5-0.1 2.4-0.1 4.9 0 2.5 0 4.9 0.1 7.8 0.4 15.5 1.4 7.7 1.1 15.2 2.9c18.6 4.6 50.9 17.9 65.3 30.5-8-2.9-10.5-4.7-19.3-2.9 11.8 12.6 20.4 27 28.5 42.1 5.1-1.8 10.4-1.3 15.2-3 4.8 5.7 10 10.6 16.7 13.9 12.1 22.4 22.4 55.8 19 81.1-3.1 0.5-6.2 0.9-9.4 0.7-1.3 1.6-1.3 2.7-1.1 4.7q0.1 0.8 0.2 1.5c-0.4 0.3-0.8 0.6-1.2 0.9q-0.1 0.3-0.1 0.6c-0.2 1.8 0 3.5-0.1 5.2-0.1 6.6 11.8 22.5 8.6 28-1.9-0.2-2.9-1.5-4.1-2.9-2.6-3.2-8-10-7.5-14.3 0.2-1.8 3-3 3.4-5.2-0.7-1-0.8-0.9-2-1.2-2.1 0.8-2.2 3.2-4.1 4.3-0.9-1.3-0.6-4.2-1.8-4.6-1.9 1.2-3.7 2.1-4.2 4.5-0.7 2.7 0.4 5 2 7.2 1.6 2.1 4.8 4 4.3 6.7-0.2 1.6-0.7 2.7-2 3.6-0.9 0.6-2 1-2.9 1.5l0.4 1.4c-0.5 0.5-0.8 1-1.3 1.4-5.2-3.8 0.4-5.8-1.5-9.2-0.9-1.5-2.8-2.1-4.5-2.6l-0.6 1.1c0.7 1.6 1.1 2.9 1.3 4.6-0.4 1.2-0.9 1.7-2.1 2.1-0.2 0.1-0.9 0.2-1.1 0.3-1.7 0.4-3 1.7-4.3 2.7 2.9 0.5 5.7 1 8.7 1.2 7.1 1.3 16.3 1.8 23.5 1.2q-3 10.3-5.4 20.7c-1.6-0.6-3.2-1.2-4.8-1.7-1.6 2.7-2.8 5.7-6.1 6.6-2.2-0.3-3.2-1.5-4.5-3.2-1.2-1.5-2.2-3.1-3.6-4.5-1.7-1.6-3.8-6.3-3.7-8.6 0.1-1.2 0.5-2.1 1.5-2.7 1.2-0.8 2.3-0.5 3.5-0.3l0.9 0.8-0.4 1.8 0.4 0.4c0.8-0.5 1.3-1.1 2-1.9 0.6 0.5 0.3 0.3 0.8 0.9q0.3-0.3 0.6-0.6c0.7-0.6 1-0.7 1.9-0.9 1 0.7 0.8 0.3 0.9 1.4 0.5 2.4 0 5.5-0.3 7.9 3.3-1.4 8.1-2.7 9.5-6.3 0.8-1.9 0.1-4.1-0.2-6.1-11.2-0.3-22.3-1.5-33.4-1.8 1.6 1.3 8.3 5.3 8.5 6.9 0.3 3-1.8 6.5-2 9.7-2.3 2.8-4.4 6.5-8.2 7-1.7-0.4-2.3-1.2-3.5-2.4l-0.5-0.6c-1.2-7.3-3.6-13.6-3.5-21.2q-22.3-0.4-44.6-0.5c-1.3 26.4-8.4 54.2-18.2 78.7 10.2 2.2 20 5.2 29.5 9.3 8.7-12.5 17.2-25 23.4-39 4.1-9.2 7.1-18.7 10.8-28 1.6 1.9 3.4 3.5 5.3 5.1-5.6 17.3-13 33.2-22.8 48.5-3.4 5.3-7.8 10.3-10.9 15.7 0.6 0.8 0.3 0.6 1.3 0.7 6.4 0.7 23.2-5 29.2-7.3-5.3 3.8-10.4 9-16.3 11.9-6.8 3.2-15.1 3.4-22.2 5.9 1.3-1.3 3.1-2.6 3.8-4.3-3.9 1.5-9.9 8.2-13.5 11.1-2.6 2-5.3 3.8-8 5.6-34.6 22.1-70.1 21.1-106.7 5-6.9-3-14-6.4-19.9-11.1-2.6-2.1-6.6-6.6-10-6.9 1.9 3.7 10.6 10.2 14 13.3-6.8-3.2-13.7-6.3-20-10.6 1.7-2.4 3.3-4.9 5.1-7.2-3.3-4.2-7.3-8.1-11.2-11.6-0.7 1.8-1.3 3.8-2.7 5.2-1.2 0.3-1.4 0.4-2.6-0.3-4.4-2.9-7.2-9.5-7.8-14.6-0.8-6.8-0.2-14-0.7-20.8q2.7 3.2 5.5 6.3c2.8 2.9 13.8 12.3 15.1 14.9 0.7 1.4 0 3.5 0.4 5 1.2 4.6 6.1 9.8 9 13.5 10.8-5.8 21.4-9.7 33.2-12.9-11.1-27-15.1-48.5-17.8-77.6l-22.4-0.1c1.4 2 2.8 4 4 6.2 5 1.6 9.8 3.5 14.7 5.5 1.6 3.5 4.4 6 5.1 9.9 0.2 1 0.4 3.4 0 4.3-1.4 2.6-7.6 8.1-9.9 11.1-1.9 2.5-1.8 5.9-3.5 8.5-1.7 2.6-4.7 4.4-6.5 7-2.3 3-3.9 6.8-6.1 10 0.2 2.6 0.1 5.2 0.1 7.7-4.9-4.3-9.4-9-14-13.7-2.5-2.6-4.6-5.6-6.7-8.4l1.3-6.7c-5-7.2-14-10.7-18.5-17.2-2.6-3.8-3.4-11-0.4-14.9 1.7-2.1 4.4-3.7 5.7-6.2 0.9-1.8 1-4 1.3-5.9l-0.1-0.2c-4.7 4.2-5.9 0.8-11.1 1.9-0.5 1.2-0.9 2.4-1.9 3.3-2.7-0.1-4.8-3.2-6.5-5-0.4 0.7-1 1.4-1.3 2.1-6.2-0.8-12.5-0.9-18.8-1.2 5 18.8 14.6 38.7 25.9 54.5 4 5.7 8.8 10.7 12.8 16.3 0.9 1.2 1.6 2.2 1.4 3.7-0.7 0.4-1.4 0.8-2.1 1.3-0.9 0.6-0.8 0.5-1.8 0.5-11.7-10.8-35.2-45.1-38.3-60.8l0.7-0.5c0.9 0.3 1.8 0.5 2.9 0.5 0-1.2-0.2-2.1-0.5-3.2-1.4-5.6-1.9-1.8-5.4-3.9-1.8-4.1-2.5-9-3.5-13.4-6.1-26.4-4.8-51.8 1.7-78 4.8-19.3 12.5-35.2 23.1-52 1.6-2.5 3.7-6.8 6.1-8.5 1.4-1.2 2.7 0.2 4.3 0 1.2-0.2 2.8-2.1 3.9-2.6 1.3-0.5 1.7-0.3 2.8 0.2-0.3 4-3.4 10.9-2.7 14.3l1 0.6c3.7-0.6 7.2 0.3 10.8-0.2 3.9-0.4 0.4-6.5 2.2-8.8 0.6-0.1 1.7-0.3 2.3-0.1 0.8 0.1 1.5 0.4 2 1.1 2 2.6 0.2 9.5-0.1 12.6 7 8 11.7 18.5 19.3 26 1.1 8.5 5.8 7.6 10.6 13.2q0.2 0.2 0.5 0.5c-0.3 2.6-0.7 5.2-1 7.8-4.7 0.8-7.7 3.6-11.4 6.4h-5.3q-0.8 0.7-1.5 1.5c-3 3.2-4.4 7.2-7.2 10.5 13.6 0.2 27.3 0 40.9 0 0.8-5.5 1.2-11.1 1.9-16.6 0.8-6.8 1.9-13.8 2.2-20.7l7.1-2.2c-1 13.2-3.7 26.3-4.7 39.6 9.1 0.7 18.6 0.3 27.7 0.2 3.9 0 8-0.3 11.9 0.1 2.1 0.2 3.9 0.6 5.2 2.2-0.1 0.9 0 1.1-0.7 1.8-0.5 0.6-1 1.1-1.8 1.3-6.2 1.8-34.4 0.8-42.8 0.8-1.5 16.1-0.4 33.2 0.7 49.3l13.2-0.1c-0.8-7.3-0.4-14.8-0.1-22.2 4.5-4.2 6.6-10.1 10.6-14.8 2.8-0.8 5.6-1 8.1-2.5q0.1-0.2 0.2-0.5 0.1-0.2 0.2-0.5c2.2-5.4 9.6-2.8 12.9-6.1 1.5-1.6 2.2-5.1 1.9-7.2-0.1-1.4-1.3-2.4-2.5-3.1-2.4-1.3-5.4-1.7-8-1v1.3h-1.2l0.9 0.4c-1.4-2.2-3.3-2.3-4.9-4.2 2-2.2 3.8-4.3 5.5-6.8 1.3-1.9 1.2-3.4 1.1-5.6 2.6-2 4.3-4.8 7.1-6.3 1.6 0.1 1.9 0.8 3 2q0.1-0.2 0.3-0.3 0.3-0.3 0.6-0.5c3.9-3.6 12.1-5.7 14.4-10.4 1-2.1 0.4-3.9-0.1-6-1.1 1.1-2.5 1.1-3 1.7l-0.3 0.4c-1 1.3-1.6 2.3-2.1 3.7-1.5 1.5-3.4 1.7-5.3 2.3 0.6-9.2 0.4-18.6 0.5-27.9l0.3-56.7c-8.9-0.3-17.7-1.2-26.6-1.5q-3.1 8-5.2 16.3l-8.1 2.7c1.8-6.9 4.1-13.2 6.9-19.8-11.4-1.5-22.3-3.6-33.3-6.8-5.5 6-10.4 12.6-16 18.4-0.6-4.6-0.6-8.4 0.3-13q2.9-2.1 5.9-4.1c-2.2 1-4.4 1.9-6.5 3z"/>
	<path class="s1" d="m655 820.2c1.5 1.9 2.8 3.8 4.6 5.4-0.4 0.7-1 1.4-1.3 2.1-1.9-1.8-3.8-3.5-5.2-5.8 0.7-0.5 1.3-1.2 1.9-1.7z"/>
	<path class="s2" d="m800.6 718.4l2.2-1.1c0.3 3.3 0.2 6.8 1 10.1-1.1 1.1-2.5 1.1-3 1.7-0.6-3.5-0.8-7.2-0.2-10.7z"/>
	<path class="s2" d="m946.9 786.6l-1.5-1.5c-1.2-0.3-2.1-0.5-3.2-1.2-0.1-1.6 0.3-2.2 0.9-3.6q0.6-0.2 1.3-0.5l0.4-0.1c-0.2-0.9-0.3-1-0.1-2 0.7 0.8 1 1.4 2 1.7 0.7-0.6 1-0.9 2-1.2l0.3 1.3c-1.3 1.6-1.3 2.7-1.1 4.7q0.1 0.8 0.2 1.5c-0.4 0.3-0.8 0.6-1.2 0.9z"/>
	<path class="s2" d="m928.9 812.1c-1.8-2.6-2.8-7.8-2.3-11l0.6-0.3c0.5 0.4 1 0.8 1.4 1.3 1.3 1.5 4.3 6.2 4.1 8.1-0.2-0.1-0.9-0.2-1.1-0.3-0.8-0.3-1.4-0.6-2.3-0.9-0.4 1-0.1 1.1 0.2 2z"/>
	<path class="s1" d="m854.7 627.5c4.9 0.3 22.1 8.7 26.4 12-3-0.3-5.7-0.2-8.7 0.1-5-4.9-11.5-9-17.7-12.1z"/>
	<path class="s2" d="m837.9 809.5c-2.1-3.3-5.5-5.6-7.6-8.8-0.7-1.1-0.8-1.7-0.6-3 6.2 7.2 12.1 11.8 20.2 16.6 2.7-4.7 4.7-8.8 5.8-14.1l0.4 0.4q-0.4 9.2-1.2 18.4c-2.7-0.1-8.2-0.9-10.2 0.9l-0.2-0.6c0.5-2.5 1.2-4.5 0-6.9-1.8-1.7-4.4-2.2-6.6-2.9z"/>
	<path class="s1" d="m638.2 820.8c-1.1-4.9-3.6-18.5-2.1-22.7l1-0.3c1.4 0.6 1.9 4.3 3.1 5.8 3.8 4.8 8.3 9 12.2 13.6q0.1-1.1 0.1-2.2c0.1-2.4 0.1-5.4 1.5-7.5 0.4-0.7 0.4-0.5 1.3-0.7 0.9 3.7-1.5 8.3-0.5 12.8q0.1 0.3 0.2 0.6c-0.6 0.5-1.2 1.2-1.9 1.7-4.2-1.3-10.4-0.9-14.9-1.1z"/>
	<path class="s1" d="m689.7 714.1c0.8 0 1.6-0.2 2.4-0.1 0.7 0.1 1.2 0.2 1.7 0.8 1.8 2.3 0.8 7.5 0.7 10.4-1.5 2.2-3 4.1-4.8 6-2.8 0.7-5.6 1.2-8.6 1.5-1.2 0.2-1.7 0.2-2.8-0.2-2.4-2.6-1.4-6.3-1.3-9.6 0.5-0.9 1-1.8 1.6-2.6 2.7-3.6 6.8-5.5 11.1-6.2z"/>
	<path class="s1" d="m798 765c3.2 0.5 6.2 0.6 9.4 0.4 1.7 1.5 3.4 3.1 5.1 4.6 3.7 3.3 11.6 2.5 14.1 6.6 0.5 0.7 0.1 1.1-0.2 1.9-1.5 1.5-2.6 2.2-4.6 3-4.1 1.7-8.1 3.8-12 5.8-14.5-7-6.6-15.9-11.8-22.3z"/>
	<path class="s1" d="m792.7 618.8l0.7 0.2c1.7 2.5 0.6 21.8 0.6 26.1-7.1-0.1-14.1-0.3-21.1-0.7-1.2 0-0.7 0.2-1.6-0.6 0-0.3 0.1-0.8 0.2-1.1 2.2-7.8 13.7-20.2 21.2-23.9z"/>
	<path class="s1" d="m800.6 618.5q3.3 0.7 6.5 1.8c6.7 2.2 16.3 16.7 19.5 23.2l-0.3 0.6c-8.4 1-17.2 0.9-25.7 0.9 0.1-8.8 0-17.7 0-26.5z"/>
	<path class="s1" d="m777.1 620.7c0.8-0.2 1.5-0.1 2.4-0.1-1.7 2.5-4.1 4.5-5.9 6.9-3.7 5-6.5 10.7-9.3 16.2q-12.7-1.6-25.4-3.7c-2.7-0.5-5.3-1.2-7.9-1.9 12.2-11.3 30.3-14.8 46.1-17.4z"/>
	<path class="s1" d="m816 619.3c8.3 1 17.9 3.3 25.7 6.4 4.1 1.6 22.6 10.6 24.3 14.6l-3.7 0.6c-9.6 1.4-19.4 2.1-29.1 3-5-9.1-10.2-16.9-17.2-24.6z"/>
	<path class="s1" d="m840.1 909.2q13.7 3 26.8 8.2c-4.3 7.7-20.1 17.1-28.2 21-6.4 3.3-13.8 5.4-20.8 7.1 9.3-10.8 16.5-23.3 22.2-36.3z"/>
	<path class="s1" d="m754.3 912.6l0.2 0.5v-0.7l1.2 1.5-0.5 0.4 0.6-0.1c5.7 11.6 12.3 22.4 21.7 31.5-8-1.2-15.1-3-22.6-5.9q-4.1-1.6-8-3.3-4-1.8-7.8-3.8-3.9-2.1-7.6-4.3-3.7-2.3-7.2-4.8c9.8-4.9 19.2-8.6 30-11z"/>
	<path class="s1" d="m855.7 800.2l0.1-0.7c0.6-7.7-7.5-11.7-9.5-18.9-1.2-4 2.7-13.4 1.4-15.3q-0.4-0.1-0.7-0.2c-0.9-0.2-0.6-0.1-1.2-0.6 2.4-0.5 4.8-0.6 7.1 0.5l0.4 0.8-1.6 0.5c-0.3 0.9-0.1 1.7 0 2.7l-0.5 0.4-1.6-1.2c-1.9 2.4-2.5 8.4-2.2 11.3 0.5 3.9 2.5 7.4 5.7 9.7 4.4 3.2 10.5 3.8 15.7 2.7q0.4-0.1 0.7-0.2c1.6 1.1 3.2 2.1 4.6 3.4 1.3 7.3 3.5 12.1 7.6 18.3 2.6 0.8 6.9 2.7 9.6 2.3 1.2-1.8 1.6-4.5 2.3-6.6 1-3.1-1.5-7.2 1.9-9.2 1.9 1 1.9 3 4 4l0.5-0.4c-0.4-0.7-0.8-0.9-0.6-1.7l0.8 0.2q0.1 0.2 0.3 0.3c1.1 1.7 2.3 2.3 4.1 3.1 0.5 0.9 0.9 1.8 1.3 2.9q-1 0.2-2 0.3c-1.6 1.5-4.1 4.2-4.2 6.6 0 0.6 0.1 1.2 0.6 1.6 1.4 1.1 3.7 2.1 5.4 2.2l0.7-0.6q0-1.4 0-2.8c-0.1-1.5 0-2.1 0.9-3.4 2.4-1.2 3.9-0.6 6.3 0.2l0.7 0.2c-0.1-1.5 0.1-2 0.6-3.5 0.3-0.7 0.4-1.5 0.5-2.2l0.7-0.2c1.4 1.9 2.2 4.9 2.4 7.3l-0.4 0.8-1.5 0.1c-0.8 1.1-0.7 2.2-0.8 3.5l-0.9 1.3c-1.1 0.7-1.9 0.9-3.1 0.9-6.1 0-12.3-0.9-18.3-1.2-10.7-0.5-21.5-0.4-32.2-0.4q0.4-10.6 0.1-21.2c-1.4-0.6-2.5-1.2-4-1.1-1.1 1-1.1 2.5-1.3 3.9z"/>
	<path class="s1" d="m790.9 906.2l1.8-0.1c2.1 2.8 2 35.3 1.9 41-8.7-0.6-12.5-4.3-18-10.5-6.6-7.8-11.4-16.6-15.7-25.8 10-1.9 19.9-3.5 30-4.6z"/>
	<path class="s1" d="m869.9 645.7l1.4 0.2c12.9 9.9 20.2 26.1 29.2 39.3l0.3 0.5c-1.8 1.1-4.9 4.5-6.8 4.5-0.5-1.3-1-2.8-2.4-3.4-2.4-1-6.5 0-8.9 1 0.6 1.9 4.2 2.3 5.5 4 0.9 1.2 0.8 1.4 0.6 2.7-1.4 1.8-3.5 2.8-5.4 3.9-0.5-2.1-0.7-4.1-2.4-5.5-0.9-0.8-0.9-0.9-2-0.9-1.6 2.3-1.4 5.1-2.5 7.5-0.4 0.8-1.6 0.9-2.4 1.2-5.3 2.2-10.9 0.9-15.3 5.6-1 1-2 2.3-3.2 3.2-1 0.8-1.7 0.8-2.9 0.8-1.2-1.6-3.2-16.2-3.7-19.1-2.9-14.5-7.9-28.2-13-42.1 11.4-0.5 22.7-2 33.9-3.4z"/>
	<path class="s1" d="m800.5 651q14.5-0.4 29.1-1.2c8.4 19.7 13.6 39.4 16.9 60.6-0.4 0.9-0.8 1.9-1.4 2.6-1 1.4-2.6 1.6-4.2 1.7l-4.3 0.3c-2.8 0.2-5.3 0.9-8 1.7-1-1-2.1-1.9-3.2-2.7-3.1-2.3-15.2-8.9-18.7-8.1-1.5 0.3-2.6 8.9-3.6 10.9q-0.2 0.2-0.3 0.5l-2.2 1.1c-0.4-0.3-1.6-1.3-1.7-1.7-0.3-0.6 1.2-14.8 1.3-16.8 0.6-16.2 0.2-32.6 0.3-48.9z"/>
	<path class="s1" d="m714.6 772.8l19-0.2c-0.2 16.3-1 33 0.7 49.3-10.9 0-22 0.4-32.9-0.3-2.1-4-4-7.5-7.2-10.7-4.4 0.6-8.2 0.5-12.7-0.1-0.1 3.3-0.4 6.2-1.2 9.3-3.8 1-7.2 1.5-11.2 1.2 0-2.9 0.2-5.7 0.4-8.6-2.6-3.2-4.2-5.2-8.4-6.2-1-0.3-2.4-0.4-3.3-0.9-3-1.6-3.7-7.1-4.5-10.1 1.9-3.1 4-6 7.7-6.8 2.1-0.4 4 0 5.8 1.2 2.5 1.8 4.3 4.8 4.9 7.8 0.2 1.3 0.5 2.4 0.9 3.7 1.2 0.7 2 0.9 3.3 1 0.2-0.7-0.4-12.8-0.3-15.2q0.1-0.3 0.2-0.5 0.2-0.3 0.4-0.7c2.5-4.1 10-9.3 13.7-13.1z"/>
	<path class="s3" d="m673.7 803.1c1.4 0.3 2 0.4 3 1.5 2.6 2.7 2.9 7.1 2.6 10.6h-0.8c-3-2.5-4.2-8.4-4.8-12.1z"/>
	<path class="s1" d="m844.5 819.3l0.2 0.6q-0.1 0.2-0.1 0.4c-0.4 1.6-0.7 2.4 0.3 3.9 2.8 1.3 6.7 0.7 9.7 0.7-1.5 24.9-8.9 54.4-18.5 77.5q-12.3-2.5-24.9-3l-3.2 5.5c8.6 0.6 17 1.6 25.5 3-3.9 9.9-8.9 19.9-15.2 28.4-5.3 7-9.2 9.8-17.9 11.1 0.1-11.5-0.6-22.8-0.9-34.2-0.1-2.7 1.2-5.7 0.9-8.3-0.9-7.4-5.2-15.1-7.2-22.4-0.2 5.8 0 11.6-0.3 17.5-11.9 1.1-23.1 2.3-34.8 5.2-9.5-20.9-15.6-53.9-16.8-76.8 6.2-0.3 12.3-0.5 18.4-0.4l4.7 4.7c3-1.2 5.7-2.8 8.4-4.3 4.2 0.2 10.6-0.7 14.3 1l0.8 3.4c0.5 2.2 1.1 3.5 2.5 5.4 0.5 0.7 0.4 0.8 0.4 1.6l-1.4-0.7-0.2 0.4c2 4.4 6.8 4.8 9.5 8.2 1.2 1.6-0.4 4.3-0.3 6.3 0 1.2 0.5 1.7 1.3 2.5 0.6 0.8 1.1 1.4 1.6 2.2-1.6-0.4-3-0.9-4.4-1.7-2-3.4 1.3-5.4 0.6-8.8-0.8-1.2-1.5-1.9-2.9-2.4-1.1-0.3-2.2-0.6-3.3 0-0.5 3.6 0.3 7.1 0.3 10.7 0.2 9.2 0.8 18.5 3.5 27.3 2.7 8.5 6.3 16.2 7.9 24.9 5.3-4.8 5.3-8.8 9.3-13.8 2.7-3.4 7-5.3 9.8-8.6 2.9-3.4 4.9-7.4 7.1-11.3 2.1-3.6 4.6-6.9 6.6-10.6 2-3.7 3.6-7.7 5.6-11.5-0.9-5.7-3.1-9.8-5.7-14.8q3.3-3.9 6.7-7.6c0.3-3.6 0.8-7.7 2.1-11.2z"/>
	<path class="s1" d="m130.2 332.1l194.7 0.2q35.7-0.2 71.4-0.1c9.7 0.1 20.3-0.7 29.8 0.6 6 0.8 11.5 3.4 15.8 7.8 4.3 4.3 6.6 9.4 7.5 15.4 1.2 7.3 0.6 15.1 0.6 22.4l-0.1 37.9-0.2 90.9c-0.1 19.1-0.6 38.3 0 57.4 36.4-36.6 72.1-73.8 107.9-110.9l28.5-29.8c4.5-4.6 8.3-9.5 13.6-13.3 5.7-4.2 14.4-6.4 21.5-6.4 11-0.1 21.9 4.7 29.6 12.5q0.7 0.7 1.4 1.4 0.7 0.8 1.4 1.6 0.6 0.8 1.2 1.6 0.6 0.8 1.2 1.7 0.6 0.8 1.1 1.7 0.5 0.9 1 1.8 0.5 0.9 0.9 1.8 0.4 1 0.8 1.9 0.4 1 0.7 1.9 0.4 1 0.7 2 0.2 1 0.5 2 0.2 1 0.4 2 0.2 1 0.3 2 0.2 1 0.2 2 0.1 1.1 0.1 2.1 0.1 1 0.1 2c-0.3 19-14.6 31.9-27.4 44.2-1.9 1.8-4 3.5-5.8 5.4-2.2 2.4-4.8 7.2-8.2 7.7q-0.3-0.3-0.5-0.5c-0.6-0.5-1.1-0.9-1.7-1.3-2.4 1.5-4.4 4.8-6.4 6.9-5 5.3-10.2 10.5-15.3 15.7l-86.4 86.8q-16.4 16.3-32.5 32.7c-5.2 5.3-11.2 10.6-15.7 16.5l-12.9 3.6-0.2 38.4c-0.1 7.9 0.7 16.6-1 24.4-1.2 5.6-3.7 11.3-7.8 15.4-4.3 4.4-10.1 7-16.2 7.8-9.3 1.2-19.4 0.5-28.9 0.5h-52.8l-176.7 0.1-60.1 0.1c-9.7 0-20.9 1.1-30.3-0.7q-1-0.2-2-0.4-1-0.3-2-0.6-1-0.4-1.9-0.8-1-0.3-1.9-0.8-0.9-0.5-1.8-1-0.9-0.5-1.7-1.1-0.8-0.6-1.6-1.2-0.8-0.7-1.6-1.4c-6.6-6.2-8.8-13.8-9-22.7-0.7-28.4 0.1-57.1 0.1-85.6v-155.4-84-25.4c0-4.7-0.3-9.8 0.2-14.5 0.7-5.3 3.7-10.7 7.4-14.5q0.7-0.7 1.4-1.3 0.8-0.7 1.6-1.3 0.8-0.6 1.6-1.1 0.8-0.5 1.7-1 0.8-0.5 1.7-0.9 0.9-0.4 1.8-0.8 0.9-0.3 1.9-0.6 0.9-0.3 1.9-0.5c7.7-1.8 16.5-1 24.4-0.9q16 0 32 0z"/>
	<path class="s3" d="m572.5 443.3c6.2 3.8 15.6 14.6 21.1 20l31.6 31c-0.1 1.5-0.9 2.2-1.8 3.4l-0.9 0.3c-5.3-3.7-15.8-15.8-20.8-20.9-10.2-10.2-21.4-19.6-31-30.4 0-1.6 0.9-2.2 1.8-3.4z"/>
	<path class="s3" d="m586.6 427.9c18 17.4 34.9 35.9 52.9 53.2l-2.9 3.1c-3.4-2-8.8-8.7-11.9-11.9l-40.9-41.2z"/>
	<path class="s3" d="m579.9 435.3c5.5 4 11.7 11.6 16.6 16.5l36.1 36.1-3.2 3c-2.1-0.9-46.6-46.2-52.7-52.3z"/>
	<path class="s3" d="m413.1 611.2c4.8 2.9 9.3 8 13.4 11.9q-0.3 0.3-0.5 0.7c-1 1.4-1.7 2.6-1.4 4.3l0.8 0.5c1.6-0.2 2.7-1.4 3.9-2.4 5.2 3.8 9.8 8.8 14.4 13.3-1 0.9-2 1.9-2.8 2.9-0.8 1-0.8 1.7-0.5 2.8l1.1 0.2c2-0.6 3.1-2.3 4.5-3.9 4.9 4.9 10.2 9.7 14.8 14.9l-0.1 0.8-1.8 0.9q-13.2 3.4-26.3 7.3c-8.5-7.3-19.1-12-27.6-19.4 2.9-11.6 5.7-23.1 8.1-34.8z"/>
	<path class="s4" d="m584.7 467.5c5.3 4.4 10.2 9.4 15.3 14l-100.7 101.2c-17.8 18.1-35.9 36-53.4 54.4-4.8-4.7-9.7-9.4-15-13.4 24.4-25.6 49.6-50.5 74.3-75.7q39.3-40.7 79.5-80.5z"/>
	<path class="s4" d="m602 484.3c3.7 1.6 11.9 11.8 15.1 15.1-4.7 3.9-8.9 9.1-13.2 13.4l-30.2 30.1-109.7 111c-5.6-2.7-11.1-10.1-15.5-14.7 9.6-10.4 19.8-20.3 29.7-30.4l91-91.6c10.9-11 22.4-21.5 32.8-32.9z"/>
	<path class="s4" d="m566.5 449.9c5.4 4.9 10.3 10.4 15.8 15.3-6.6 5.8-12.7 12.6-19 18.9q-19.5 19.7-38.7 39.7c-11.9 12.2-24.2 24.1-36.1 36.2-19.9 20.3-39.4 40.7-59.6 60.6l-0.3 0.2c-3.2-0.8-12.2-11.5-14.8-14.3 13.7-13.4 26.8-27.7 40.1-41.5l51.6-52.8c20.1-20.9 40-42.2 61-62.3z"/>
	<path class="s3" d="m96.3 345.2l207.9 0.4h77.7c13.4 0 27.1-0.7 40.5 0.1 3.7 0.3 6.7 0.4 9.6 3.2 6.6 6.5 4.4 20.9 4.4 29.6l-29.2 0.1h-340.8v-0.8c-0.1-7.9-2.1-22.1 4.1-28.1 6-5.9 18-4.4 25.8-4.5z"/>
	<path class="s4" d="m150 355.4l16.2 0.1v14.2q-8.1-0.1-16.2 0z"/>
	<path class="s5" d="m119 355.9h16q0.1 7.3-0.1 14.6c-5.3 0.5-10.7 0.2-15.9 0.2z"/>
	<path class="s5" d="m86 356.1q8.5-0.1 16.9 0v14.7l-16.8-0.1z"/>
	<path class="s3" d="m174.7 388.3c32.3-0.5 64.7-0.2 97.1-0.2l164.7 0.2v124.5c0 21.8-0.5 43.8 0 65.6-8.4 9.5-17.7 18.2-26 27.9-0.7 5.6-2.1 11.2-3.3 16.7-4.1 19-9.8 37.6-13.1 56.7 14.1-4.4 28.2-8.4 42.3-12.9v35.1c0 6.8 0.7 14.4-0.7 21.1-0.6 3-1.9 5.4-4 7.6-2.8 2.8-6.5 4.8-10.3 5.7-7.5 1.9-29.7 0.8-38.7 0.8h-206.9-63.5c-10.5-0.1-21.6 0.7-32-0.4-3.4-0.3-6.5-2-9-4.4-2.5-2.4-4.3-5.6-4.7-9.1-1.1-9.8-0.1-22.1-0.1-32.2l-0.1-72.2 0.1-230.2z"/>
	<path class="s1" d="m220.4 478.6c17.1-0.4 34.4 0 51.5 0 9.6 0 20.2-1 29.7 0.2 1.8 0.2 2.9 0.7 4.3 1.9 0.4 1 0.6 1.5 0.5 2.6-0.1 2.2-1.5 3.4-3.1 4.6-0.9 0.2-1.7 0.3-2.6 0.4-4.7 0.4-9.7 0.2-14.4 0.2h-27.7c-11.2 0-26.4 0.9-37.2-0.2-1.3-0.2-2.1-0.5-3.1-1.4-0.8-0.8-1.1-1.8-1.1-3 0.2-2.6 1.3-3.8 3.2-5.3z"/>
	<path class="s1" d="m250.3 685.3h35.8c4.5 0.1 9.3-0.4 13.7-0.1 1.5 0.1 3.2 0.4 4.5 1.2 1.2 0.7 1.7 1.4 2.1 2.7-0.2 1.8-0.3 3.1-1.7 4.4-3.7 3.3-23.5 1.8-29.5 1.8q-15.2-0.1-30.4 0.1c-6.6 0.1-13.8 0.7-20.3 0-1.7-0.1-3.8-0.5-5.1-1.6-1-0.8-1.5-1.6-1.6-3-0.1-1.2 0.5-3 1.4-3.9 0.7-0.8 1.6-1.2 2.6-1.4 5-1.1 22.2-0.3 28.5-0.2z"/>
	<path class="s1" d="m223 583.7c18.3 0.4 36.7 0.2 55.1 0.3 7.1 0 18.1-1 24.9 0.5 1.3 0.3 2.6 1.1 3.2 2.4 0.6 1.2 0.4 2.7-0.2 3.9-0.8 1.9-2.2 2.5-4.1 3.2-10.5 0-76.9 1.2-81.8-1-1.2-0.5-1.8-1.5-2.1-2.7-0.4-1.5 0-3 0.8-4.3 1.2-1.6 2.4-2 4.2-2.3z"/>
	<path class="s1" d="m219.7 432c15.3-0.8 31-0.2 46.4-0.1l68 0.1c8.1 0.1 30.2-1.2 36.5 0.2 1.2 0.2 1.8 0.6 2.4 1.6 0.8 1.4 1 3.9 0.4 5.4-0.7 1.5-1.6 1.9-3 2.5-8.4 0.4-17 0.1-25.4 0.1h-47.4-47.7c-8.6 0-17.3 0.3-25.9-0.1-1.9-0.1-3.9-0.1-5.4-1.3-1.1-0.9-1.5-2.1-1.4-3.4 0-2.1 1-3.5 2.5-5z"/>
	<path class="s1" d="m219.9 455.1c8.6-0.5 17.3-0.2 25.9-0.2l46 0.1h46.3c9.4 0 18.8-0.4 28.1 0 2.7 0.1 5.2 0.1 7.1 2.2 0.4 1 0.6 1.7 0.5 2.7-0.4 2.2-1.4 3.2-3 4.5q-0.7 0.2-1.5 0.3c-5 0.7-10.7 0.2-15.8 0.2l-32 0.1h-62.1c-12.2 0-24.6 0.2-36.9-0.4-1.3 0-2.5-0.1-3.6-0.9-1-0.8-1.4-1.7-1.5-3-0.1-2.5 0.9-3.9 2.5-5.6z"/>
	<path class="s1" d="m220.4 536.6q0.5-0.1 0.9-0.1c29-0.6 59.2 0.4 88.3 0.4h39.3c6.6 0 13.6-0.4 20.2 0.1 1.3 0.1 2.2 0.4 3.1 1.4 0.9 1.1 1.3 2.5 1.2 3.9-0.1 2.1-1.3 3.1-2.9 4.3-6.4 0.7-13.1 0.3-19.6 0.3l-34.5-0.1c-29.6 0-59.5 0.8-89.1 0-2.1-0.1-6 0-7.8-1-1.1-0.7-1.8-1.8-2-3.1-0.2-2.4 1.4-4.5 2.9-6.1z"/>
	<path class="s1" d="m220.8 661.6c9.1-0.3 18.2 0 27.3 0l52.4 0.1 41.4-0.2c7.1 0 23.5-1.2 29.7 0.8 0.9 0.3 1.2 1 1.6 1.8 0.6 1.3 0.6 2.7 0.1 3.9-0.7 1.8-1.9 2.6-3.5 3.4-23.7 0.7-47.5 0-71.2 0.3q-26.7 0.2-53.4-0.1c-6.7 0-13.6 0.4-20.2 0-2.8-0.2-5.2-0.7-7-2.8-0.5-1.3-0.6-2.2-0.4-3.5 0.4-1.9 1.7-2.7 3.2-3.7z"/>
	<path class="s1" d="m221.8 637.6c32.1-0.9 64.4 0 96.5 0.1h31.4c6.7 0 13.7-0.4 20.4 0.4 1.2 0.8 2.4 1.6 3 2.9 0.5 1.3 0.6 2.5 0 3.8-0.6 1.5-1.8 2.1-3.2 2.7-8.3 1.3-17.5 0.5-25.9 0.5l-53-0.2-47.7-0.1c-6.5-0.1-13.4 0.6-19.8 0.1-1.8-0.2-3.8-0.7-4.9-2.2-0.8-1.2-0.8-3.1-0.4-4.4 0.5-1.9 2-2.7 3.6-3.6z"/>
	<path class="s1" d="m220.9 560.5c10.9-0.5 22.1 0 33 0l64.3 0.2h35.9c4.6 0 9.8-0.7 14.3-0.1 1.5 0.2 3 0.6 3.9 1.9 0.9 1.3 1 3.5 0.5 4.9-0.8 1.8-2.2 2.7-3.9 3.4-22.4 0.8-45.2-0.1-67.7-0.1-24.7 0-49.6 0.7-74.3 0-2.6 0-6.9 0.3-8.7-2-0.9-1.3-0.9-2.9-0.5-4.3 0.4-2 1.5-2.8 3.2-3.9z"/>
	<path class="s1" d="m179 526.7c1.9 0 3.8-0.1 5.5 0.8 1.7 0.8 2.4 2.1 2.8 3.9 0.9 4.6 0.1 17.5 0.1 22.9 0 11.1 0.9 23-0.1 34-0.2 2.5-0.5 5.3-2 7.4-5 2.3-49.1 1.1-58.9 1.2-1.4 0-2.7 0-4-0.4-1.6-0.3-2.8-1.2-3.5-2.7-1.2-2.5-1.3-53.7-1-59.6 0.1-1.9 0.5-3.4 1.2-5.2 1.9-1.2 3.9-1.6 6.1-1.9 5.7-0.6 11.9-0.2 17.7-0.2q18.1 0.1 36.1-0.2z"/>
	<path class="s4" d="m127.8 536.1q24.6 0 49.3 0.4v50.6h-49.4c-0.3-17-0.1-34 0.1-51z"/>
	<path class="s1" d="m126 422.2c7.2-0.2 54.9-0.9 58.3 0.7 1.5 0.7 2.7 2.6 3 4.2 1.1 6.4 0.2 14.2 0.2 20.8-0.1 12.6 0.7 26.3-0.7 38.7-0.1 1.4-0.3 2.5-1.2 3.6-1.4 1.7-3.2 1.9-5.2 2.1-12.9-0.4-25.8-0.1-38.7-0.1-5.1 0-10.6 0.4-15.7-0.1-2.2-0.2-4.7-0.6-6.5-1.9-1-0.7-1.2-1.8-1.3-3-0.6-4.9-0.2-10-0.2-14.9q0-13.7 0.2-27.4c0-5.1-0.8-10.6-0.3-15.7 0.2-1.7 0.8-3.8 2.1-5 1.6-1.7 3.8-1.8 6-2z"/>
	<path class="s4" d="m127.6 432l49.6 0.1q0 25-0.3 50.1l-49 0.2q-0.6-25.2-0.3-50.4z"/>
	<path class="s1" d="m123.3 628.7c10 0.1 55.5-1.2 62 1.3 0.9 0.3 1.5 0.6 1.8 1.5 1.5 4.4 0.3 41.7 0.3 50.1 0 3.8 0.7 7.7 0.4 11.4-0.1 1.5-0.4 3.1-1.2 4.4-0.9 1.4-2.3 1.7-3.8 2l-38.9 0.1c-6 0-15.6 1-21.3-0.6-1.6-0.4-2.7-1.4-3.5-2.9-0.7-1.2-0.8-2.7-0.9-4.1-0.5-9.9 0.2-20.1 0.2-30.1 0.1-8.1-0.7-16.5-0.3-24.7 0.1-1.7 0.3-4.1 1.1-5.7 0.9-1.8 2.2-2.2 4.1-2.7z"/>
	<path class="s4" d="m127.6 638.5l49.9 0.1c0.2 16.8 0.7 33.9-0.1 50.7-16.5 0.6-33.3 0.2-49.9 0.1z"/>
</svg>