<?xml version="1.0" encoding="utf-8" ?>
<svg xmlns="http://www.w3.org/2000/svg" xmlns:xlink="http://www.w3.org/1999/xlink" width="1023" height="1023">
	<path d="M0 0L1024 0L1024 1024L0 1024L0 0Z"/>
	<path fill="#DAFFA3" d="M100.875 567.952C101.466 567.501 101.997 566.767 102.777 566.906C103.619 567.056 104.077 567.493 104.73 568.001C104.726 568.47 104.798 569.48 104.634 569.963C104.266 571.048 103.67 571.216 102.735 571.708L101.631 571.338C100.663 570.016 100.863 569.552 100.875 567.952Z"/>
	<path fill="#DAFFA3" d="M89.4484 750.17C90.8001 750.784 91.4307 750.809 91.9913 752.266C92.9485 754.754 92.1526 759.458 90.9216 761.76C89.6713 761.204 88.9982 761.139 88.4513 759.791C87.4174 757.243 88.4211 752.612 89.4484 750.17Z"/>
	<path fill="#DAFFA3" d="M650.418 866.422C649.05 867.102 646.99 867.624 645.452 867.673C644.207 867.712 643.207 867.57 642.3 866.657C641.72 866.073 641.965 865.773 642.025 865.018C644.314 862.429 647.771 862.661 650.977 862.356C650.65 863.707 650.202 865.024 650.418 866.422Z"/>
	<path fill="#B9FF66" d="M726.905 722.405C726.967 722.459 727.038 722.504 727.092 722.566C728.01 723.624 728.191 723.706 728.064 725.046C725.704 727.709 722.212 729.473 719.223 731.373C718.335 730.416 718.111 730.336 717.967 729.061C719.694 726.042 724.005 724.138 726.905 722.405Z"/>
	<path fill="#DAFFA3" d="M690.558 744.472C691.546 744.972 691.995 745.279 692.607 746.209C691.704 749.31 687.36 751.121 684.735 752.721L683.744 752.65L682.741 751.291L682.943 750.065C684.957 747.662 687.928 746.134 690.558 744.472Z"/>
	<path fill="#B9FF66" d="M674.283 755.444L675.139 755.872C675.447 756.49 675.86 756.843 675.581 757.548C674.577 760.087 669.249 762.586 666.918 764.021C666.653 763.689 666.15 763.086 665.964 762.725C665.676 762.167 665.505 761.545 665.769 760.961C666.95 758.341 671.816 756.66 674.283 755.444Z"/>
	<path fill="#DAFFA3" d="M99.6886 583.601C101.171 584.058 102.084 584.013 102.825 585.54C104.074 588.115 102.773 592.713 102.095 595.329C101.207 595.097 100.068 594.886 99.5593 594.067C97.8609 591.334 99.1635 586.614 99.6886 583.601Z"/>
	<path fill="#DAFFA3" d="M863.426 407.61C864.497 407.565 865.453 407.597 866.516 407.744L866.975 408.566C866.984 411.554 865.326 414.881 864.48 417.797C863.343 417.864 862.818 417.673 861.806 417.165C860.38 414.01 862.305 410.669 863.426 407.61Z"/>
	<path fill="#DAFFA3" d="M508.26 859.361C508.87 859.33 509.137 859.531 509.673 859.795C510.45 860.951 510.689 860.987 510.496 862.341C508.812 864.571 506.081 865.876 503.723 867.315C502.992 867.551 503.446 867.494 502.361 867.151C501.811 866.191 501.315 865.573 501.45 864.432C503.226 862.251 505.91 860.864 508.26 859.361Z"/>
	<path fill="#DAFFA3" d="M526.289 846.884C527.497 847.873 528.073 849.527 528.75 850.903C526.442 852.604 524.132 853.973 521.6 855.309C520.52 854.285 519.988 853.972 519.574 852.516C520.631 849.965 524.03 848.359 526.289 846.884Z"/>
	<path fill="#DAFFA3" d="M593.762 131.271C596.307 131.714 600.736 131.97 602.629 133.889C603.814 135.089 603.333 136.372 603.201 137.874C600.704 137.408 596.095 136.871 594.277 135.04C593.109 133.865 593.599 132.74 593.762 131.271Z"/>
	<path fill="#DAFFA3" d="M96.4678 631.205C97.2756 631.391 98.6878 631.627 99.1618 632.333C100.874 634.887 99.4162 640.015 98.8953 642.825C98.5488 642.835 97.9995 642.862 97.6695 642.815C97.0244 642.722 96.5434 642.593 96.1712 642.042C94.271 639.226 95.7463 634.301 96.4678 631.205Z"/>
	<path fill="#DAFFA3" d="M87.9189 773.538C88.7617 773.831 89.3859 774.196 90.148 774.65C91.7557 777.72 90.2092 782.605 89.6181 785.909C88.5126 785.691 88.8977 785.82 87.9231 785.439C86.9924 785.075 86.9177 784.756 86.5776 783.788C85.6214 781.068 86.7186 776.086 87.9189 773.538Z"/>
	<path fill="#DAFFA3" d="M98.8132 606.89L100.501 607.417C101.388 608.587 101.427 609.273 101.598 610.752C101.851 612.939 101.869 617.067 100.481 618.818C100.181 618.778 98.9523 618.633 98.7028 618.52C97.7002 618.068 97.535 617.078 97.3304 616.115C96.756 613.409 97.3299 609.238 98.8132 606.89Z"/>
	<path fill="#DAFFA3" d="M251.495 915.696C252.363 916.548 252.671 916.782 253.037 917.978C252.891 918.285 252.741 918.672 252.496 918.926C250.799 920.69 245.333 920.928 242.94 921.29C242.608 921.011 242.098 919.915 241.873 919.519C241.869 918.926 241.712 918.536 242.15 918.061C243.795 916.277 249.131 916.058 251.495 915.696Z"/>
	<path fill="#DAFFA3" d="M271.314 913.181C271.622 913.127 271.926 913.038 272.238 913.019C273.611 912.936 274.026 913.098 275.016 913.918C275.06 914.691 275.231 914.906 274.731 915.574C273.135 917.706 270.533 917.558 268.118 917.782C267.701 917.873 267.186 917.999 266.767 918.017C265.451 918.075 265.161 917.974 264.231 917.16C264.235 916.447 264.089 916.093 264.551 915.495C266.201 913.36 268.855 913.45 271.314 913.181Z"/>
	<path fill="#DAFFA3" d="M93.2136 678.208C93.5938 678.252 94.1573 678.309 94.5158 678.394C95.7421 678.685 96.0826 678.957 96.6442 680.116C97.7631 682.426 96.5531 687.448 95.8024 689.792C95.6783 689.804 95.5548 689.829 95.4301 689.828C93.9738 689.817 93.851 689.784 92.8287 688.823C91.9576 685.444 92.8253 681.637 93.2136 678.208Z"/>
	<path fill="#DAFFA3" d="M380.796 898.612C381.404 898.53 382.519 898.418 383.136 898.603C384.265 898.94 384.352 899.289 384.738 900.277C384.612 900.64 384.48 901.11 384.228 901.406C383.033 902.806 380.639 902.72 378.914 902.954C377.813 903.144 376.635 903.396 375.519 903.418C374.131 903.446 373.735 902.99 372.869 902.003C375.012 899.286 377.602 899.136 380.796 898.612Z"/>
	<path fill="#DAFFA3" d="M519.889 879.212C520.838 879.124 520.326 879.081 521.409 879.466C521.554 881.085 521.799 881.546 520.929 882.965C518.563 884.199 515.508 884.015 512.88 884.166L511.788 884.062C511.235 883.079 510.946 882.604 511.066 881.463C512.999 879.325 517.151 879.488 519.889 879.212Z"/>
	<path fill="#DAFFA3" d="M86.4049 798.238C87.0573 798.393 87.6565 798.641 88.2823 798.879C88.6695 799.492 88.9244 800.059 89.0387 800.782C89.4447 803.349 88.9752 807.889 87.4965 810.075C86.6249 809.885 85.9069 809.626 85.0954 809.256C84.7724 808.615 84.5253 807.991 84.406 807.278C83.9386 804.481 84.8754 800.59 86.4049 798.238Z"/>
	<path fill="#DAFFA3" d="M90.8711 726.289C91.636 726.586 92.8989 726.843 93.3618 727.539C95.1157 730.173 93.6549 735.13 93.0811 737.986C92.668 737.915 91.9309 737.797 91.5478 737.688C90.3161 737.34 90.0734 736.999 89.6 735.792C88.6094 733.269 89.8392 728.687 90.8711 726.289Z"/>
	<path fill="#DAFFA3" d="M358.221 901.682C358.348 901.65 358.473 901.609 358.602 901.587C360.171 901.317 361.301 901.478 362.553 902.393C362.549 903.281 362.479 903.549 361.872 904.242C360.395 905.929 357.721 906.028 355.634 906.364C355.16 906.437 354.474 906.559 354.01 906.549C352.646 906.521 352.297 906.281 351.349 905.424C351.337 904.437 351.531 904.089 352.225 903.337C353.642 901.803 356.274 901.869 358.221 901.682Z"/>
	<path fill="#DAFFA3" d="M858.933 428.729L860.468 429.553C861.277 430.855 861.262 432.321 861.127 433.81C860.924 436.067 860.348 439.072 858.595 440.606C857.833 440.191 857.148 439.726 856.443 439.221C856.073 437.94 855.961 436.732 856.093 435.397C856.326 433.037 857.056 430.252 858.933 428.729Z"/>
	<path fill="#DAFFA3" d="M585.838 871.182C587.526 871.036 587.43 870.932 588.716 872.012C588.583 872.788 588.298 873.297 587.947 873.994C585.768 875.788 583.265 875.871 580.577 876.205C579.783 876.24 578.99 876.237 578.195 876.241C577.46 875.311 577.42 875.079 577.242 873.896L578.008 872.865C580.401 871.648 583.204 871.529 585.838 871.182Z"/>
	<path fill="#DAFFA3" d="M94.9441 654.664C96.3582 655.012 97.053 655.096 98.0247 656.265C99.2704 659.767 98.1508 663.252 97.4674 666.783C96.4475 666.639 95.741 666.381 94.8169 665.929C92.8649 662.964 94.4024 658.001 94.9441 654.664Z"/>
	<path fill="#DAFFA3" d="M423.185 893.195C424.09 893.065 425.335 892.767 426.231 892.886C427.498 893.055 427.761 893.401 428.371 894.368L427.996 895.582C426.413 896.956 425.413 896.935 423.384 897.328C421.749 897.611 420.391 897.849 418.741 897.588C417.62 896.832 417.455 896.894 417.125 895.607C417.396 895.13 417.54 894.82 417.939 894.403C419.125 893.164 421.576 893.286 423.185 893.195Z"/>
	<path fill="#DAFFA3" d="M317.218 907.198C318.402 907.306 318.212 907.401 318.975 908.209C319.011 909.332 318.854 909.727 318.232 910.657C315.855 912.137 313.266 912.197 310.549 912.614C309.352 912.532 309.332 912.634 308.521 911.773C308.369 910.178 308.26 910.093 309.128 908.772C311.458 907.425 314.576 907.472 317.218 907.198Z"/>
	<path fill="#DAFFA3" d="M295.997 909.732C296.073 909.793 296.166 909.839 296.225 909.916C297.04 910.976 297.247 911.67 296.962 912.914C294.798 915.096 290.037 914.982 287.107 915.236C286.871 914.889 286.408 914.253 286.278 913.868C286.054 913.203 286.08 912.551 286.551 912.036C288.37 910.047 293.43 910.053 295.997 909.732Z"/>
	<path fill="#DAFFA3" d="M541.286 876.692C542.776 876.556 543.006 876.332 544.2 877.191C544.687 878.522 544.839 878.578 544.365 879.889C542.6 881.086 539.715 881.077 537.617 881.339C536.544 881.547 535.581 881.585 534.488 881.577C534.247 881.333 533.969 881.088 533.831 880.763C533.356 879.639 533.498 879.181 533.956 878.166C535.887 876.856 538.993 876.931 541.286 876.692Z"/>
	<path fill="#DAFFA3" d="M614.211 137.801C617.717 138.201 621.23 138.182 624.274 140.114C625.125 141.572 624.743 142.148 624.467 143.775C621.513 143.624 616.294 143.171 614.305 140.708C613.784 140.062 614.15 138.616 614.211 137.801Z"/>
	<path fill="#DAFFA3" d="M607.192 868.152C608.097 867.975 608.526 868.053 609.393 868.357L609.724 869.365L609.721 868.614C610.538 869.506 610.26 868.979 610.516 870.217C608.629 872.739 604.639 872.856 601.713 873.316C600.602 873.395 600.412 873.353 599.409 872.867L599.277 871.791L599.157 872.635C598.848 872.3 598.705 871.848 598.516 871.436L599.237 870.33C601.656 868.878 604.456 868.602 607.192 868.152Z"/>
	<path fill="#DAFFA3" d="M91.757 702.762C92.6714 702.972 94.2837 703.234 94.8286 704.067C96.4464 706.54 94.9843 711.557 94.3981 714.285C93.9735 714.271 93.1195 714.256 92.7232 714.183C92.0599 714.061 91.6207 713.884 91.2854 713.299C89.6822 710.503 91.1588 705.814 91.757 702.762Z"/>
	<path fill="#DAFFA3" d="M80.3802 870.564C81.1661 870.72 81.8906 870.949 82.6536 871.191C83.0671 871.754 83.0838 871.714 83.3835 872.484C84.471 875.277 83.4149 880.248 82.3965 882.956C81.3361 882.635 80.3974 882.484 79.8076 881.498C78.002 878.48 79.5636 873.758 80.3802 870.564Z"/>
	<path fill="#B9FF66" d="M656.293 765.894C656.451 765.927 656.617 765.932 656.766 765.993C657.94 766.472 658.251 766.742 658.772 767.817C658.006 770.569 652.204 773.214 649.734 774.677L649.268 774.757C648.278 774.269 648.264 774.168 647.74 773.183C648.488 770.14 653.724 767.582 656.293 765.894Z"/>
	<path fill="#DAFFA3" d="M183.942 924.738C184.136 925.051 184.338 925.336 184.435 925.704C184.776 926.998 184.722 927.328 184.007 928.337C180.887 929.545 177.18 929.611 173.853 930.13C173.708 929.732 173.477 929.136 173.4 928.735C173.263 928.021 173.132 927.36 173.639 926.795C175.461 924.765 181.262 924.946 183.942 924.738Z"/>
	<path fill="#DAFFA3" d="M817.384 588.221C817.733 588.271 818.255 588.33 818.575 588.453C819.176 588.685 819.697 588.999 819.928 589.615C821.019 592.528 819.038 597.712 817.622 600.306C817.368 600.2 817.106 600.112 816.861 599.988C815.649 599.375 815.131 599.071 814.769 597.728C814.075 595.153 816.119 590.427 817.384 588.221Z"/>
	<path fill="#B9FF66" d="M544.075 836.015C544.544 836.35 544.814 836.525 545.263 836.934C546.288 837.866 546.512 838.291 546.462 839.647C544.765 841.86 541.615 843.096 539.193 844.412L538.172 844.334C537.311 843.107 536.83 842.844 536.971 841.315C538.748 839.048 541.673 837.57 544.075 836.015Z"/>
	<path fill="#DAFFA3" d="M83.4602 822.2C84.598 822.288 85.3747 822.331 86.3725 822.912C88.2261 826.09 86.7117 830.82 86.121 834.289C85.2008 834.098 83.6671 833.867 83.1254 833.023C81.5073 830.502 83.0028 825.092 83.4602 822.2Z"/>
	<path fill="#DAFFA3" d="M834.924 520.185C835.228 520.254 835.542 520.29 835.838 520.391C836.5 520.619 837.227 520.936 837.485 521.616C838.606 524.573 836.216 529.97 835.147 532.81C834.337 532.315 832.991 531.519 832.628 530.638C831.385 527.623 833.649 522.972 834.924 520.185Z"/>
	<path fill="#DAFFA3" d="M840.808 497.721L843.308 498.116L844.021 499.115C844.216 502.479 842.776 505.986 841.92 509.238C841.531 509.198 841.058 509.162 840.686 509.064C839.552 508.764 838.839 508.473 838.487 507.258C837.699 504.545 839.851 500.275 840.808 497.721Z"/>
	<path fill="#B9FF66" d="M744.791 710.875C745.539 710.791 746.077 710.989 746.797 711.173L747.099 711.985C745.421 715.335 740.735 717.983 737.748 720.115C736.657 719.918 736.429 719.738 735.572 719.095L735.582 718.076C737.443 714.792 741.631 712.745 744.791 710.875Z"/>
	<path fill="#DAFFA3" d="M573.697 125.443C576.651 126.163 580.296 126.559 582.655 128.553C583.388 130.243 583.066 130.684 582.662 132.435C579.438 131.603 575.216 131.314 572.816 128.832C572.573 127.232 572.981 126.855 573.697 125.443Z"/>
	<path fill="#DAFFA3" d="M638.565 776.884C638.633 776.916 638.711 776.933 638.769 776.979C639.729 777.745 639.927 778.053 640.258 779.183C639.258 782.28 634.468 784.534 631.852 786.198L629.305 782.903C632.254 780.726 635.465 778.843 638.565 776.884Z"/>
	<path fill="#DAFFA3" d="M852.525 450.739C853.398 451.181 854.911 451.748 855.314 452.651C856.642 455.629 854.484 460.407 853.353 463.245C852.046 462.809 851.534 462.559 850.699 461.452C849.633 457.784 851.373 454.213 852.525 450.739Z"/>
	<path fill="#B9FF66" d="M581.448 812.914C582.337 813.742 582.754 814.413 583.272 815.507C582.537 818.71 578.414 820.451 575.792 822.106C575.393 821.834 574.557 821.356 574.239 820.946C573.843 820.435 573.475 819.821 573.659 819.164C574.375 816.605 579.289 814.267 581.448 812.914Z"/>
	<path fill="#B9FF66" d="M562.462 824.865C563.359 825.393 564.335 825.845 564.888 826.765C565.257 827.377 564.939 827.821 564.773 828.46C562.925 830.717 559.782 832.059 557.269 833.492C555.881 832.89 555.232 831.591 554.323 830.403C556.902 828.407 559.745 826.671 562.462 824.865Z"/>
	<path fill="#B9FF66" d="M710.102 732.484C710.824 732.927 711.026 733.325 711.484 734.019L711.229 735.119C708.466 738.448 704.134 740.321 700.38 742.314C700.336 742.296 700.283 742.291 700.246 742.26C699.398 741.56 699.328 741.54 699.158 740.414C700.236 737.484 707.297 734.171 710.102 732.484Z"/>
	<path fill="#DAFFA3" d="M422.456 102.522L427.502 102.562C429.52 102.563 430.852 102.657 432.738 103.441C433.9 104.771 433.691 105.379 433.799 107.102C430.241 106.962 426.507 107.855 423.186 106.367C422.213 104.971 422.455 104.195 422.456 102.522Z"/>
	<path fill="#DAFFA3" d="M203.299 922.168C205.165 921.789 206.503 921.667 208.177 922.538C208.707 923.837 208.676 923.727 208.132 925.028C206.795 926.348 205.226 926.264 203.459 926.425C201.542 926.81 199.444 927.513 197.701 926.291C196.955 925.768 197.2 925.91 197.003 924.876C197.262 924.396 197.409 924.061 197.799 923.643C198.976 922.384 201.634 922.359 203.299 922.168Z"/>
	<path fill="#DAFFA3" d="M828.381 542.72C829.71 543.127 830.413 543.332 831.42 544.35C832.504 548.048 830.547 551.779 829.337 555.255C828.228 554.937 827.604 554.493 826.706 553.778C825.152 550.529 827.361 545.98 828.381 542.72Z"/>
	<path fill="#DAFFA3" d="M337.798 904.213C338.429 904.089 339.027 904.154 339.666 904.178C340.478 905.188 340.616 905.396 340.825 906.666C338.784 909.111 335.107 909.049 332.113 909.461C331.387 909.525 330.769 909.461 330.046 909.388C329.83 909.11 329.607 908.868 329.513 908.508C329.156 907.131 329.395 906.69 330.088 905.583C332.202 904.292 335.362 904.429 337.798 904.213Z"/>
	<path fill="#DAFFA3" d="M822.973 565.151C823.128 565.174 823.283 565.189 823.436 565.219C824.26 565.377 825.43 565.674 825.844 566.459C827.354 569.322 824.968 574.522 824.026 577.414C823.608 577.366 822.844 577.293 822.458 577.183C821.794 576.995 821.29 576.764 821.007 576.122C819.693 573.147 822.015 568.133 822.973 565.151Z"/>
	<path fill="#DAFFA3" d="M562.834 874.185C563.137 874.127 563.436 874.041 563.743 874.01C565.1 873.871 565.407 873.967 566.419 874.753C566.626 876.075 566.653 876.364 565.763 877.495C564.671 878.883 561.764 878.77 560.122 878.909Q558.602 879.059 557.086 879.241C555.893 878.666 555.602 878.034 554.947 876.938L555.257 875.844C557.251 874.37 560.417 874.455 562.834 874.185Z"/>
	<path fill="#DAFFA3" d="M618.359 789.364C619.512 789.461 620.174 789.915 621.169 790.456L621.448 791.543C620.898 794.201 615.945 796.796 613.794 798.252C612.457 797.873 611.408 796.162 610.493 795.083C613.049 793.102 615.738 791.26 618.359 789.364Z"/>
	<path fill="#DAFFA3" d="M400.069 100.976C403.64 101.018 407.539 100.574 410.79 102.239C411.757 103.712 411.577 104.292 411.573 106.017C407.85 105.618 404.047 106.186 400.594 104.544C399.666 103.21 399.969 102.565 400.069 100.976Z"/>
	<path fill="#DAFFA3" d="M599.804 801.917L600.403 801.923C601.15 802.415 601.654 802.763 602.189 803.502C602.712 804.225 602.512 804.303 602.388 805.12C600.606 807.394 597.686 808.735 595.23 810.197L594.294 810.446C593.946 810.189 593.455 809.852 593.184 809.526C592.238 808.388 592.364 808.035 592.647 806.714C594.395 804.531 597.39 803.274 599.804 801.917Z"/>
	<path fill="#DAFFA3" d="M229.086 918.736C229.302 918.773 229.984 919.215 230.187 919.33L230.753 921.526C228.593 923.864 223.369 923.869 220.232 924.297L219.401 924.125C218.82 922.934 218.836 922.301 218.967 920.993C221.038 919.093 226.343 919.066 229.086 918.736Z"/>
	<path fill="#DAFFA3" d="M811.397 609.125C812.731 609.362 813.404 609.491 814.503 610.356C815.846 613.769 813.365 618.299 812.133 621.563C811.085 621.471 810.497 621.173 809.588 620.656C808.066 617.725 810.48 612.196 811.397 609.125Z"/>
	<path fill="#DAFFA3" d="M81.7803 846.166C82.7937 846.277 84.1929 846.358 84.8315 847.238C86.8638 850.036 85.1156 855.527 84.5303 858.633C84.3773 858.613 84.2234 858.601 84.0714 858.574C83.1962 858.424 81.9606 858.156 81.4929 857.348C79.7973 854.419 81.052 849.288 81.7803 846.166Z"/>
	<path fill="#DAFFA3" d="M377.589 99.3931C381.139 99.4629 385.178 98.6128 388.339 100.478C389.112 101.977 388.874 102.699 388.751 104.354C385.199 104.023 381.314 104.467 378.001 103.082C376.977 101.716 377.397 101.047 377.589 99.3931Z"/>
	<path fill="#DAFFA3" d="M846.145 474.418C846.826 474.543 847.705 474.623 848.336 474.891C848.997 475.172 849.251 475.413 849.462 476.09C850.478 479.339 848.315 483.742 846.848 486.584C845.315 486.013 844.821 486.021 843.88 484.632C843.506 481.083 845.035 477.734 846.145 474.418Z"/>
	<path fill="#DAFFA3" d="M552.645 118.806C555.874 119.761 559.712 120.366 562.266 122.65C562.931 124.249 562.473 124.802 561.988 126.425C558.598 125.708 554.529 125.51 552.221 122.674C551.789 121.224 552.22 120.189 552.645 118.806Z"/>
	<path fill="#B9FF66" d="M762.235 698.874C762.272 698.882 762.309 698.884 762.344 698.896C763.567 699.307 764.306 699.481 765.035 700.604C764.035 703.697 758.509 706.271 755.77 707.981C755.28 708.123 754.748 708.181 754.245 708.267C753.418 707.208 753.261 707.181 753.281 705.86C755.277 702.909 759.297 700.834 762.235 698.874Z"/>
	<path fill="#B9FF66" d="M156.339 928.163C157.159 928.031 158.17 927.783 158.993 927.836C160.309 927.922 160.629 928.187 161.498 929.047C161.437 929.906 161.567 930.058 160.959 930.763C159.118 932.897 156.819 932.645 154.225 932.797C152.187 933.031 150.645 933.405 148.942 932.062L149.044 931.205C151.128 928.54 153.247 928.547 156.339 928.163Z"/>
	<path fill="#DAFFA3" d="M401.765 895.664C402.498 895.536 403.506 895.268 404.237 895.353C405.584 895.508 405.895 895.929 406.712 896.875C406.648 897.766 406.796 897.587 406.269 898.254C404.511 900.481 401.703 900.252 399.118 900.449C398.43 900.55 397.688 900.693 396.988 900.704C395.423 900.73 395.007 900.346 393.852 899.336C394.092 898.603 393.943 898.855 394.539 898.143C396.378 895.946 399.136 895.979 401.765 895.664Z"/>
	<path fill="#DAFFA3" d="M444.932 104.363C448.815 104.391 452.779 103.732 456.334 105.54C457.313 107.046 457.017 107.771 456.923 109.53C454.067 109.248 448.22 109.66 445.973 108.021C444.677 107.076 445.006 105.812 444.932 104.363Z"/>
	<path fill="#B9FF66" d="M355.653 97.3853C359.079 97.4739 363.151 97.0138 366.13 98.9075C366.968 100.5 366.634 101.31 366.445 103.07C362.872 102.36 358.311 103.098 355.335 100.792C354.887 99.2793 355.19 98.8577 355.653 97.3853Z"/>
	<path fill="#DAFFA3" d="M631.299 865.232C631.736 865.154 632.228 865.258 632.67 865.3C633.156 866.63 633.328 866.915 633.059 868.282C630.635 870.637 624.735 870.447 621.414 870.745C620.244 870.037 620.114 869.737 619.44 868.524L620.192 867.479C623.76 865.709 627.397 865.597 631.299 865.232Z"/>
	<path fill="#DAFFA3" d="M761.607 499.184C762.062 499.125 762.518 499.074 762.976 499.037C766.453 498.762 774.584 497.742 777.294 500.132C777.591 501.375 777.415 501.568 776.945 502.78C772.971 502.935 766.186 503.669 762.536 502.201C761.505 501.786 761.483 501.481 761.063 500.522L761.607 499.184Z"/>
	<path fill="#DAFFA3" d="M734.715 499.048Q738.863 498.905 743.012 498.822C745.148 498.791 748.927 498.41 750.51 499.946C750.569 501.207 750.494 501.381 749.887 502.496C745.716 502.781 738.525 504.176 734.806 502.142C734.096 500.77 734.372 500.507 734.715 499.048Z"/>
	<path fill="#DAFFA3" d="M553.333 930.443C557.163 930.605 567.708 931.027 570.607 933.207L569.347 933.714C565.325 934.189 561.296 935.48 557.251 935.635C555.331 935.708 554.137 935.486 552.704 934.183C552.445 932.557 552.787 931.968 553.333 930.443Z"/>
	<path fill="#DAFFA3" d="M903.278 548.108C904.615 548.271 905.165 548.368 906.155 549.305C908.068 553.354 907.424 560.109 906.165 564.32C904.798 564.377 904.611 564.478 903.49 563.734C901.581 559.51 902.788 552.657 903.278 548.108Z"/>
	<path fill="#DAFFA3" d="M145.763 378.602C146.973 378.827 147.269 378.851 148.196 379.636C149.998 385.025 148.829 392.144 148.516 397.767C147.409 397.482 146.649 397.337 145.804 396.537C143.76 391.592 144.9 383.772 145.763 378.602Z"/>
	<path fill="#DAFFA3" d="M150.55 373.014C155.299 372.876 164.151 371.543 168.364 373.642C168.935 374.873 168.799 374.974 168.474 376.315C162.715 376.681 156.24 377.011 150.518 376.27C149.928 375.148 150.35 374.236 150.55 373.014Z"/>
	<path fill="#DAFFA3" d="M145.276 351.617C146.41 351.739 147.085 351.734 147.952 352.521C149.969 357.444 148.983 364.319 148.646 369.54C147.196 369.58 146.346 369.881 145.156 369.005C144.539 363.472 144.678 357.152 145.276 351.617Z"/>
	<path fill="#DAFFA3" d="M535.527 930.691C536.874 930.576 538.64 930.342 539.952 930.775C541.135 931.165 541.541 931.74 542.07 932.797C541.728 933.801 541.606 934.054 540.681 934.68C537.839 936.602 533.851 935.486 530.726 934.968C527.93 934.249 524.965 933.901 522.112 933.433C526.54 932.198 530.966 931.26 535.527 930.691Z"/>
	<path fill="#DAFFA3" d="M903.873 573.64L905.296 573.935C906.331 574.649 906.671 575.502 906.906 576.699C907.624 580.352 907.847 587.713 905.81 590.806C904.783 590.681 904.124 590.63 903.274 590.013C901.641 585.962 902.238 577.654 903.873 573.64Z"/>
	<path fill="#DAFFA3" d="M754.755 504.334L756.807 504.566C757.479 505.103 757.8 505.207 758.115 506.045C759.414 509.501 759.246 518.363 757.627 521.69C756.466 521.44 755.964 521.228 755.094 520.415C753.188 515.919 753.997 509.057 754.755 504.334Z"/>
	<path fill="#DAFFA3" d="M137.366 372.732C138.983 372.664 140.902 372.418 142.432 373.004C143.241 373.314 142.997 373.311 143.326 374.243C143.13 374.739 142.919 375.308 142.468 375.639C140.426 377.136 132.875 376.539 130.084 376.585C128.823 376.636 127.485 376.746 126.227 376.654C125.07 376.569 124.597 376.317 123.905 375.383L124.087 374.321C126.478 371.924 134.094 372.787 137.366 372.732Z"/>
	<path fill="#DAFFA3" d="M547.142 908.289C547.22 908.356 547.307 908.415 547.377 908.49C549.114 910.359 550.108 922.32 549.944 925.242C549.847 926.979 549.242 927.384 548.068 928.502C546.744 928.052 546.088 928.04 545.383 926.741C543.35 922.997 546.249 912.375 547.142 908.289Z"/>
	<path fill="#B9FF66" d="M546.995 937.734C548.312 938.297 548.559 938.437 549.43 939.564C550.713 945.584 548.597 952.754 547.397 958.663C545.165 954.723 544.616 946.92 544.817 942.341C544.912 940.168 545.417 939.203 546.995 937.734Z"/>
	<path fill="#DAFFA3" d="M662.938 51.8916C668.155 51.7794 675.593 51.8658 680.411 53.9729L680.657 54.8471L679.396 55.5494C676.051 56.2388 672.231 57.0334 668.83 57.182C666.733 57.2737 664.69 57.2288 663.091 55.7255C662.469 54.2941 662.68 53.3615 662.938 51.8916Z"/>
	<path fill="#DAFFA3" d="M754.481 478.64C756.007 478.839 756.417 478.822 757.672 479.789C759.892 484.281 758.661 491.378 758.142 496.262C756.59 496.146 755.939 496.279 754.678 495.323C752.678 490.493 753.964 483.747 754.481 478.64Z"/>
	<path fill="#DAFFA3" d="M883.157 567.631C887.786 567.439 894.906 566.351 898.996 568.602C899.645 569.937 899.429 570.498 899.272 571.948C894.745 572.563 888.35 573.585 884.188 571.465C883.192 570.047 883.294 569.33 883.157 567.631Z"/>
	<path fill="#DAFFA3" d="M909.516 567.579C913.547 567.288 922.027 566.196 925.418 568.52C925.987 570.039 925.597 570.527 925.137 572.047C922.37 572.289 919.506 572.322 916.725 572.354C914.215 572.382 911.244 572.46 909.337 570.613C908.914 569.166 909.024 569.025 909.516 567.579Z"/>
	<path fill="#DAFFA3" d="M643.648 51.6745C645.229 51.4749 647.471 51 649.035 51.3392C650.34 51.6221 650.911 52.1328 651.665 53.1818C651.645 54.4465 651.635 54.6993 650.612 55.6064C648.152 57.788 644.276 56.7833 641.382 56.3636C637.698 55.7179 634.111 54.94 630.494 53.986C634.856 53.0436 639.241 52.3577 643.648 51.6745Z"/>
	<path fill="#DAFFA3" d="M656.459 28.7648C658.801 32.2598 659.879 43.7678 659.587 48.2608C658.737 49.6921 657.924 49.807 656.437 50.4928C654.845 48.933 654.293 47.6723 653.583 45.5823C654.466 39.9661 655.265 34.325 656.459 28.7648Z"/>
	<path fill="#B9FF66" d="M654.897 58.2443C656.027 58.359 657.423 58.5509 658.12 59.5563C661.008 63.7208 658.058 75.2339 657.16 79.9432C656.9 80.1175 656.556 80.111 656.25 80.1749C654.632 73.7408 652.618 64.6618 654.897 58.2443Z"/>
	<path fill="#B9FF66" d="M536.755 184.625C540.046 184.252 542.957 184.41 545.996 185.823C550.044 187.705 553.047 191.198 554.495 195.405C556.004 199.789 555.748 204.787 553.514 208.886C550.936 213.616 547.084 215.619 542.139 217.036C538.514 217.385 535.082 217.313 531.704 215.804Q530.97 215.477 530.274 215.075Q529.578 214.673 528.927 214.201Q528.277 213.729 527.678 213.192Q527.08 212.656 526.541 212.059Q526.002 211.463 525.528 210.815Q525.053 210.166 524.649 209.471Q524.245 208.777 523.914 208.044Q523.584 207.311 523.332 206.548Q523.068 205.768 522.884 204.965Q522.7 204.162 522.598 203.345Q522.495 202.528 522.475 201.705Q522.456 200.881 522.518 200.06Q522.581 199.239 522.726 198.428Q522.872 197.618 523.097 196.826Q523.323 196.034 523.627 195.268Q523.932 194.503 524.311 193.772C527.009 188.569 531.435 186.345 536.755 184.625Z"/>
	<path d="M537.276 189.534C539.429 189.413 541.502 189.563 543.52 190.372C546.383 191.52 548.759 193.643 549.888 196.55Q550.094 197.076 550.246 197.62Q550.399 198.164 550.497 198.72Q550.596 199.276 550.639 199.84Q550.682 200.403 550.669 200.968Q550.657 201.532 550.588 202.093Q550.52 202.654 550.397 203.205Q550.274 203.757 550.097 204.293Q549.92 204.83 549.691 205.346C547.954 209.284 544.823 211.281 540.989 212.89C538.705 213.049 536.618 213.003 534.488 212.048Q533.949 211.808 533.436 211.515Q532.924 211.222 532.443 210.878Q531.963 210.535 531.519 210.146Q531.076 209.756 530.674 209.324Q530.271 208.892 529.915 208.421Q529.558 207.951 529.25 207.447Q528.943 206.943 528.687 206.411Q528.432 205.878 528.231 205.323Q528.03 204.779 527.884 204.218Q527.739 203.657 527.649 203.084Q527.559 202.511 527.527 201.932Q527.495 201.353 527.52 200.774Q527.545 200.195 527.628 199.621Q527.71 199.047 527.849 198.484Q527.988 197.921 528.182 197.375Q528.376 196.828 528.623 196.304C530.422 192.509 533.446 190.799 537.276 189.534Z"/>
	<path fill="#B9FF66" d="M156.001 207.637C159.047 207.499 162.007 208.053 164.734 209.454C168.953 211.62 172.004 215.574 173.301 220.111Q173.545 220.954 173.703 221.818Q173.861 222.682 173.931 223.557Q174.001 224.432 173.984 225.31Q173.966 226.188 173.86 227.059Q173.754 227.931 173.561 228.788Q173.368 229.644 173.091 230.477Q172.813 231.31 172.453 232.111Q172.093 232.911 171.654 233.672C168.742 238.722 164.432 240.848 159.016 242.217C154.786 242.374 151.024 241.748 147.438 239.369Q146.744 238.9 146.099 238.365Q145.454 237.829 144.865 237.233Q144.276 236.637 143.749 235.985Q143.221 235.334 142.761 234.634Q142.3 233.934 141.911 233.192Q141.522 232.449 141.207 231.673Q140.893 230.896 140.657 230.092Q140.421 229.287 140.265 228.464C139.347 223.809 140.292 218.692 143.08 214.821C146.26 210.407 150.777 208.459 156.001 207.637Z"/>
	<path d="M155.947 213.523Q156.732 213.477 157.516 213.534Q158.301 213.59 159.071 213.749Q159.841 213.907 160.584 214.165Q161.327 214.423 162.03 214.775Q162.547 215.028 163.037 215.332Q163.526 215.636 163.982 215.988Q164.437 216.34 164.855 216.737Q165.273 217.133 165.648 217.57Q166.024 218.007 166.353 218.48Q166.682 218.952 166.961 219.456Q167.241 219.96 167.468 220.489Q167.695 221.018 167.867 221.568Q168.041 222.106 168.161 222.66Q168.281 223.213 168.345 223.775Q168.408 224.338 168.416 224.904Q168.423 225.47 168.373 226.034Q168.324 226.598 168.218 227.154Q168.113 227.71 167.952 228.253Q167.791 228.795 167.577 229.319Q167.363 229.843 167.097 230.343C165.125 234.016 162.149 235.464 158.267 236.507C155.989 236.575 153.814 236.227 151.762 235.187C148.979 233.776 146.901 231.435 145.957 228.447Q145.79 227.922 145.676 227.382Q145.562 226.843 145.502 226.295Q145.443 225.747 145.439 225.196Q145.435 224.644 145.486 224.095Q145.537 223.547 145.643 223.006Q145.749 222.465 145.908 221.937Q146.068 221.409 146.28 220.9Q146.491 220.391 146.753 219.906C148.862 216.048 151.941 214.732 155.947 213.523Z"/>
	<path fill="#B9FF66" d="M873.983 762.13C877.633 762.237 880.671 762.76 883.864 764.636C887.995 767.064 890.788 771.214 891.911 775.832Q892.02 776.281 892.107 776.735Q892.194 777.189 892.258 777.646Q892.321 778.104 892.362 778.564Q892.403 779.025 892.42 779.486Q892.438 779.948 892.432 780.41Q892.426 780.872 892.397 781.333Q892.368 781.795 892.316 782.254Q892.264 782.713 892.188 783.169Q892.113 783.625 892.015 784.076Q891.917 784.528 891.797 784.974Q891.676 785.42 891.533 785.859Q891.39 786.299 891.225 786.73Q891.061 787.162 890.874 787.585Q890.688 788.008 890.481 788.421Q890.273 788.834 890.046 789.236Q889.818 789.638 889.57 790.028C886.403 795.06 882.054 797.231 876.48 798.546C872.474 798.598 868.52 797.845 865.1 795.661C861.009 793.049 858.288 788.726 857.325 784.002C856.349 779.215 857.199 774.127 859.973 770.069C863.37 765.099 868.266 763.072 873.983 762.13Z"/>
	<path d="M871.535 768.088C874.006 767.869 876.254 767.673 878.643 768.52Q879.248 768.729 879.827 769Q880.407 769.271 880.955 769.601Q881.503 769.931 882.014 770.316Q882.525 770.701 882.993 771.137Q883.461 771.573 883.881 772.056Q884.302 772.538 884.669 773.062Q885.037 773.585 885.348 774.144Q885.66 774.703 885.911 775.291C887.214 778.307 887.288 781.753 885.927 784.763C884.172 788.645 881.002 790.603 877.201 792.156C874.882 792.413 872.797 792.429 870.554 791.688C867.358 790.631 864.805 788.406 863.38 785.35Q863.115 784.779 862.911 784.183Q862.706 783.587 862.564 782.974Q862.422 782.36 862.343 781.735Q862.265 781.111 862.251 780.481Q862.237 779.851 862.288 779.224Q862.339 778.596 862.454 777.977Q862.569 777.358 862.747 776.754Q862.926 776.15 863.165 775.567C864.829 771.551 867.725 769.764 871.535 768.088Z"/>
	<path fill="#B9FF66" d="M464.847 858.13C470.556 857.57 476.777 858.794 481.802 861.539C489.051 865.497 494.658 872.846 496.804 880.8C498.646 887.626 497.531 894.639 493.97 900.712C488.991 909.203 481.439 912.84 472.324 915.253Q471.64 915.356 470.952 915.428Q470.264 915.5 469.573 915.539Q468.883 915.579 468.191 915.587Q467.499 915.594 466.808 915.57Q466.117 915.545 465.427 915.489Q464.738 915.432 464.052 915.344Q463.366 915.255 462.684 915.135Q462.003 915.015 461.328 914.863Q460.653 914.711 459.986 914.529Q459.319 914.346 458.661 914.132Q458.003 913.919 457.356 913.675Q456.708 913.431 456.073 913.157Q455.438 912.884 454.816 912.581Q454.194 912.278 453.587 911.947Q452.979 911.615 452.388 911.256Q451.797 910.897 451.223 910.511Q450.635 910.126 450.067 909.711Q449.5 909.297 448.954 908.854Q448.408 908.411 447.885 907.941Q447.362 907.471 446.864 906.975Q446.365 906.479 445.893 905.959Q445.42 905.438 444.975 904.895Q444.529 904.351 444.112 903.785Q443.695 903.219 443.307 902.633Q442.918 902.047 442.56 901.442Q442.203 900.837 441.876 900.215Q441.549 899.592 441.254 898.954Q440.96 898.316 440.698 897.664Q440.436 897.011 440.207 896.346Q439.978 895.682 439.784 895.006Q439.589 894.331 439.429 893.646Q439.269 892.962 439.144 892.27C437.765 884.557 439.511 876.087 444.123 869.73C449.153 862.796 456.663 859.554 464.847 858.13Z"/>
	<path d="M466.237 860.654C471.89 860.447 477.8 862.021 482.533 865.1Q483.11 865.482 483.667 865.892Q484.224 866.302 484.761 866.739Q485.297 867.176 485.812 867.638Q486.326 868.101 486.818 868.588Q487.309 869.075 487.776 869.586Q488.243 870.096 488.684 870.629Q489.125 871.162 489.54 871.715Q489.955 872.269 490.342 872.842Q490.73 873.416 491.088 874.007Q491.447 874.599 491.777 875.207Q492.106 875.816 492.405 876.439Q492.705 877.063 492.973 877.701Q493.241 878.338 493.478 878.988Q493.715 879.638 493.92 880.299Q494.125 880.96 494.297 881.63Q494.47 882.3 494.609 882.978C495.872 889.36 494.449 895.757 490.771 901.104C486.033 907.991 478.826 911.434 470.875 912.981C464.211 913.096 458.534 912.379 452.845 908.532Q452.288 908.159 451.751 907.758Q451.214 907.358 450.697 906.93Q450.181 906.502 449.688 906.049Q449.194 905.595 448.724 905.117Q448.254 904.639 447.809 904.138Q447.365 903.636 446.946 903.113Q446.527 902.589 446.136 902.045Q445.744 901.501 445.381 900.938Q445.018 900.374 444.684 899.793Q444.35 899.212 444.046 898.615Q443.743 898.017 443.47 897.405Q443.197 896.793 442.955 896.167Q442.714 895.542 442.505 894.905Q442.296 894.268 442.119 893.622Q441.943 892.975 441.8 892.32Q441.657 891.665 441.547 891.004C440.483 884.182 442.117 876.923 446.208 871.336C451.189 864.534 458.212 861.86 466.237 860.654Z"/>
	<path fill="#B9FF66" d="M463.37 866.578C468.051 866.134 472.207 866.38 476.538 868.387C481.524 870.697 485.768 874.864 487.668 880.074C489.576 885.305 489.118 891.551 486.554 896.483C483.578 902.207 478.668 904.88 472.818 906.869C467.675 907.419 462.987 907.258 458.254 904.876Q457.778 904.639 457.316 904.378Q456.853 904.116 456.404 903.831Q455.956 903.546 455.523 903.238Q455.09 902.93 454.673 902.6Q454.257 902.27 453.858 901.919Q453.459 901.568 453.079 901.196Q452.7 900.824 452.339 900.434Q451.979 900.043 451.64 899.634Q451.301 899.225 450.983 898.799Q450.666 898.373 450.371 897.93Q450.076 897.488 449.804 897.032Q449.533 896.575 449.285 896.104Q449.038 895.634 448.815 895.152Q448.592 894.669 448.395 894.176Q448.198 893.682 448.026 893.179Q447.855 892.676 447.71 892.165Q447.576 891.682 447.467 891.193Q447.357 890.704 447.271 890.211Q447.185 889.717 447.124 889.22Q447.062 888.722 447.025 888.223Q446.988 887.723 446.975 887.222Q446.962 886.721 446.974 886.22Q446.985 885.719 447.022 885.219Q447.058 884.72 447.118 884.222Q447.179 883.725 447.263 883.231Q447.348 882.737 447.457 882.248Q447.565 881.759 447.698 881.276Q447.83 880.792 447.986 880.316Q448.142 879.84 448.321 879.372Q448.5 878.904 448.702 878.445Q448.903 877.986 449.127 877.538Q449.351 877.09 449.596 876.653C452.692 871.126 457.5 868.337 463.37 866.578Z"/>
	<path d="M463.771 869.12C468.242 868.727 472.194 868.999 476.264 871.082Q477.067 871.491 477.826 871.976Q478.584 872.461 479.292 873.018Q480 873.575 480.651 874.198Q481.301 874.822 481.888 875.505Q482.474 876.189 482.991 876.926Q483.508 877.664 483.951 878.448Q484.394 879.233 484.758 880.057Q485.122 880.881 485.404 881.736Q485.673 882.573 485.856 883.433Q486.039 884.293 486.135 885.167Q486.231 886.041 486.238 886.92Q486.246 887.799 486.165 888.674Q486.085 889.55 485.917 890.413Q485.748 891.276 485.494 892.117Q485.24 892.959 484.903 893.771Q484.566 894.583 484.149 895.357C481.48 900.284 477.08 902.844 471.895 904.418C467.751 905.11 463.83 904.807 459.984 903.008C455.589 900.95 451.96 896.988 450.366 892.398C448.798 887.881 449.331 882.903 451.477 878.663C454.141 873.399 458.372 870.858 463.771 869.12Z"/>
	<path fill="#B9FF66" d="M464.026 874.119C467.029 873.669 469.784 873.749 472.669 874.802C475.923 875.989 478.718 878.318 480.162 881.501Q480.415 882.068 480.608 882.657Q480.801 883.247 480.934 883.853Q481.066 884.459 481.135 885.076Q481.205 885.692 481.211 886.313Q481.217 886.933 481.16 887.551Q481.102 888.169 480.982 888.777Q480.862 889.386 480.68 889.979Q480.498 890.573 480.257 891.144C478.384 895.519 475.041 897.547 470.832 899.22C468.349 899.713 465.711 899.674 463.308 898.84C459.846 897.637 457.035 895.192 455.451 891.875C453.982 888.799 453.723 885.261 454.96 882.059C456.627 877.747 459.977 875.775 464.026 874.119Z"/>
	<path fill="#B9FF66" d="M503.318 72.1412C503.383 72.1314 503.448 72.117 503.513 72.1119C513.83 71.2997 523.882 73.4682 531.825 80.4078Q532.49 80.9853 533.126 81.5949Q533.761 82.2046 534.366 82.8449Q534.97 83.4852 535.543 84.1547Q536.115 84.8241 536.654 85.5211Q537.192 86.218 537.695 86.9407Q538.199 87.6634 538.666 88.4102Q539.133 89.1569 539.562 89.9258Q539.992 90.6947 540.383 91.4839Q540.773 92.2731 541.125 93.0807Q541.476 93.8882 541.787 94.7122Q542.098 95.5362 542.368 96.3745Q542.638 97.2128 542.866 98.0635Q543.094 98.9141 543.28 99.775Q543.466 100.636 543.609 101.505Q543.752 102.374 543.852 103.249Q543.952 104.124 544.008 105.003Q544.056 105.91 544.058 106.817Q544.06 107.725 544.017 108.632Q543.974 109.539 543.886 110.442Q543.798 111.346 543.665 112.244Q543.532 113.142 543.355 114.032Q543.177 114.923 542.956 115.803Q542.734 116.683 542.469 117.551Q542.203 118.42 541.895 119.274Q541.587 120.127 541.236 120.965Q540.886 121.802 540.494 122.621Q540.102 123.44 539.67 124.239Q539.238 125.037 538.767 125.813Q538.295 126.589 537.786 127.34Q537.277 128.092 536.73 128.817Q536.184 129.542 535.602 130.239Q535.021 130.936 534.405 131.603C527.041 139.713 518.277 142.737 507.537 143.189C498.437 142.936 490.827 140.946 483.746 134.963C475.965 128.389 472.044 119.711 471.16 109.672C469.587 109.455 468.075 109.402 466.744 108.455L466.609 107.15L467.289 106.447C468.031 106.414 468.9 106.446 469.621 106.287C469.743 106.26 470.582 105.999 470.643 105.886C471.246 104.758 471.479 102.34 471.821 101.025C473.115 96.0481 474.989 91.3951 477.98 87.1827C484.008 78.6922 493.171 73.7933 503.318 72.1412Z"/>
	<path d="M502.953 75.6146C510.808 74.6017 518.603 76.0006 525.365 80.173Q526.05 80.5993 526.713 81.0593Q527.376 81.5193 528.015 82.0119Q528.654 82.5045 529.268 83.0284Q529.881 83.5524 530.468 84.1064Q531.054 84.6604 531.612 85.243Q532.171 85.8257 532.699 86.4355Q533.227 87.0453 533.724 87.6809Q534.222 88.3164 534.686 88.976Q535.151 89.6355 535.582 90.3176Q536.013 90.9996 536.41 91.7023Q536.806 92.405 537.167 93.1267Q537.528 93.8484 537.852 94.5872Q538.177 95.326 538.463 96.0802Q538.75 96.8343 538.999 97.6019Q539.248 98.3694 539.458 99.1484Q539.668 99.9274 539.839 100.716Q540.007 101.482 540.137 102.255Q540.267 103.028 540.359 103.806Q540.45 104.585 540.503 105.367Q540.555 106.149 540.569 106.933Q540.583 107.717 540.557 108.501Q540.532 109.284 540.467 110.065Q540.403 110.847 540.3 111.624Q540.197 112.401 540.055 113.172Q539.914 113.943 539.734 114.706Q539.554 115.469 539.336 116.222Q539.119 116.975 538.864 117.717Q538.609 118.458 538.318 119.186Q538.027 119.914 537.7 120.626Q537.372 121.339 537.01 122.034Q536.648 122.729 536.252 123.406Q535.855 124.082 535.426 124.738C530.258 132.668 522.25 137.548 513.077 139.419C504.76 140.419 496.872 139.567 489.707 134.925C482.556 130.292 476.857 122.666 475.081 114.288C473.34 106.074 475.268 97.4682 479.86 90.5014C485.297 82.2495 493.443 77.6467 502.953 75.6146Z"/>
	<path fill="#DAFFA3" d="M506.063 81.1678C511.573 80.8601 517.48 82.0535 522.186 84.9706C528.113 88.6447 532.56 94.9551 534.152 101.733Q534.307 102.366 534.429 103.006Q534.552 103.646 534.642 104.292Q534.732 104.938 534.789 105.587Q534.846 106.236 534.871 106.887Q534.895 107.539 534.886 108.191Q534.878 108.842 534.836 109.493Q534.794 110.143 534.72 110.791Q534.645 111.438 534.538 112.081Q534.431 112.724 534.291 113.361Q534.152 113.997 533.98 114.626Q533.808 115.255 533.605 115.874Q533.402 116.494 533.168 117.102Q532.933 117.71 532.668 118.306Q532.403 118.901 532.109 119.482Q531.814 120.064 531.491 120.63Q531.167 121.195 530.815 121.744C526.034 129.117 519.213 132.649 510.849 134.469C503.961 135.007 497.639 134.011 491.871 129.906C485.963 125.701 481.592 118.964 480.609 111.752C479.653 104.74 481.485 97.3549 485.818 91.7345C490.863 85.1905 498.108 82.1478 506.063 81.1678Z"/>
	<path d="M505.989 84.1569C511.87 84.068 517.216 85.0118 522.077 88.5806C527.53 92.5841 530.968 98.8503 531.792 105.527C532.573 111.844 530.711 117.834 526.688 122.743C522.101 128.34 516.233 131.22 509.118 131.813C503.812 131.95 498.709 130.812 494.219 127.877Q493.714 127.548 493.227 127.194Q492.739 126.841 492.269 126.464Q491.8 126.087 491.349 125.687Q490.899 125.287 490.469 124.865Q490.038 124.444 489.629 124.002Q489.22 123.559 488.834 123.097Q488.447 122.636 488.084 122.155Q487.72 121.675 487.381 121.177Q487.042 120.679 486.728 120.165Q486.413 119.652 486.125 119.123Q485.836 118.594 485.574 118.052Q485.312 117.51 485.077 116.955Q484.842 116.4 484.634 115.835Q484.427 115.269 484.248 114.694Q484.068 114.119 483.918 113.536Q483.767 112.953 483.645 112.363C482.402 106.097 483.98 99.6481 487.692 94.4842C492.166 88.2594 498.611 85.2777 505.989 84.1569Z"/>
	<path fill="#DAFFA3" d="M507.841 88.1871C512.217 88.1022 516.606 89.376 520.081 92.0748C524.265 95.3248 526.922 100.44 527.545 105.667Q527.607 106.153 527.645 106.642Q527.682 107.13 527.695 107.62Q527.708 108.11 527.697 108.599Q527.685 109.089 527.649 109.578Q527.613 110.066 527.553 110.553Q527.492 111.039 527.407 111.521Q527.323 112.004 527.214 112.482Q527.105 112.959 526.972 113.431Q526.839 113.903 526.683 114.367Q526.527 114.831 526.347 115.287Q526.168 115.743 525.966 116.19Q525.764 116.636 525.54 117.072Q525.316 117.507 525.07 117.931Q524.824 118.355 524.558 118.766Q524.291 119.177 524.004 119.575Q523.717 119.972 523.411 120.354C519.481 125.253 514.365 127.171 508.321 127.773C503.753 127.62 499.688 126.588 496.001 123.761Q495.585 123.439 495.186 123.097Q494.787 122.755 494.406 122.393Q494.024 122.032 493.662 121.651Q493.299 121.27 492.957 120.872Q492.614 120.473 492.292 120.058Q491.969 119.643 491.668 119.212Q491.368 118.781 491.089 118.335Q490.81 117.889 490.554 117.43Q490.299 116.971 490.066 116.499Q489.834 116.028 489.626 115.545Q489.418 115.063 489.234 114.57Q489.051 114.077 488.892 113.576Q488.734 113.075 488.601 112.566Q488.468 112.058 488.361 111.543Q488.254 111.029 488.173 110.509Q488.092 109.99 488.038 109.467Q487.952 108.533 487.958 107.594Q487.965 106.656 488.064 105.723Q488.163 104.79 488.354 103.871Q488.545 102.952 488.826 102.057Q489.107 101.161 489.475 100.298Q489.843 99.4347 490.295 98.6121Q490.746 97.7894 491.277 97.0154Q491.807 96.2415 492.412 95.5237C496.447 90.6854 501.767 88.7668 507.841 88.1871Z"/>
	<path d="M504.742 91.1059C508.145 90.8951 511.258 90.8855 514.485 92.1462C518.661 93.7772 521.808 96.8655 523.597 100.97C525.473 105.272 525.792 110.524 523.94 114.887C521.555 120.507 516.782 123.175 511.36 125.21C507.963 125.676 504.984 125.363 501.776 124.087C497.423 122.357 493.924 118.701 492.18 114.378C490.419 110.012 490.476 105.185 492.483 100.912C495.025 95.5024 499.378 93.0427 504.742 91.1059Z"/>
	<path fill="#B9FF66" d="M507.923 94.6393C510.023 94.7264 512.199 95.2383 514.052 96.2374Q514.683 96.5756 515.275 96.9777Q515.867 97.3797 516.414 97.8412Q516.961 98.3027 517.457 98.8187Q517.953 99.3346 518.392 99.8994Q518.832 100.464 519.211 101.072Q519.589 101.679 519.902 102.323Q520.215 102.966 520.46 103.639Q520.704 104.312 520.877 105.006Q521.056 105.691 521.163 106.391Q521.27 107.091 521.303 107.798Q521.337 108.505 521.296 109.212Q521.255 109.919 521.141 110.618Q521.027 111.317 520.84 112Q520.654 112.683 520.397 113.343Q520.14 114.003 519.816 114.632Q519.492 115.262 519.104 115.854C516.781 119.327 513.458 120.939 509.473 121.753C506.695 121.624 504.582 121.316 502.137 119.924C498.745 117.993 496.122 114.877 495.236 111.028Q495.079 110.347 494.994 109.653Q494.909 108.958 494.898 108.259Q494.886 107.56 494.948 106.864Q495.01 106.167 495.145 105.481Q495.28 104.795 495.486 104.126Q495.692 103.458 495.967 102.815Q496.242 102.172 496.583 101.562Q496.924 100.951 497.327 100.38C500.001 96.6111 503.534 95.3493 507.923 94.6393Z"/>
	<path fill="#B9FF66" d="M100.875 567.952C100.742 567.872 100.616 567.78 100.477 567.713C97.3517 566.214 90.2882 565.984 86.5097 564.96C69.5498 560.363 56.2184 547.506 49.5638 531.424Q49.0091 530.113 48.521 528.776Q48.0329 527.44 47.6125 526.08Q47.1922 524.72 46.8407 523.341Q46.4892 521.962 46.2075 520.567Q45.9257 519.172 45.7144 517.764Q45.5031 516.357 45.3628 514.941Q45.2225 513.524 45.1535 512.103Q45.0846 510.681 45.0871 509.258Q45.0896 507.835 45.1637 506.413Q45.2377 504.992 45.3831 503.576Q45.5285 502.161 45.7448 500.754Q45.9611 499.347 46.2479 497.953Q46.5346 496.559 46.891 495.181Q47.2474 493.803 47.6726 492.445Q48.0978 491.087 48.5907 489.752Q49.0836 488.417 49.643 487.108Q50.1815 485.849 50.7812 484.619Q51.381 483.388 52.0405 482.189Q52.7001 480.989 53.4179 479.824Q54.1356 478.658 54.9099 477.529Q55.6841 476.4 56.5129 475.311Q57.3418 474.221 58.2232 473.174Q59.1046 472.127 60.0365 471.124Q60.9684 470.121 61.9485 469.165Q62.9286 468.21 63.9545 467.303Q64.9804 466.397 66.0496 465.542Q67.1189 464.688 68.2289 463.886Q69.3389 463.085 70.487 462.34Q71.635 461.594 72.8184 460.906Q74.0017 460.218 75.2175 459.589Q76.4333 458.96 77.6785 458.391Q78.9238 457.823 80.1955 457.316C95.1857 451.284 110.133 451.065 125.051 457.543Q126.394 458.139 127.705 458.801Q129.017 459.462 130.295 460.187Q131.573 460.912 132.813 461.699Q134.054 462.485 135.255 463.332Q136.455 464.179 137.613 465.083Q138.77 465.988 139.882 466.948Q140.994 467.909 142.057 468.923Q143.12 469.936 144.132 471.001Q145.145 472.066 146.103 473.179Q147.062 474.292 147.965 475.451Q148.868 476.61 149.713 477.811Q150.558 479.013 151.343 480.255Q152.128 481.497 152.851 482.776Q153.574 484.054 154.234 485.367Q154.893 486.68 155.487 488.023Q156.081 489.367 156.609 490.738C161.812 504.351 160.446 520.355 154.527 533.506C148.497 546.903 137.025 558.548 123.16 563.732C120.19 564.843 105.153 567.619 104.73 568.001C104.077 567.493 103.619 567.056 102.777 566.906C101.997 566.767 101.466 567.501 100.875 567.952Z"/>
	<path d="M96.8497 456.684C109.116 455.309 122.705 459.404 132.787 466.328Q133.867 467.064 134.909 467.852Q135.951 468.64 136.953 469.479Q137.955 470.318 138.915 471.205Q139.874 472.092 140.788 473.026Q141.702 473.96 142.569 474.937Q143.436 475.915 144.254 476.935Q145.071 477.954 145.837 479.013Q146.603 480.071 147.316 481.167Q148.029 482.262 148.686 483.391Q149.344 484.52 149.945 485.68Q150.546 486.841 151.089 488.029Q151.632 489.218 152.115 490.432Q152.599 491.646 153.022 492.882Q153.444 494.119 153.805 495.374Q154.167 496.63 154.465 497.902Q154.764 499.175 154.999 500.46Q155.233 501.758 155.401 503.067Q155.57 504.375 155.673 505.691Q155.776 507.006 155.814 508.325Q155.852 509.643 155.823 510.962Q155.795 512.281 155.701 513.597Q155.607 514.913 155.448 516.223Q155.289 517.533 155.064 518.833Q154.84 520.133 154.551 521.42Q154.262 522.707 153.909 523.979Q153.556 525.25 153.141 526.502Q152.725 527.754 152.248 528.984Q151.77 530.214 151.232 531.418Q150.694 532.623 150.096 533.799Q149.498 534.975 148.843 536.12Q148.188 537.265 147.476 538.376Q146.764 539.487 145.998 540.561C136.824 553.568 125.003 560.406 109.472 562.992Q108.214 563.157 106.949 563.262Q105.684 563.366 104.416 563.41Q103.148 563.453 101.879 563.436Q100.61 563.419 99.3436 563.341Q98.077 563.262 96.8156 563.123Q95.5542 562.985 94.301 562.785Q93.0477 562.586 91.8055 562.327Q90.5633 562.068 89.3349 561.749Q88.1066 561.43 86.8949 561.053Q85.6833 560.676 84.4911 560.241Q83.299 559.806 82.1291 559.314Q80.9593 558.823 79.8143 558.275Q78.6694 557.728 77.5521 557.127Q76.4348 556.525 75.3476 555.87Q74.2604 555.216 73.206 554.51Q72.1515 553.804 71.1321 553.048Q70.0568 552.256 69.022 551.412Q67.9873 550.568 66.9955 549.674Q66.0038 548.779 65.0575 547.837Q64.1113 546.895 63.2128 545.907Q62.3143 544.919 61.4658 543.888Q60.6173 542.857 59.8209 541.785Q59.0245 540.713 58.2821 539.603Q57.5397 538.493 56.8532 537.348Q56.1666 536.202 55.5376 535.024Q54.9086 533.846 54.3387 532.639Q53.7687 531.431 53.2592 530.197Q52.7497 528.962 52.302 527.704Q51.8542 526.446 51.4692 525.168Q51.0843 523.889 50.7631 522.593Q50.4418 521.297 50.1852 519.986Q49.9285 518.676 49.737 517.354C47.7816 503.049 51.2615 489 60.062 477.498C69.0443 465.757 82.2786 458.573 96.8497 456.684Z"/>
	<path fill="#B9FF66" d="M96.8032 462.68C107.785 461.283 119.949 464.614 129.118 470.645C139.69 477.598 146.414 488.416 148.904 500.765Q149.141 501.912 149.319 503.07Q149.497 504.227 149.617 505.392Q149.737 506.557 149.798 507.727Q149.858 508.897 149.86 510.068Q149.862 511.239 149.804 512.409Q149.747 513.579 149.631 514.744Q149.514 515.909 149.339 517.068Q149.164 518.226 148.93 519.373Q148.697 520.521 148.406 521.656Q148.115 522.79 147.767 523.908Q147.419 525.027 147.016 526.126Q146.612 527.225 146.153 528.303Q145.694 529.381 145.181 530.434Q144.669 531.487 144.103 532.513Q143.538 533.538 142.922 534.534Q142.306 535.53 141.64 536.494C133.548 548.349 122.658 554.738 108.741 557.431C96.4219 558.469 84.4625 555.993 74.3972 548.528C63.9792 540.802 57.0817 529.61 55.2016 516.764Q55.0345 515.575 54.9267 514.38Q54.8189 513.185 54.7705 511.985Q54.7222 510.786 54.7334 509.586Q54.7447 508.386 54.8155 507.187Q54.8863 505.989 55.0165 504.796Q55.1467 503.603 55.336 502.418Q55.5253 501.232 55.7732 500.058Q56.0211 498.884 56.327 497.723Q56.6329 496.562 56.996 495.418Q57.3591 494.274 57.7786 493.15Q58.1981 492.025 58.6729 490.923Q59.1477 489.821 59.6766 488.743Q60.2056 487.666 60.7873 486.616Q61.3691 485.566 62.0023 484.546Q62.6355 483.527 63.3185 482.54Q64.0015 481.553 64.7327 480.601C72.632 470.202 84.0042 464.353 96.8032 462.68Z"/>
	<path d="M95.8051 466.611C106.377 465.777 116.675 467.354 125.835 473.012C135.332 478.879 142.493 489.239 144.923 500.098C147.451 511.392 145.714 522.858 139.472 532.638C132.574 543.445 122.336 550.392 109.884 553.099C99.5489 554.623 88.0764 552.584 79.2679 546.874C69.3503 540.444 61.9172 530.254 59.4773 518.642Q59.2632 517.576 59.1022 516.5Q58.9413 515.425 58.8339 514.343Q58.7265 513.26 58.6729 512.174Q58.6193 511.088 58.6197 510Q58.62 508.913 58.6743 507.827Q58.7286 506.741 58.8367 505.658Q58.9448 504.576 59.1065 503.501Q59.2681 502.425 59.4829 501.359Q59.6977 500.293 59.9652 499.239Q60.2326 498.185 60.552 497.146Q60.8713 496.106 61.2419 495.083Q61.6124 494.061 62.0332 493.058Q62.4541 492.055 62.9241 491.075Q63.3941 490.094 63.9122 489.138Q64.4303 488.182 64.9952 487.252Q65.5601 486.323 66.1704 485.423C73.1522 474.996 83.673 469.002 95.8051 466.611Z"/>
	<path fill="#B9FF66" d="M97.3872 476.161C105.802 474.979 115.372 477.314 122.316 482.18Q122.965 482.627 123.592 483.106Q124.218 483.585 124.82 484.094Q125.422 484.604 125.997 485.143Q126.573 485.682 127.121 486.248Q127.669 486.815 128.188 487.409Q128.707 488.002 129.196 488.621Q129.685 489.239 130.143 489.881Q130.601 490.523 131.026 491.187Q131.451 491.852 131.842 492.536Q132.233 493.22 132.59 493.924Q132.947 494.627 133.269 495.347Q133.59 496.067 133.875 496.802Q134.16 497.537 134.409 498.285Q134.657 499.034 134.867 499.793Q135.078 500.553 135.25 501.323Q135.423 502.092 135.557 502.869C137.142 511.998 135.486 521.606 130.034 529.197C124.26 537.235 115.73 541.309 106.156 542.872C97.5367 543.437 90.2223 542.319 82.9493 537.346C75.5276 532.27 70.0927 523.922 68.5716 515.044C67.1002 506.456 69.4903 497.706 74.482 490.641Q74.9783 489.926 75.5096 489.237Q76.041 488.549 76.6061 487.887Q77.1712 487.226 77.7687 486.593Q78.3662 485.961 78.9946 485.359Q79.6229 484.757 80.2806 484.188Q80.9382 483.618 81.6235 483.082Q82.3088 482.546 83.0201 482.045Q83.7313 481.544 84.4667 481.079Q85.2021 480.614 85.9598 480.187Q86.7175 479.759 87.4957 479.37Q88.2738 478.981 89.0704 478.631Q89.8671 478.281 90.6802 477.972Q91.4933 477.662 92.3209 477.394Q93.1484 477.125 93.9884 476.899Q94.8283 476.672 95.6786 476.487Q96.5288 476.303 97.3872 476.161Z"/>
	<path fill="#B9FF66" d="M733.927 760.973L795.481 792.904C804.654 797.717 814.04 802.319 822.962 807.575L823.024 911.603C814.67 917.513 804.64 921.788 795.565 926.553C776.278 936.68 756.642 946.697 737.665 957.372L679.931 925.119C670.644 920.025 661.232 914.163 651.521 909.99C651.363 904.018 651.962 869.1 651.16 867.291C651.006 866.943 650.666 866.712 650.418 866.422C650.202 865.024 650.65 863.707 650.977 862.356C651.789 856.211 651.4 849.595 651.412 843.39C651.436 831.221 651.28 819.029 651.525 806.863C661.665 799.99 673.402 794.709 684.146 788.751C700.741 779.548 717.084 769.717 733.927 760.973Z"/>
	<path d="M733.514 765.597C740.476 768.47 747.242 772.175 753.962 775.592C775.82 786.708 797.01 799.351 818.985 810.178L819.093 909.688C792.496 922.985 766.384 937.517 740.211 951.632C739.889 951.813 739.467 952.065 739.125 952.182C739.059 952.205 737.905 952.484 737.755 952.474C735.442 952.325 665.289 912.44 655.496 907.462C655.126 874.701 655.451 841.906 655.477 809.141C680.885 793.694 708.035 780.994 733.514 765.597Z"/>
	<path fill="#B9FF66" d="M734.121 773.41C760.365 786.417 785.984 800.322 811.775 814.169Q811.518 842.857 811.707 871.544C811.759 882.738 811.604 893.991 812.22 905.17C802.003 911.584 790.901 916.851 780.191 922.409Q759.834 932.955 739.672 943.868L738.264 944.313C733.918 943.72 672.232 908.353 662.495 902.972Q663.098 858.103 662.618 813.233C672.338 808.358 681.637 802.462 691.166 797.204C705.493 789.299 720.064 781.792 734.121 773.41Z"/>
	<path d="M733.594 777.93C743.704 782.428 753.575 788.01 763.412 793.094C778.321 800.8 793.409 808.361 807.862 816.901L807.998 902.537C799.811 906.719 791.889 911.524 783.805 915.908C775.718 920.294 767.438 924.32 759.325 928.66C752.823 932.138 746.451 935.922 739.733 938.971C739.066 939.319 738.459 939.577 737.759 939.838C713.609 927.649 690.117 913.676 666.556 900.361L666.507 815.618Q683.323 805.753 700.57 796.662C710.122 791.638 725.731 784.561 733.594 777.93Z"/>
	<path fill="#B9FF66" d="M734.377 785.934C753.667 796.08 772.607 806.852 792.106 816.613C774.041 828.168 754.172 836.51 736.281 848.553C732.817 847.566 716.869 837.571 712.319 835.087C701.372 829.112 689.451 824.038 678.967 817.35C696.558 805.687 716.277 796.874 734.377 785.934Z"/>
	<path fill="#B9FF66" d="M673.52 825.562C680.162 828.384 686.699 832.677 693.019 836.237C705.9 843.493 719.076 850.76 731.526 858.713C730.731 881.441 731.451 904.245 731.198 926.992L730.899 927.244C730.622 927.284 730.342 927.42 730.068 927.365C729.002 927.149 677.619 898.295 673.647 895.602Q673.781 860.582 673.52 825.562Z"/>
	<path fill="#B9FF66" d="M800.024 824.106C800.353 824.463 800.146 890.946 800.158 898.197C793.309 903.08 785.146 906.835 777.715 910.808L741.29 930.358C740.739 906.23 741.857 882.123 740.958 857.975C759.803 845.561 780.609 835.691 800.024 824.106Z"/>
	<path fill="#B9FF66" d="M761.249 47.1184C770.073 46.599 779.084 46.9963 787.929 46.9529C796.958 46.9085 819.608 45.3918 827.543 48.13C833.149 50.0642 840.217 69.91 842.78 75.645C851.817 77.8697 861.165 82.5182 869.541 86.549C876.059 83.7032 881.79 79.2198 888.444 76.7491C889.538 77.0193 890.631 77.3028 891.698 77.6667C908.965 83.5567 939.557 110.514 947.352 126.899C951.482 135.58 945.917 149.199 942.798 157.598C948.559 169.019 952.732 180.136 956.505 192.35C962.246 194.726 980.869 204.62 983.714 209.593C984.781 211.458 984.888 214.798 985.013 216.979C985.513 225.707 985.983 278.685 984.017 284.205C982.651 288.042 962.02 296.721 957.638 298.844C953.953 308.57 949.173 318.151 946.067 328.047C948.472 333.197 956.765 347.854 955.155 352.807C952.988 359.472 907.309 404.018 900.696 406.674C895.282 408.849 878.894 400.013 873.094 397.569C868.408 399.237 863.874 401.46 859.217 403.238C854.677 404.971 849.994 406.192 845.409 407.783C838.803 415.984 836.213 424.618 828.065 432.262C822.589 433.147 816.394 433.007 810.817 433.066C793.293 433.25 775.764 432.497 758.462 429.483C752.494 423.192 748.358 415.408 744.236 407.856C734.932 404.845 725.956 401.427 716.984 397.539C707.468 401.716 698.042 405.692 687.468 405.485C675.741 398.702 641.97 366.702 635.027 354.288C635.582 344.384 638.923 335.567 642.924 326.607C637.937 317.697 634.022 308.635 630.528 299.07C623.055 294.862 613.192 292.254 607.224 286.025C603.379 272.505 599.212 220.389 607.332 209.729C612.569 202.853 623.457 201.408 628.239 194.339C631.526 189.48 633.014 182.345 635.191 176.815C637.189 171.736 639.673 166.92 642.202 162.094C639.653 157.347 631.306 147.656 632.32 142.445C634.345 132.042 675.283 88.9103 684.518 82.9288C692.233 77.9314 704.124 86.1547 712.241 87.7636C712.403 87.7956 712.565 87.8227 712.727 87.8523C722.884 82.7454 733.188 78.3446 743.659 73.9417C746.914 67.3876 748.463 59.7573 752.242 53.5406C754.548 49.7467 756.984 48.139 761.249 47.1184Z"/>
	<path d="M765.02 50.6906C775.291 50.3546 785.64 50.5827 795.92 50.5795C805.598 50.5765 815.415 50.2146 825.055 51.1434C831.92 55.8815 835.936 70.7393 838.949 78.6331C849.745 82.3971 859.854 87.3127 870.44 91.533C876.615 88.5033 881.882 83.9463 888.089 80.9397C890.563 81.7968 892.876 82.7625 895.173 84.0259C910.332 92.3613 940.479 116.598 945.41 133.289C943.963 141.544 940.999 149.664 938.16 157.528C945.531 168.855 949.81 183.186 953.504 196.041C962.817 199.841 972.862 205.683 981.163 211.401C981.528 234.937 981.54 258.597 981.385 282.135C973.492 287.561 963.119 291.325 954.451 295.537C952.544 299.848 951.096 304.438 949.378 308.837Q945.532 318.584 941.162 328.108C943.596 333.629 951.279 345.252 950.755 350.728C950.122 357.335 905.509 398.221 898.588 403.937C893.716 402.222 889.027 399.921 884.243 397.968C880.737 396.537 876.834 395.464 873.6 393.504C866.362 396.213 849.38 401.283 843.736 405.056C841.219 406.739 839.253 409.065 837.713 411.651C834.31 417.365 831.434 423.641 826.791 428.498C826.66 428.634 826.526 428.767 826.394 428.901C804.566 430.343 780.859 430.126 759.447 425.164C754.409 418.81 750.623 411.894 746.837 404.763C736.572 401.946 726.82 397.994 717.158 393.57C710.52 396.796 695.172 403.63 687.949 400.941C679.344 397.737 643.276 361.842 638.794 352.702C639.333 343.753 643.091 335.131 647.131 327.272C641.889 316.992 636.751 307.183 633.139 296.135C625.994 292.834 617.599 289.403 611.179 284.942C605.927 268.521 604.75 234.68 608.482 217.653C608.913 215.687 609.489 213.771 610.74 212.161C614.795 206.941 625.279 202.09 631.064 198.322C637.114 185.501 639.057 175.061 646.982 162.274C643.3 155.842 638.697 149.954 635.347 143.327C640.37 132.374 678.673 90.6294 689.216 84.5913C697.317 86.6234 705.041 89.9067 713.115 92.0707C718.429 89.8194 723.503 86.7245 728.747 84.2586C734.603 81.5052 740.689 79.2796 746.56 76.5541C750.439 69.6993 751.421 60.3829 756.344 54.3362C758.885 51.2151 761.256 50.9868 765.02 50.6906Z"/>
	<path fill="#B9FF66" d="M762.416 57.2293Q792.698 56.9064 822.982 57.0102C826.719 65.0469 830.931 74.3832 832.904 83.0283C845.941 86.535 858.391 92.3669 870.422 98.4126C876.776 95.306 883.839 91.9485 889.214 87.2864C907.215 97.4011 929.256 114.791 939.474 133.056C937.644 141.573 934.365 149.955 931.549 158.19C937.774 166.955 942.082 177.882 945.248 188.144C946.522 192.274 947.463 196.593 948.964 200.638C957.573 206.468 967.709 209.732 975.804 216.408C976.134 236.716 976.6 257.222 975.989 277.521C967.804 281.422 958.586 283.242 950.61 287.594C947.598 294.416 945.504 301.59 942.622 308.465C939.915 314.92 936.44 321.135 933.899 327.639C937.117 335.239 942.37 342.287 945.131 349.975C939.363 355.167 934.143 360.907 928.731 366.46C918.546 376.907 908.21 387.393 897.054 396.813C889.548 393.032 880.929 390.03 874.007 385.317C861.488 391.524 849.004 396.913 835.411 400.32C832.576 407.798 829.078 415.313 824.497 421.904C815.388 423.144 768.748 422.929 761.853 418.138C761.386 417.813 761.201 417.564 760.849 417.163C757.666 411.224 754.339 405.296 751.942 398.987C739.261 396.092 727.567 391.637 715.977 385.796C708.848 390.907 701.606 393.289 693.127 395.212C680.329 388.087 654.819 364.632 647.139 352.223C646.825 343.645 651.335 335.102 654.657 327.426C650.727 320.179 646.934 312.977 643.766 305.356C641.644 300.251 640 294.968 637.879 289.869C630.921 286.526 623.732 282.207 616.404 279.89C612.568 263.456 611.128 232.317 615.821 216.048C622.397 212.006 631.221 208.142 636.428 202.43C639.586 198.965 641.202 189.315 643.189 184.545C646.349 176.958 650.536 170.3 654.133 162.996C651.532 155.975 646.835 149.157 643.016 142.719C649.992 131.512 664.449 116.443 673.997 106.872C679.175 101.681 684.702 96.8694 689.208 91.0564C697.447 93.7147 705.673 96.6493 713.99 99.0335C719.658 96.3216 725.129 93.2179 730.818 90.5547C737.537 87.41 744.505 84.7933 751.455 82.2142C755.799 74.3509 758.911 65.5093 762.416 57.2293Z"/>
	<path d="M764.04 60.0725C783.225 60.0039 802.423 59.7797 821.607 59.9233C824.784 68.0061 827.833 76.3758 830.374 84.6816C838.512 88.003 846.83 90.8383 854.928 94.2701C860.216 96.5112 865.258 99.3002 870.515 101.553C877.022 98.6727 883.716 95.309 889.597 91.3013C910.174 103.11 922.369 114.99 936.557 133.6C933.739 141.863 930.911 150.224 928.76 158.688C937.54 172.553 942.33 187.139 946.434 202.882Q959.83 209.98 972.954 217.57L973.038 275.626C964.784 278.41 956.378 281.245 948.563 285.128C942.493 300.021 938.331 312.774 930.063 326.896Q935.523 338.314 941.38 349.534C930.251 359.777 920.111 371.16 909.187 381.654C905.081 385.599 900.801 390.199 895.977 393.248C888.984 390.177 880.766 386.565 874.748 381.856C861.063 388.42 848.182 394.012 833.478 398.105C830.592 405.51 826.409 412.144 823.284 419.404C815.333 419.536 767.918 419.973 762.856 415.278C762.424 414.878 762.227 414.597 761.877 414.151C761.135 410.204 756.104 401.174 754.19 396.935C740.558 393.154 728.089 389.146 715.635 382.263C708.225 387.168 702.536 390.096 693.842 392.178C683.415 385.758 668.968 372.431 660.475 363.55C656.938 359.851 653.424 354.548 649.497 351.485C650.002 343.167 654.297 335.168 658.271 328.038C651.497 315.258 643.822 302.131 640.454 287.913C633.363 284.315 625.396 281.139 618.901 276.574C615.446 260.554 614.631 233.591 618.029 217.438C625.311 213.414 633.152 209.536 639.658 204.314C644.193 189.231 649.606 176.726 657.06 162.985C655.049 156.179 649.855 149.095 646.191 142.999C659.599 125.85 674.47 108.611 691.206 94.5819C698.815 96.7153 706.054 99.3394 713.322 102.425C726.24 96.2861 739.079 88.7464 752.98 84.9808C757.645 77.1303 760.433 68.4243 764.04 60.0725Z"/>
	<path fill="#B9FF66" d="M775.434 68.2254C789.048 68.0285 802.625 67.8491 816.234 68.461C818.174 76.0152 821.12 83.2874 822.368 91.0124C841.925 96.6817 853.729 101.224 872.044 110.644C878.005 107.836 883.801 103.824 889.56 100.549C905.619 111.187 913.734 119.724 925.993 134.379C924.049 142.406 922.261 150.495 919.138 158.165C931.164 171.203 937.738 193.457 942.054 210.314C949.187 214.946 957.044 218.842 964.656 222.637Q964.654 245.447 964.271 268.253C957.686 271.458 948.079 273.27 942.689 278.195C940.241 280.432 938.63 290.387 937.471 293.809C933.289 306.152 927.195 318.39 920.301 329.436C923.431 335.704 927.615 341.816 931.165 347.882C925.913 353.491 919.948 358.652 914.339 363.921C907.148 370.675 900.049 377.719 892.351 383.889C886.681 380.175 881.311 375.839 875.761 371.922C862.558 380.316 840.473 388.802 825.264 392.669C823.232 399.046 820.976 405.28 818.591 411.534L802.875 411.455C791.506 411.59 779.973 410.67 768.673 409.471C765.939 403.74 764.042 397.615 761.32 391.846C743.702 388.121 728.591 381.428 713.511 371.781C708.227 377.031 703.042 381.556 696.322 384.859C681.687 373.2 668.596 359.944 656.001 346.157C659.836 340.951 664.27 336.183 668.61 331.401C655.731 311.144 649.081 296.099 643.334 272.54C636.936 272.504 630.509 272.388 624.147 271.684C621.79 260.714 622.076 230.76 624.654 219.835C631.039 218.993 637.835 219.014 644.27 219.138C645.417 203.812 659.153 168.662 669.493 156.591C664.198 152.4 659.386 147.583 654.64 142.792C663.884 131.436 682.552 110.329 694.506 102.764C700.598 105.023 706.278 106.702 710.787 111.599C728.76 102.298 741.895 96.4198 762.065 91.8546L769.181 68.4841L775.434 68.2254Z"/>
	<path d="M692.987 120.448C694.578 120.436 695.391 120.489 696.787 121.393C697.237 122.197 697.603 122.509 697.526 123.471C697.346 125.746 696.071 126.796 694.473 128.224C692.702 128.192 691.804 128.153 690.428 126.969C690.074 126.118 689.75 125.712 689.879 124.763C690.178 122.564 691.304 121.673 692.987 120.448Z"/>
	<path d="M790.261 78.5133C790.997 78.5748 791.721 78.6542 792.435 78.8555C793.789 79.2373 795.744 80.614 796.272 81.9764C796.758 83.2314 796.576 83.5864 796.109 84.7489C794.806 85.859 793.529 85.8243 791.905 85.9603C790.622 85.9855 788.92 86.1839 787.671 85.9317C786.296 85.6537 785.754 85.0206 784.899 83.9712C784.795 83.1407 784.616 82.8463 785.027 82.0574C786.123 79.9538 788.185 79.3185 790.261 78.5133Z"/>
	<path d="M675.092 130.809C676.9 131.186 678.45 131.615 679.578 133.191C680.461 134.426 680.64 135.776 680.26 137.23C679.698 139.376 678.328 140.272 676.592 141.401C675.145 141.341 673.561 140.798 672.551 139.713C671.747 138.848 671.43 137.805 671.498 136.641C671.659 133.879 673.095 132.527 675.092 130.809Z"/>
	<path d="M946.677 236.969C948.207 237.166 949.89 237.393 951.335 237.94C952.702 238.459 953.972 239.484 954.353 240.957C954.89 243.031 953.78 245.327 952.98 247.175C952.54 247.445 952.107 247.728 951.649 247.967C950.269 248.688 949.272 248.714 947.822 248.243C945.513 245.501 946.513 240.381 946.677 236.969Z"/>
	<path d="M789.426 395.002L799.063 394.961L799.045 403.021L789.208 403.047C789.223 400.366 789.345 397.682 789.426 395.002Z"/>
	<path d="M631.355 241.7L640.097 241.728L640.109 250.898L631.384 250.9L631.355 241.7Z"/>
	<path d="M894.32 116.858C897.792 118.77 900.251 121.286 902.845 124.205C902.008 126.659 901.302 129.056 899.152 130.657C896.881 128.863 894.329 127.099 892.277 125.068C891.1 123.904 890.744 122.801 890.78 121.145C891.433 119.302 892.928 118.16 894.32 116.858Z"/>
	<path d="M686.909 352.905C689.678 354.717 692.083 357 694.546 359.196L686.819 365.875C684.855 365.619 681.51 361.812 680.01 360.403Q683.498 356.69 686.909 352.905Z"/>
	<path d="M906.13 348.857C908.059 349.525 909.84 353.167 910.908 354.867C908.557 357.854 905.604 360.703 902.749 363.215L902.026 362.939C899.961 361.765 897.491 361.049 895.265 360.214C898.564 355.874 901.885 352.292 906.13 348.857Z"/>
	<path d="M782.329 95.71C782.635 95.6744 782.941 95.6275 783.248 95.603C818.858 92.7694 859.152 106.162 886.628 128.98C918.624 155.554 936.964 189.831 940.573 231.354Q940.718 233.108 940.82 234.865Q940.922 236.621 940.982 238.38Q941.041 240.139 941.058 241.899Q941.075 243.658 941.048 245.418Q941.022 247.177 940.953 248.936Q940.884 250.694 940.773 252.45Q940.661 254.207 940.507 255.96Q940.352 257.713 940.155 259.461Q939.958 261.21 939.719 262.953Q939.479 264.697 939.198 266.434Q938.916 268.171 938.592 269.901Q938.268 271.63 937.902 273.352Q937.536 275.073 937.128 276.785Q936.721 278.497 936.272 280.198Q935.822 281.9 935.332 283.59Q934.842 285.28 934.31 286.957Q933.779 288.635 933.207 290.299Q932.635 291.963 932.022 293.613Q931.41 295.263 930.757 296.897Q930.105 298.531 929.413 300.15Q928.721 301.768 927.99 303.368Q927.259 304.969 926.49 306.551Q925.72 308.134 924.912 309.697Q924.104 311.261 923.258 312.804Q922.412 314.347 921.529 315.869Q920.646 317.391 919.726 318.891Q918.806 320.392 917.85 321.869Q916.894 323.346 915.902 324.8Q914.911 326.254 913.884 327.683Q912.857 329.112 911.796 330.516Q910.734 331.919 909.639 333.297Q908.544 334.674 907.416 336.025Q906.241 337.406 905.033 338.759Q903.825 340.111 902.585 341.434Q901.344 342.756 900.071 344.048Q898.799 345.34 897.495 346.6Q896.191 347.861 894.857 349.089Q893.523 350.317 892.159 351.512Q890.796 352.707 889.403 353.869Q888.01 355.03 886.59 356.157Q885.17 357.285 883.722 358.377Q882.274 359.469 880.801 360.525Q879.327 361.582 877.828 362.602Q876.329 363.622 874.805 364.605Q873.281 365.589 871.734 366.534Q870.187 367.48 868.617 368.388Q867.047 369.296 865.456 370.165Q863.864 371.034 862.252 371.864Q860.64 372.694 859.008 373.484Q857.376 374.274 855.725 375.025Q854.074 375.775 852.405 376.485Q850.736 377.194 849.051 377.863Q847.365 378.532 845.664 379.159Q843.963 379.787 842.247 380.372Q840.53 380.958 838.8 381.502Q837.07 382.045 835.328 382.547Q833.585 383.048 831.831 383.506Q830.076 383.965 828.311 384.38Q826.546 384.796 824.771 385.168Q822.997 385.54 821.213 385.869Q819.43 386.198 817.639 386.483Q815.848 386.768 814.051 387.009Q812.254 387.251 810.451 387.448Q808.649 387.646 806.842 387.799Q805.985 387.896 805.127 387.98C767.141 391.662 729.47 377.976 700.24 353.941C672.043 330.756 652.784 296.904 649.314 260.406C645.201 217.15 658.605 178.401 686.211 145.167C711.641 114.553 742.768 99.2527 782.329 95.71Z"/>
	<path fill="#B9FF66" d="M788.795 99.7137C821.329 97.9157 858.155 111.11 883.101 131.687C914.719 157.769 932.733 190.318 936.45 231.277Q936.595 232.999 936.699 234.724Q936.802 236.449 936.863 238.176Q936.924 239.903 936.944 241.631Q936.963 243.359 936.94 245.087Q936.916 246.815 936.851 248.542Q936.786 250.269 936.678 251.994Q936.571 253.719 936.422 255.44Q936.272 257.162 936.081 258.879Q935.889 260.597 935.656 262.309Q935.423 264.022 935.148 265.728Q934.873 267.434 934.556 269.133Q934.24 270.832 933.882 272.522Q933.524 274.213 933.125 275.895Q932.726 277.576 932.286 279.247Q931.846 280.918 931.365 282.578Q930.885 284.238 930.364 285.886Q929.843 287.534 929.282 289.168Q928.721 290.803 928.12 292.423Q927.52 294.044 926.88 295.649Q926.24 297.254 925.56 298.843Q924.881 300.432 924.164 302.004Q923.446 303.577 922.69 305.131Q921.935 306.685 921.141 308.22Q920.348 309.755 919.517 311.271Q918.686 312.786 917.819 314.281Q916.952 315.775 916.048 317.249Q915.144 318.722 914.205 320.172Q913.266 321.623 912.291 323.05Q911.317 324.477 910.308 325.88Q909.299 327.283 908.256 328.661Q907.213 330.039 906.137 331.391Q905.061 332.744 903.952 334.069C886.584 354.906 859.443 371.54 833.241 378.815C823.006 381.657 812.666 382.995 802.124 383.939L800.544 384.038C763.751 386.222 727.824 372.686 700.397 348.32C672.452 323.493 655.196 290.626 652.974 253.071C650.544 212.011 666.13 173.868 693.175 143.518C709.902 124.748 733.72 109.54 758.2 103.62C768.274 101.184 778.483 100.31 788.795 99.7137Z"/>
	<path d="M676.323 186.4C677.767 186.541 679.437 186.834 680.489 187.937C681.524 189.025 681.88 189.895 681.889 191.398C681.903 193.565 680.577 195.059 679.176 196.537C678.888 196.547 678.6 196.564 678.312 196.569C676.94 196.59 675.899 196.176 674.972 195.12C674.029 194.047 673.718 192.795 673.78 191.4C673.88 189.17 674.754 187.903 676.323 186.4Z"/>
	<path d="M834.788 356.455C835.456 356.445 836.125 356.437 836.793 356.478C838.357 356.574 840.031 357.462 840.942 358.783C841.689 359.867 841.921 360.933 841.575 362.222C841.142 363.831 839.947 364.58 838.664 365.459C838.336 365.515 838.008 365.576 837.679 365.626C836.288 365.837 835.182 365.686 834.085 364.711C832.917 363.672 832.495 362.301 832.57 360.786C832.669 358.816 833.406 357.79 834.788 356.455Z"/>
	<path d="M673.3 282.474C675.002 282.349 676.567 282.107 678.053 283.146C679.301 284.018 680.193 285.229 680.301 286.798C680.445 288.902 679.584 290.173 678.236 291.668C676.442 292.003 674.991 292.207 673.422 290.988C672.323 290.134 671.698 288.931 671.546 287.563C671.303 285.366 672.027 284.15 673.3 282.474Z"/>
	<path d="M744.025 356.48Q745.081 356.479 746.118 356.68C747.915 357.014 749.818 358.187 750.727 359.826C751.351 360.95 751.441 362.017 750.957 363.226C750.433 364.535 749.198 365.069 748.023 365.658C745.991 365.325 743.954 364.734 742.407 363.295C741.19 362.163 741.077 361.152 741.082 359.565C741.796 357.955 742.563 357.422 744.025 356.48Z"/>
	<path d="M916.857 279.723C917.174 279.78 917.495 279.82 917.808 279.895C919.218 280.233 919.302 280.474 920.095 281.629C921.126 287.591 915.971 297.967 912.77 302.804C912.266 302.698 911.179 302.558 910.695 302.277C910.159 301.966 909.6 301.496 909.497 300.856C908.993 297.726 915.084 282.185 916.857 279.723Z"/>
	<path d="M899.825 161.243C907.697 167.573 921.404 199.676 923.247 210.461C923.543 212.193 923.462 212.64 922.49 214.097C922.368 214.068 922.241 214.055 922.124 214.01C922.117 214.007 920.904 213.451 920.875 213.424C919.321 211.98 914.042 193.141 912.303 189.175C910.002 183.925 907.324 178.711 904.443 173.752C902.838 170.99 900.544 167.945 899.339 165.025C898.728 163.545 899.342 162.679 899.825 161.243Z"/>
	<path d="M863.237 136.618C869.582 135.989 876.624 138.002 881.88 141.608C888.28 145.997 892.321 152.83 893.765 160.382Q893.902 161.108 894.002 161.84Q894.103 162.572 894.167 163.308Q894.23 164.044 894.258 164.782Q894.285 165.52 894.276 166.259Q894.266 166.997 894.22 167.735Q894.174 168.472 894.092 169.206Q894.009 169.94 893.89 170.669Q893.771 171.398 893.616 172.121Q893.461 172.843 893.27 173.557Q893.079 174.27 892.854 174.973Q892.628 175.677 892.367 176.368Q892.106 177.059 891.812 177.737Q891.517 178.414 891.189 179.076Q890.861 179.738 890.501 180.383Q890.141 181.028 889.749 181.654Q889.357 182.28 888.934 182.886C883.732 190.378 876.525 193.359 867.968 194.968C860.961 195.251 855.359 194.491 849.326 190.637Q848.693 190.231 848.082 189.793Q847.471 189.356 846.882 188.887Q846.294 188.419 845.73 187.921Q845.167 187.424 844.629 186.898Q844.092 186.373 843.581 185.82Q843.071 185.268 842.59 184.69Q842.108 184.113 841.657 183.511Q841.206 182.91 840.786 182.287Q840.365 181.663 839.978 181.019Q839.59 180.375 839.235 179.712Q838.88 179.049 838.56 178.369Q838.24 177.689 837.954 176.993Q837.669 176.297 837.419 175.588Q837.17 174.879 836.956 174.158Q836.743 173.437 836.567 172.706Q836.391 171.975 836.252 171.236C834.766 163.7 836.635 156.163 840.933 149.882C846.309 142.027 854.103 138.271 863.237 136.618Z"/>
	<path d="M792.65 317.204C799.495 317.44 805.343 318.827 810.958 322.867Q811.533 323.274 812.086 323.71Q812.639 324.145 813.17 324.608Q813.701 325.071 814.208 325.56Q814.715 326.049 815.196 326.562Q815.678 327.076 816.133 327.613Q816.588 328.151 817.016 328.71Q817.444 329.27 817.843 329.85Q818.242 330.43 818.611 331.03Q818.98 331.629 819.319 332.247Q819.658 332.864 819.965 333.498Q820.272 334.131 820.547 334.78Q820.822 335.428 821.065 336.089Q821.307 336.751 821.515 337.423Q821.724 338.096 821.898 338.778Q822.073 339.46 822.213 340.15Q822.353 340.841 822.458 341.537C823.641 349.386 821.814 358.333 816.891 364.655C811.479 371.605 803.371 374.758 794.891 375.843C787.571 376.497 779.962 374.02 774.346 369.314C768.396 364.327 764.971 357.05 764.391 349.363C763.777 341.23 766.056 333.407 771.41 327.192C777.115 320.569 784.083 317.809 792.65 317.204Z"/>
	<path d="M868.764 284.657C875.505 284.489 881.951 285.714 887.693 289.445C894.095 293.604 898.339 300.305 899.865 307.727C901.482 315.597 899.602 323.901 895.129 330.53C890.28 337.717 882.831 341.896 874.449 343.557C867.125 344.575 859.472 342.834 853.518 338.374C847.252 333.68 843.256 326.64 842.077 318.936C840.877 311.089 842.596 303.152 847.342 296.719C852.523 289.696 860.302 285.92 868.764 284.657Z"/>
	<path d="M716.063 136.593C723.545 136.18 730.178 136.652 736.808 140.498C743.68 144.485 748.626 150.692 750.679 158.432C752.63 165.788 751.74 174.155 747.785 180.685C743.331 188.038 736.567 192.304 728.327 194.364C721.238 195.583 714.245 194.713 707.957 191.147C700.985 187.194 695.47 180.227 693.356 172.482C691.352 165.14 692.498 156.572 696.382 150.014C700.807 142.542 707.891 138.609 716.063 136.593Z"/>
	<path d="M791.287 104.182C798.328 103.429 805.831 105.901 811.266 110.333C817.511 115.425 821.817 123.13 822.511 131.185C823.183 138.981 820.648 147.188 815.575 153.159C810.224 159.458 803.075 162.532 794.935 163.207C787.912 163.65 781.004 162.061 775.293 157.838Q774.711 157.408 774.152 156.949Q773.592 156.49 773.057 156.004Q772.521 155.517 772.011 155.004Q771.5 154.491 771.016 153.953Q770.533 153.415 770.077 152.854Q769.62 152.292 769.193 151.708Q768.766 151.124 768.369 150.519Q767.972 149.914 767.606 149.29Q767.24 148.666 766.906 148.024Q766.572 147.382 766.271 146.724Q765.969 146.066 765.702 145.394Q765.434 144.722 765.201 144.037Q764.967 143.352 764.769 142.656Q764.57 141.96 764.407 141.255Q764.244 140.55 764.117 139.838Q763.989 139.126 763.898 138.408Q763.798 137.66 763.737 136.908Q763.675 136.156 763.652 135.401Q763.628 134.647 763.643 133.892Q763.657 133.138 763.71 132.385Q763.763 131.632 763.853 130.883Q763.944 130.134 764.072 129.39Q764.2 128.646 764.366 127.91Q764.532 127.174 764.735 126.447Q764.937 125.72 765.176 125.004Q765.415 124.288 765.69 123.586Q765.965 122.883 766.275 122.195Q766.585 121.507 766.93 120.835Q767.274 120.164 767.652 119.51Q768.03 118.857 768.44 118.224Q768.85 117.59 769.292 116.979Q769.734 116.367 770.206 115.778C775.527 109.035 782.793 105.145 791.287 104.182Z"/>
	<path d="M714.288 284.118C721.552 283.247 728.39 284.596 734.492 288.779C741.223 293.395 745.62 300.268 747.083 308.286C748.573 316.453 746.841 325.318 741.98 332.104C737.182 338.803 730.437 342.355 722.435 343.707C715.749 344.488 708.899 343.28 703.183 339.615C696.016 335.019 690.623 327.362 688.978 318.986C687.428 311.09 689.469 303.273 693.928 296.7C698.99 289.238 705.628 285.709 714.288 284.118Z"/>
	<path d="M688.598 208.687C695.57 208.314 703.257 211.104 708.654 215.457Q709.242 215.939 709.806 216.449Q710.369 216.959 710.907 217.497Q711.444 218.034 711.954 218.598Q712.464 219.161 712.946 219.75Q713.427 220.338 713.879 220.949Q714.331 221.561 714.751 222.194Q715.172 222.827 715.561 223.48Q715.949 224.133 716.305 224.805Q716.661 225.477 716.983 226.166Q717.305 226.854 717.593 227.558Q717.88 228.262 718.132 228.979Q718.384 229.696 718.6 230.425Q718.816 231.154 718.996 231.892Q719.176 232.631 719.318 233.378Q719.461 234.124 719.567 234.877Q719.672 235.63 719.74 236.387Q719.818 237.148 719.857 237.913Q719.896 238.677 719.898 239.442Q719.899 240.208 719.862 240.972Q719.826 241.737 719.751 242.498Q719.676 243.26 719.563 244.017Q719.451 244.774 719.301 245.525Q719.15 246.275 718.963 247.017Q718.776 247.759 718.552 248.491Q718.328 249.223 718.067 249.943Q717.807 250.663 717.511 251.368Q717.216 252.074 716.885 252.765Q716.555 253.455 716.19 254.128Q715.826 254.801 715.428 255.455Q715.031 256.109 714.601 256.743Q714.172 257.376 713.711 257.987Q713.25 258.598 712.76 259.186C707.323 265.636 699.951 268.432 691.781 269.259C684.946 269.569 677.956 267.713 672.475 263.554C666.166 258.766 661.868 251.04 660.911 243.194Q660.819 242.411 660.765 241.625Q660.711 240.838 660.696 240.05Q660.681 239.262 660.704 238.474Q660.727 237.686 660.788 236.9Q660.849 236.114 660.949 235.332Q661.049 234.551 661.186 233.774Q661.324 232.998 661.499 232.23Q661.674 231.461 661.887 230.702Q662.099 229.943 662.348 229.195Q662.597 228.447 662.883 227.713Q663.168 226.978 663.489 226.258Q663.81 225.538 664.165 224.834Q664.521 224.131 664.91 223.445Q665.3 222.76 665.722 222.094Q666.144 221.429 666.599 220.784Q667.053 220.14 667.538 219.519C673.016 212.641 680.07 209.617 688.598 208.687Z"/>
	<path d="M894.163 209.63C900.978 208.891 908.178 210.393 913.955 214.125C920.807 218.551 925.22 225.902 926.811 233.81Q926.965 234.601 927.08 235.399Q927.195 236.197 927.271 236.999Q927.346 237.802 927.381 238.607Q927.416 239.413 927.412 240.219Q927.407 241.025 927.362 241.83Q927.318 242.634 927.233 243.436Q927.148 244.238 927.024 245.034Q926.9 245.831 926.736 246.62Q926.573 247.409 926.37 248.189Q926.168 248.97 925.927 249.739Q925.686 250.508 925.407 251.264Q925.128 252.021 924.812 252.762Q924.496 253.504 924.143 254.229Q923.791 254.953 923.403 255.66Q923.015 256.367 922.592 257.053Q922.169 257.739 921.713 258.404C916.897 265.425 910.354 268.984 902.064 270.465C894.514 271.424 887.445 270.211 881.059 265.775Q880.407 265.326 879.778 264.844Q879.15 264.362 878.547 263.849Q877.943 263.336 877.366 262.794Q876.79 262.251 876.241 261.68Q875.693 261.109 875.174 260.51Q874.655 259.912 874.167 259.289Q873.679 258.665 873.223 258.017Q872.767 257.37 872.345 256.7Q871.922 256.03 871.534 255.34Q871.146 254.65 870.793 253.941Q870.441 253.232 870.124 252.506Q869.808 251.78 869.529 251.039Q869.249 250.298 869.008 249.544Q868.766 248.79 868.563 248.025Q868.36 247.259 868.196 246.485Q868.032 245.71 867.907 244.928Q867.777 244.186 867.684 243.438Q867.592 242.69 867.536 241.939Q867.48 241.187 867.461 240.434Q867.442 239.68 867.46 238.927Q867.479 238.174 867.534 237.422Q867.589 236.671 867.681 235.923Q867.774 235.175 867.903 234.433Q868.032 233.69 868.197 232.955Q868.362 232.22 868.564 231.494Q868.765 230.767 869.002 230.052Q869.239 229.337 869.511 228.634Q869.783 227.931 870.089 227.243Q870.395 226.554 870.734 225.881Q871.074 225.209 871.446 224.553Q871.819 223.898 872.223 223.262Q872.627 222.626 873.062 222.011C878.234 214.767 885.567 211.131 894.163 209.63Z"/>
	<path d="M786.888 178.688C802.721 176.69 819.505 181.328 832.351 190.679Q833.58 191.559 834.764 192.499Q835.947 193.439 837.082 194.437Q838.217 195.435 839.301 196.489Q840.385 197.542 841.415 198.649Q842.444 199.755 843.418 200.912Q844.391 202.068 845.305 203.272Q846.219 204.475 847.072 205.723Q847.925 206.971 848.715 208.26Q849.504 209.549 850.229 210.875Q850.953 212.202 851.61 213.563Q852.267 214.925 852.855 216.317Q853.443 217.709 853.961 219.129Q854.479 220.549 854.925 221.993Q855.371 223.437 855.745 224.902Q856.119 226.367 856.418 227.848Q856.718 229.329 856.944 230.824C859.753 248.56 856.699 266.744 845.901 281.379C835.063 296.07 818.981 304.704 801.115 307.406Q799.634 307.546 798.148 307.618Q796.663 307.69 795.175 307.693Q793.688 307.697 792.202 307.633Q790.716 307.569 789.234 307.437Q787.753 307.305 786.279 307.105Q784.805 306.905 783.341 306.638Q781.878 306.371 780.428 306.037Q778.979 305.703 777.546 305.304Q776.113 304.904 774.7 304.439Q773.287 303.975 771.897 303.446Q770.507 302.917 769.142 302.325Q767.778 301.733 766.442 301.079Q765.106 300.425 763.801 299.711Q762.496 298.997 761.225 298.223Q759.955 297.45 758.721 296.62Q757.487 295.789 756.292 294.903C743.068 285.036 733.189 270.147 730.904 253.664C728.334 235.127 732.222 217.231 743.663 202.304C753.999 188.82 770.256 180.901 786.888 178.688Z"/>
	<path fill="#B9FF66" d="M790.79 194.199C802.156 193.234 814.28 196.649 823.418 203.478Q824.366 204.194 825.278 204.954Q826.189 205.715 827.063 206.52Q827.937 207.324 828.77 208.17Q829.604 209.016 830.395 209.901Q831.187 210.787 831.934 211.71Q832.681 212.632 833.383 213.591Q834.085 214.549 834.739 215.54Q835.393 216.531 835.998 217.553Q836.603 218.575 837.158 219.625Q837.713 220.675 838.215 221.751Q838.718 222.827 839.168 223.926Q839.618 225.025 840.014 226.144Q840.41 227.264 840.751 228.401Q841.093 229.539 841.378 230.692Q841.663 231.844 841.892 233.01Q842.121 234.175 842.293 235.35C844.07 248.136 841.279 260.885 833.442 271.216C824.847 282.547 812.757 288.968 798.805 290.968C786.199 291.239 774.401 288.875 764.23 281.013Q763.283 280.283 762.374 279.507Q761.465 278.73 760.596 277.91Q759.726 277.089 758.899 276.227Q758.071 275.364 757.287 274.462Q756.503 273.559 755.765 272.619Q755.027 271.678 754.337 270.703Q753.646 269.727 753.005 268.718Q752.363 267.709 751.773 266.669Q751.183 265.63 750.645 264.562Q750.107 263.495 749.622 262.402Q749.138 261.309 748.708 260.194Q748.278 259.078 747.905 257.943Q747.531 256.807 747.214 255.654Q746.897 254.502 746.638 253.335Q746.379 252.168 746.177 250.989Q745.976 249.811 745.834 248.624Q745.683 247.416 745.594 246.202Q745.504 244.989 745.476 243.772Q745.448 242.555 745.481 241.338Q745.514 240.122 745.608 238.908Q745.702 237.695 745.858 236.487Q746.013 235.28 746.229 234.082Q746.445 232.885 746.721 231.699Q746.998 230.514 747.333 229.344Q747.669 228.174 748.063 227.022Q748.457 225.871 748.909 224.74Q749.36 223.61 749.868 222.504Q750.376 221.398 750.94 220.319Q751.503 219.24 752.12 218.191Q752.736 217.142 753.405 216.125Q754.074 215.108 754.794 214.126Q755.513 213.144 756.281 212.2C765.008 201.33 777.1 195.606 790.79 194.199Z"/>
	<path d="M791.936 197.208C802.739 196.496 814.38 200.356 822.811 207.076Q823.673 207.756 824.5 208.478Q825.327 209.2 826.117 209.962Q826.908 210.724 827.659 211.524Q828.411 212.324 829.122 213.16Q829.833 213.997 830.502 214.867Q831.17 215.738 831.795 216.641Q832.42 217.543 832.999 218.476Q833.578 219.408 834.111 220.368Q834.643 221.328 835.128 222.314Q835.612 223.299 836.047 224.307Q836.481 225.315 836.866 226.343Q837.25 227.372 837.583 228.418Q837.916 229.464 838.197 230.525Q838.477 231.586 838.705 232.66Q838.933 233.734 839.107 234.818Q839.282 235.902 839.402 236.993C840.727 249.431 837.538 261.693 829.54 271.412C821.178 281.575 809.829 286.658 796.926 287.928C785.728 288.096 774.478 285.31 765.652 278.157C756.634 270.848 750.388 259.816 749.172 248.26C747.87 235.884 750.973 223.582 758.978 213.919C767.524 203.601 778.743 198.418 791.936 197.208Z"/>
	<path fill="#B9FF66" d="M792.886 213.192C799.393 212.906 806.531 214.836 811.809 218.645C818.278 223.316 822.675 230.853 823.843 238.717C824.991 246.44 823.024 254.622 818.129 260.758C812.505 267.808 804.325 270.932 795.622 271.82C789.003 272.471 781.169 269.748 775.932 265.772C769.698 261.038 765.847 253.835 764.878 246.125Q764.789 245.402 764.735 244.676Q764.682 243.95 764.665 243.223Q764.647 242.495 764.666 241.767Q764.685 241.039 764.739 240.313Q764.794 239.587 764.885 238.865Q764.975 238.143 765.101 237.426Q765.228 236.709 765.389 235.999Q765.551 235.289 765.747 234.588Q765.943 233.887 766.174 233.197Q766.405 232.506 766.67 231.828Q766.935 231.15 767.233 230.486Q767.531 229.822 767.861 229.173Q768.192 228.525 768.554 227.893Q768.916 227.262 769.309 226.649Q769.703 226.036 770.125 225.443Q770.548 224.851 771 224.28C776.591 217.202 784.168 214.178 792.886 213.192Z"/>
	<path fill="#B9FF66" d="M304.692 61.1935C313.214 61.0316 321.365 63.1104 328.334 68.1595C336.549 74.1114 342.092 83.9067 343.538 93.9011C345.201 105.399 341.004 115.167 334.278 124.229C342.496 133.938 351.61 143.007 360.374 152.224L409.857 204.139Q493.667 292.202 575.415 382.183Q650.324 465.995 720.91 553.48L756.691 598.568C765.367 609.695 773.785 620.933 782.901 631.719C785.512 629.816 788.362 628.847 791.496 628.201Q792.399 628.01 793.31 627.865Q794.221 627.719 795.139 627.618Q796.056 627.518 796.977 627.463Q797.899 627.408 798.821 627.398Q799.744 627.389 800.666 627.425Q801.588 627.461 802.508 627.542Q803.427 627.624 804.341 627.751Q805.255 627.878 806.162 628.049Q807.068 628.221 807.966 628.438Q808.863 628.654 809.748 628.914Q810.633 629.175 811.505 629.479Q812.376 629.783 813.231 630.129Q814.087 630.476 814.924 630.864Q815.761 631.253 816.578 631.682Q817.395 632.111 818.19 632.58Q818.984 633.049 819.755 633.557C828.4 639.371 834.071 649.189 835.925 659.331C837.752 669.329 835.642 679.205 829.746 687.503C823.669 696.055 814.972 701.541 804.605 703.204C793.927 704.918 785.213 702.038 776.611 695.795C775.44 696.561 774.079 697.523 772.677 697.796C771.377 698.049 770.406 697.716 769.346 696.971C768.647 695.875 768.549 695.344 768.568 694.048C769.408 693.205 770.288 693.068 771.403 692.793L771.898 692.674C770.263 690.727 768.803 688.909 767.605 686.643C755.699 692.752 742.246 697.173 729.716 701.882L665.478 726.02L421.121 819.22C406.658 825 391.806 829.933 377.259 835.528L199.161 903.189Q170.202 914.04 141.397 925.295C135.019 927.778 127.659 929.447 121.828 932.961C125.924 931.991 132.577 929.679 136.455 931.887L136.404 932.662C133.263 935.463 127.901 935.903 123.876 936.636C121.971 944.948 118.225 952.443 112.04 958.395C104.861 965.304 94.7404 969.062 84.804 968.805C75.3252 968.56 66.727 964.649 60.2459 957.746C53.2145 950.257 49.727 940.68 50.1514 930.417C50.5504 920.769 54.4508 911.283 61.6859 904.769C64.1556 902.546 76.4471 894.822 79.1896 894.297C82.5487 893.654 87.5638 894.595 91.1101 894.796Q166.841 632.075 235.46 367.407C251.623 306.613 269.724 246.3 285.518 185.409C289.769 169.017 295.619 152.927 298.917 136.316C292.621 134.821 286.372 132.155 281.308 128.071C273.899 122.095 269.01 112.895 268.012 103.447Q267.922 102.512 267.877 101.573Q267.833 100.634 267.834 99.6948Q267.834 98.7552 267.881 97.8167Q267.927 96.8781 268.018 95.9429Q268.11 95.0078 268.247 94.0781Q268.383 93.1484 268.564 92.2264Q268.746 91.3044 268.972 90.3923Q269.197 89.4801 269.467 88.58Q269.736 87.6798 270.049 86.7937Q270.362 85.9076 270.717 85.0377Q271.072 84.1678 271.469 83.316Q271.866 82.4642 272.303 81.6326Q272.741 80.801 273.218 79.9916Q273.695 79.1821 274.211 78.3966Q274.727 77.6112 275.28 76.8515Q275.833 76.0919 276.422 75.3599C283.682 66.4986 293.49 62.3108 304.692 61.1935Z"/>
	<path d="M83.8504 900.183C90.722 899.266 98.6005 901.52 104.344 905.263C111.568 909.972 116.732 917.242 118.4 925.733C120.009 933.924 118.036 942.182 113.399 949.045C107.927 957.144 100.085 961.564 90.6201 963.371C82.3734 964.311 73.8021 962.696 67.0806 957.614C60.3181 952.501 56.409 944.561 55.3503 936.256C54.2626 927.725 56.3271 918.738 61.7242 911.937C67.2332 904.995 75.1692 901.203 83.8504 900.183Z"/>
	<path fill="#B9FF66" d="M85.1033 909.133C89.4301 908.923 94.6354 910.429 98.353 912.624C103.54 915.687 106.977 920.482 108.369 926.328C109.836 932.487 108.787 938.89 105.262 944.167C101.133 950.35 95.14 953.018 88.1297 954.5C83.4018 954.715 78.9675 953.867 74.8947 951.331C69.5203 947.983 65.8442 942.379 64.5713 936.202C63.3647 930.347 64.6903 924.531 68.0442 919.607C72.1874 913.526 78.0974 910.562 85.1033 909.133Z"/>
	<path d="M303.716 67.1869C311.044 66.483 319.036 68.4643 324.998 72.8143C332.016 77.9351 336.766 86.149 337.988 94.7216C339.189 103.142 336.601 111.944 331.429 118.648C325.719 126.051 317.747 129.552 308.673 130.695C300.883 131.503 291.942 128.679 285.697 124.015C279.153 119.128 275.155 111.582 274.078 103.559Q273.97 102.744 273.902 101.925Q273.835 101.106 273.809 100.285Q273.782 99.4631 273.797 98.6413Q273.812 97.8195 273.868 96.9995Q273.924 96.1796 274.021 95.3634Q274.118 94.5472 274.256 93.737Q274.394 92.9267 274.572 92.1243Q274.75 91.322 274.968 90.5296Q275.186 89.7371 275.444 88.9566Q275.701 88.1761 275.998 87.4095Q276.294 86.6428 276.628 85.892Q276.962 85.1412 277.334 84.408Q277.705 83.6749 278.113 82.9612Q278.521 82.2476 278.964 81.5553Q279.407 80.863 279.884 80.1937Q280.361 79.5244 280.871 78.8799C286.726 71.4566 294.517 68.2119 303.716 67.1869Z"/>
	<path fill="#B9FF66" d="M301.881 76.62C307.299 76.0534 312.339 76.4637 317.133 79.2747C322.364 82.3419 325.818 87.5963 327.302 93.4086C328.767 99.1451 328.345 105.387 325.254 110.528C321.927 116.061 316.809 119.385 310.667 120.981C305.187 121.502 299.882 121.192 294.864 118.649Q294.386 118.404 293.921 118.135Q293.457 117.866 293.007 117.573Q292.556 117.28 292.122 116.965Q291.687 116.65 291.269 116.312Q290.852 115.975 290.452 115.616Q290.052 115.258 289.671 114.879Q289.29 114.501 288.929 114.103Q288.568 113.706 288.228 113.29Q287.888 112.874 287.57 112.442Q287.252 112.009 286.956 111.561Q286.66 111.113 286.388 110.65Q286.116 110.187 285.868 109.71Q285.62 109.234 285.397 108.746Q285.174 108.257 284.977 107.758Q284.779 107.259 284.607 106.75Q284.435 106.241 284.29 105.724C282.581 99.8326 283.389 92.8355 286.41 87.4927C289.901 81.3204 295.359 78.5401 301.881 76.62Z"/>
	<path d="M407.028 474.495L407.35 474.784C407.452 476.037 407.162 476.392 406.636 477.516C402.014 487.38 396.265 496.905 391.489 506.747C376.987 536.63 362.747 566.695 346.936 595.914C346.461 593.331 346.11 590.722 345.723 588.124L338.577 507.588C360.926 495.696 384.216 485.466 407.028 474.495Z"/>
	<path d="M798.58 632.7C805.533 632.943 811.532 634.381 817.236 638.496C824.364 643.637 829.307 651.146 830.677 659.873C832.072 668.764 830.076 677.639 824.666 684.869C818.712 692.826 810.967 696.584 801.266 697.967C793.023 698.165 785.679 696.012 779.238 690.775C772.332 685.16 768.296 676.954 767.51 668.137C766.754 659.666 768.96 650.544 774.554 643.997C780.715 636.786 789.361 633.533 798.58 632.7Z"/>
	<path fill="#B9FF66" d="M795.892 642.6C800.969 642.194 805.44 642.509 809.974 645.136C815.472 648.321 819.357 653.907 820.95 660.009C822.501 665.95 821.837 672.51 818.577 677.778C815.093 683.409 809.877 686.11 803.609 687.473C798.672 687.836 794.031 687.738 789.526 685.44C784.309 682.779 780.088 677.673 778.295 672.114C776.448 666.385 777.205 659.588 780.035 654.3C783.479 647.863 789.131 644.608 795.892 642.6Z"/>
	<path d="M498.055 441.038L498.769 441.159C500.605 443.668 504.317 551.87 505.646 565.513C495.351 552.48 484.615 539.811 474.358 526.737Q463.113 513.243 452.276 499.419C443.865 488.484 435.805 477.257 426.844 466.76C450.917 459.335 473.987 448.387 498.055 441.038Z"/>
	<path d="M490.976 594.193L491.673 594.161L491.868 594.648C483.268 602.764 473.246 609.834 464.048 617.318L413.1 659.125C403.453 666.973 393.208 674.283 384.519 683.211C382.419 677.198 380.075 671.293 377.721 665.376C371.035 649.12 363.204 632.835 357.561 616.198C401.938 608.285 446.538 601.74 490.976 594.193Z"/>
	<path d="M506.38 442.221C513.317 447.249 519.865 453.081 526.552 458.462Q546.655 474.492 566.412 490.947C572.94 496.45 579.138 502.395 585.909 507.593C574.93 516.625 563.517 525.204 552.96 534.729C539.886 545.87 526.472 556.629 513.283 567.637C511.154 557.378 511.419 540.095 510.899 528.94L508.365 480.129C507.747 467.473 507.416 454.856 506.38 442.221Z"/>
	<path d="M638.036 483.323C645.135 485.918 753.025 623.972 766.828 641.828Q765.76 644.638 764.624 647.421C758.283 644.085 752.426 638.514 746.812 634.022Q698.802 594.262 651.801 553.315C636.624 540.284 618.736 527.171 605.07 512.823C615.81 502.713 627.143 493.263 638.036 483.323Z"/>
	<path d="M331.71 510.987L332.261 511.231C333.79 515.621 333.853 528.185 334.314 533.797C336.119 555.751 337.628 577.813 339.941 599.716C306.972 593.23 273.893 584.464 241.116 576.881C230.383 574.442 219.557 572.438 208.832 569.965C219.923 565.411 230.548 559.441 241.359 554.237C271.445 539.752 301.205 524.571 331.71 510.987Z"/>
	<path d="M491.402 603.485C491.446 606.596 474.667 647.083 471.961 654.197Q455.352 697.72 439.503 741.525C434.7 754.508 429.41 767.319 424.829 780.381Q419.595 767.27 413.985 754.315Q400.118 721.953 387.457 689.101C404.641 675.504 421.411 661.218 438.277 647.222L491.402 603.485Z"/>
	<path d="M420.192 484.253C424.967 488.35 428.644 495.744 432.622 500.766L461.356 537.631C471.598 550.584 482.05 563.302 491.678 576.727C483.67 578.711 475.212 579.765 467.076 581.146L425.304 588.305C404.858 591.382 384.172 594.832 363.909 598.903C371.481 587.86 377.473 573.097 383.405 560.98Q402.224 522.821 420.192 484.253Z"/>
	<path d="M598.114 518.375C603.709 520.673 633.69 548.171 640.518 553.926L712.348 614.322C726.333 626.079 740.5 637.689 754.209 649.767C747.608 647.281 740.745 645.68 733.986 643.696Q714.253 637.752 694.388 632.265C651.387 618.876 607.482 607.842 564.077 595.836C549.777 591.881 535.083 588.804 521.017 584.085C530.565 573.801 546.44 561.864 557.44 552.673C571.028 541.321 584.185 529.286 598.114 518.375Z"/>
	<path d="M342.8 622.391C345.438 625.768 353.125 648.131 355.25 653.56L371.06 693.067C363.417 698.722 356.295 705.288 348.958 711.35L295.889 755.286L216.574 820.415C189.128 842.739 161.431 864.693 134.286 887.391Q125.688 894.525 116.872 901.389C121.938 895.578 126.581 889.354 131.531 883.438Q165.638 842.495 198.543 800.581L307.351 666.293C319.331 651.774 330.329 636.517 342.8 622.391Z"/>
	<path d="M321.84 158.799C326.283 162.477 346.1 198.222 350.893 206.036C362.263 224.576 373.951 243.009 385.64 261.352L497.68 433.373C490.839 436.11 483.84 438.422 476.87 440.802Q448.74 450.626 420.776 460.917C412.317 430.682 401.803 400.865 392.15 370.982L321.84 158.799Z"/>
	<path d="M314.155 159.331C319.399 163.146 377.417 348.333 383.66 367.857L405.995 436.668C408.749 445.301 410.975 454.096 413.883 462.677C405.411 466.681 397.063 470.98 388.675 475.16C371.786 483.027 355.295 491.912 338.267 499.441C333.998 454.486 331.26 409.472 327.95 364.451Q320.11 261.954 314.155 159.331Z"/>
	<path d="M373.369 699.92C377.318 703.685 412.289 790.966 415.856 803.31C408.2 805.608 400.721 808.554 393.18 811.207Q366.248 820.756 339.446 830.664L148.931 902.424C139.277 905.935 129.543 910.239 119.662 912.984C118.37 912.605 118.191 911.973 117.409 910.938L118.759 909.458L118.552 908.763L119.154 909.088C125.972 902.746 133.521 896.974 140.663 890.988C161.653 873.395 183.162 856.494 204.318 839.113L373.369 699.92Z"/>
	<path d="M319.145 136.868C324.046 139.483 361.137 180.298 368.203 187.677Q502.583 325.638 629.14 470.807Q620.98 477.905 612.722 484.89C605.806 490.865 598.975 497.245 591.411 502.393C580.852 495.52 571.416 485.618 561.626 477.619C548.985 467.29 536.004 457.381 523.398 447.003C516.975 441.714 510.008 436.447 504.547 430.142C495.927 420.193 488.041 405.935 480.592 394.648L431.688 319.881Q389.905 255.794 349.729 190.687Q339.624 173.972 329.938 157.012C326.214 150.531 321.826 143.843 319.145 136.868Z"/>
	<path d="M307.814 166.922C308.698 168.153 308.675 170.759 308.788 172.277L325.813 427.281Q327.552 453.062 329.726 478.81C330.375 486.468 330.527 494.607 331.976 502.139Q274.986 530.626 217.443 557.98C211.569 560.606 205.91 563.709 200.214 566.698C205.006 553.764 207.738 539.652 211.179 526.289L227.83 463.602L278.424 276.461Q288.432 238.164 298.826 199.971C301.81 188.958 304.404 177.812 307.814 166.922Z"/>
	<path d="M195.811 583.334C211.625 587.27 227.798 590.405 243.706 594.004L338.172 616.234C323.446 633.661 309.632 652.073 295.378 669.906Q254.985 720.487 214.018 770.604C200.407 787.396 187.225 804.539 173.296 821.072L132.977 870.889C125.014 880.531 116.577 889.679 109.022 899.659C113.276 886.233 116.681 872.47 120.367 858.875L134.789 806.971L195.811 583.334Z"/>
	<path d="M513.884 591.173C524.009 593.004 533.647 595.871 543.552 598.576L581.449 608.725Q657.8 628.777 733.539 651.027C742.436 653.569 751.221 656.477 760.129 659.001Q759.659 664.484 759.485 669.985C753.753 673.031 747.45 675.089 741.414 677.45L712.268 688.866L614.358 726.002Q525.279 759.606 436.911 795.041C443.516 775.633 451.062 756.569 458.293 737.391L492.806 646.592C499.855 628.179 507.771 609.921 513.884 591.173Z"/>
</svg>
