<svg version="1.2" xmlns="http://www.w3.org/2000/svg" viewBox="0 0 1024 1024" width="1024" height="1024">
	<title>dise-o-vectorial-minimalista-que-represente-la-cre-svg</title>
	<style>
		.s0 { fill: #9ed76c } 
		.s1 { fill: #1d0f0d } 
		.s2 { fill: #fdfcfd } 
		.s3 { fill: #000000 } 
	</style>
	<path class="s0" d="m905.1 535c1.3 0 2-0.2 2.9 0.8 2.7 2.9 5 19.6 4.5 23.7-0.7 1.3-1.9 1.6-3.2 2.2l-2.5-0.8c-0.4-0.4-0.9-0.7-1.1-1.2-1.1-2.2-3.3-19.1-3.7-22.6 0.8-1.2 1.8-1.5 3.1-2.1z"/>
	<path class="s0" d="m228.8 169c2-0.1 3.7-0.4 5.5 0.4 1 1.5 0.4 3.9 0.4 5.7-0.3 5.4 0.8 10.8 0.5 16.1 0 1.4-1.7 2.5-2.7 3.3-0.6 0-1.2-0.2-1.9-0.3-2.3-1.9-3.2-4-3.8-7-1.2-5.6-1.1-13.2 2-18.2z"/>
	<path class="s0" d="m357.9 131.6c7.6-0.2 15.4 0.4 22.9 1 0.3 1.5 0.8 3.4 0.8 4.9-0.1 1.5-0.7 1.9-1.7 2.8-4.4 0.2-19.1 0.2-22.4-2.2-1.3-0.9-1.3-1.3-1.6-2.7 0.3-1.7 0.9-2.5 2-3.8z"/>
	<path class="s0" d="m242.2 200.8c5 3.1 10.2 7.1 14.5 11 2.1 1.9 3.9 3.8 4 6.7-0.4 1.6-1.1 2.2-2.4 3.2-5.8-2.6-14.4-8.7-18.5-13.6-1-1.2-1.4-2.1-1.3-3.8 0.9-1.6 2.3-2.4 3.7-3.5z"/>
	<path class="s0" d="m271.8 223.8c4.9 0.9 14.6 8.1 18.6 11.3 1.5 1.2 3.3 2.5 3.5 4.6-0.4 1.5-1.6 2.3-2.7 3.3-3.1 0.2-6-2.2-8.6-3.9-3.5-2.3-12.7-7.3-13.6-11.3 0.5-1.7 1.7-2.7 2.8-4z"/>
	<path class="s0" d="m59 468l1.6 0.8c1.7 2.5 4.7 20.4 4.5 23.8-0.8 1.3-2.1 2-3.4 2.8q-0.5-0.1-0.9-0.2c-1.4-0.3-2.2-0.9-2.9-2.1-1.9-3.5-4.2-19.4-3.1-23.2 1.2-1.3 2.6-1.5 4.2-1.9z"/>
	<path class="s0" d="m762 751c0.6-0.1 1.2-0.2 1.8-0.1 1.1 0.1 2.3 1.4 2.8 2.4 0.6 1.3 0.4 1.7 0 3-2.2 2.4-19.3 7.9-23.5 9.2l-1.6 0.3c-1.3-0.6-1.7-1.1-2.3-2.4-0.6-1.3-0.8-1.7-0.3-3 2.7-2.5 18.5-7.5 23.1-9.4z"/>
	<path class="s0" d="m724 763.6c0.4 0 0.7-0.1 1-0.1 1.1 0.1 1.6 0.9 2 1.8 0.8 1.4 1 2.7 0.5 4.2-1.8 1.8-20.2 6.1-24.1 7.3q-0.3 0-0.7-0.1c-1.9-0.5-2.4-1.2-3.4-2.8 0-0.8-0.2-1.3 0.2-2 2.4-3.9 19.6-7.1 24.5-8.3z"/>
	<path class="s0" d="m302.7 248.3c1.8 0.1 2.8 0.9 4 2.2 3.1 3.2 4.1 7.6 3.9 12-0.2 5.2-2.1 10-5.9 13.6-1.3-0.1-2.4-0.2-3.3-1.1-3.2-3.1 2-10.1 1.8-14-0.2-3.2-3.4-5.9-3.6-9.2 0.6-1.6 1.8-2.5 3.1-3.6z"/>
	<path class="s0" d="m56.7 426.9q1.3 0 2.6 0c1.6 0 2.8 0.1 4 1.2 0.3 5.3-1.2 22-3.7 26.2-2.2 0.2-4.3-0.9-6.2-1.7 0-7.6 0.5-18.6 3.3-25.7z"/>
	<path class="s0" d="m912.2 574.7c1.1 0.2 1.7 0.1 2.3 1.3 1.5 3.3 1.6 21.2-0.1 24.4-0.8 1.5-1.5 1.5-3 2.1-1.9-0.5-2.9-0.9-4.1-2.5-0.3-1.9-0.1-22.3 0.3-24.2 1.3-1.1 3-1 4.6-1.1z"/>
	<path class="s0" d="m259.1 141c0.6 0.1 0.7 0 1.2 0.3 1.6 0.9 2.2 2.6 2.5 4.2-0.3 1-0.3 1.4-1 2-2.8 2.5-6.9 4.2-10.1 6.2-3.3 2-6.3 4.5-9.5 6.9-1.8-1-3.2-1.7-4.1-3.7 0-1 0-1.8 0.5-2.7 3.1-6.1 14.3-11.1 20.5-13.2z"/>
	<path class="s0" d="m163.6 304.9c0.3 0 0.6 0 0.9 0.1 1.2 0.3 2.4 1.4 2.7 2.5 0.3 0.8 0.3 1.4 0 2.2-1.6 4.2-17.8 10.7-22.3 12.9-1.5-0.2-2.7-1-3.7-2.1-0.4-1.3-0.5-1.9 0-3.2 2-4.7 17.3-10.2 22.4-12.4z"/>
	<path class="s0" d="m94.9 351.9c0.9 0.1 2.4 0.5 3.2 1.1 0.9 0.7 1.4 1.5 1.4 2.7 0.1 3.7-12.2 18-15.1 21.4-1.3-0.2-3.1-0.9-4-1.9-0.8-1-0.9-2.2-0.6-3.4 0.9-5.1 10.8-16.8 15.1-19.9z"/>
	<path class="s0" d="m906.6 615.9c1.4-0.2 2.7-0.3 4 0.6 1 0.7 1.4 2 1.5 3.2 0.5 5.4-3 20.3-6.5 24.5-1.2 0-2.7-0.1-3.8-0.7-1.2-0.5-1.6-1.1-2.1-2.3 0.4-5.2 4.2-21.1 6.9-25.3z"/>
	<path class="s0" d="m283.8 276.7c1-0.3 2.7-0.5 3.7-0.3 1.2 0.2 2.1 0.8 2.6 1.9 0.5 0.9 0.5 2-0.1 2.8-2.5 3.8-19.5 5.2-24.4 6.3-1.5 0.3-2.6 0.4-4.1 0.1-1-0.7-1.5-1.1-1.8-2.4-0.3-1.3 0.2-2.7 0.9-3.7 1.4-2.1 19.7-4.2 23.2-4.7z"/>
	<path class="s0" d="m295.3 133.2c1.9-0.2 3.3-0.3 5.2 0.3 0.7 0.6 1.2 1 1.5 1.8 0.4 1.1 0.3 2.3-0.4 3.3-2.2 3.1-18 4.1-22.5 4.8-1.4 0.3-2.5 0.4-3.9 0.2-1-0.5-2.1-1.4-2.4-2.7-0.4-1.2-0.4-2.1 0.4-3.2 2.9-3.8 17.5-4 22.1-4.5z"/>
	<path class="s0" d="m69.7 387c1.4 0.1 3.1 0.2 4.3 0.9 1.2 0.5 1.6 1.1 2 2.3-0.8 3.7-7.3 21.5-9.9 23.6-1.8 0.2-2.8 0.3-4.4-0.4-0.7-0.8-1.2-1.4-1.3-2.5-0.6-5.5 5.8-19.9 9.3-23.9z"/>
	<path class="s0" d="m894.6 655.4c1.3 0.1 3 0 4.1 0.9 1 0.8 1.4 1.8 1.3 3.1-0.4 5.3-10 18.4-13.8 22.3-0.4 0-0.7 0.1-1 0.1-1.3 0-2.5-0.7-3.3-1.5-0.4-1-0.6-1.6-0.5-2.6 0.2-3.7 10.1-19.8 13.2-22.3z"/>
	<path class="s0" d="m68.1 506.9c0.5 0.1 0.5 0.1 0.9 0.5 1.6 1.8 11.8 24.3 12 26.6-1.4 1.4-3.1 2.2-4.8 3.2-1.5-0.9-2.4-2.5-3.2-3.9-2-3.4-10.7-20.1-9.8-23.7 1.4-1.4 3.1-2 4.9-2.7z"/>
	<path class="s0" d="m202.6 292.1c1-0.2 1.6-0.2 2.6 0 1.1 1 1.5 1.7 2.1 3 0 0.7 0.1 1.2-0.3 1.9-2.5 4.1-20 7.8-25.2 9.5-0.7 0-1.3 0-1.9-0.3-1.3-0.6-1.9-1.6-2.5-2.7 0-0.9 0-1.7 0.5-2.5 2.7-4.4 19.2-7.5 24.7-8.9z"/>
	<path class="s0" d="m802.5 734.5c1 0.5 2.1 1.4 2.7 2.4 0.9 1.2 0.8 2 0.7 3.3-3 5-17.6 9.5-23.3 11.9-1.1-0.7-2.4-1.9-2.9-3.1-0.6-1.1-0.7-2-0.2-3.1 1.8-4.3 18.2-9.6 23-11.4z"/>
	<path class="s0" d="m126.9 324.4c1.2-0.1 2.3 0.1 3.4 0.6 1.4 0.6 1.4 0.7 1.9 2.1-0.7 5.1-16.2 15.6-20.9 19.2-1.4 0.1-2.6-0.3-3.6-1.2-0.9-0.9-1.4-2-1.3-3.3 0.7-4.7 16.2-14.8 20.5-17.4z"/>
	<path class="s0" d="m244.4 282.7c0.9-0.1 1.7-0.1 2.5 0.2 1.3 0.6 1.5 1.2 2.1 2.4 0 0.9 0 1.7-0.6 2.6-0.8 1.2-2.1 2.2-3.5 2.7-5.5 2-16.6 3-22.8 4.2-1.4 0.2-1.7 0.3-3-0.4-0.6-0.9-1.3-1.8-1.6-3-0.2-0.6 0-1.2 0.4-1.7 2.7-3.6 21.3-6.1 26.5-7z"/>
	<path class="s0" d="m330.9 131.2c3.6-0.1 8.2-0.6 11.7 0.1 1.4 0.3 1.8 0.6 2.6 1.9 0.2 1.7 0.4 3.7-0.8 5.2-1.1 1.3-12.7 0.8-15.2 1-3.4 0.2-10 1.3-13-0.5-1.2-0.7-1.3-1.1-1.8-2.5 0.1-1.3 0.2-2.3 1.3-3.3 2.9-2.6 11.4-1.8 15.2-1.9z"/>
	<path class="s0" d="m869.2 689.9c1.9 0 3.5 0.3 5.1 1.5 0.3 0.8 0.7 1.2 0.6 2-0.7 5.7-14.7 16-19 19.6-1.3-0.5-2.6-0.9-3.7-1.9-0.7-0.6-1.2-1.6-1.2-2.6 0.1-4.6 14.5-15.5 18.2-18.6z"/>
	<path class="s0" d="m838.5 714.9c1.5 0.2 2.5 0.7 3.5 1.9 0.8 1 1.3 2.3 1 3.7-1.2 4.8-16.8 11.7-21.4 13.7-1.6 0-2.8-0.5-4.2-1.1-0.8-1.4-0.9-2.1-0.4-3.7 1.9-6.1 15.9-11.8 21.5-14.5z"/>
	<path class="s0" d="m409.1 446.1c1.7 0.7 3.4 1.9 4.8 3.2 7.1 6.2 11.3 16.3 11.8 25.6 0.3 6.8-0.6 16.2-5.4 21.3-1.5-0.7-3.3-1.5-3.7-3.4-0.4-2.1 3.7-12.8 3.4-18.3-0.3-7.4-3.4-13.2-8.1-18.8-1.5-1.8-3.3-3.6-4.3-5.7-0.1-1.6 0.7-2.6 1.5-3.9z"/>
	<path class="s0" d="m347.3 444.9l1.4 0.2c0.7 0.9 1.5 1.7 1.5 2.9-0.1 0.7-9.9 11.4-11.7 15-3.7 7.4-3.7 14.6-2.1 22.5 0.3 1.4 1.1 3.8 0.9 5.2-0.3 1.6-1.4 2.2-2.6 3.1-1-0.7-1.8-1.5-2.5-2.6-4.1-7-3.8-16.6-1.5-24.2 2.6-9 8.1-17.5 16.6-22.1z"/>
	<path class="s0" d="m418.5 424.7c5.9 0.6 11.6 5.5 15.7 9.5 11 10.7 18.3 25.3 18.4 40.7 0.1 10.2-2.5 24.7-9.9 32.3-0.9-0.6-1.8-1.1-2.6-1.9-0.7-0.8-0.9-1.1-0.8-2.3 0.3-2.8 2.8-6.2 4.1-8.8q0.9-1.9 1.6-3.8 0.7-1.9 1.2-3.9 0.5-2 0.9-4.1 0.3-2 0.4-4.1c0.7-15.4-6.9-31.5-18.7-41.3-3.6-3-8.4-5.2-11.5-8.6-0.1-1.6 0.5-2.4 1.2-3.7z"/>
	<path class="s0" d="m336.4 422.9l1.3 0.2c1 0.9 1.4 1.4 1.9 2.6-0.1 0.4 0 0.9-0.2 1.3-1.3 2.1-13.9 10.2-17.5 14.1-3.6 4.1-6.8 9.1-9 14-4.9 10.9-5.6 22.5-1.2 33.7 1.5 3.8 3.5 7.4 5 11.3-0.4 1.5-1.1 1.7-2.3 2.6-1 0.1-1.2 0.1-2.1-0.1-1.5-1.8-2.6-3.7-3.6-5.8-6-12.7-7.3-26.4-2.6-39.7 5.1-14.5 16.4-27.5 30.3-34.2z"/>
	<path class="s0" d="m319.8 401.4c0.2 0.1 0.5 0.1 0.7 0.1 1.1 0.4 2.4 1.3 2.8 2.3-0.1 1.3-0.3 1.9-1.2 2.9-2.5 2.6-6.3 4.2-9.3 6.2-5.7 3.8-11.3 9.4-15.6 14.7-15.3 19.1-21.1 44.8-11.8 67.9 1.6 4 6.8 11.4 6.9 15.2 0 0.9-0.7 1.2-1.3 1.7-0.8 0.2-1.6 0.3-2.5 0.3-1.1-0.7-1.9-1.5-2.6-2.7-10-16.3-12.8-38.4-8.1-56.7 6-23.3 21.7-40 42-51.9z"/>
	<path class="s0" d="m435 403.9c9.5 2.4 19.3 11.1 25.7 18.2 13.3 14.6 21.2 36.2 20.2 55.9-0.7 12.9-6.3 33.3-16.1 42.1-1.6-1-3.1-2.1-4.5-3.3 5.7-7.2 9.8-14.8 12.2-23.8 7.8-28.1-2.4-57.6-25.2-75.6-3.1-2.5-12.6-7.1-14.2-9.9 0-1.5 1-2.5 1.9-3.6z"/>
	<path class="s0" d="m301 378.9c1.7 0.1 1.8 0.2 3.2 1.2 0.2 0.6 0.7 1.1 0.5 1.9-0.2 0.7-0.6 1.3-1.2 1.8-1.6 1.5-3.9 2.6-5.7 3.9-4.2 2.9-8.3 5.9-12.1 9.2q-2.4 2-4.6 4.2-2.3 2.1-4.4 4.4-2.1 2.3-4.1 4.7-2 2.4-3.8 5-1.8 2.5-3.4 5.2-1.7 2.6-3.2 5.4-1.4 2.7-2.7 5.5-1.3 2.9-2.5 5.8c-9.1 24.1-9.1 48.3 0.9 72.1 2 4.8 5.8 8.8 7.9 13.6-0.3 1.2-1.2 1.4-2.3 2.1-0.7 0.3-1.5 0.7-2.3 1-1.4-0.7-2-1.8-2.7-3.1-13.3-23.9-17.8-51.5-10.1-77.9q0.3-1.3 0.7-2.6 0.4-1.3 0.9-2.6 0.4-1.3 0.9-2.5 0.5-1.3 1-2.6 0.5-1.2 1-2.5 0.5-1.2 1.1-2.4 0.5-1.3 1.1-2.5 0.6-1.2 1.2-2.4 0.7-1.2 1.3-2.4 0.7-1.2 1.4-2.4 0.6-1.1 1.3-2.3 0.8-1.1 1.5-2.3 0.7-1.1 1.5-2.2 0.8-1.1 1.5-2.2 0.8-1.1 1.7-2.2 0.8-1.1 1.6-2.1 0.9-1.1 1.7-2.1 0.9-1.1 1.8-2.1 0.9-1 1.8-2 0.9-1 1.9-2 0.9-0.9 1.9-1.9 1-0.9 2-1.8 0.9-1 2-1.9 1-0.9 2-1.7 1-0.9 2.1-1.7 1.1-0.9 2.1-1.7 1.1-0.8 2.2-1.6 1.1-0.8 2.2-1.6 1.1-0.7 2.3-1.5 1.1-0.7 2.3-1.4 1.1-0.7 2.3-1.4 1.2-0.7 2.3-1.4z"/>
	<path class="s0" d="m451.5 380.7c5 1.6 9.7 4.4 14.1 7.4 22.8 15.5 39.1 41.1 44.1 68.1 5.4 29.8-3.3 54.9-20 79.1-1.8-0.9-3.2-2.3-4.7-3.5 5.8-8.9 11.1-16.3 14.7-26.5 13.8-39.9 0.9-81.6-31.7-108.1-1.7-1.4-3.5-3-5.4-4.2-3.6-2.3-10.6-4.7-12.5-8.5 0-1.6 0.6-2.5 1.4-3.8z"/>
	<path class="s0" d="m373.2 443.7c7.5-1.1 15.8 1.7 22.1 5.7 8 5 13.3 13.1 15.4 22.4 1.9 8.7 0.1 17.5-4.7 25-5.7 8.7-13.7 14.1-23.9 16.2-9.5 0.7-18.4-0.6-26.3-6.3q-0.7-0.5-1.3-1-0.7-0.6-1.3-1.1-0.6-0.6-1.2-1.2-0.6-0.6-1.2-1.2-0.5-0.6-1.1-1.2-0.5-0.7-1-1.4-0.5-0.6-1-1.3-0.4-0.7-0.9-1.4-0.4-0.7-0.8-1.5-0.4-0.7-0.8-1.5-0.3-0.7-0.6-1.5-0.4-0.7-0.7-1.5-0.2-0.8-0.5-1.6-0.2-0.8-0.4-1.6-0.2-0.8-0.4-1.6-0.2-0.9-0.3-1.7-0.1-0.9-0.2-1.7-0.1-0.9-0.2-1.8-0.1-0.9-0.1-1.8 0-0.9 0-1.7 0.1-0.9 0.1-1.8 0.1-0.9 0.2-1.8 0.2-0.9 0.3-1.7 0.2-0.9 0.4-1.8 0.2-0.8 0.4-1.7 0.3-0.8 0.6-1.7 0.2-0.8 0.6-1.6 0.3-0.8 0.7-1.7 0.3-0.8 0.7-1.5 0.4-0.8 0.9-1.6 0.4-0.8 0.9-1.5 0.5-0.7 1-1.5c6.2-8.4 14.5-12.3 24.6-13.8z"/>
	<path class="s1" d="m366 464c7.6 5.7 16.9 9.9 25.4 14.3l-7.5 4-17.3 8.8c-0.6-9-0.4-18.1-0.6-27.1z"/>
	<path class="s2" d="m565.3 223.7c17.8-2.6 40.4 6.3 54.9 16.2 20.7 14.1 32.1 36.4 36.7 60.6q-20.2 7.2-40.5 14c-15.4 5.1-30.7 10.8-46.3 15.4-4.2-9.8-7-20.1-10.6-30.2q-7.8-21.1-14.5-42.5c-2.3-7-5-14.1-6.6-21.2 0.7-2 1.3-3.9 2.6-5.5 5.3-6.3 16.8-6 24.3-6.8z"/>
	<path class="s3" d="m625.6 271.5c2.2-0.1 4.3 0 6.4 0.8 3.2 1.2 6 3.7 7.3 6.9q0.2 0.5 0.4 1.1 0.1 0.5 0.2 1.1 0.1 0.5 0.2 1.1 0 0.5 0 1.1 0 0.6-0.1 1.1-0.1 0.6-0.2 1.1-0.1 0.6-0.3 1.1-0.2 0.6-0.5 1.1c-1.7 3.4-4.6 5.1-8 6.4-2.1 0-4.2 0-6.1-0.6-3-0.9-5.6-2.9-7.1-5.7q-0.2-0.5-0.4-1-0.2-0.5-0.4-1.1-0.1-0.5-0.2-1.1-0.1-0.5-0.2-1.1 0-0.6 0-1.1 0-0.6 0.1-1.1 0.1-0.6 0.2-1.2 0.2-0.5 0.4-1c1.5-4.2 4.5-6.2 8.3-7.9z"/>
	<path class="s2" d="m627 277.9c0.7 0 1.5 0 2.2 0.1 1.4 0.1 2.6 0.7 3.4 1.8 0.9 1.2 1.2 2.3 0.9 3.7-0.4 2.2-1.7 3.2-3.4 4.3q-0.2 0-0.5 0.1c-2-0.1-3.9-0.3-5.3-2.1-0.8-1-1.1-2.2-0.9-3.5 0.4-2.2 1.8-3.2 3.6-4.4z"/>
	<path class="s3" d="m563.6 237.6c1.9-0.2 3.9-0.3 5.8 0.2 3 0.8 5.6 2.8 7 5.5 1.5 2.8 1.8 6.4 0.7 9.4-1.5 4.4-4.6 6.6-8.6 8.6-1.7 0.3-3.4 0.3-5.2-0.2-3.2-0.8-5.8-2.9-7.3-5.9-1.5-3.1-1.8-6.7-0.7-9.9 1.6-4.2 4.4-6 8.3-7.7z"/>
	<path class="s2" d="m564.4 243.9c0.6 0 1.3 0 1.9 0.1 1.6 0.3 3 1.1 3.9 2.6 0.8 1.1 1 2.5 0.7 3.9-0.5 2.1-1.7 3.2-3.5 4.4-1.7 0.1-3.3 0-4.7-1.3-1.2-1.1-1.7-2.6-1.6-4.2 0.1-2.6 1.4-3.9 3.3-5.5z"/>
	<path class="s3" d="m586.3 284.1c2.3 0 4.3 0.2 6.4 1.3 3.2 1.7 5.5 4.4 6.4 7.9q0.2 0.5 0.3 1.1 0.1 0.6 0.1 1.2 0 0.5 0 1.1 0 0.6-0.1 1.2-0.1 0.6-0.2 1.1-0.1 0.6-0.3 1.1-0.2 0.6-0.5 1.1-0.2 0.5-0.5 1c-2.2 3.7-5.3 5.1-9.2 6.2-2.5 0-4.9-0.6-7-1.9-4-2.3-5.4-6.2-6.3-10.4 0.4-2 0.9-4 2-5.8 2.1-3.6 4.9-5.2 8.9-6.2z"/>
	<path class="s2" d="m585.4 291c2.3-0.2 4.4-0.1 6.2 1.5 1.2 1.1 1.7 2.3 1.7 3.9 0 2.2-1.3 3.6-2.8 5-0.8 0.1-1.7 0.3-2.5 0.3-1.6 0-3.2-0.8-4.3-1.9-1.1-1.1-1.5-2.4-1.4-4 0.1-2.2 1.5-3.4 3.1-4.8z"/>
	<path class="s0" d="m391.6 62.9q0.3 0 0.6 0c1.6 0.2 2.9 0.8 4.3 1.6 9.8 5.7 98.8 64.2 100.8 67.6 1.4 2.2 1.6 5 1.2 7.5-0.5 2.5-2.2 4.2-4 5.8-4.2 3.9-9.7 6.9-14.5 10q-12.7 8.4-25.3 16.9l-39.8 26.6c-5.8 3.8-11.5 8.5-17.6 11.7-1.9 1-3.5 1.5-5.7 1.4-1.2 0-2.5-0.4-3.2-1.4-1.6-2.1-1.8-5.8-1.9-8.4-0.5-12.7 0.5-25.9 0.5-38.7 0.1-10.5-0.9-93.1 0.2-96.4 0.7-2.2 2.5-3.1 4.4-4.2z"/>
	<path class="s1" d="m393.8 70.7c5 2.6 10.5 7 15.4 10.2q21.6 13.8 42.9 28.2c9.5 6.4 19.2 12.5 28.7 18.9 4.4 2.9 9.1 5.7 12.9 9.3-7.3 7.4-19.8 13.9-28.6 19.8l-67.9 45.9c-1.2 0.8-2.3 1.9-3.8 1.8-0.7-1.2-0.7-1.8-0.7-3.1 0.8-1.5 1.8-2.5 3.1-3.6 5.8-4.7 12.9-8.6 19.2-12.8l49.8-33.3c7.2-4.9 14.9-9.4 21.7-14.9-9.3-6.7-19.5-12.5-29.1-18.7-14.2-9.1-28.1-18.5-42.3-27.6-4.8-3.2-18.6-10.8-21.6-14.5-0.3-2 0-3.7 0.3-5.6z"/>
	<path class="s3" d="m394.2 85.3c3.6 1.8 7 4.4 10.3 6.5l22.3 14.8c15.5 10.2 31.9 19.8 46.8 30.9-10.2 8.2-22.4 15.1-33.3 22.5-7.6 5.5-15.6 10.5-23.4 15.8-7.8 5.2-15.4 10.6-23.1 15.8-1.2-13.2-0.2-27.1-0.2-40.4l-0.1-40.8c-0.1-6.8-1.1-18.8 0.7-25.1z"/>
	<path class="s2" d="m857.2 35.8c0.2 0.1 0.4 0.2 0.5 0.3 1.4 0.8 30.9 58.9 33.6 64.9-5.4 4-11.7 7.1-17.5 10.4l-23.7 13.3q-44.7 25.6-89.7 50.6c-23 13-46.1 26.1-68.9 39.6-17.8 10.5-35.7 22.4-54.6 31-7.4-7.4-14.8-13.4-24.1-18.3-18.5-9.7-46.4-14.1-66.6-7.7-5.1 1.6-9.6 4.6-12 9.6-3.8 7.7-0.2 15 2.3 22.4 4 11.9 8.4 23.7 11.9 35.6-7.2-8-12.2-18.4-17.4-27.7l-17.2-30.2c14.2-8.6 28.9-16.6 43.3-24.7l89-50.1 130-73.6c26.9-15.2 53.7-30.8 81.1-45.4z"/>
	<path class="s3" d="m812.3 66.9c6.7 1.5 19 7.7 25.7 10.6l26.9 11.4c6.6 2.8 13.7 5.4 19.8 9.3q-7.5 4.2-15.1 8.1c-6.9-4.9-26.6-11.7-35.4-15.3-12.4-5-24.6-10.3-36.9-15.5 5.2-2.7 10.1-5.5 15-8.6z"/>
	<path class="s3" d="m759.9 96.4c15.1 4.9 29.8 11.1 44.7 16.8 10.8 4.2 22.3 7.8 32.7 12.8-5.3 2.6-10.4 5.7-15.6 8.4-2.9 0.2-69.3-26.3-76.8-29.2q7.5-4.3 15-8.8z"/>
	<path class="s3" d="m652.1 157.4c7.1 1.8 14.4 5.5 21.2 8.1q28.2 10.5 56.2 21.7c-5.1 2.8-9.9 5.7-14.7 8.8l-53.5-19.9c-7.7-2.9-17.3-5.3-24.2-9.6q7.6-4.3 15-9.1z"/>
	<path class="s3" d="m707.1 126.4c7 3.5 15 5.8 22.4 8.6 18.1 6.9 36.5 13.5 54.5 21q-8 4.2-15.8 8.6c-6-0.5-23.2-8.4-30-11.1-15.6-6-31.3-11.6-46.8-17.9q7.8-4.7 15.7-9.2z"/>
	<path class="s3" d="m596.7 189c4.5 0 67.8 24.9 78.8 29q-7.2 4.8-14.6 9.3c-10.8-3.2-21.5-7.4-32-11.4q-23.7-8.8-47.2-18.2c4.8-3.1 10.1-5.9 15-8.7z"/>
	<path class="s2" d="m912.3 177.6c1-0.1 2.2 0 3.2 0.4 2.4 1.2 3.3 3.4 4.1 5.7 4.1 12 6.9 24.7 10.1 37q9.2 36.2 19.3 72.1l30.2 107.6c3.7 13.3 8.8 26.7 11.4 40.1 0.9 4.6 0.5 9.1-1.6 13.3-3.3 6.6-9.3 8.5-15.9 10.7-22.2 7.2-45 13.4-67.4 20.2l-143.4 43.6-74.6 22.8c-13.4 4.2-27.2 9.4-40.9 12.4-5.3 1.1-11.4 1.2-16.3-1.5q-0.9-0.5-1.8-1.1-0.8-0.6-1.6-1.4-0.8-0.8-1.4-1.6-0.7-0.9-1.2-1.8c-3.5-6.4-6.3-20.5-8.6-28.2l-41.6-147.6-11.7-40.5c-4-13.8-8.4-27.4-10.6-41.6 3.3 8 10 32.2 15.1 37.2 0.9 0.2 1.6 0.3 2.5 0.2 8.2-0.6 29.1-8.7 38.1-11.7 15.5-5.2 34.3-10.5 49-16.9 2.4-1 4.7-2.2 6.5-4.2 1.4-6.5-5.7-25-8.5-31.1-2.2-4.9-5.1-9.6-7.8-14.2 8.7-3.8 18.4-5.9 27.4-8.6q28-8 55.8-16.5l109-32.8c24.3-7.4 48.6-15.7 73.2-22z"/>
	<path class="s3" d="m844.1 456.1h0.1l0.2-0.1c1.4 1.5 9 32.7 10.2 37.3q-44.1 13.8-88.5 27.1l-0.1 0.2c-0.3-0.2-0.6-0.3-0.9-0.6-0.4-0.6-8.7-33.5-9.5-36.8 10.5-3.8 21.6-6.7 32.3-10q28-8.8 56.2-17.1z"/>
	<path class="s3" d="m747.7 485.5h0.8c0.6 0.7 0.6 0.5 0.8 1.2 1.4 4.6 2.3 9.4 3.5 14.1q3 11 6.5 21.8l-81.4 24.6c-11.3 3.5-22.8 8.2-34.3 10.7-3 0.6-5.9 0.1-8.8-0.7q-0.7-0.3-1.3-0.7c-6.3-3.7-9.8-24.8-11.7-32.2 10.1-3.5 20.5-6.3 30.7-9.5q47.5-14.9 95.2-29.3z"/>
	<path class="s3" d="m976.9 415.1c2.2 2.9 7.5 24.7 7.6 28.9 0.1 2.5-0.4 8.2-2.6 9.8-2.3 1.8-6.4 3.1-9.1 4-20.5 6.8-41.6 12.4-62.3 18.6-7 2.1-46.1 14.9-49.6 14.8q-4.9-18.9-10.1-37.8c14.8-3.4 29.8-8.9 44.4-13.4z"/>
	<path class="s3" d="m778.6 428c0.6 0 0.1 0 1.2 0.3 3.3 12.5 6.7 24.9 10.6 37.3l-169.3 52.2c-0.6 0.1-0.1 0-1.2-0.2-1.7-3.8-2.6-8.4-3.7-12.4l-7.2-25c26.1-7 51.9-15.5 77.6-23.6z"/>
	<path class="s3" d="m963.8 370.5c2.5 2.9 10 32.9 11.7 38.7-9.6 2.4-19.1 5.5-28.5 8.5l-38.8 11.8c-37 11.3-74.1 22.2-111 34-0.1 0-0.2 0-0.3-0.1-0.2-0.1-0.5-0.2-0.7-0.5-0.8-1.2-9.1-32.9-10.2-37.1q58.6-17.6 117-36c20.2-6.3 41.1-11.7 60.8-19.3z"/>
	<path class="s3" d="m912 183.7c3 1.7 6.8 18.6 8.3 22.8-4.1 15.2-9.8 29.8-13.5 45.1q11.5-3.1 22.6-7l1.6 6.7c-31.7 8.6-63.1 19.1-94.5 28.6l-156.7 47q-38.2 12-76.5 23.7c-5.8 1.8-26.4 9.4-31.2 9.1-1.4-1.3-1.9-3.2-2.5-4.9 8.2-3.7 17.9-5.8 26.6-8.5 21.5-6.6 43.3-12.9 64.5-20.3 2.6-10.3 6.4-20.5 9.7-30.6 4.7-14.6 9.1-29.5 14.4-44 5.5-1.8 11.1-3.3 16.8-4.8-3.4 13.6-22.8 66.2-22.3 73.5l0.9 0.3c12.5-3.9 25.2-7.4 37.7-11.3 8.3-24.8 15.7-49.8 23.6-74.7q8.6-2.2 17.1-4.9c-6.9 24.9-15.8 49.2-23.1 74 13.1-3.4 26.1-7.8 39.1-11.8 4.1-9.9 6.9-20.2 10.2-30.5 4.6-14.6 9.4-29.2 13.7-44q8.6-2.3 17.1-4.7c-4.4 12.7-8.1 25.8-12 38.7l-11.1 35.1c13.5-3.1 26.7-8.1 40.1-11.7 3.3-8.2 5.5-17.2 8.1-25.7 5-16.2 10-32.4 14.4-48.8 5.8-1.8 11.7-3.3 17.5-5-3.6 9-5.9 18.6-8.7 27.9-4.6 15.3-9.5 30.5-13.6 45.9q19.5-5.7 38.9-11.8c5.9-16.3 10.4-33.4 15.3-50.1 2.2-7.5 3.9-16.4 7.5-23.3z"/>
	<path class="s3" d="m931.8 257.5h0.5c1 0.9 1.1 1.4 1.5 2.7 0.8 2.7 1.2 5.4 2 8.1l9.1 33.2q8.8 31.8 18.1 63.5c-18.4 6-37.2 11.1-55.7 16.9l-218.6 67.6c-26.8 8.3-53.9 15.9-80.4 25h-0.4c-0.2-0.2-0.5-0.3-0.7-0.5-0.5-0.6-27.4-97.7-30.7-108.6l111.7-34.3q121.5-37.8 243.6-73.6z"/>
	<path class="s2" d="m919.1 276.1c0.7-0.1 1.4-0.1 2.1-0.1 0.6 0.4 0.9 0.7 1.2 1.4 3.7 10 5.8 21.1 8.7 31.4 4.5 16.2 9.5 32.2 13.9 48.4-14.3 3.5-28.4 8.3-42.5 12.5l-78.1 23.7q-101.9 30.6-203.2 62.8c-1 0.2-1.6 0.2-2.6 0-1.1-1.5-21.2-72.6-23.5-81.1 10.3-4.3 21.9-7 32.5-10.3l66.4-20.2q69.3-21.6 138.8-42.3c28.8-8.7 57.3-18.2 86.3-26.2z"/>
	<path class="s3" d="m916.7 283h0.1v0.7l0.5-0.5c2.8 7 4.5 14.7 6.5 21.9 4.4 15.7 8.6 31.6 13.1 47.3-32.8 11-66.5 20.5-99.8 30.3h-0.8c-1.9-3.2-4.2-15.5-5.4-19.9q-6.5-24.7-13.5-49.4c17-3.9 33.9-10.3 50.6-15.4 15.8-4.8 33.5-8.9 48.7-15z"/>
	<path class="s3" d="m701.9 348.5l0.6 0.1c2.3 1.9 17 62 19.2 69.8-5.7 2.1-11.7 3.6-17.4 5.4l-33.1 10.3c-15.1 4.6-33 11.2-48.1 14.4-2.5-3.3-17.4-60.6-19.8-69.5 32.5-11 65.9-19.9 98.6-30.5z"/>
	<path class="s3" d="m810.8 315.6c0.6 0.5 0.9 1.3 1.1 2 6.1 22.4 11.4 45 18.6 67-13.5 4.8-27.3 8.5-41 12.7l-60.4 18.7c-0.3-0.1-0.7-0.2-1-0.5-2.1-3.2-9.9-37.3-11.5-43.6q-3.4-12.8-7.2-25.5c13.4-4.8 27.3-8.4 40.9-12.5z"/>
	<path class="s2" d="m105.8 504.1q1.9-0.2 3.8 0c7.1 0.7 14.6 3.3 21.6 4.8l47 9.4 141.4 28 247.9 49.5c31.2 6.4 63 11.8 93.9 19 3.6 0.8 6.6 2.3 8.9 5.3 3 3.9 3.4 8 3.7 12.8 0.4 8.7 0.1 17.6 0.1 26.3v46.5l0.1 148.8 0.1 69.1c0 9.7 1.1 24.1-0.6 33.2-0.9 4.9-3.8 8.9-7.9 11.7-3.5 2.4-7.3 3.7-11.5 3.5-5.6-0.3-11.3-1.8-16.7-2.8q-12.2-2.5-24.4-4.6c-41.1-7.5-82.2-15.7-123.3-23.6-33.2-6.3-66.2-13.9-99.4-20 1.7 3.8 3.7 7.3 5.7 10.8 4.6 1.7 9.7 2.6 13.8 5.3 5.5 3.7 6.2 9.9 7.2 15.9 6.9 0 38.6-1.3 42.4 1.8 1.2 6.5 0 16.2-0.2 23.1-9.5 0.5-19.2 0.2-28.7 0.2h-53.7c-40.2 0-80.6 0.7-120.8-0.1-1.7 0-4.1 0.3-5.5-0.7-2.3-5.8-1.1-17.7-0.7-24.2 14.6-1.3 29.8-0.3 44.5-0.2 0.4-3 0.7-6.2 1.8-9 2.4-6.1 6.9-7.9 12.4-10.3 15.6-6.8 13.1-10.7 18.8-25-15.3-3.4-31-5.8-46.4-8.8l-116.7-22.7-35.4-6.8c-6.9-1.3-15-2.2-21.6-4.7q-0.5-0.2-0.9-0.4-0.5-0.3-1-0.5-0.5-0.2-1-0.5-0.4-0.3-0.9-0.6-0.4-0.2-0.9-0.6-0.4-0.3-0.8-0.6-0.4-0.3-0.8-0.7-0.4-0.3-0.8-0.7-0.4-0.4-0.8-0.8-0.3-0.3-0.7-0.8-0.3-0.4-0.6-0.8-0.4-0.4-0.7-0.9-0.3-0.4-0.5-0.8-0.3-0.5-0.6-1-0.2-0.4-0.5-0.9-0.2-0.5-0.4-1c-1.3-3-1.7-6.1-1.8-9.3-0.6-19.1-0.1-38.4-0.1-57.5l-0.1-121.7v-93.8c-0.1-16.5-0.7-33.2-0.1-49.7 0.2-3.1 0.4-6.5 1.7-9.3 2.1-4.7 6.1-7 10.7-8.6z"/>
	<path class="s3" d="m256.1 959l197.8 1 0.1 11.8c-6.1 1.1-13.9 0.3-20.1 0.2l-36.9 0.2-140.9-0.1z"/>
	<path class="s3" d="m332.9 909.8c16.7 2.6 33.3 7.1 50 9.9 2.8 6.5 6.8 15.5 13.3 18.8 2.8 1.4 6.2 1.9 8.9 3.4 4.2 2.4 5 6.8 6.1 11.1l-31.3-0.3-79.1 0.4c0.5-3.3 1.1-6.3 2.2-9.4 5.2-3.2 11.4-5.5 16.9-8.4 9.2-5.1 10.2-16.3 13-25.5z"/>
	<path class="s3" d="m106.1 510.5q0.5 0 1-0.1c6-0.4 19.6 3.7 26 5l65.9 13 392.7 78.7 45.4 9c7.1 1.4 14.6 2.5 21.5 4.4 2 0.6 5.6 1.5 6.9 3.2 1.9 2.2 2.8 5.5 2.9 8.3 0.4 7.4 0.1 14.9 0.1 22.3l0.1 41.9 0.3 142.2v77 23.7c0 4.7 0.3 9.6-0.2 14.2-0.7 5.1-3.1 8.3-7.1 11.5-3.3 1.5-5.7 1.3-9.2 0.8-14-2.2-27.8-5-41.7-7.6q-37.3-7-74.5-14.5l-195.2-38.5-152.1-29.6q-23.8-4.4-47.4-9.1c-9.6-1.8-19.4-3.3-28.8-5.8-4.9-1.2-7.3-2.4-10.3-6.6-2.1-3-2.7-5.7-2.9-9.3-0.3-9.4 0-19 0-28.4v-47.4-154.7-67.7c-0.1-7-1-22 0.3-28.2 0.8-3.7 3.3-5.7 6.3-7.7z"/>
	<path class="s2" d="m112.8 828.7c16.6 2.7 33.1 6.3 49.6 9.5l94.5 18.8 282 55.8 82.1 15.8c4.3 0.8 26.4 4.6 29.1 5.8 1.2 0.5 1.5 1 2 2.2-0.2 1.6-0.6 2.3-1.6 3.6-13.8-1.2-28.3-5.4-42-8.1l-75.3-14.4-270.9-53.8c-15-2.9-148.3-28.8-150.2-30-1.1-0.6-1-0.9-1.3-2 0.4-1.4 1.1-2.2 2-3.2z"/>
	<path class="s2" d="m112.8 527.9c6.4 0.1 13.2 2.2 19.5 3.4q20.9 4 41.7 8.4l107.1 21.4 264.7 52.6c31.2 6.3 62.4 12.1 93.5 18.8 4 0.8 8.1 1.8 11.7 3.8 1.3 2.3 1.9 4.3 2 6.9 0.7 18.4-0.2 37.4-0.2 55.8l-0.2 117.4-0.1 73.1c0 11.3 1 24.4-0.1 35.5-1.3 0.3-2.3 0.3-3.6 0.1-13-2-26-5.5-38.9-8.1l-92.7-18.1-255.9-50.6-97.1-18.9c-16.8-3.2-34-5.6-50.6-9.8-1.7-9-0.6-20.7-0.7-30.1q-0.2-36.6 0-73.1l-0.4-129.3-0.1-37.7c0-7-0.5-14.5 0.4-21.5z"/>
	<path class="s2" d="m187.4 740.9c0.7 0.5 0.6 0.3 1 1.1 0.5 0.9 0.9 2.2 0.4 3.2-2.2 4.6-11.6 8.6-16.2 10.5-1.1-0.9-1.1-1.8-1.5-3.2 0.1-0.5 0.1-1 0.3-1.4 0-0.1 13.6-8.4 16-10.2z"/>
	<path class="s2" d="m187.4 690.9c1.2 0.3 1.2 0.3 2 1.3 0 1 0 1.5-0.5 2.4-2.7 5.9-15.5 9.7-21.3 11.4-0.8 0-0.3 0.1-1.4-0.4-0.4-1-0.9-1.7-0.7-2.8 0-0.6 0-0.6 0.4-0.9 2.7-2.2 8.1-3.4 11.4-5 3.5-1.7 6.8-3.9 10.1-6z"/>
	<path class="s2" d="m201.8 658.4c0.6 0.9 0.5 1.3 0.6 2.3-2.1 5.1-30.2 33.3-36.2 38-0.1-0.2-0.3-0.5-0.4-0.7-0.6-0.8-0.7-2.2-0.4-3.2 1.7-6.1 30-32.3 36.4-36.4z"/>
	<path class="s2" d="m135.4 623.4c7.6-1 15.6-0.8 23.2-1 9.1-0.2 18.1-0.7 27.2-0.9 8.2-0.3 15.8 1 21.9 7 4.3 4.4 7.2 11 7.3 17.1 0.8-0.3 1.5-0.9 2.2-1.4l1.2 0.4c-3.3 3.8-6.8 7.5-9.9 11.5l-0.5-0.8-3.1 3.2c-1.8-5.9-3.7-14-8.4-18.4-5.9-5.5-24.5-2.8-32.7-2.5l0.2 42.2c0 8.9-0.3 17.9 0.2 26.7 1 17.1 3.9 34.1 5.8 51.1 1.5 13.4 2.1 26.9 2.4 40.4 0.1 5.3 0.8 11.8-0.4 16.9-1 1.2-1.8 1.5-3.3 1.6-3.8 0.3-10.5-1-13.5-3.4-1.9-4.4-0.4-12.3-0.2-17.2 1.3-25.8-3.7-50.8-6.1-76.4-3.7-0.5-7.7-1-10.5-3.8-1.2-1.1-2.3-2.8-2.6-4.5-1.5-7.5-0.5-20.9-0.4-28.9z"/>
	<path class="s1" d="m215 645.6c0.8-0.3 1.5-0.9 2.2-1.4l1.2 0.4c-3.3 3.8-6.8 7.5-9.9 11.5l-0.5-0.8c0.9-2.7-0.4-5.4-1.2-8.1l0.7-0.1 0.8 0.4 1.5-2.1c0.2 2 0.6 3.9 0.9 5.8 1.6-1.8 2.9-3.6 4.3-5.6z"/>
	<path class="s3" d="m140.5 628c7.8-0.5 15.7-0.5 23.6-0.8 9.2-0.3 21.4-2.1 30.3-0.3 3.4 0.7 6.7 2.3 9.3 4.6 3.9 3.6 5.8 8.7 6.1 13.9l-1.5 2.1-0.8-0.4-0.7 0.1c-1.8-3.9-3.6-8.6-6.8-11.5-2.5-2.1-5.7-3.2-8.9-3.7-5.7-0.8-11.7 0-17.4 0.2l-27.1 0.8c0.7 21 0.7 42.2 0.7 63.2 0 4 1.8 13.5 0.5 16.6-0.3 0.7-0.7 0.7-1.4 1-1.7-0.2-3.5-1.1-4.7-2.4-1.1-1.3-1.1-3.2-1.2-4.8-0.6-9.2-0.1-18.8 0-28.1z"/>
	<path class="s3" d="m152 638h7.1c0.1 24.6-1.2 49.7 0.6 74.2 1.3 17.9 4.4 35.6 6.1 53.3 1.6 15.5 1.8 30.6 1.2 46.2-2.5-0.1-4.9-0.7-7.3-1.1 0.7-13.9 0.9-27.4-0.1-41.3-1.6-20.7-5-41.3-6.7-62-1.7-22.9-0.9-46.3-0.9-69.3z"/>
	<path class="s2" d="m493.1 684.5q0.2 0 0.5 0c2.3 0.2 4.2 1.3 6.1 2.5 9.4 5.5 108.7 69 111.2 72.5 1.4 2 1.6 6.1 0.9 8.3-0.7 2.1-3.1 4.1-4.8 5.4-5.7 4.4-12.5 7.8-18.6 11.5q-12.8 7.8-25.4 15.9-21.7 14-43.6 27.6c-7.3 4.6-14.8 10.2-22.5 13.9-1.6 0.7-3 1.2-4.8 0.8-1.6-0.3-3-1.1-3.9-2.5-1.2-2.1-1.7-5-1.8-7.4-0.7-14.5 0.1-29.3 0.1-43.8l-0.1-71.6c0-6.1-1.2-22.3 0.5-27.3 1-3 3.5-4.6 6.2-5.8z"/>
	<path class="s3" d="m494.4 693.1c3.7 0.7 105.3 65.9 110.2 71.8-5.3 5-12.7 8.9-18.9 12.7q-12.1 7.3-24 14.9c-14.5 8.9-28.9 18.3-43.2 27.6-8 5.1-16.2 11.4-24.9 15.3-0.4-11.2 0-22.4 0-33.6l0.2-64.4 0.1-27.9c0-5.3-0.5-11.2 0.5-16.4z"/>
	<path class="s2" d="m499.8 701.9c9.5 4.8 18.4 11.9 27.4 17.6q35.1 22 69.6 44.9c-11.8 8.6-25.2 15.9-37.6 23.7q-29.9 18.5-59.2 37.8z"/>
	<path class="s2" d="m218.4 644.6c4.7-4.3 9.5-8.6 14.7-12.2 19.1-13.1 42.6-19.1 65.6-17.9q1.2 0.1 2.5 0.2 1.2 0.1 2.4 0.2 1.3 0.2 2.5 0.3 1.2 0.2 2.4 0.4 1.2 0.2 2.5 0.4 1.2 0.2 2.4 0.5 1.2 0.2 2.4 0.5 1.2 0.3 2.4 0.6 1.2 0.3 2.4 0.7 1.2 0.3 2.3 0.7 1.2 0.3 2.4 0.7 1.1 0.4 2.3 0.9 1.2 0.4 2.3 0.8 1.2 0.5 2.3 1 1.1 0.5 2.3 1 1.1 0.5 2.2 1 1.1 0.6 2.2 1.1 1.1 0.6 2.2 1.2 1.1 0.6 2.1 1.2 1.1 0.6 2.2 1.3 1 0.6 2.1 1.3 1 0.6 2 1.3 1 0.7 2 1.4 1 0.8 2 1.5 1 0.8 2 1.5 0.9 0.8 1.9 1.6 0.9 0.8 1.9 1.6 0.9 0.8 1.8 1.6 0.9 0.9 1.8 1.7 0.9 0.9 1.8 1.8 0.8 0.8 1.7 1.7 0.8 0.9 1.6 1.9 0.9 1 1.8 2 0.9 1 1.7 2 0.8 1.1 1.6 2.1 0.9 1.1 1.6 2.1 0.8 1.1 1.6 2.2 0.7 1.1 1.5 2.2 0.7 1.1 1.4 2.3 0.7 1.1 1.4 2.2 0.7 1.2 1.3 2.4 0.7 1.1 1.3 2.3 0.6 1.2 1.2 2.4 0.6 1.2 1.2 2.4 0.6 1.2 1.1 2.4 0.5 1.2 1 2.4 0.5 1.3 1 2.5 0.5 1.3 0.9 2.5 0.5 1.3 0.9 2.5 0.4 1.3 0.8 2.6 0.4 1.3 0.7 2.5 0.4 1.3 0.7 2.6 0.3 1.3 0.6 2.6 0.3 1.3 0.6 2.6 0.2 1.3 0.5 2.6 0.2 1.4 0.4 2.7 0.2 1.3 0.4 2.6 0.1 1.3 0.3 2.7 0.1 1.3 0.2 2.6 0.1 1.3 0.2 2.7 0 1.3 0.1 2.6 0 1.4 0 2.7 0 1.3 0 2.7-0.1 1.3-0.1 2.6-0.1 1.3-0.2 2.6-0.1 1.3-0.2 2.6-0.2 1.2-0.3 2.5-0.2 1.3-0.4 2.6-0.2 1.2-0.4 2.5-0.3 1.3-0.5 2.5-0.3 1.3-0.6 2.5-0.3 1.3-0.6 2.5-0.3 1.3-0.7 2.5-0.3 1.2-0.7 2.5-0.4 1.2-0.8 2.4-0.4 1.2-0.9 2.4-0.4 1.2-0.9 2.4-0.5 1.2-1 2.4-0.5 1.2-1 2.4-0.5 1.1-1.1 2.3-0.6 1.1-1.2 2.3-0.5 1.1-1.2 2.3-0.6 1.1-1.2 2.2-0.7 1.1-1.3 2.2-0.7 1.1-1.4 2.2-0.7 1-1.5 2.1-0.7 1.1-1.4 2.1-0.8 1-1.6 2.1-0.7 1-1.5 2-0.9 1-1.7 2-0.8 1-1.7 1.9-0.8 1-1.7 1.9-0.9 1-1.8 1.9-0.9 0.9-1.8 1.8-0.9 0.9-1.9 1.8-0.9 0.8-1.9 1.7c-20 17.8-46 28.5-73 26.8q-1.4-0.1-2.7-0.2-1.3-0.1-2.7-0.3-1.3-0.1-2.6-0.3-1.3-0.2-2.7-0.4-1.3-0.2-2.6-0.5-1.3-0.2-2.6-0.5-1.3-0.3-2.6-0.6-1.3-0.3-2.6-0.7-1.3-0.3-2.6-0.7-1.3-0.4-2.5-0.8-1.3-0.4-2.6-0.9-1.2-0.4-2.5-0.9-1.2-0.5-2.5-1-1.2-0.5-2.5-1-1.2-0.5-2.4-1.1-1.2-0.6-2.4-1.2-1.2-0.5-2.4-1.2-1.2-0.6-2.3-1.2-1.2-0.7-2.4-1.4-1.1-0.7-2.2-1.4-1.2-0.7-2.3-1.4-1.1-0.7-2.2-1.5-1.1-0.8-2.2-1.6-1.1-0.8-2.1-1.6-1.1-0.8-2.1-1.6-1.1-0.9-2.1-1.7-1-0.9-2-1.8-1-0.9-2-1.8-0.9-0.9-1.9-1.9-0.9-0.9-1.9-1.9-0.9-0.9-1.8-1.9-0.9-1-1.8-2-1.4-1.7-2.8-3.4-1.4-1.7-2.7-3.5-1.3-1.8-2.6-3.7-1.2-1.8-2.4-3.7-1.1-1.9-2.2-3.8-1.1-2-2.1-3.9-0.9-2-1.8-4-1-2.1-1.8-4.1-0.8-2.1-1.5-4.2-0.8-2.1-1.4-4.2-0.6-2.1-1.2-4.2-0.6-2.2-1-4.4-0.5-2.1-0.9-4.3-0.3-2.2-0.6-4.4-0.3-2.2-0.5-4.4-0.1-2.2-0.2-4.4c-4 8.3-10.1 18.4-16.5 25.1l-1.4-6.4c2.3-3.9 10.5-16.8 13.8-19.4 0.8-0.7 1.8-0.8 2.6-1.2 0.2-0.1 0.4-0.2 0.5-0.3q0.2-0.1 0.4-0.2c1.4-5 0.7-10.4 1.4-15.5 2.3-18.6 8.8-34.9 20.4-49.7 3.1-4 6.6-7.7 9.9-11.5z"/>
	<path class="s3" d="m285.2 619.7q0.3 0 0.6-0.1c25.3-2.4 51.8 7.7 70.8 24.3q1 0.8 1.9 1.6 0.9 0.9 1.8 1.7 0.9 0.9 1.7 1.8 0.9 0.9 1.8 1.8 0.8 0.9 1.6 1.8 0.9 1 1.7 1.9 0.8 1 1.6 1.9 0.7 1 1.5 2 0.8 1 1.5 2 0.7 1 1.4 2 0.7 1.1 1.4 2.1 0.7 1.1 1.4 2.1 0.6 1.1 1.2 2.2 0.7 1 1.3 2.1 0.6 1.1 1.2 2.2 0.5 1.1 1.1 2.2 0.5 1.2 1 2.3 0.6 1.1 1.1 2.3 0.5 1.1 0.9 2.3 0.5 1.1 0.9 2.3 0.4 1.2 0.9 2.3 0.4 1.2 0.7 2.4 0.4 1.2 0.8 2.4 0.3 1.2 0.6 2.4 0.3 1.2 0.6 2.4 0.3 1.2 0.6 2.4 0.2 1.3 0.5 2.5 0.2 1.2 0.4 2.4 0.2 1.3 0.4 2.5 0.1 1.2 0.3 2.5 0.1 1.2 0.2 2.5 0.1 1.2 0.2 2.5 0.1 1.2 0.1 2.4 0.1 1.3 0.1 2.5 0 1.3 0 2.5 0 1.3 0 2.5-0.1 1.3-0.1 2.5-0.1 1.3-0.2 2.5-0.1 1.3-0.2 2.5-0.2 1.2-0.3 2.5-0.2 1.2-0.4 2.4-0.2 1.3-0.4 2.5-0.2 1.2-0.5 2.5-0.2 1.2-0.5 2.4-0.3 1.2-0.6 2.4-0.3 1.2-0.7 2.4-0.3 1.2-0.7 2.4-0.4 1.2-0.8 2.4-0.4 1.2-0.8 2.3-0.4 1.2-0.9 2.4-0.4 1.1-0.9 2.3-0.5 1.1-1 2.3-0.6 1.1-1.1 2.2-0.5 1.1-1.1 2.3-0.6 1.1-1.2 2.2-0.6 1.1-1.2 2.1-0.6 1.1-1.3 2.2-0.6 1-1.3 2.1-0.7 1-1.4 2.1-0.7 1-1.4 2-0.8 1-1.5 2-0.8 1-1.6 2-0.7 1-1.5 1.9-0.8 1-1.7 1.9c-17.4 19.6-41.4 31.9-67.6 33.5-25.3 1.2-49.2-7.3-68.8-23.1-19.9-16.2-34-40-36.5-65.8-2.8-28.7 4.4-54.8 22.9-77.1 17.6-21.2 42.4-32.6 69.5-35.1z"/>
	<path class="s2" d="m288.9 624.7q2.2-0.1 4.4 0 2.1 0 4.3 0.1 2.1 0.1 4.3 0.4 2.1 0.2 4.3 0.5 2.1 0.3 4.2 0.8 2.1 0.4 4.2 0.9 2.1 0.5 4.2 1.1 2.1 0.6 4.1 1.4 2 0.7 4.1 1.5 2 0.8 3.9 1.7 2 0.9 3.9 1.9 1.9 0.9 3.8 2 1.9 1.1 3.7 2.2 1.8 1.2 3.6 2.4 1.8 1.3 3.5 2.6 1.7 1.3 3.3 2.7c19.7 17.1 31.2 41.9 33 67.7 1.7 24.4-6.1 49.6-22.2 68.1-18.2 20.7-40.9 31.9-68.2 33.8-23.9 0.5-47.4-8.9-65.4-24.4q-0.9-0.7-1.8-1.5-0.8-0.8-1.7-1.6-0.8-0.8-1.7-1.6-0.8-0.8-1.6-1.7-0.8-0.8-1.6-1.7-0.8-0.8-1.6-1.7-0.7-0.9-1.5-1.8-0.7-0.9-1.5-1.8-0.7-1-1.4-1.9-0.7-0.9-1.4-1.9-0.6-0.9-1.3-1.9-0.6-1-1.3-2-0.6-1-1.2-2-0.6-1-1.2-2-0.6-1-1.1-2-0.6-1.1-1.1-2.1-0.5-1-1-2.1-0.5-1.1-1-2.1-0.4-1.1-0.9-2.2-0.4-1.1-0.8-2.2-0.5-1.1-0.9-2.2-0.3-1.1-0.7-2.2-0.4-1.1-0.7-2.2-0.3-1.1-0.6-2.2-0.3-1.2-0.6-2.3-0.3-1.2-0.5-2.3-0.3-1.1-0.5-2.3-0.2-1.1-0.4-2.3-0.2-1.1-0.4-2.3-0.1-1.2-0.3-2.3-0.1-1.2-0.2-2.3-0.1-1.2-0.2-2.4c-1.7-25 5.3-49.8 22-68.7 18-20.6 42.6-31.9 69.7-33.6z"/>
	<path class="s3" d="m284.8 629.7q0.6-0.1 1.2-0.1c22.1-1.8 45.5 5.9 62.4 20q0.9 0.7 1.7 1.5 0.9 0.7 1.7 1.5 0.8 0.8 1.7 1.6 0.8 0.7 1.6 1.6 0.7 0.8 1.5 1.6 0.8 0.8 1.5 1.7 0.8 0.8 1.5 1.7 0.7 0.9 1.4 1.8 0.7 0.8 1.4 1.7 0.7 0.9 1.4 1.9 0.6 0.9 1.3 1.8 0.6 0.9 1.2 1.9 0.6 0.9 1.2 1.9 0.6 1 1.2 1.9 0.6 1 1.1 2 0.5 1 1.1 2 0.5 1 1 2 0.5 1.1 1 2.1 0.4 1 0.9 2 0.4 1.1 0.8 2.1 0.5 1.1 0.9 2.2 0.3 1 0.7 2.1 0.4 1.1 0.7 2.1 0.4 1.1 0.7 2.2 0.3 1.1 0.6 2.2 0.3 1.1 0.5 2.2 0.3 1.1 0.5 2.2 0.3 1.1 0.5 2.2 0.2 1.1 0.4 2.2 0.2 1.1 0.3 2.3 0.2 1.1 0.3 2.2 0.1 1.1 0.2 2.3c2.2 23.4-5.1 48.4-20.3 66.5q-0.8 0.8-1.5 1.7-0.8 0.8-1.5 1.7-0.8 0.8-1.6 1.6-0.8 0.8-1.6 1.6-0.8 0.8-1.6 1.6-0.8 0.7-1.7 1.5-0.8 0.7-1.7 1.5-0.8 0.7-1.7 1.4-0.9 0.7-1.8 1.4-0.9 0.7-1.8 1.3-0.9 0.7-1.8 1.3-0.9 0.7-1.9 1.3-0.9 0.6-1.9 1.2-0.9 0.6-1.9 1.2-1 0.5-2 1.1-1 0.5-2 1.1-1 0.5-2 1-1 0.5-2 0.9-1 0.5-2.1 1-1 0.4-2 0.8-1.1 0.4-2.1 0.8-1.1 0.4-2.2 0.8-1 0.4-2.1 0.7-1.1 0.4-2.2 0.7-1 0.3-2.1 0.6-1.1 0.3-2.2 0.5-1.1 0.3-2.2 0.5-1.1 0.3-2.2 0.5-1.1 0.2-2.2 0.4-1.2 0.1-2.3 0.3-1.1 0.2-2.2 0.3-1.1 0.1-2.3 0.2-0.3 0.1-0.6 0.1c-21.6 2.2-45.1-7.3-61.7-20.7-19.5-15.8-31.3-37.2-33.9-62.3-2.3-22.4 4.8-47 19.1-64.4 16.1-19.5 38.5-31.8 63.7-34.3z"/>
	<path class="s2" d="m271 764c6.8 0.5 19.5 2.3 25.3 5.5 1.9 1 2.9 2.4 3.5 4.5 1.8 6.1-1.9 23.3-5.4 28.8-1.3 2.1-3 2.6-5.3 3-6.7-0.3-13.6-1.9-20-3.7-3-0.9-7.1-2.2-8.6-5.2-2.7-5.7 1.5-19.2 3.6-24.8 1.5-4.1 2.9-6.3 6.9-8.1z"/>
	<path class="s2" d="m291.4 637.5q1.3 0 2.6 0c6.6 0.3 25.1 3.2 29.3 8.2 1.6 1.9 1.5 4.9 1.1 7.3-0.4 2.6-4.9 19.9-6 22.1-0.8 1.4-2 2.4-3.4 3.3-1.9 0.1-3.7 0.1-5.6-0.2-4.7-0.5-24.1-3.1-26.2-7-1.5-2.7-0.7-7.3-0.1-10.2 1-5 3.4-17.1 5.8-21.2 0.7-1 1.5-1.6 2.5-2.3z"/>
	<path class="s2" d="m356.5 678.1c0.9-0.1 2.1-0.2 3 0.1 3.7 1.3 6.2 6 7.7 9.4 2.3 5.3 8.6 21.3 5.7 26.4-3 5.4-17.6 8.6-23.1 10.3-1.6 0.1-3.8-0.4-5.2-1.1-3.7-1.8-9.4-20.1-10.7-24.7-1-3.4-1.6-7.3 0.4-10.5 3.5-5.6 16-8.3 22.2-9.9z"/>
	<path class="s2" d="m237.5 720.1c1.1-0.1 2.3-0.1 3.3 0.2 3.1 0.9 5.1 4.7 6.3 7.5 1.9 4.4 8.2 20.7 5.6 25-3.3 5.3-19.4 9.8-25.5 11.9-1.4 0.1-2.6 0.2-3.9-0.3-4.2-1.9-6.7-8.9-8.1-13-1.7-4.8-6.1-15.2-3.5-20 2.6-4.7 20.4-9.9 25.8-11.3z"/>
	<path class="s2" d="m339.2 741.6c0.9 0 1.6 0.1 2.5 0.3 5.3 1.4 17.9 19.8 20.8 24.9-3.9 7.1-16.1 20.3-24 22.7-1.3 0-2.8 0.2-4-0.2-6.6-2.2-16.9-20.1-19.3-26.5 4.1-5.9 17-19.4 24-21.2z"/>
	<path class="s2" d="m243.8 653.4c1.8 0.5 3.3 1.3 4.8 2.5 4.2 3.6 17.6 16.8 17.6 22.1 0 3-3.5 6.6-5.5 8.6-4 4.2-11.4 13-16.4 15.3-1.2 0.5-2.4 0.5-3.6 0.5q-1.1-0.3-2.1-0.7c-6.7-2.4-18.1-16.8-21.1-23.2 6.6-8.9 16.1-20.4 26.3-25.1z"/>
	<path class="s2" d="m291.2 691.2q0.3-0.1 0.5-0.1c7.5-0.3 16 2.5 21.5 7.6 5.7 5.1 8.9 13 9.3 20.5q0.1 0.8 0.1 1.5 0 0.7 0 1.5-0.1 0.7-0.1 1.5-0.1 0.7-0.2 1.4-0.1 0.8-0.2 1.5-0.2 0.7-0.3 1.4-0.2 0.7-0.4 1.5-0.2 0.7-0.4 1.4-0.3 0.7-0.6 1.3-0.2 0.7-0.5 1.4-0.4 0.7-0.7 1.3-0.3 0.7-0.7 1.3-0.4 0.7-0.8 1.3-0.4 0.6-0.8 1.2-0.4 0.6-0.9 1.2-0.5 0.6-1 1.1c-5.3 6.1-12.2 9.2-20.2 9.8-7 0-13.5-1.6-19.2-5.8q-0.6-0.4-1.1-0.8-0.6-0.5-1.1-1-0.6-0.5-1.1-1-0.5-0.5-1-1-0.5-0.6-0.9-1.1-0.5-0.6-0.9-1.2-0.5-0.5-0.9-1.1-0.4-0.6-0.8-1.3-0.3-0.6-0.7-1.2-0.3-0.7-0.6-1.3-0.3-0.7-0.6-1.3-0.3-0.7-0.5-1.4-0.2-0.7-0.5-1.4-0.2-0.7-0.3-1.4-0.2-0.7-0.3-1.4-0.2-0.7-0.3-1.4c-1.1-8 0.8-16.5 5.8-22.9 5.4-6.9 12.9-10.5 21.4-11.6z"/>
	<path class="s3" d="m290 696.1c5.7-0.4 10.9 0.5 15.8 3.4 5.7 3.5 9.6 9 11.2 15.5 1.6 6.7 0.7 13.6-3 19.4-4.1 6.3-9.7 9.1-16.7 10.7-6.3 0.5-12.5-0.1-17.9-3.7-5.4-3.6-9.1-9.5-10.3-15.8q-0.1-0.6-0.2-1.2-0.1-0.6-0.2-1.2 0-0.7 0-1.3-0.1-0.6-0.1-1.2 0-0.7 0.1-1.3 0-0.6 0.1-1.2 0-0.6 0.1-1.3 0.1-0.6 0.3-1.2 0.1-0.6 0.3-1.2 0.1-0.6 0.3-1.2 0.2-0.6 0.4-1.2 0.2-0.6 0.5-1.1 0.2-0.6 0.5-1.2 0.3-0.5 0.6-1.1 0.3-0.5 0.6-1 0.4-0.6 0.7-1.1c4.1-5.8 10.1-9.2 16.9-10.5z"/>
</svg>