<svg version="1.2" xmlns="http://www.w3.org/2000/svg" viewBox="0 0 1024 1023" width="1024" height="1023">
	<title>genera-una-ilustraci-n-vectorial-estilizada-de-un--svg</title>
	<defs>
		<linearGradient id="g1" x2="1" gradientUnits="userSpaceOnUse" gradientTransform="matrix(3.186,22.261,-10.405,1.489,549.687,126.329)">
			<stop offset="0" stop-color="#1a1815"/>
			<stop offset="1" stop-color="#353537"/>
		</linearGradient>
		<linearGradient id="g2" x2="1" gradientUnits="userSpaceOnUse" gradientTransform="matrix(15.938,-1.19,6.112,81.831,602.869,491.383)">
			<stop offset="0" stop-color="#000000"/>
			<stop offset="1" stop-color="#313131"/>
		</linearGradient>
		<linearGradient id="g3" x2="1" gradientUnits="userSpaceOnUse" gradientTransform="matrix(20.42,2.752,-11.028,81.838,527.923,500.546)">
			<stop offset="0" stop-color="#131212"/>
			<stop offset="1" stop-color="#2d2d2d"/>
		</linearGradient>
		<linearGradient id="g4" x2="1" gradientUnits="userSpaceOnUse" gradientTransform="matrix(-4.712,-6.808,37.796,-26.161,434.32,245.852)">
			<stop offset="0" stop-color="#060708"/>
			<stop offset="1" stop-color="#2b2b2b"/>
		</linearGradient>
		<linearGradient id="g5" x2="1" gradientUnits="userSpaceOnUse" gradientTransform="matrix(-2.346,-5.826,58.923,-23.725,497.388,374.835)">
			<stop offset="0" stop-color="#030303"/>
			<stop offset="1" stop-color="#252525"/>
		</linearGradient>
	</defs>
	<style>
		.s0 { fill: #fbfbfb } 
		.s1 { fill: #bde46f } 
		.s2 { fill: #2b2b2c } 
		.s3 { fill: #090909 } 
		.s4 { fill: url(#g1) } 
		.s5 { fill: url(#g2) } 
		.s6 { fill: url(#g3) } 
		.s7 { fill: #b3b3b3 } 
		.s8 { fill: url(#g4) } 
		.s9 { fill: url(#g5) } 
	</style>
	<path class="s0" d="m963.3 800.3c0.4 0.1 1.1 0.4 1.5 0.6 1 0.7 1.4 1.6 1.4 2.8-0.1 4.6-10.3 16.1-13.8 19.2-0.9-0.2-1.5-0.3-2.2-0.9-0.6-0.5-0.4-0.8-0.5-1.5 1.7-3.7 10.7-17 13.6-20.2z"/>
	<path class="s0" d="m927.1 97.3c0.8 0.1 1.6 0.3 2.3 0.7 4.6 2.8 17.1 18.8 18.5 24.1-0.5 1.4-1.7 1.8-3 2.6-1-0.5-18.4-22-20.3-24.6 0.3-1.3 1.5-2 2.5-2.8z"/>
	<path class="s0" d="m694.8 515.3c1.1 0.1 1.8 0.2 2.8 0.6 0.8 0.9 1.1 1.6 1.3 2.9 0.7 7.1-4.6 23.6-9 29.3-1.7-0.5-3.2-0.9-4.3-2.4-0.3-3.6 4-12.1 5.1-16.3 1-3.7 1.3-7.7 2.4-11.3 0.3-1.2 0.9-1.9 1.7-2.8z"/>
	<path class="s0" d="m59.8 791.2c1.3 0.3 1.9 0.7 2.7 1.7 4.5 5.1 8.1 11.3 12.3 16.6 4.2 5.3 9.2 10 13.1 15.4-0.3 1.5-1 2.1-2 3.3-0.8-0.3-0.8-0.2-1.4-0.6-5.3-3.8-25.2-27.3-25.8-33.1-0.2-1.7 0.2-2 1.1-3.3z"/>
	<path class="s0" d="m100.1 90.3c0.8 0.4 1.6 0.8 2.3 1.3 1 0.7 1.2 1.3 1.3 2.4-2.2 3.6-5.9 6.5-8.8 9.6-2.3 2.4-4.4 5-6.6 7.6q-7.3 9-14.1 18.3c-4.3 5.9-8.3 12.2-13.1 17.8-1.5-0.4-2.5-0.8-3.4-2.1 2.3-10.2 33.9-47 42.4-54.9z"/>
	<path class="s0" d="m961.9 764.8c1.3 0.4 2.3 0.7 3.3 1.9-0.1 0.6-0.1 0.8-0.2 1.3-0.7 4.5-4.8 9.8-7.2 13.6-11.6 17.9-25 36.2-42.2 49-0.6 0.3-1.2 0.4-1.8 0.5-0.9-0.8-1.2-0.8-1.5-2 1.5-4.4 14.1-14.7 18-19.2q11.8-13.6 21.6-28.7c3.5-5.4 6.5-11.1 10-16.4z"/>
	<path class="s0" d="m56.6 740.3q1.4 0.1 2.9 0.2c1.8 1.2 14.6 29.9 17 34.4 7 13 15.4 25 24.4 36.7 3.2 4 7.4 7.9 10.2 12.1 0.9 1.3 0.7 2.4 0.5 3.8-0.5 0.1-0.7 0.1-1.2 0.1-3.4-0.1-9.7-8.1-11.7-10.6-15-18.1-26.3-37.8-36.1-59-2.3-5-6.5-12.1-6-17.7z"/>
	<path class="s0" d="m323.7 486.2c0.9 0.1 1.8 0.3 2.7 0.5 0.3 0.3 0.7 0.5 1 0.9 0.7 1.4 1.2 23.1 1.7 27.9 2.1 19 7.5 38 17.3 54.6 1.7 2.9 3.9 5.5 5.7 8.3 1.7 2.4 3 3.7 2.4 6.7-0.9 0-2 0.1-2.8-0.1-4.5-1.4-9.4-12.1-11.5-16.2-11.2-20.8-16.8-44.7-17.4-68.3-0.1-4.6-0.5-9.9 0.9-14.3z"/>
	<path class="s0" d="m156.3 99.9c1.4 0.9 2.3 1.4 2.8 3-0.7 2.9-16.5 17.8-19.6 21.2-11.9 13.2-21 28.5-29.6 44-2.5 4.4-7.6 16.7-11.4 19.3-0.3-0.1-0.6-0.2-0.9-0.3-1.3-0.6-1.4-0.8-2-2.1 0.5-4.4 4.8-10.6 7-14.7 14.1-26.8 30.3-50.8 53.7-70.4z"/>
	<path class="s0" d="m871.2 68.2q0.4 0.2 0.7 0.4c5 2.8 9.7 7.8 13.8 11.8q7.3 7.1 14.3 14.7 6.9 7.6 13.4 15.6 6.5 7.9 12.6 16.3 6 8.3 11.5 16.9c2.6 4.1 6.2 8.7 7.4 13.4-0.5 1.3-1.9 1.6-3.1 2.2l-1.2-0.2c-3.9-5.1-7.2-11-10.8-16.3-9.1-13.4-18.4-26.3-29-38.6-5.3-6.2-11-12.5-17-18.1-4.2-4-11.9-9.6-15.1-14.1 0.4-1.6 1.5-2.7 2.5-4z"/>
	<path class="s0" d="m956.1 703.7c1.3 0.1 2 0.2 3.1 0.8 0.8 1.4 0.9 2.1 0.8 3.7-0.5 6-3.9 13.5-6 19.2-13 35.5-35.2 69.5-65.1 93.1-0.2 0-0.5 0-0.8-0.1-1.1-0.2-1.7-1-2.3-1.9 0.1-2.6 13-13.4 15.9-16.5q2.5-2.5 4.8-5.1 2.4-2.7 4.7-5.4 2.3-2.7 4.5-5.5 2.2-2.8 4.4-5.6 2.1-2.9 4.1-5.8 2-2.9 3.9-5.9 2-3 3.8-6.1 1.8-3 3.5-6.1 1.7-3.1 3.4-6.3 1.6-3.2 3.1-6.4 1.5-3.2 2.9-6.5 1.4-3.2 2.7-6.5 1.3-3.3 2.5-6.7 1.2-3.3 2.3-6.7 1-3.4 2-6.8 1-3.5 1.8-6.9z"/>
	<path class="s0" d="m715.3 458.5c1.5-0.1 2.3-0.2 3.6 0.4 3.9 4.4 4.3 24.3 4.4 30.8 0.2 27.7-7.5 57.1-20.9 81.3-2.9 5.3-6 10.9-10.2 15.2-0.5 0-1.3-0.1-1.7-0.2-1.3-0.5-1.5-1.1-2-2.2 0.4-5 7.4-12.6 10-17.3 2.2-3.9 4-8 5.7-12q2.7-6.6 4.9-13.3 2.2-6.8 3.9-13.7 1.6-6.9 2.8-14 1.1-7 1.6-14.1c0.6-7.4 0.2-15.4-0.5-22.8-0.2-2.4-3-15.1-2.5-16.4 0.2-0.7 0.6-1.2 0.9-1.7z"/>
	<path class="s0" d="m65.4 699.7l1.7 0.6c4.3 4.6 8.7 18.2 11.8 24.8q5.1 11 11.1 21.6 10.5 19.3 22.8 37.6 12.2 18.3 26 35.4c3.3 4 7.1 7.6 10.6 11.6 1 1.1 2.9 3.1 3.3 4.7 0.1 0.7-0.8 1.7-1.1 2.3-0.6 0-1.2 0-1.8-0.2-3.5-1.5-9.7-9.4-12.4-12.6-25.6-29.6-58.3-81.1-71.3-117.7-1-2.8-2.1-5.3-0.7-8.1z"/>
	<path class="s0" d="m308.9 445.2c0.7 0.2 1.4 0.5 2.1 0.8 0.7 0.8 0.9 1 0.9 2.1 0 3.1-1.2 7.1-1.8 10.3-1.1 5.7-2.1 11.4-2.8 17.1q-0.4 3.3-0.6 6.5-0.3 3.2-0.5 6.4-0.1 3.3-0.2 6.5 0 3.3 0.1 6.5 0.1 3.2 0.3 6.5 0.2 3.2 0.5 6.4 0.4 3.2 0.8 6.4 0.5 3.3 1 6.4 0.6 3.2 1.3 6.4 0.7 3.2 1.5 6.3 0.8 3.1 1.7 6.2 0.9 3.1 2 6.2 1 3.1 2.1 6.1 1.2 3 2.5 6 1.2 3 2.6 5.9 1.4 3 2.8 5.8c1.8 3.5 11.6 18.6 11.9 20.2-0.4 1.7-1 2.1-2.2 3.3-0.2-0.1-0.5-0.2-0.7-0.4-2.1-1.3-4.3-5.1-5.7-7.1-11.5-17.2-19.4-37.6-23.6-57.8-4.9-24-5-48-0.8-72 0.9-5.6 1.7-12.2 4.8-17z"/>
	<path class="s0" d="m154.8 71.9c1.5 0.2 1.9 0.2 3.1 1.1l0.2 1.4c-0.9 2.2-18.5 17.3-21.8 20.5-15.6 15.6-30.5 32.1-43.2 50.3-10 14.3-18.2 30.6-25.3 46.5-2.5 5.6-10.9 29.1-13.6 32.3-1.5-0.6-2.1-0.7-3.1-2.1-0.1-1.2-0.1-2.2 0.2-3.4 1.7-8.3 7.3-19.3 11-27.3 5-11 10.2-22.2 16.3-32.7q3-5.1 6.1-10 3.2-4.9 6.6-9.8 3.3-4.8 6.9-9.4 3.5-4.7 7.2-9.3 3.7-4.5 7.6-8.9 3.9-4.4 7.9-8.7 4.1-4.2 8.3-8.4 4.2-4.1 8.5-8c5.5-5 11-10 17.1-14.1z"/>
	<path class="s0" d="m815.4 62.4c2.3 0.7 4.3 1.8 6.3 2.9 40.2 22.1 79.5 66.6 103.9 104.9 4.8 7.7 12.8 20.9 15 29.3 0.4 1.7 0.1 2.2-0.7 3.6-0.9 0.2-1.5 0.1-2.5-0.1-2.3-2.2-9.6-18.1-12.1-22.5q-5-9-10.9-17.4c-22.3-32.1-45.7-57.2-76.8-80.8-6.7-5.1-14.4-8.9-21-14-0.9-0.7-1.6-1.3-2.2-2.3-0.2-1.4 0.4-2.4 1-3.6z"/>
	<path class="s1" d="m738.5 331.4c0.6 0 1.4 0 2 0.1 2 0.4 3.1 1.9 4.1 3.5 4.8 8.1 10.4 26.8 13.5 36.2 4 12.5 7.8 25 10.6 37.8 11 51 8.2 103.8-4.9 154.1-2.7 10.5-13.5 45.6-22 50.6-1.7-0.2-4.3-0.5-5.5-1.8-2.8-2.9 1.8-8.9 3.4-11.7 15.9-29.2 22.8-65 25.2-97.9q0.6-6.9 0.9-13.7 0.2-6.9 0.2-13.8 0-6.9-0.3-13.8-0.3-6.9-0.9-13.7-0.6-6.9-1.4-13.7-0.9-6.8-2.1-13.6-1.1-6.8-2.6-13.6-1.4-6.7-3.1-13.4-2.3-9.4-5.5-18.6c-1.8-5.3-14.8-37.6-14.5-39.7 0.2-1.5 1.8-2.4 2.9-3.3z"/>
	<path class="s1" d="m283.8 330.4c2.2-0.1 3.7-0.2 5.6 1.2 0.4 0.7 1 1.5 1 2.3 0.2 3.8-4 10.4-5.7 14.1-5.1 11.1-9.3 22.4-13.1 34-7.5 22.8-11.6 47.5-13.1 71.5-2.3 37.2 0.8 75.4 11.6 111.1 3.7 12.3 8.4 24.8 14.2 36.4 1.5 3.1 5.6 8 5 11.7-0.3 1.6-1.5 2.6-2.7 3.6-0.5 0.1-0.8 0.1-1.4 0.1-1.3 0.1-2.3-0.4-3.3-1.3-3.9-3.8-6.3-10.9-8.5-15.8-16.2-35.8-24.4-76.8-25-116.1q-0.1-4.1 0-8.3 0-4.1 0.1-8.3 0.1-4.1 0.3-8.2 0.2-4.2 0.6-8.3 0.3-4.2 0.7-8.3 0.4-4.1 1-8.2 0.5-4.2 1.2-8.3 0.6-4.1 1.3-8.1 0.8-4.1 1.6-8.2 0.9-4.1 1.8-8.1 1-4 2-8.1 1.1-4 2.2-8 1.2-3.9 2.4-7.9 1.3-4 2.6-7.9 1.4-3.9 2.8-7.8 1.5-3.9 3-7.7c3-7.4 6.2-17.4 11.8-23.1z"/>
	<path class="s1" d="m761.7 262.8c0.9 0.1 0.9 0.1 1.7 0.4 6.7 2.3 26.5 41.2 30.3 49.2 42 89.5 45.6 204.1 12 296.8-10.2 28.1-24.6 55.8-43.4 79.3-3.7 4.7-7.9 10.6-13.5 13.2-2-0.2-4.3-0.2-5.7-2-0.7-0.9-0.6-2.3-0.1-3.3 1.7-3.6 13.7-15.6 17.1-19.9 5-6.1 9.1-12.9 13-19.7 23.5-40.2 37.4-85.6 43.2-131.7q0.8-5.7 1.3-11.5 0.5-5.7 0.9-11.4 0.4-5.8 0.6-11.5 0.2-5.8 0.2-11.6 0.1-5.7-0.1-11.5-0.1-5.7-0.4-11.5-0.3-5.7-0.7-11.5-0.5-5.7-1.1-11.4-0.6-5.7-1.4-11.5-0.8-5.7-1.7-11.3-1-5.7-2.1-11.4-1.1-5.6-2.4-11.2-1.2-5.6-2.7-11.2-1.4-5.6-3-11.1-1.6-5.6-3.4-11-1.7-5.5-3.6-10.9-5.2-15.2-12.2-29.6-7.4-15-16-29.5c-2.6-4.4-6.3-8.5-8.5-13.1-0.8-1.6-1.5-3.3-1.2-5.1 0.2-1.5 1.8-2.6 2.9-3.5z"/>
	<path class="s1" d="m259.8 261.4c1.6 0 3.6 0.3 4.9 1.5 1.4 1.4 1.4 3.1 0.9 4.9-1.6 5.6-6.5 11.7-9.4 16.9q-7.4 12.5-13.9 25.5c-20.3 40.8-31.5 84.8-35.3 130-5.1 60.6 2.5 120.8 25.6 177.1 8.3 20.2 19 38.9 31.1 57 2.9 4.3 16.5 20.9 16.3 24.8-0.1 2.1-1.9 3.2-3.4 4.3q-0.3 0-0.7 0c-2.4-0.1-4-1.9-5.5-3.6-3.3-3.4-6-7.7-8.8-11.6-7-10-13.6-20-19.4-30.7-33.9-62-48.3-127-46-197.5 2-61.2 17-114.3 45-168.5 4.9-9.4 10.9-22.9 18.6-30.1z"/>
	<path class="s1" d="m806.6 221.9c6.1 0.9 11.6 10.3 15.1 15.1q6.5 8.7 12.5 17.8 6 9 11.5 18.5 5.5 9.4 10.4 19.1 4.9 9.7 9.2 19.7c30.6 70.3 40.8 155.4 29.3 231-9.3 60.7-30.7 121.9-68.5 170.8-6.3 8.3-13.9 18.5-22.3 24.6-1 0.1-2 0.1-3-0.1-1.3-0.3-2.1-1.4-2.7-2.5-0.1-1.2-0.1-2 0.5-3.1 2.7-5.3 12.3-14.5 16.6-19.8 10.4-12.8 19.3-27.4 27.3-41.7 61.3-109.4 62.6-256.4 8.3-368.7-9.1-18.9-20.3-37.2-32.1-54.5-2.8-4.2-15.3-17.7-15.2-21.7 0.1-2 1.8-3.3 3.1-4.5z"/>
	<path class="s1" d="m212.4 222.5c1.5-0.2 2.6-0.1 3.9 0.6 1.1 0.6 2.2 1.5 2.5 2.8 0.9 4.3-11 18.2-13.7 22-11.3 16-20.7 33.2-29.2 50.8-49.7 103.1-56.6 229-12.3 335.2 4.9 11.7 10 23.4 16.2 34.5 9.6 17.1 20.8 35.1 33.8 49.8 2.6 3 12.3 12.1 12.5 15.7 0.1 2-1.2 3.3-2.4 4.7-1.2 0.3-2.5 0.7-3.6 0.5-4.4-0.6-28.3-33.5-32-39-19.2-28.9-33.2-59.7-43.6-92.7q-2-6.4-3.9-12.9-1.8-6.5-3.4-13.1-1.7-6.6-3.1-13.2-1.4-6.6-2.6-13.2-1.2-6.7-2.2-13.4-1-6.6-1.7-13.4-0.8-6.7-1.4-13.4-0.5-6.7-0.9-13.5-0.3-6.7-0.4-13.5-0.2-6.8-0.1-13.5 0.1-6.8 0.4-13.5 0.3-6.8 0.9-13.5 0.5-6.8 1.2-13.5 0.8-6.7 1.7-13.4 1-6.7 2.2-13.3 1.1-6.7 2.5-13.3 1-5 2.1-9.9 1.2-5 2.4-9.9 1.3-4.9 2.6-9.8 1.4-4.9 2.9-9.8 1.4-4.8 3-9.7 1.6-4.8 3.4-9.6 1.7-4.8 3.5-9.5 1.8-4.7 3.8-9.4 1.9-4.7 3.9-9.4 2.1-4.6 4.3-9.2 2.1-4.6 4.4-9.2 2.3-4.5 4.7-9 2.3-4.5 4.8-8.9 2.5-4.4 5.1-8.8 2.6-4.4 5.3-8.7 2.7-4.3 5.5-8.5c4.3-6.5 10.6-17.8 17-22z"/>
	<path class="s1" d="m806.4 129.9c0.8 0 1.6 0 2.3 0.2 3.4 0.9 7.8 6.3 10.2 8.9 18.6 19 36.2 40 51.4 61.9q3.2 4.8 6.4 9.7 3.2 4.9 6.2 9.9 3.1 5 6 10 2.9 5 5.7 10.2 2.8 5.1 5.5 10.2 2.7 5.2 5.3 10.5 2.5 5.2 4.9 10.5 2.4 5.3 4.7 10.7 2.3 5.3 4.5 10.8 2.2 5.4 4.2 10.8 2 5.5 3.9 11 1.9 5.5 3.7 11.1 1.7 5.6 3.3 11.2 1.7 5.6 3.2 11.2 1.4 5.6 2.8 11.3 1.3 5.7 2.6 11.4 1.2 5.7 2.2 11.4 1.1 5.8 2 11.5 1 5.8 1.8 11.6 0.8 5.7 1.4 11.5 0.7 5.8 1.2 11.6 0.5 5.8 0.9 11.7 0.3 5.8 0.5 11.6 0.3 5.8 0.4 11.7 0 5.8 0 11.6-0.1 5.9-0.3 11.7-0.2 5.8-0.5 11.6-0.4 5.9-0.8 11.7-0.5 5.8-1.1 11.6-0.7 5.8-1.4 11.6-0.8 5.7-1.7 11.5-0.9 5.8-2 11.5-1.2 6.7-2.6 13.3-1.4 6.7-2.9 13.3-1.6 6.6-3.3 13.2-1.8 6.6-3.7 13.1-1.9 6.5-4 13-2.1 6.5-4.4 12.9-2.2 6.4-4.7 12.7-2.4 6.4-5 12.7-2.6 6.3-5.4 12.5-2.8 6.2-5.7 12.3-2.9 6.1-6 12.2-3.1 6.1-6.4 12-3.3 6-6.7 11.9-3.4 5.9-7 11.6-3.5 5.8-7.3 11.5-3.7 5.7-7.6 11.3c-6.9 10-14.6 19.5-22.2 29-9.3 11.8-26.5 32.9-38.4 41.1-1.8 0.1-3.7-0.4-5.2-1.6-1.2-2.5-0.5-4 0.9-6.2 2.3-3.5 6.1-6.6 9-9.6q6.2-6.3 12-12.9 20.2-23 37.7-48.2 4.1-5.9 8-11.9 3.9-6 7.6-12.1 3.7-6.1 7.2-12.3 3.6-6.2 6.9-12.5 3.4-6.4 6.6-12.8 3.1-6.4 6.1-12.9 3-6.5 5.8-13.1 2.8-6.5 5.4-13.2 2.6-6.7 5-13.4 2.4-6.7 4.6-13.5 2.2-6.8 4.2-13.7 2-6.9 3.8-13.8 1.8-6.9 3.4-13.9 1.7-6.9 3.1-14 1.4-7 2.6-14 1.2-7.1 2.2-14.1 0.7-5.5 1.4-11 0.6-5.5 1.1-11 0.5-5.5 0.9-11 0.4-5.5 0.7-11.1 0.2-5.5 0.4-11 0.1-5.5 0.1-11.1 0-5.5-0.2-11-0.1-5.6-0.4-11.1-0.2-5.5-0.6-11-0.4-5.5-0.9-11-0.6-5.5-1.2-11-0.7-5.5-1.4-11-0.8-5.5-1.7-10.9-0.9-5.5-2-10.9-1-5.4-2.2-10.8-1.1-5.4-2.4-10.8-1.3-5.4-2.7-10.7-1.5-5.4-3-10.7-1.5-5.3-3.2-10.6-1.7-5.2-3.5-10.5-1.8-5.2-3.7-10.4-1.9-5.2-3.9-10.3-2.1-5.2-4.2-10.2-2.2-5.1-4.4-10.2-2.3-5-4.7-10-2.4-5-4.9-9.9-2.5-4.9-5.1-9.8-2.7-4.9-5.4-9.7-2.7-4.8-5.6-9.5-2.8-4.8-5.8-9.4-2.9-4.7-6-9.3-3.1-4.6-6.3-9.1c-10.8-15.4-23.5-29.8-36.1-43.7-6-6.5-13.2-12.9-18.4-20-0.7-1.1-1-2.2-0.7-3.6 0.4-1.6 1.8-2.6 3-3.5z"/>
	<path class="s1" d="m211.9 133.5c0.9 0 1.9-0.1 2.8 0.1 1.5 0.2 3.3 1.4 3.9 2.7 2.1 4.4-7.6 12-10.4 14.8-35.2 35.2-61.9 76.6-83.6 121.3-8.9 18.2-15.9 37.6-21.9 56.9q-1.8 5.9-3.5 11.8-1.7 5.9-3.2 11.8-1.5 6-2.8 12-1.4 5.9-2.6 12-1.2 6-2.3 12-1 6.1-1.9 12.1-0.9 6.1-1.7 12.2-0.7 6.1-1.3 12.2-0.6 6.1-1.1 12.2-0.4 6.2-0.7 12.3-0.3 6.1-0.4 12.2-0.2 6.2-0.2 12.3 0.1 6.2 0.2 12.3 0.2 6.1 0.5 12.3 0.4 6.1 0.8 12.2 0.5 6.1 1.1 12.2 0.7 6.1 1.5 12.2 0.8 6.1 1.7 12.2 0.9 6 2 12.1 1.1 6 2.3 12 1.3 6 2.7 12 1.4 6 2.9 11.9 1.6 6 3.2 11.9 1.7 5.9 3.6 11.7 1.8 5.9 3.8 11.7 2 5.8 4.1 11.6 2.1 5.7 4.4 11.4 2.3 5.7 4.7 11.4 2.4 5.6 5 11.2 2.5 5.6 5.2 11.1 2.7 5.5 5.6 10.9 2.8 5.5 5.8 10.9c7.7 13.8 15.9 28.1 25.2 41q9.1 13.1 19.3 25.4 10.2 12.4 21.3 23.8c3.7 3.9 20.8 18.8 21.6 21.9 0.4 1.5-1.4 3.5-2.3 4.6-0.9 0.4-1.9 0.7-2.9 0.6-3.8-0.3-10.4-7.7-13-10.3-19-18.5-36-37.8-51.2-59.5-74.3-106.2-103.7-245.2-81-372.6q0.6-3.8 1.3-7.5 0.7-3.7 1.5-7.5 0.8-3.7 1.6-7.4 0.8-3.7 1.7-7.4 0.9-3.7 1.9-7.4 0.9-3.7 1.9-7.3 1.1-3.7 2.1-7.3 1.1-3.7 2.2-7.3 1.2-3.6 2.4-7.2 1.2-3.6 2.4-7.2 1.3-3.6 2.6-7.2 1.3-3.6 2.7-7.1 1.4-3.5 2.8-7.1 1.4-3.5 2.9-7 1.5-3.5 3-7 1.6-3.4 3.2-6.9 1.6-3.4 3.3-6.8 1.6-3.5 3.3-6.9 1.8-3.3 3.5-6.7 1.8-3.4 3.6-6.7 1.9-3.3 3.8-6.6 1.8-3.3 3.8-6.6 1.9-3.3 3.9-6.5 2-3.3 4-6.5 2.1-3.2 4.2-6.3 2.1-3.2 4.2-6.3 2.2-3.2 4.4-6.3 2.2-3.1 4.5-6.1 2.2-3.1 4.5-6.1 2.3-3 4.7-6 2.3-3 4.7-5.9 2.4-3 4.9-5.9c7.2-8.5 22.8-27.1 31.3-33z"/>
	<path class="s0" d="m462.3 85.7q4.2-0.2 8.5 0c36.8 0.8 75 16.5 100.5 43.5q3.8 4.1 7.3 8.5 3.5 4.4 6.6 9 3.1 4.7 5.8 9.6 2.8 4.9 5.1 10c6.7 14.4 11.4 29.4 16.8 44.4q16.1 46.1 31.4 92.4c9.2 27.4 18.7 54.6 27.6 82.1 4.3 13.1 8.9 26.3 12.3 39.7 2.6 10.5 4.2 21.1 3.8 31.9-1 29.2-15 58.6-36.5 78.4-19.7 18.1-46.1 30.8-72.9 33.6-8.1 0.9-16.1 0.6-24.2 0.3 0.3 4.5 1.1 9 1.8 13.5q2.2 0.3 4.3 0.8c6.3 1.5 11 5.9 14.4 11.3 5.7 9.5 7.3 21.8 4.6 32.6-2.5 10.1-8 17.9-17 23.3 0.6 44.4-0.7 88.9-0.4 133.4 20.5 2.5 40.8 7.6 60.8 12.7 39.7 10.2 78 25.6 112.5 48.1 5.8 3.9 14.5 8.8 17.9 15 3.3 6 3.9 22.2 2 28.8-2.8 10.2-16 19.1-24.7 24.1-81.1 46.3-181.9 58.1-273.3 43.4-18.1-3-35.5-7.3-53.1-12.1-22-6.6-42.9-14.2-63.3-24.6-5.4-2.7-10.5-6-15.8-8.9-1 0.1-1.5 0.5-2.4 0.9-4.8 2.8-9.8 4.7-14.9 6.9-32.3 13.8-92.8 30.4-127.2 20.7-3.4-1-7.9-2.6-9.7-6-0.8-1.8-0.8-3.7 0-5.5 6.7-15.7 69.9-27.5 86.3-32.3q23.1-6.8 45.7-15.3c0.4-7.5 0.9-15 1.7-22.5 6-6.9 15.1-12 22.7-16.9 34.7-22.4 74.5-38.6 114.4-49 13.3-3.5 26.9-6.1 40.4-8.8q2.1-39.9 4.7-79.9c0.8-11.4 0.8-24.4 2.7-35.6-2.3-0.8-4.6-1.9-6.6-3.3-9.5-6.5-15.3-17.9-17.2-29-2.1-12 0.8-25.2 8-35.1 5.3-7.3 12.1-11.7 21.1-13.1q0.6-8.6 0.7-17.2c-5.8-2.8-12.2-4.7-18.2-7.2-15.6-6.4-29.4-14.8-42-26-9.6-8.5-18.1-18.2-23.9-29.6-3.9-7.9-6.7-16.3-9.8-24.5-5.5-14.9-10.9-29.7-15.9-44.8-2.8-8.2-6-16.2-8.9-24.4-3.5-9.9-6.8-20-10.2-30l-25-71.9c-7.4-21.5-20.2-53.4-21.4-75.6-1.4-24.8 8.2-52.3 21.8-73.1 5-7.6 11-14.5 17-21.3 28.2-31.7 59.8-52.8 103.3-55.4z"/>
	<path class="s2" d="m421.4 458c0.9 0.6 0.9 0.7 1.3 1.7-1.4 3-9.9 6.7-13 8.4-0.6-0.1-0.2 0-1-0.6 0.9-2.3 10.1-7.8 12.7-9.5z"/>
	<path class="s3" d="m643.6 483.6l0.6 0.4c0 1.7-0.3 4 0.5 5.5l1.2 0.8c-0.2 10.9-2.9 25.8-9 35 4-13.9 5.9-27.3 6.7-41.7z"/>
	<path class="s4" d="m540.8 121.3c0.5 0.2 0.8 0.2 1.3 0.5 4.4 2.8 16.2 22.3 16.9 27.3-1.4 0.3-3.1 0.6-4.6 0.3-1-0.3-1.7-0.8-2.2-1.8-2.1-3.6-3.2-8.3-4.7-12.2-1.9-4.9-4.2-9.5-6.7-14.1z"/>
	<path class="s2" d="m625.3 373.7c4.6-0.5 15-1.2 18.7 1.8l-0.1 0.8c-5 2.2-15.9 1-21.8 1.5l-20.9 1.7c7.7-3.4 15.7-5 24.1-5.8z"/>
	<path class="s2" d="m669.4 433.2c0.7 0.1 1.1 0.3 1.7 0.6 2.6 4.6 4.3 23.9 3.2 28.9-0.4 2.1-2.3 4-3 6-1.3 3.7-1.3 8.4-2 12.3 0 0.7-0.2 1.2-0.4 1.9 0-8.1 0.3-16.1 0.1-24.2-0.2-7.3-0.9-14.9-0.5-22.2 0-1.3 0.3-2.2 0.9-3.3z"/>
	<path class="s2" d="m580 234.2c3.8-0.2 7.8 0 11.7 0.5 1.8 0.2 4.2 0.3 5.4 1.9l-0.2 0.6c-6.2 2.6-21.5 2.2-29 3.1-5.1 0.5-10.1 1.3-15.1 2.3l-1.4-4.7c9.6-1.6 18.8-3.2 28.6-3.7z"/>
	<path class="s2" d="m598.6 304.7c5.7-0.6 17.3-1.4 22 2.4l-0.1 0.8c-4.5 2.3-15.8 1.8-21.1 2.2-6.5 0.5-13.1 2-19.6 2.1-0.9 0-0.4 0.1-1.3-0.7-0.4-1.4-0.7-1.8-0.2-3.2 4-3.6 15.1-3.2 20.3-3.6z"/>
	<path class="s2" d="m414.5 439c2.4 3 3.6 8.5 4.9 12.2-4.6 2.5-9 5.4-13.3 8.4-2.5-1.6-4.3-11.2-5-14.2q6.7-3.1 13.4-6.4z"/>
	<path class="s2" d="m614.6 336.7c4.4-0.3 9-0.2 13.3 0.7 1.8 0.4 4.1 0.8 5.1 2.4-2.3 2.6-21 2.6-25.5 3.1-5 0.4-10.8 2.6-15.6 1.5-1.5-1.4-1.6-2.6-2.1-4.5 8.2-1.9 16.4-2.7 24.8-3.2z"/>
	<path class="s2" d="m394.8 379.4l0.7 0.3c2.1 3.6 3.4 8.4 4.8 12.4-5 2.4-9.6 5.4-14.1 8.5l-0.8 0.1c-2.1-2.4-3.1-8-4.2-11.2 3.9-3.9 9-7 13.6-10.1z"/>
	<path class="s2" d="m588.8 269.7c4.7-0.6 13.5-0.5 17.9 1.3 1.4 0.6 1.9 1.3 2.4 2.6-0.8 0.8-1 0.8-2.2 1-2.7 0.3-5.6-0.2-8.4-0.1-4.6 0.2-9.4 0.8-14 1.2-5.6 0.5-12.1 2.7-17.7 2.2-0.9-0.1-1.3-0.3-1.8-1.2-0.6-1.1-0.5-2.1-0.2-3.3 2.8-2.5 19.6-3.3 24-3.7z"/>
	<path class="s2" d="m385.1 349.5c2.4 3.2 3.7 9.5 4.9 13.4-5.3 2.8-9.8 5.8-14.4 9.7-0.2 0.1-0.4 0-0.6-0.1-1.4-4-2.6-8-3.9-12.1 4.4-3.9 9.2-7.4 14-10.9z"/>
	<path class="s2" d="m404.9 407.7c1.6 1.6 3.8 10.8 4.8 13.7-5.1 2.9-9.4 6.2-14 10-2.1-4.5-3.5-9.4-4.8-14.2 4.8-3 9.4-6.4 14-9.5z"/>
	<path class="s2" d="m643.6 483.6c-0.1-9.4 0-18.8-1.2-28.2-0.8-5.7-2.8-11.6-3.1-17.3-0.2-1.8 0-2.8 1.2-4.1 1.1-0.1 1.7-0.3 2.6 0.5 6.3 5.8 4.3 43.2 3.3 52.7q-0.2 1.6-0.5 3.1l-1.2-0.8c-0.8-1.5-0.5-3.8-0.5-5.5z"/>
	<path class="s2" d="m362.6 285.5c2.2 1.3 4.8 9.8 6 12.6-5.3 3.2-10.2 6.6-14.9 10.6l-0.6 0.2c-2.4-2.2-4-9.5-5.1-12.9q7.2-5.4 14.6-10.5z"/>
	<path class="s2" d="m569.7 199.7c5.6-0.4 13.8-0.7 18.7 2.5l0.2 0.8c-2.9 2.3-27.3 3.2-33 3.9-5.3 0.6-10.4 1.5-15.6 3l-1.7-5.7c10.5-2.3 20.7-3.8 31.4-4.5z"/>
	<path class="s2" d="m374.3 316.1c2.2 4.4 3.4 10.1 4.8 14.9-5.5 2.7-9.3 6.8-14 10.6l-0.7 0.5-5.8-14.5c5.1-4 10.2-8 15.7-11.5z"/>
	<path class="s2" d="m372.5 150.5c1.5-0.1 3 0 4.5 0.3 12.3 2.3 36.3 15.1 43.2 25.9 1 1.6 1.1 2.4 0.8 4.2-0.4 0.2-0.8 0.3-1.2 0.3-0.7 0.1-1.6 0.4-2.3 0-3.3-1.5-6.3-5.8-9.1-8.1-2.6-2.2-5.5-4.1-8.3-6-5.4-3.7-11.2-6.8-17.1-9.8-3-1.4-7.4-2.7-9.8-4.6-0.7-0.6-0.6-1.4-0.7-2.2z"/>
	<path class="s2" d="m558.2 595.5c1.7 0 3.6 0.3 5.2 1.2 4.6 2.7 7 7.6 8.4 12.6 2.2 8.7 0.5 16-4 23.5l-0.3 0.4c-1 1.4-2.3 3.3-4.1 3.6-1-3.9 0.2-11.3-0.1-15.8-0.7-8.9-3-16.9-5.1-25.5z"/>
	<path class="s2" d="m444.7 98.6c13.5 2.4 24.3 14.9 32.3 25.3 5.2 6.9 20 31 18.9 39.7-1.2 0.5-2.3 1-3.6 0.8-0.9-0.1-1.3-0.8-1.8-1.5-4.6-7.9-7.4-17-12-25-5.8-9.9-13.8-20.4-21.9-28.4-3.7-3.6-9.2-6.8-11.9-10.9z"/>
	<path class="s2" d="m399.6 117.7q1.7-0.2 3.3 0c16 2 32.8 17.1 42.5 29.1 3.8 4.7 14.7 19.1 14 25.1-1.4 0.2-3.9 0.5-5.2-0.2-2.7-1.5-5.2-7.7-6.8-10.4-7.3-12.1-23.1-27.8-34.8-35.6-3.8-2.5-8.2-3.8-11.9-6.3-1.1-0.7-0.9-0.6-1.1-1.7z"/>
	<path class="s5" d="m618.4 493.8c0.1 2.6-0.4 5.7-0.7 8.3-1.7 13.5-4.7 26.7-10.3 39.2-0.8 1.9-1.6 4.4-3.2 5.7l-0.5-0.3c0.4-3.8 2.3-7.6 3.2-11.3 2.5-9.9 4.4-19.8 5.2-30 1.3-15.9 0.7-31.8-0.8-47.6-0.5-5.2-2.8-10.4-2.8-15.5 0.7-0.8 1.1-1.2 2.3-1.3 0.7 0 1.5 0.2 2 0.8 3.1 3.1 4.7 18.7 5 23.5 1.5 9.4 1.3 19 0.6 28.5z"/>
	<path class="s2" d="m617.8 465.3c1.5 9.4 1.3 19 0.6 28.5-1-3.8-0.4-7.9-0.7-11.8-0.3-3.4-1-6.9-1.1-10.3 0-1.2 0.3-2.3 0.5-3.4q0.4-1.5 0.7-3z"/>
	<path class="s2" d="m489.5 99.4c7.3 0.5 15.8 6.1 20.9 11.2 10.8 10.7 23.5 31.9 23.6 47.4-0.9 0.2-1.8 0.4-2.7 0.5-2.4 0.2-3.4-0.9-4.5-2.8-2.4-4.3-3.9-9.2-6-13.7-7.7-16.1-17.5-31.1-31.3-42.6z"/>
	<path class="s6" d="m546.3 457.3c1.3 0.2 2.5 0.2 3.3 1.3 2.8 3.7 2.3 19.5 2.1 24.3-1 24-9.8 46.2-27.5 62.6-1.1 0.4-2 0.5-3 0.6l-0.5-0.6c1.4-3.5 5.4-7.4 7.6-10.6 8.5-12.4 14.2-26.4 16.1-41.3 0.8-6.4 1-13.2 0.7-19.7-0.2-4.3-0.9-9.1-0.5-13.4 0.2-1.4 0.9-2.2 1.7-3.2z"/>
	<path class="s2" d="m578.2 446.7c1.4 0.2 2.3 0.2 3.3 1.3 4.5 4.6 5.3 22.9 5.5 29.1 0.8 25.1-2 57.1-20 76.1-1.2 0.5-2 0.8-3.4 0.7 1.4-3.8 5.1-8.2 7-12.3 6.2-13.9 9-28.9 10.2-44 1.2-14.3 0.2-28.3-2.2-42.4-0.5-2.8-1.6-5.8-0.4-8.5z"/>
	<path class="s2" d="m424.4 466c1.3 1.5 12.9 37.1 16.3 44 6.1 12.1 14.7 21.6 24 31.1-3.4-1.8-6.6-4-9.9-6-26.3-17.3-34.2-33-43.7-62 4.4-2.5 8.7-4.9 13.3-7.1z"/>
	<path class="s2" d="m345.2 177.9c0.6 4.3-2.8 17.3-2.8 23.8 0.1 23.5 7.9 45.4 15.7 67.3-4.9 2-9.1 4.5-13.4 7.6l-2.6 1.9c-11.1-31.9-15.9-48.6-4.1-81.7 2.2-6.3 4.3-12.9 7.2-18.9z"/>
	<path class="s2" d="m493.9 598.1c3.8-0.2 7 0.4 10.4 2.2 6.2 3.2 10.2 9.4 12.2 16 2.6 9.1 1.9 19.9-2.7 28.2-3.4 6.3-8 10-14.7 11.9-4.7 0.8-8.7-0.2-12.6-2.9-6.2-4.1-9.9-11.3-11.3-18.5-1.8-9.2-0.1-19.7 5.2-27.5 3.4-4.9 7.7-8.3 13.5-9.4z"/>
	<path class="s0" d="m491.2 610.6c1 0.2 2 0.3 2.9 0.7 3.6 1.4 6.1 4.6 7.5 8.2 2.2 5.7 2 13.2-0.5 18.8-2 4.4-4.6 6.9-9.1 8.5-1.7-0.2-3.3-0.6-4.8-1.3-3.5-1.8-5.8-5.1-6.9-8.8-1.9-5.9-1.4-13.1 1.6-18.5 2.2-4.1 5-6.3 9.3-7.6z"/>
	<path class="s2" d="m489.6 616.4c0.9 0 2 0 2.9 0.2 1.6 0.5 3 2 3.9 3.4 2.2 3.5 2.7 8.6 1.8 12.6-0.9 3.9-2.7 6.5-6.2 8.6q-0.5-0.1-1-0.1c-2.3-0.3-4.2-1.6-5.6-3.5-2.4-3.3-2.7-7.9-1.9-11.8 0.9-4.2 2.6-7 6.1-9.4z"/>
	<path class="s0" d="m490.9 623.9c1.9 0.2 3 0.4 4.3 1.9 0.3 0.9 0.6 1.5 0.4 2.5-0.4 2.1-1.8 3.1-3.5 4.1-1.3 0.1-2.4 0-3.4-1.1-0.8-0.9-1-2.1-0.9-3.3 0.3-2.1 1.4-3 3.1-4.1z"/>
	<path class="s2" d="m744.3 866.5c1.4 2.3 1.4 13.4 1.7 16.7l-0.2 0.5c-7.7 14.8-41.6 31.2-57.3 37.7q-17 6.8-34.5 12.3l-2-5.4c-1.9-5.1-4.2-9.8-6.6-14.6 33.9-8.7 72.8-23.3 98.9-47.2z"/>
	<path class="s2" d="m301.6 886.5c0.9 0.3 1.4 4.6 1.9 5.8 2.2 5.6 11.4 10.1 16.2 13.9q-3.6 1.8-7.3 3.6-3.6 1.7-7.3 3.4-3.7 1.6-7.5 3.2-3.7 1.5-7.5 2.9-3.8 1.4-7.7 2.7-3.8 1.3-7.7 2.5-3.8 1.2-7.7 2.2-4 1.1-7.9 2-3.9 1-7.9 1.8-4 0.8-8 1.5-3.9 0.7-8 1.3-4 0.6-8 1-4 0.5-8 0.8-4.1 0.3-8.1 0.5-4.1 0.2-8.1 0.3-4.1 0.1-8.1 0c-5.1-0.4-15-0.8-18.6-4.7-0.2-1.2-0.3-1.5 0.3-2.6 5.6-10.6 67.1-23.6 79.2-27.1 15.4-4.4 30.9-9.4 45.8-15z"/>
	<path class="s2" d="m561.5 793.9c50.2 8.6 100.2 23.6 145.7 46.6 3.7 1.8 13.6 5.9 16 9-6.3-2-12.9-2.7-19.4-3.6-16.9-2.3-33.8-3.6-50.8-4.9-30.4-2.4-61.1-5.1-91.6-6z"/>
	<path class="s2" d="m362.1 159.8c1.2 3.3-1.4 10.2-1.8 13.9-0.6 5.8-0.8 12-0.7 17.8q0.1 5 0.5 10 0.3 5 1 9.9 0.6 4.9 1.6 9.8 0.9 4.9 2.1 9.8c3.9 14.4 9.3 28.6 14.1 42.7l31.3 90.3c7.9 22.9 16.3 45.7 23.8 68.7l11.5 34.5c2.8 8.6 5.4 17.2 8.8 25.5q1.5 3.7 3.3 7.3 1.8 3.6 3.8 7.1 2 3.5 4.3 6.8 2.2 3.3 4.7 6.5c12.3 15.6 32 32.1 51 38.8 4.4 1.5 16.5 3 19.3 5.8 0.3 1.2 0.5 1.1 0 2.3-2.4 0.4-4.9-0.1-7.3-0.4q-4.2-0.4-8.4-1.2-4.1-0.8-8.2-1.9-4-1.1-8-2.6-3.9-1.5-7.7-3.4c-19.7-9.4-36.5-25.3-47.7-44-8.8-14.6-13.5-31.2-19.1-47.2q-11.9-34.2-23.3-68.5-22.9-67.3-46.7-134.2c-10.1-29.1-16.7-53.6-8.8-84.4 1.7-6.7 3.6-13.5 6.6-19.7z"/>
	<path class="s2" d="m562.1 840.2c0.5-0.1 0.6-0.1 1.1-0.2 9.7-0.4 25.1 1.4 35.2 2.1q35.1 2.5 70.1 5.6 23.6 1.8 47.1 5.2c5.4 0.8 11.5 1.4 16.7 3.1 3.1 1.1 6.4 4.8 9 7-8.3 7.5-18.9 13.6-28.5 19.1-10 5.2-19.9 10.3-30.4 14.5-12.9 5.2-26.2 9.1-39.5 13.3-20.4-31.1-47.5-53.4-80.8-69.7z"/>
	<path class="s2" d="m314.8 868.1c4.2 2.4 8.2 5.5 12.3 8.1 66.5 42.2 164.2 56.9 241.9 51 24.1-1.8 47.5-6.2 71-11.5 3.5 5.3 7.4 12.8 8.8 18.9-0.8 1-2.3 1-3.6 1.4-46.4 13.4-99.3 16.6-147.4 13.4-53.2-3.5-107.3-16.4-154.8-40.9-7.9-4-21.1-11-26.7-17.8-3.8-4.5-1.9-16.9-1.5-22.6z"/>
	<path class="s2" d="m511.6 577.6c9.7-1.3 20.1-0.9 29.8-0.7 3.1 13.7 7.3 27.6 8.6 41.6 1.2 12.8 0.4 26.1 0.4 39l-0.1 82-0.3 64.3c0 8.5 0.9 23.7-0.2 31.4-1 0.8-1.8 0.9-3 1.2l-0.6-0.4c-0.8-6.2-0.3-12.9-0.4-19.2l-0.3-32.1-0.3-64.6c0.2-23.5 0.7-47 0.2-70.5-0.7-6.1 0.6-21-0.8-25.4-0.7 0.9-0.6 5.2-0.9 6.6l-0.1 0.5q-1.4 62-1.6 124.1v53.5c0 10 0.3 20.2-0.3 30.2l-6.2 1.2 0.1-151.4 0.4-48.8c0-9.7 0.3-19.6-1-29.3-1.2-8.2-4-17.3-9.9-23.3q-1.1-1.2-2.3-2.2c2.4 9.3 6.1 18.1 7.1 27.8 1.2 10.6 0.3 21.5 0.1 32.2q-0.6 21.1-0.8 42.2l-1.2 152.9c-12.3-4.2-27.7-9.2-37.6-17.7 1.5-16.7 2.3-33.4 3.5-50.2 1.1-14.9 2.6-29.9 3.5-44.9 1.1-20 1.7-40.2 3-60.2 8-1 14.5-3.7 19.6-10.2 8.3-10.4 9.2-25.2 7.5-37.9-1.3-10.2-6.2-20.6-14.5-27q-1.1-0.9-2.4-1.7c0.6-4.3 0.9-8.6 1-13z"/>
	<path class="s7" d="m539.5 590.8c7 13.7 6.1 27.3 6 42.1 0 5.6 0.3 11.2-0.1 16.7-0.7-6.1 0.6-21-0.8-25.4-0.7 0.9-0.6 5.2-0.9 6.6l-0.1 0.5c0-5.3 0.3-10.7-0.1-16-0.6-8.2-2.3-16.5-4-24.5z"/>
	<path class="s2" d="m478.3 796.1c1.2-0.1 1.9-0.3 3.1 0.2 0.3 2.8-0.3 6-0.5 8.7-0.5 6.9-1.3 14-1.2 20.9l0.1 0.6q0.6 0.9 1.2 1.8c7.2 10.2 36.1 22.3 48.4 24.3 9.9 1.5 21.5-3.1 29.4-8.8 8.1 4.8 16.4 9.2 24.3 14.3 21.2 13.6 40.5 31.4 54 52.7-47.7 12.8-98.9 14.5-148 10.3-51.5-4.7-105.6-18.2-150.7-44.1-7.9-4.5-16.5-9.5-23.3-15.6 5.6-4.2 12-7.6 17.9-11.2q8.4-5 17-9.6 8.5-4.6 17.3-8.9 8.8-4.2 17.7-8 9-3.8 18.1-7.2 9.2-3.4 18.4-6.4 9.3-3 18.7-5.5 9.4-2.6 18.9-4.7 9.6-2.1 19.2-3.8z"/>
	<path class="s2" d="m458.2 96.5c4.8 0.4 9.4 0.7 13.9 2.2 5.4 1.7 10.1 4.9 14.5 8.4 17.2 13.5 24.4 31.1 34.1 49.8 1.8 3.5 4.5 6.8 8.4 7.9 2.1 0.6 4.4 0.4 6.3-0.7 2-1.2 3.4-3.2 3.9-5.5 2-8.2-8.3-34.6-12.6-42.1 4 3.9 7.4 7.8 10.4 12.7 2.8 4.7 8.6 21.2 11.9 23.6 0.2 0.1 0.5 0.2 0.8 0.4 1.3 0.7 2.5 1.4 3.9 1.8 2.5 0.8 5.5 0.5 7.8-0.7 6.3-3.5 1.8-9.5 3.2-13.8 3 1.9 5.2 5.5 7.2 8.3 5.4 7.6 9.7 15.1 12.9 23.9 2.9 7.7 5.1 15.6 8.5 23.2-17.6-3.7-44.8-2-62.1 4.5 1.2 5.2 3.2 10.3 5.1 15.3 13.7-3.1 36.2-6.8 50-5.4 4.4 0.5 8.3 1.7 12.4 3.1 2.2 5.8 4.1 11.5 6.7 17.2-16.9-4-44.6-2.3-61.2 3.7 1 5 2.9 9.8 4.7 14.5 14.7-2.4 38.6-6.6 53-3.4 3.4 0.7 6.1 2 9 3.7 1.5 6.2 3.9 12.3 6.1 18.3-18.2-6-41.7-3.4-60.2 1.5 1.5 5.4 3.4 10.6 5.4 15.9 22.3-4.3 37.6-5.7 60.5-2.6 2.5 6.4 4.5 13 6.7 19.6-18.8-6-40.3-2-59.3 2 1.4 5 3 9.8 5.4 14.5 19.8-2.3 39.3-6.1 59.1-1.5 2.3 5.7 4.1 11.6 6 17.4-19.9-4.5-38.3-2.6-58 2 1.3 5.4 2.9 10.2 5.4 15.2 19.1-3.3 39-6.3 58.1-1.1 1.3 7.1 4.5 14 7.3 20.7-11.3-2.9-22.7-3.3-34.3-2.1-4.9 0.5-20.9 1.7-23.9 5.2 0.3 4.5 2.6 9.4 4.2 13.5 5.3-0.3 10.7-1.5 16-2.2 14.8-2 28.7-1.7 43.1 2.1 3.8 12.4 8.7 25 11.2 37.6-1.4 0.9-2.8 1.7-4 2.8-2.1 1.9-3.2 4.7-3.7 7.5-1.6 8.8 1 25.9 0.5 36.7-0.1 7.4-1.7 24.3-4.3 30.8-1.9 4.6-5.3 8.8-8.5 12.4q2.5-13.3 4.1-26.9c1.6-14 1.8-41.6-3.5-54.1-1.2-2.7-3-5.6-5.9-6.7-2-0.7-4.3-0.5-6.2 0.4-2.1 1.1-4 3.3-4.6 5.7-1.2 5 3.3 27.8 3.6 35.5 0.7 22.4-4.8 44.8-11.7 65.8-3.3 2.3-6.5 4.5-10.1 6.4 5.4-16.7 9.5-33.3 10.1-50.9 0.4-11.6-0.5-45.1-8.8-53.5-1.7-1.7-3.9-2.6-6.3-2.6-2.5 0-4.9 1.3-6.5 3.1-3.8 4.3 0.6 17.4 1.4 22.9 0.6 4.4 0.9 8.8 1.2 13.3 1.3 20.8-1.4 62-15.6 77.7q-0.1 0.2-0.3 0.4c-4.7 1.5-10.1 1.6-15 2 10.1-15.5 14.9-33 17-51.3 1.6-13.4 2.1-48.5-6.5-58.6-1.5-1.9-3.5-3-6-3.2-2.3-0.1-4.6 0.9-6.3 2.5-1.5 1.3-2.2 2.7-2.4 4.7-0.4 5.8 1.8 12.8 2.6 18.6 1 7.9 1.1 16.4 0.9 24.4-0.7 19.2-5 48-19.8 61.7l-0.5 0.4c-7.8-0.1-17.8-1.6-25.1-4.2 14.7-13.2 23.8-31.5 27.1-50.9 1.7-10.3 4-34.2-2.6-43-1.5-2-3.4-3.2-5.8-3.5-2.6-0.3-5.4 0.3-7.4 2-1.5 1.3-2.5 3.3-2.8 5.3-0.7 4.5 0.4 9.8 0.7 14.3 0.2 5 0 10.1-0.4 15-1.7 20.7-9.7 41.5-25.8 55.2-20.3-8.7-39.7-26.8-49.6-46.4-8.1-16-13.9-37.6-19.7-54.8l-31-91.8-29.3-83.8c-5.2-15.5-11.2-31.1-14.1-47.2-3.6-19.4-4-41.5 2.1-60.4 11.7 4.3 22.9 10.3 32.6 18.1 3.6 2.8 6.5 6.7 10.5 9 2.6 1.5 5.7 2.1 8.7 1.2 1.7-0.5 3.3-1.6 4.1-3.3 1.1-2.4 0.7-5.1-0.3-7.4-1.7-3.9-5.2-7.2-8.3-10-12.4-11-25.3-17.4-40.7-23.2 4-6.5 9.2-12.3 14-18.2 21.1 2.6 37.7 20.1 49.2 36.9 3.5 5 6.8 13.3 12.7 15.9 2.7 1.1 5.8 1.4 8.5 0.1 1.7-0.8 3.1-2.2 3.8-4.1 1-2.9-1.1-7.2-2.3-9.9-1.9-4-4.7-7.9-7.2-11.6-12-18-27.7-32.8-48.4-40.2 8.8-4.6 18.7-7.9 28.3-10.6 18.8 10.2 33.8 30.6 42.5 49.7 2.3 5 4.7 13.4 8.7 17.2 2.1 1.9 5.3 2.6 8.1 2.4 2.2-0.3 4.4-1.1 5.8-2.9 1.2-1.7 1.4-3.7 1-5.8-0.7-4.6-2.9-9.2-4.7-13.5-8.4-19.4-21.6-40-39.3-52.1z"/>
	<path class="s0" d="m654.6 488.7c0.7-8.6 0.5-18.2 3.1-26.5 0.4-1.2 0.6-2.2 1.7-2.9q0.2 0.2 0.4 0.4c2.1 2.6 2.2 9.2 2.2 12.5l-0.2 0.9c-0.9 5.8-0.7 12.8-4.3 17.7l-1.1 0.5-1-0.4c-0.3-0.7-0.6-1.4-0.8-2.2z"/>
	<path class="s0" d="m536.3 273.1l1.3 0.1c2.8 2.8 4 9.5 5.2 13.4-7.7 2.3-15.6 3.7-23.3 6q-14.3 4.2-28.3 9.5-14 5.4-27.5 11.8c-7.4 3.4-14.7 7.2-21.7 11.3-5.3 3.1-10.6 7.2-16.3 9.5-3.9-1.7-5.7-9.6-7.2-13.3 4.5-3.4 9.6-6.2 14.5-9 31.4-18 68.1-31.2 103.3-39.3z"/>
	<path class="s3" d="m510.7 286.6l0.4 0.1c-2.1 2.6-17.5 8.1-21.5 9.8-20.9 9-42.1 18.2-61.9 29.5l-0.8-0.1v-0.6c2.9-2.8 7.2-4.9 10.6-7.1 23.1-14.6 47.3-23.4 73.2-31.6z"/>
	<path class="s0" d="m510.3 205.6c0.6-0.1 1.2 0.1 1.8 0.1 3 3.1 4.1 9.6 5.2 13.7-31.2 6.8-61.3 16.9-89.2 32.7-9.2 5.2-18 11.2-26.9 16.8-4.4-2.8-6.3-9.3-7.8-14.1 18.7-17.5 91.4-44.3 116.9-49.2z"/>
	<path class="s8" d="m478.6 221.6l1.6 0.1c-0.5 0.5-15.1 6.3-17.7 7.6-19.7 9.4-39.8 18.3-58.7 29.2l-0.7 0.3-0.5-0.4q0-0.2 0.1-0.5c1.4-2.6 6.1-5.4 8.7-7 20.6-12.9 44.2-21.7 67.2-29.3z"/>
	<path class="s0" d="m525.1 238.6c2.4 1.6 4.5 10.6 5.4 13.5-14.9 5-30.2 8.1-45.1 13.4-26.4 9.3-48.7 21.4-73.3 34-2.8-2.8-4.5-10-6-13.9 5.5-3.6 11.5-6.7 17.3-9.8 32.4-17.4 66.3-27.7 101.7-37.2z"/>
	<path class="s2" d="m498.1 252.6c1-0.2 1.7-0.3 2.7 0-3.3 3.6-14.1 5.6-18.9 7.7-21.8 9.4-43.5 18.8-64.7 29.3-1 0.5-1.1 0.6-2.2 0.4l-0.4-0.7c2-2.9 7.9-5.4 11-7.2 23-13 46.8-23.4 72.5-29.5z"/>
	<path class="s0" d="m574.6 377.6h1.6c2.8 2.9 3.7 9.2 4.7 13-10.2 3.2-21.1 5-31.4 8-16.1 4.6-31.9 11.4-47.2 18.1q-12.5 5.6-24.5 12.3c-5.7 3.2-11.5 6.9-17.5 9.6l-0.6 0.3q-0.3-0.1-0.5-0.3c-4-2-4.9-8.6-6.1-12.6 8.3-5.7 17.6-10.4 26.5-15 32.4-16.6 59.3-25.8 95-33.4z"/>
	<path class="s2" d="m549.1 390.2c0.8-0.1 1 0 1.8 0.3-1.9 2.6-21 8.8-24.9 10.3-13.1 5-26.4 9.9-39.1 16-8.3 4.1-16.3 8.9-24.2 13.6l-1.2 0.3-0.5-0.4q0.2-0.3 0.4-0.5c3.2-3.8 10.4-6.8 14.7-9.3 20.7-11.8 49-28.1 73-30.3z"/>
	<path class="s0" d="m549.5 307.6c0.3 0.1 0.4 0.1 0.8 0.4 3.1 2.1 4.6 10.2 5.5 13.6-30.6 6.3-60.9 17.4-88.9 31.1-10.8 5.3-20.7 12.3-31.7 16.9-3.4-2.4-5-9.3-6.4-13.1 4.8-3.4 10.3-6.3 15.4-9.3 32.7-18.6 68.8-31 105.3-39.6z"/>
	<path class="s3" d="m520.2 321.3c4.9-1.5 9.7-2.8 14.7-3.1-4.5 2.6-9.4 4.5-14.3 6.2-0.5-1.2-0.5-1.8-0.4-3.1z"/>
	<path class="s2" d="m520.2 321.3c-0.1 1.3-0.1 1.9 0.4 3.1-15.6 6.7-31.6 12.3-47 19.3-7.7 3.5-15.3 7.1-22.7 11-5 2.5-9.7 5.3-14.8 7.6 15.3-16.4 62.4-35 84.1-41z"/>
	<path class="s0" d="m561.3 342.1l1.3 0.1c3 2.9 4 9.4 5.1 13.3-9.2 2.3-18.3 4.4-27.3 7.1q-15.9 4.8-31.3 11-15.5 6.2-30.3 13.7c-10.2 5.1-20.6 12.8-30.5 17.2l-0.6 0.2-1.4 0.2c-3-2-4.1-9.6-5-12.9 6.7-6.2 15.7-10.6 23.7-14.9q5.6-3 11.4-5.9 5.8-2.8 11.6-5.4 5.9-2.7 11.9-5.1 5.9-2.4 12-4.6 6-2.2 12.1-4.2 6.1-1.9 12.3-3.7 6.2-1.7 12.5-3.3 6.2-1.5 12.5-2.8z"/>
	<path class="s9" d="m542.9 353.7l0.3 0.2v0.7c-8.1 4.7-19.4 7.6-28.2 10.8-21.3 7.9-47.4 18.6-65.7 32.2l-0.6-0.7c0.2-0.9 0.1-1.1 0.7-1.8 3.7-4.5 11.7-8.2 16.8-11.1 22.4-12.7 50.9-28 76.7-30.3z"/>
</svg>