<svg version="1.2" xmlns="http://www.w3.org/2000/svg" viewBox="0 0 1023 1023" width="1023" height="1023">
	<title>rocket-svg</title>
	<style>
		.s0 { fill: #b9ff66 } 
		.s1 { fill: #fefefe } 
		.s2 { fill: #ffffff } 
		.s3 { fill: #3d3d3d } 
	</style>
	<path class="s0" d="m921.3 415.4c2.6 3.7 5 6.3 8.8 8.7-3.9 2.3-6.1 4.4-8.6 8.2l-0.4-0.2c-2.2-3.1-4.8-5.6-7.9-7.9 3.3-2.7 5.8-5.2 8.1-8.8z"/>
	<path class="s0" d="m713.6 80.4c1 0.1 1.8 0.2 2.8 0.4 2.1 0.5 4.2 1.7 5.3 3.7 1 1.7 1.2 3.7 0.6 5.6-0.9 2.8-3.2 4.2-5.6 5.5-1.2 0-2.4 0.1-3.5-0.2-2-0.6-4-2.2-4.9-4.1q-0.1-0.3-0.3-0.7-0.1-0.3-0.2-0.6 0-0.4-0.1-0.7-0.1-0.4-0.1-0.7 0-0.4 0-0.7 0-0.4 0.1-0.7 0-0.4 0.1-0.7 0.1-0.4 0.2-0.7c1-2.8 3.1-4.1 5.6-5.4z"/>
	<path class="s0" d="m584.1 132.3c1.2 2.2 1.7 4.8 2.9 7 2.9 5.3 7.8 6 13.2 7.5-2.9 0.9-6.1 1.7-8.7 3.4-4.5 2.9-5.3 6.3-6.4 11.3l-0.7 0.7c-1.4-4.2-3.6-8-5.8-11.8-3.5-1.5-7.3-2.7-10.9-4q5.4-1.5 10.8-2.7c2.4-3.6 4-7.4 5.6-11.4z"/>
	<path class="s0" d="m488.1 91.8c1.7 4.6 3 9.3 5.3 13.7 4.5 3.2 9.5 5 14.6 7-4.9 1.4-10.3 2.5-14.9 5-2.4 4.7-3.6 10.1-5 15.2-1.4-4.8-3-9.5-4.7-14.1-4.8-3.7-10.3-4.8-16.1-6 4.7-1.7 9.4-3.4 14.1-5 3.5-4.8 5.1-10.1 6.7-15.8z"/>
	<path class="s0" d="m913.4 488.2q1.2-0.1 2.4 0 1.2 0 2.4 0.2 1.2 0.2 2.4 0.4 1.2 0.3 2.4 0.6 1.1 0.4 2.2 0.8 1.2 0.5 2.2 1 1.1 0.5 2.2 1.1 1 0.7 2 1.4c6 4.4 10 10.8 10.9 18.3 1 7.5-0.8 15.3-5.5 21.4-4.6 6-11.6 10.2-19.1 11.2-7.5 0.3-13.9-0.7-20-5.4q-0.6-0.4-1.1-0.9-0.5-0.4-1-0.9-0.6-0.5-1-0.9-0.5-0.5-1-1.1-0.4-0.5-0.9-1-0.4-0.6-0.8-1.1-0.4-0.6-0.8-1.2-0.3-0.6-0.7-1.2-0.3-0.6-0.6-1.2-0.3-0.6-0.6-1.2-0.3-0.7-0.6-1.3-0.2-0.6-0.4-1.3-0.3-0.7-0.4-1.3-0.2-0.7-0.4-1.4-0.1-0.6-0.2-1.3-0.2-0.7-0.2-1.4-0.1-0.7-0.2-1.4 0-0.7-0.1-1.4 0-0.7 0-1.4 0.1-0.7 0.1-1.4 0.1-0.7 0.2-1.4 0-0.7 0.2-1.4 0.1-0.7 0.2-1.4 0.2-0.7 0.4-1.3 0.2-0.7 0.4-1.4 0.2-0.6 0.5-1.3 0.2-0.7 0.5-1.3 0.3-0.6 0.6-1.3 0.3-0.6 0.6-1.2 0.4-0.6 0.8-1.2 0.3-0.6 0.7-1.2 0.4-0.6 0.9-1.1c5-6.5 12.4-10.2 20.4-11.2z"/>
	<path class="s0" d="m321.4 769.3l0.7 0.4c0.7 2.3 0.3 5.3 0.2 7.7 10.7-3.1 21.4-4.9 32-8.6-9.5 10.7-20.4 20.5-30.8 30.3l-35.5 33.9-132.9 125.8c-3.1 2.9-18.9 18.3-21.5 19.2 0.1-0.5 109.5-123.1 120.6-135.4l40-43.6c9.1-9.9 18.4-19.6 27.2-29.7z"/>
	<path class="s0" d="m435.8 731.3c-3.3 10.4-6.1 20.7-10.4 30.8 2.6-1 5.5-2.7 8.2-3.3-17.1 19.6-36 37.9-54.4 56.2q-47.8 47.6-97 93.7l-41.9 39.8c-8.7 8.3-17.6 17.8-27.1 25 1.1-3.3 16.9-19.4 20.2-23.2q71.8-81.3 145.3-161c8.2-8.9 50.3-54.3 57.1-58z"/>
	<path class="s0" d="m367.2 660.8c4-0.4 8.2-0.3 12.2-0.4-5 8.1-11.1 17.1-17.4 24.2-3.8 4.4-8.3 8.4-12.5 12.5l-22 21.4-62.8 60.6q-99.1 96.5-200.3 190.9c-1.4 1.3-3.7 3.8-5.6 4.3 14.3-15.1 27.6-30.9 41.7-46.2q87.2-96.1 177.1-189.8c18.2-18.9 36.3-37.8 55-56.2 7.1-7 13.9-15.1 21.9-21 4.2-0.4 8.5-0.3 12.7-0.3z"/>
	<path class="s0" d="m807.9 463.2c1.2-1.4 2.2-2.8 3.2-4.4 6.2 6.6 11.3 14.5 16.6 21.8q14.4 19.6 27.8 39.8c35.4 52.8 61.3 101.9 83.7 161.4 4.5 12.2 9.4 24.5 13.1 36.9 3.5 11.5 6 23.3 8.7 35 2.8 11.6 5.7 23.2 7.8 34.9q2.6 14 4.4 28.1 1.8 14.2 3 28.4 1.1 14.2 1.5 28.4 0.4 14.3 0.1 28.5c-0.1 4.8 0.2 19.5-2.5 23.1-1.1-0.2-1.2-0.7-1.8-1.6-2.2-3.6-3.5-8.1-5-12.1-2.5-6.6-4.9-13.2-7.6-19.7-14-33.5-27.5-67.2-41.8-100.5-4.8-11.2-9.3-24.9-15.1-35.3l-9.9 128.4c-1.9 26.2-3.1 52.5-5.8 78.7 3.4 1.6 6.2 3.7 7.4 7.4 0.9 2.9 0.5 6.2-1 8.8q-0.3 0.6-0.6 1.1-0.4 0.5-0.8 1-0.4 0.4-0.9 0.9-0.4 0.4-0.9 0.8-0.5 0.4-1 0.7-0.6 0.3-1.1 0.6-0.6 0.3-1.2 0.5-0.6 0.2-1.2 0.3c-2.8 0.8-5.9 0.4-8.5-1.1-3.9-2.5-5.8-6.6-6.7-11-11.3-2.1-22.4-5.6-33.5-8.8q-29.3-8-58.5-16.9l-84.8-24.4c-10.1-3-20.4-5.6-30.5-8.7-1.6 3.4-3.3 5.8-7 7.1-2.8 1-6 0.6-8.6-0.8-3-1.6-5.2-4.5-6.2-7.8-0.6-2.2-0.4-5-0.1-7.3-6-2.9-11.8-6.5-17.7-9.9-15.6-9-30.5-18.5-45.4-28.5-10.2-6.8-21.1-13.3-30-21.8-4.1 3.6-7.7 6.2-13.5 5.6-3.5-0.3-6.8-2-8.9-4.7-2.4-3.1-3.3-7.3-2.7-11.1 0.2-1.5 0.7-3 1.1-4.5-17.9-14.3-31.2-24.6-47-41.4-2.8-2.9-8.5-7.7-8.9-11.9 0-0.9 0.2-1.2 0.5-2.1l0.9-0.5c2.6 1.1 15.7 16.4 19.4 19.9 12.1 11.7 25.1 22 38.4 32.2l5.5-2.8c-2.3-12.1-3.8-24.4-5.4-36.6q-4.2-30.4-7.6-60.8c-1.4-11.4-2-24.9-4.5-35.9 1.5-2.1 3.4-4.1 5-6.1 8.8-13.2 16-26.9 20.4-42.2 8.7 6.3 16.9 13.6 25.8 19.5 3.8-12.6 7.9-25.2 11.1-37.9 6.4 3.1 12.5 6.8 18.6 10.5 2.5-4.2 4.2-9 6.2-13.5 3.4-7.8 6.9-15.6 10-23.5 6.5-2.1 13.1-3.8 19.7-5.7 4.5 1.2 8.6 3 12.7 5.1 1.9 0.8 3.6 1.7 5.3 2.8-0.1 0.4-0.2 0.6-0.2 1.1 0.5 4.4 4.3 13.1 5.7 17.8 5.8 20 11.4 40.1 17.6 59.9 2.3 7.5 4.3 15.9 7.6 23q0.4 0.9 1 1.8c-1.3 2.1-2.6 3.8-4.4 5.5-6.3 7.2-12.8 15.9-17.8 24 7.4-4.8 13.9-11.2 20.4-17.1 1.1-1.8 3.2-3.5 4.6-5.1 3.7-5.3 12.6-12.6 17.5-17.7 17.6-18.2 34.4-36.9 46-59.5 0.6-1.8 1.4-3.3 2.3-5 6.9-17.1 8.8-35 5.4-53.2-0.7-3.3-2-6.7-2.1-10.1-5.3-13.1-9.7-25.4-17-37.5 14.6-10.7 28.6-23.9 41.7-36.3l5.3-4.9c8.1-7.2 15.1-15.5 22.7-23.1z"/>
	<path class="s1" d="m757.3 575.1q6.7 7 13 14.3c4.4 5.2 26.7 33.8 30.2 35.7l2.1 2.6-0.2 0.5c-11.2-0.5-22.5-0.2-33.7 0.1-5.6 0.1-11.3 0.5-16.8 0 6.9-17.1 8.8-35 5.4-53.2z"/>
	<path class="s1" d="m896.6 598.9c3.6 3.6 7.1 13.2 9.4 18.1 6.2 13.4 12.7 26.9 18.4 40.6 7.9 19.2 14.8 38.8 21.9 58.2-5.1 4-11 7.4-16.4 10.9q-12.4 8.7-25 17.1c-1.4-9.8-1.2-20.4-1.7-30.2q-1.3-28.5-2.9-56.9-0.8-14.9-2-29.8c-0.8-9.3-2-18.7-1.7-28z"/>
	<path class="s1" d="m779.9 491.2c4.5 16.7 7.3 33.7 10.2 50.7 4.7 26.9 8.9 54 14 80.8-15.5-19.8-32.3-38.7-48.9-57.7-5.3-13.1-9.7-25.4-17-37.5 14.6-10.7 28.6-23.9 41.7-36.3z"/>
	<path class="s1" d="m947 721.1c2.3 3.1 6.1 20.2 7.2 24.7 2.9 12.4 5.9 24.8 8.3 37.3 7 37.2 12.5 85.8 9.6 123.3-4.4-9.1-7.8-19.3-11.6-28.8-10-24.5-19.7-49.2-30.1-73.6-7.8-18.6-16.5-36.8-23.4-55.8 5.7-4.3 11.8-8.1 17.7-12z"/>
	<path class="s1" d="m889.7 591.4l0.4 0.1c1.1 1.1 1 2.2 1.2 3.7 1.2 10 1 22.5 1.7 33q3.8 55.6 6.2 111.2c-4.7-6.7-10.4-12.9-15.6-19.3q-9.4-11.4-18.5-23.1c-18.1-21.6-35.2-44-53.4-65.5 9-4.4 17.6-9.3 26.4-13.9 7.2-3.8 14.5-7.2 21.7-11 9.9-5.2 19.7-10.6 29.9-15.2z"/>
	<path class="s1" d="m707.4 812.8l0.1 0.6c-3 6.2-6.9 12.2-10.3 18.2q-10.5 18.4-21.3 36.7c-4.7 7.9-12.7 23.3-18.2 30q-0.2 0-0.4-0.1-0.3-0.1-0.6-0.2c-0.6-0.3-1-0.5-1.6-0.6-3-0.4-7 2.4-9.5 3.9-7.8-3.4-15.1-8.1-22.3-12.5q-18.3-10.9-36.1-22.7-12.3-8-24.2-16.5c-3.7-2.6-8-5.2-11.2-8.4l0.2-1.4c0.3-0.3 0.6-0.7 1-0.9 2.1-1.2 141.7-24.5 154.4-26.1z"/>
	<path class="s1" d="m749.6 633.3q27.1 0.4 54.1-0.2c-5.9 11.5-12.3 22.8-18.4 34.2l-43.5 81.8q-9.9 18.2-19.3 36.5c-2.8 5.4-6 10.7-8.4 16.3-3.1-5.2-27.7-86.5-28-91.3 3.7-5.4 12.6-12.7 17.5-17.8 17.6-18.2 34.4-36.9 46-59.5z"/>
	<path class="s1" d="m807.9 463.2c11 12.8 20.6 27.3 30.3 41 18.2 26.1 36.5 52.8 51.6 80.8-26.5 13.8-52.8 28.3-79.6 41.6-0.4-1.8-0.7-3.9-1.5-5.5-0.7-8.8-3-17.6-4.4-26.4-4.2-26.1-9-52-13.7-78-1.8-10-4.5-20.3-5.4-30.4 8.1-7.2 15.1-15.5 22.7-23.1z"/>
	<path class="s1" d="m613.9 597.4c6.5-2.1 13.1-3.8 19.7-5.7 4.5 1.2 8.6 3 12.7 5.1-4.8 12.7-11.3 24.6-17.1 36.8l-25.9 55.6-33.5 72.1c-9.2 20-17.9 40.5-27.7 60.2-0.5 1.1-0.8 1.9-2 2.4-0.9-0.9-1.1-1.8-1.4-3-1.8-8.7-2.2-18.5-3.5-27.4q-6-40.7-10.7-81.5c-1-9.1-1.4-18.4-2.7-27.5 8.8-13.2 16-26.9 20.4-42.2 8.7 6.3 16.9 13.6 25.8 19.5 3.8-12.6 7.9-25.2 11.1-37.9 6.4 3.1 12.5 6.8 18.6 10.5 2.5-4.2 4.2-9 6.2-13.5 3.4-7.8 6.9-15.6 10-23.5z"/>
	<path class="s1" d="m714.1 813.5c3.5 2.6 6.8 6.1 10 9.1 11.6 10.4 22.6 21.6 33.9 32.4 38.9 37.3 76.6 75.8 115.5 113.1-14-2.3-27.8-7.3-41.5-10.9-16.6-4.6-33-9.7-49.5-14.6l-73.6-21q-12.8-3.7-25.7-7.6c-5.5-1.6-11.4-3.8-17.1-4.4-1-2.8-2.3-5.2-3.7-7.8 1.7-3.8 4.1-7.4 6.2-11q6.7-11.8 13.6-23.4 15.8-27 31.9-53.9z"/>
	<path class="s1" d="m808.2 635.7c3.5 1.5 64.3 79.3 71.8 88.5 4 4.9 8.4 9.4 12.2 14.4 2.1 2.8 3.9 5.7 5.7 8.7-37.4 11.8-74.6 24.4-112.1 35.9q-21.8 6.9-43.5 14.2c-8 2.7-15.8 5.8-23.9 8.1 2.7-7.2 7-14 10.5-20.9q14.3-28 29.2-55.7l32-59.4c5.8-11.1 11.1-23.5 18.1-33.8z"/>
	<path class="s2" d="m647.8 606.6c3.6 10.7 6.5 21.8 9.8 32.7q10.4 34.8 21.3 69.4c-6.3 7.2-12.8 15.9-17.8 24 7.4-4.8 13.9-11.2 20.4-17.1 2.6 4.7 4.1 12.1 5.7 17.4l14 47.1c2.4 8 4.6 19.9 8.6 26.9l-104.2 17.3c-17.8 3-35.6 6.7-53.5 9-1.7-2.9-3.8-5.2-6.1-7.6l65.2-140.9 19.9-42.9c5.5-11.8 10.6-23.8 16.7-35.3z"/>
	<path class="s1" d="m898.3 752.1l0.3 0.1c1.1 2.4-13.8 187.3-15.4 209.5-1.9 0.3-3.4 0.9-5.1 1.7l-0.6 0.3c-0.9-0.1-1.3 0-1.9-0.5-5.9-4.8-11.1-11.1-16.6-16.4-20.8-19.8-40.7-40.4-61.7-60.1-10.8-10-21-20.9-31.5-31.2-15.5-15.1-31.4-29.7-46.7-44.9 10.5-3.2 20.8-7.4 31.3-10.8l70.3-22.4 45.9-14.9c10.5-3.4 21.4-6.4 31.7-10.4z"/>
	<path class="s3" d="m614.9 261.3c10.6-10.6 21-21.6 31.9-32q24.3-23 50.6-43.8 3.3-2.5 6.6-5 3.3-2.5 6.7-5 3.3-2.4 6.7-4.8 3.4-2.3 6.9-4.7 3.4-2.3 6.9-4.5 3.5-2.3 7-4.5 3.5-2.2 7.1-4.3 3.5-2.1 7.1-4.2 3.6-2.1 7.3-4.1 3.6-2 7.2-3.9 3.7-2 7.4-3.8 3.7-1.9 7.4-3.7 3.8-1.9 7.5-3.6 3.8-1.8 7.6-3.4 3.8-1.7 7.6-3.3 3.8-1.7 7.6-3.2 3.9-1.6 7.8-3.1 3.8-1.4 7.7-2.9 3.9-1.4 7.9-2.7 3.9-1.4 7.8-2.7 4-1.2 7.9-2.5 4-1.2 8-2.3 4-1.2 8-2.2 4-1.1 8-2.1 4-1 8.1-2 4-0.9 8.1-1.8 4-0.8 8.1-1.6 4.1-0.8 8.2-1.5 4-0.8 8.1-1.4 4.1-0.7 8.2-1.3 4.1-0.5 8.3-1 4.1-0.6 8.2-1c0.4 16.8 1.5 33.5 1 50.3q-0.6 15.5-2.2 31-1.5 15.5-3.9 30.8-2.5 15.4-5.8 30.6-3.3 15.2-7.5 30.1c-3.9 14.3-8.1 28.8-13.8 42.5-11.5 27.8-26.3 53.7-41.9 79.3-14.3 23.7-35.4 56.1-54.2 75.8q-0.5 0.5-1 1c-1 1.6-2 3-3.2 4.4-7.6 7.6-14.6 15.9-22.7 23.1l-5.3 4.9c-13.1 12.4-27.1 25.6-41.7 36.3 7.3 12.1 11.7 24.4 17 37.5 0.1 3.4 1.4 6.8 2.1 10.1 3.4 18.2 1.5 36.1-5.4 53.2-0.9 1.7-1.7 3.2-2.3 5-11.6 22.6-28.4 41.3-46 59.5-4.9 5.1-13.8 12.4-17.5 17.7-1.4 1.6-3.5 3.3-4.6 5.1-6.5 5.9-13 12.3-20.4 17.1 5-8.1 11.5-16.8 17.8-24 1.8-1.7 3.1-3.4 4.4-5.5q-0.6-0.9-1-1.8c-3.3-7.1-5.3-15.5-7.6-23-6.2-19.8-11.8-39.9-17.6-59.9-1.4-4.7-5.2-13.4-5.7-17.8 0-0.5 0.1-0.7 0.2-1.1-1.7-1.1-3.4-2-5.3-2.8-4.1-2.1-8.2-3.9-12.7-5.1-6.6 1.9-13.2 3.6-19.7 5.7-3.1 7.9-6.6 15.7-10 23.5-2 4.5-3.7 9.3-6.2 13.5-6.1-3.7-12.2-7.4-18.6-10.5-3.2 12.7-7.3 25.3-11.1 37.9-8.9-5.9-17.1-13.2-25.8-19.5-4.4 15.3-11.6 29-20.4 42.2-1.6 2-3.5 4-5 6.1-6.1 7.5-12.1 15.2-18.8 22.2-18.6 19.2-41.6 32.7-64.4 46-2.7 0.6-5.6 2.3-8.2 3.3 4.3-10.1 7.1-20.4 10.4-30.8 0.4-1.1 0.7-2.1 0.9-3.2-3.7 1.3-9 5.7-12.7 7.9-7.4 4.4-14.9 8.4-22.6 12.3-19.1 9.8-44 18-64.9 23.6-2.9 0.8-8.8 3.1-11.6 2.2-0.2-0.5-0.3-0.6-0.3-1.2 0-4.4 2.7-11 4-15.2 10.9-35.8 30.8-69.8 54.4-98.7-9.3 0.1-18.6 0.2-27.8-1q0.2-0.5 0.4-1c2.6-4.7 6.3-9.1 9.4-13.5 22.1-30.6 54.9-59.8 91.5-71.2-3.7-2.9-24-20.7-25-22.9 2.9-5.8 32.8-21.6 39.6-25.1-3.3-3.3-14-10.1-15-14.1q0.1-0.2 0.3-0.4c2.2-2.7 26.6-18 29.6-18 1.2 0 2.3 0 3.4 0 2.1-1.8 8.3-23.1 9.9-27.7q7-20.5 15.5-40.6 8.5-20 18.4-39.3c-18.8-5.1-39.7-10.2-59.2-7.5-35.8 4.9-58 32.1-78.5 59.1 6.1-5.1 11.4-10.9 17.1-16.4 8.9-8.5 18.9-16.5 29.7-22.5 26.9-15 55.2-10.1 83.4-2.1-12 19.7-19.7 42.5-26.8 64.3-2.8 8.5-5.8 17.1-7.9 25.8-2.9-3.2-5.1-7.1-7.6-10.6-3.2-4.5-6.9-8.7-10.8-12.8-11.6-12.3-25.4-22.4-43.1-22.8-12.8-0.2-29.9 6.1-39.1 14.9-2.7 1.5-6.5 3.8-8.5 6-7.6 5.2-14.7 10.8-21.8 16.7q0.1-0.2 0.2-0.4c6.4-12.6 21.9-29 30.8-41.4 3.8-5 7.6-10 11.1-15.1 5.8-8.1 12.9-16 20.1-22.8 28.4-26.6 54.1-31.6 91.8-24.4 7.2 1.4 14.9 5.3 22.2 5.6 1.2-1 1.4-2.5 1.9-3.9l2.5-5.3q12.5-22 25.8-43.6c1.8-2 3-4 4.3-6.4 4-5.2 7.6-10.7 11.4-16.1 9.4-12.9 19.2-25.8 30-37.5 1-1.2 1.9-2.4 2.7-3.7z"/>
	<path class="s1" d="m897.9 290.8c1 0.3 2 0.5 2.8 1.3 0.9 0.8 1.4 2.1 1.3 3.4-0.2 2-1.2 3.2-2.7 4.5-1.2-0.4-2.4-0.7-3.3-1.7-0.9-0.9-1.3-2.1-1.1-3.4 0.3-2 1.5-3 3-4.1z"/>
	<path class="s1" d="m826.9 215.9c2.2 0.1 4.3 0.2 5.8 2 1 1.1 1.3 2.1 1.1 3.6-0.2 2.1-1.8 3.3-3.4 4.5-0.5 0-0.8 0-1.4 0-1.8-0.1-3.6-0.8-4.7-2.3-0.8-1.2-1.1-2.3-0.9-3.7 0.4-2.1 1.8-3 3.5-4.1z"/>
	<path class="s1" d="m795.9 190.4c0.8 0 1.6-0.1 2.4 0 1.6 0.1 3.5 1.2 4.4 2.7 0.7 1.2 1 2.5 0.7 3.9-0.5 2.1-1.8 3.2-3.6 4.3-1.8 0.2-3.8-0.1-5.3-1.3-1.3-1-1.9-2.5-1.9-4 0.1-2.6 1.5-4 3.3-5.6z"/>
	<path class="s1" d="m762.6 167.5c0.7 0 1.4 0 2.1 0.1 1.8 0.3 3.8 1.5 4.7 3.1 0.6 1.2 0.9 2.3 0.5 3.7-0.6 1.9-2.2 2.7-3.8 3.6-1 0-2 0.1-2.9-0.1-1.5-0.2-3.2-1.2-3.9-2.5-0.8-1.3-0.9-2.2-0.6-3.6 0.4-2.2 2.1-3.2 3.9-4.3z"/>
	<path class="s1" d="m616 298c0.9 0 1.7 0.1 2.6 0.2 1.5 0.4 2.9 1.4 3.7 2.8 0.8 1.4 0.9 2.9 0.3 4.4-0.8 2-2.2 2.9-4.1 3.7-0.9-0.1-1.8-0.1-2.7-0.3-1.5-0.4-3-1.5-3.8-2.8-0.7-1.4-0.9-2.9-0.3-4.4 0.9-2 2.4-2.8 4.3-3.6z"/>
	<path class="s1" d="m751.7 157.7c4.9 2.4 10.6 4.5 15.1 7.6-2.9-0.9-4.9-1-7.6 0.5-1.9 1-3.3 2.5-3.9 4.5-0.5 1.6-0.5 4.1 0.4 5.6 0.7 0.9 1.9 1.9 2.3 3-1.8-0.3-17.9-11-21.5-13.1 5-2.9 10.1-5.5 15.2-8.1z"/>
	<path class="s1" d="m467.5 584.7c0.9-0.1 1.7-0.1 2.5 0l0.4 0.6c-2.9 2-8.1 2.8-11.5 3.9-11.6 3.8-21 9.9-29.9 18.2-3.5 3.4-10.2 9.2-10.4 14.3 0.5 1.1 0.6 1.5 1.6 2 4.3 2.5 14.2-0.3 18.7-1.4-3 2-5.9 4-8.5 6.5l-0.4 0.4c-0.7 0.8-1.7 2.1-2.8 2.2-2.5 0.1-6.2-0.9-8.8-1.2-4.2-0.4-8.5-0.4-12.8-0.3q1.3-2 2.7-3.9c13.7-18.6 35.7-37.9 59.2-41.3z"/>
	<path class="s1" d="m636.8 404c-0.3 2.1-16.5 22.7-19.1 26.3-14.8 21-29.1 42.5-43.8 63.6-17.4 24.9-35.4 49.5-53.2 74.1 0-8.7 103-149.1 116.1-164z"/>
	<path class="s1" d="m768.1 165.8c4.3 1.6 31.5 19.8 35.1 23.3-3-1.3-5.4-2.2-8.6-0.9-1.8 0.7-3.4 2.2-4.3 4-0.9 2.2-1.1 5.1 0 7.2 0.5 1.1 1.3 2 2 2.9-0.9-0.3-0.6-0.1-1.3-0.7-9.1-7.7-19.6-13.4-29-20.7 1.4 0.3 2.6 0.5 4 0.4 2.2-0.1 4.4-0.8 5.9-2.7 1.2-1.6 1.5-3.6 1.3-5.6-0.4-3.5-2.5-5.1-5.1-7.2z"/>
	<path class="s1" d="m527.6 630.7l1.3 1.1c0.4 1.2 0.2 1.9-0.2 3-1.1 2.9-3 5.6-4.3 8.3-13 25.5-35.4 52.3-61.9 63.9 1.1-4.2 2.4-8.3 4-12.3 2.3-6.1 4.3-11.2 8.6-16.2-0.6 4.1-2.6 10.1-2 14.1 0.1 1 0.5 1 1.2 1.6 0.6 0.1 0.9 0.1 1.5-0.1 2.5-0.7 5.8-4.2 7.8-5.9 18.1-15.7 33-36.2 44-57.5z"/>
	<path class="s1" d="m781.2 477.4c0.7 0.5 0.5 0.1 0.7 1.1-2.5 4-12.5 12.2-16.4 15.9q-6.2 5.6-12.5 11.1-6.3 5.5-12.7 10.8-6.5 5.3-13.1 10.4-6.7 5.1-13.5 10-6.8 4.9-13.7 9.6-6.9 4.7-14 9.1-7.1 4.5-14.3 8.7-7.2 4.3-14.5 8.3c-13.8 7.5-27.9 14.8-43 19.1l-0.3-0.3c1.1-1.7 6.7-3.7 8.8-4.7 16.2-8 32-16.3 47.4-25.7q14.8-9.2 29.1-19 14.4-9.8 28.3-20.2 13.9-10.5 27.3-21.5 13.5-11.1 26.4-22.7z"/>
	<path class="s1" d="m681.1 428.3l0.8 0.1 0.4 0.8c-2 5.2-122.4 125.1-133.2 135.4-8 7.7-16.9 14.6-25.2 22l-0.2 0.2-0.4-0.1c5.7-7 12.9-13.1 19.2-19.6l35-36 52-52.4c16.5-16.8 33.7-35.3 51.6-50.4z"/>
	<path class="s1" d="m530.4 586.4c14.9 11.4 28 25.4 43.4 35.9-2 5.3-3.3 10.9-4.9 16.3l-3.9-3c-16-12.9-32.4-25.7-47.9-39.2 4.9-2.3 9.1-6.6 13.3-10z"/>
	<path class="s1" d="m465.7 532.5c5 3.7 9.8 8.3 14.6 12.3 11.2 9.2 22.5 18.2 33.1 28.1-2.6 4.9-5.7 9.5-8.6 14.3-0.7-1.1-1.5-2-2.3-2.9q-25.5-21.8-51.5-42.9 7.3-4.5 14.7-8.9z"/>
	<path class="s1" d="m733.1 531.5q0 0 0 0.1c6.3 6.3 15.4 33.1 17.5 42.2q1.1 4.2 1.6 8.6 0.6 4.3 0.7 8.7c0.7 37.6-25.8 69.4-50.5 95l-1.2 0.8c0-1.1 10.9-14.6 12.4-16.6 10.5-14.2 19.7-28.9 25.2-45.8 7.2-22.1 5.1-45.4-3.7-66.8-2.8-6.9-6.5-13.6-9.9-20.3z"/>
	<path class="s1" d="m560.9 560.3l3.1 2.3c15 10.5 30.1 20.8 44.9 31.6q-4.7 11.5-9.6 22.9-13.6-12-27.5-23.6c-8-6.7-15.9-13.5-24.4-19.6 4.6-4.4 9-9 13.5-13.6z"/>
	<path class="s1" d="m485.1 497.9c5.2 0.7 41.6 35.1 47.5 41.5-3.5 4.3-6.3 9.4-9.1 14.3-2-1.3-3.9-2.7-5.8-4-17.2-13.2-33.1-29.3-51.9-40.2 6.6-3.6 12.8-8 19.3-11.6z"/>
	<path class="s1" d="m449.2 620c-0.2 2.1-18.1 21.5-21 25-5.1 6.2-10.1 12.6-14.6 19.3-7.4 11.1-15 25.5-17.4 38.7-0.4 2-0.7 3.9 0.5 5.7 0.7 0.1 1.4 0.2 2.1 0.2 3.8 0 8.4-1.7 12.1-2.7 26.7-8.1 49.8-25.6 70.3-44.1-4.4 6.8-9.9 13-15.3 18.9q-3.8 3.5-7.8 6.8-3.9 3.3-8.1 6.4-4.1 3-8.5 5.9-4.3 2.8-8.7 5.4-4.5 2.6-9.1 5-4.6 2.3-9.3 4.4-4.7 2.1-9.5 4-4.8 1.8-9.8 3.4c-4.2 1.4-9.2 3.4-13.7 3.3l-0.6-0.7c-0.8-4.3 0.7-10 1.5-14.2 5.9-29.3 41.6-74.2 66.9-90.7z"/>
	<path class="s1" d="m482.1 593.9c6.3 3 28.4 22.7 34.7 28.4-8.6 7.8-16.7 13.6-27.3 18.3-9.7 3.6-19.4 5-29.6 6 0.4-21.2 7.9-37.3 22.2-52.7z"/>
	<path class="s1" d="m803.2 189.1c6.5 3.8 12.6 8.6 18.5 13.2 19.9 15.1 37.6 31.8 54.9 49.8 3.2 3.3 8.3 7.5 10.6 11.4 4.6 4 18.2 21.8 19.1 27.2l-0.6 0.1c-1.4-0.9-2.8-2.2-4.3-2.8q-0.4-0.1-0.8-0.2-0.4-0.1-0.8-0.2-0.3 0-0.7-0.1-0.4 0-0.8 0-0.4 0.1-0.8 0.1-0.4 0.1-0.8 0.2-0.3 0.1-0.7 0.2-0.4 0.2-0.7 0.4c-1.7 0.9-3 2.4-3.5 4.3-0.5 2-0.1 4.9 1.1 6.7 0.9 1.5 2 1.9 3.7 2.3l0.8 0.2c1.6 0.4 2.2 0.7 3.1 2.2 0.2 2.3-1 4.5-1.8 6.6-3.4-4.9-6.2-10.3-9.6-15.3-9.5-13.9-21-27.5-33.1-39.1-6.2-5.9-12.3-11.9-18.6-17.6-4.2-3.6-9.4-7.1-12.9-11.4 1 0.5 2.2 1.1 3.2 1.4 2 0.5 4.5-0.3 6.2-1.2 1.4-0.9 2.5-2.2 2.9-3.9 0.5-2.1-0.1-4.3-1.2-6.1-1.5-2.4-4-4.3-6.8-4.7-1.9-0.4-3.7 0.1-5.2 1.3-1.6 1.4-3.3 3.8-3.3 6-0.1 3.1 2 5 4 7.1-3.6-1.7-9.1-7.5-12.4-10.3-5.5-4.4-12.2-8.3-17.2-13 1 0.3 1.9 0.4 2.9 0.5 2.2 0.2 4.8-0.4 6.5-1.9 1.7-1.6 2.3-3.8 2.4-5.9 0.2-3.2-1.2-5.2-3.3-7.5z"/>
	<path class="s3" d="m874.4 272.7c-0.4-0.8-0.7-1.6-1-2.5-0.5-2 0.2-4.6 1.2-6.4 1.1-1.7 2.7-2.9 4.6-3.2 2.4-0.5 3.8 0 5.8 1.4q1.1 0.8 2.2 1.5c0.8 1.6 1.7 3.2 1.7 4.9 0.1 2.2-0.7 4.6-2.3 6.2-1.4 1.4-3.3 2.1-5.3 2.1-3.1-0.1-4.9-1.9-6.9-4z"/>
	<path class="s1" d="m879.1 263.5c2 0 3.5 0.1 5.1 1.3 1.2 0.9 1.9 2.1 2 3.7 0 2.3-1.4 3.5-2.9 5q-0.6 0-1.2 0c-1.8 0.1-3.5-0.3-4.6-1.7-0.9-1.1-1.4-2.1-1.3-3.5 0.1-2.3 1.3-3.4 2.9-4.8z"/>
	<path class="s3" d="m854.1 236.4c1.1 0 2 0 3.1 0.3 2.6 0.7 5.6 3.3 6.8 5.7 0.9 1.7 1.2 3.8 0.5 5.6-0.9 2.4-3 3.6-5.1 4.6-1.1 0.2-2.2 0.3-3.3 0.2-2.5-0.3-4.9-1.7-6.3-3.8-1.2-1.8-1.5-4.1-1-6.3 0.8-3 2.8-4.6 5.3-6.3z"/>
	<path class="s1" d="m855.6 239.4c1.8 0.3 3.3 0.8 4.7 2.2 1 1.1 1.7 2.6 1.4 4.2-0.3 2.1-1.7 3-3.4 4-2-0.1-4-0.1-5.5-1.8q-1.1-1.3-1-3c0.2-2.7 1.8-4 3.8-5.6z"/>
	<path class="s1" d="m683.3 703.2q-0.6-0.9-1-1.8c-3.3-7.1-5.3-15.5-7.6-23-6.2-19.8-11.8-39.9-17.6-59.9-1.4-4.7-5.2-13.4-5.7-17.8 0-0.5 0.1-0.7 0.2-1.1 19.9 11 39.9 28 46.4 50.7 4.1 14.3 0.4 28.3-6.7 41-2.4 4.2-5.1 8.1-8 11.9z"/>
	<path class="s1" d="m756.9 154.3c41.6-24.8 88.7-42 135.8-52.6 8.2-1.8 16.8-4.5 25.2-4.7-4.1 2.6-10.4 3.8-15.1 5.5q-7.3 2.6-14.4 5.8c-29.3 13.3-54.4 26.9-80.5 45.7-7.4 5.3-14.9 10.5-21.6 16.8-9.7-5.9-19-11.8-29.4-16.5z"/>
	<path class="s1" d="m644.3 404.8c7.9 3 24.3 14.6 32 19.7-11.8 11-22.8 22.8-34.3 34.1q-62.5 61.7-122.7 125.8l-16.4 17.5c2.5-4.6 5.6-8.9 8.5-13.3 7.6-11.7 15.7-23 24.1-34.2q17.9-23.7 35.6-47.7c10.2-14.1 20.6-28.1 30.5-42.4 13.9-20 27.4-40.6 42.7-59.5z"/>
	<path class="s1" d="m587.6 306.4c9.6 4 19.3 9.7 27.8 15.6-10.8 10.1-20.5 21.6-29.5 33.2-26.8 34.4-46.8 70.6-63.6 110.8-3.8 9-7.2 18.1-10.5 27.4-1.6 4.7-3.1 9.7-5.1 14.3-4-3.7-8.1-7.1-12.2-10.6 2.4-8 5.5-15.9 8.3-23.7 20.4-58.6 47.7-117 84.8-167z"/>
	<path class="s1" d="m603 287.1c6.2 2.2 13 5.3 18.4 9.2-3.3-0.8-6.9-1.5-10.1 0.2-1.5 0.9-2.6 2.4-3 4.1-0.5 2.6 0.2 5.4 1.7 7.6 1.4 2.2 3.8 3.9 6.4 4.4 2 0.3 3.9-0.3 5.4-1.4 2.1-1.6 3.7-3.9 4-6.5 0.3-1.9-0.1-4.4-1.2-6-0.6-0.7-1.3-1.3-2-1.9 6.8 2.1 17.1 10.2 23.3 14.4 55.6 37.5 116.8 94 158.4 146.3-5.4 6.3-11.2 12.2-16.9 18.3-7.3-11.1-20.7-24.8-29.7-35-11.5-13-23.3-25.6-35.4-38.1-5.5-5.8-10.9-11.8-16.7-17.2-7.3-6.9-15.4-12.9-23.1-19.3-29.6-24.5-57.7-45.5-91.2-64.4q5.7-7.4 11.7-14.7z"/>
	<path class="s3" d="m778.5 440.5c1.2-0.1 2.5-0.2 3.8 0 2.6 0.2 5.2 1.7 6.7 3.8 1.3 1.8 1.7 4.2 1.2 6.4-0.7 3.6-3.2 5.4-6.2 7.2-1.6 0.2-3.4 0.3-4.9-0.1-2.3-0.5-4.5-2-5.7-4q-0.2-0.4-0.4-0.7-0.2-0.4-0.3-0.8-0.2-0.4-0.3-0.8-0.1-0.5-0.2-0.9 0-0.4 0-0.8-0.1-0.5 0-0.9 0-0.4 0.1-0.8 0-0.5 0.2-0.9c0.9-3.3 3.1-5 6-6.7z"/>
	<path class="s1" d="m779.5 442.9c2.4 0 4.3 0.3 6.1 2.1 1.1 1.1 1.6 2.6 1.5 4.2-0.2 2.7-1.9 4-3.8 5.6q-1.2 0.2-2.4 0.2c-1.8-0.1-3.5-0.9-4.5-2.4-1-1.4-1.2-3.1-0.9-4.7 0.6-2.5 2-3.6 4-5z"/>
	<path class="s3" d="m744.5 421c-0.2-2.4 0.3-4.9 1.8-6.8 1.5-1.9 3.5-3.1 5.9-3.4 3-0.3 4.8 0.9 7.1 2.6 1.9 2.9 3.6 5.4 3 9-0.4 2.4-1.8 4.3-3.8 5.6q-0.4 0.2-0.8 0.4-0.4 0.3-0.9 0.4-0.5 0.2-0.9 0.3-0.5 0.1-1 0.2-0.4 0-0.9 0.1-0.5 0-1-0.1-0.5 0-0.9-0.1-0.5-0.1-1-0.2c-2.6-0.8-4.6-2.7-5.8-5.1-0.5-0.9-0.7-1.9-0.8-2.9z"/>
	<path class="s1" d="m747.1 419.1c1-2.1 2.2-4.2 4.6-4.9 2.2-0.6 4.2 0.3 6.1 1.2 1.2 2 2 3.8 1.4 6.2q-0.1 0.3-0.2 0.5-0.1 0.3-0.2 0.6-0.2 0.2-0.3 0.5-0.2 0.2-0.4 0.5-0.2 0.2-0.4 0.4-0.2 0.2-0.4 0.4-0.2 0.2-0.5 0.4-0.2 0.2-0.5 0.3-0.3 0.1-0.6 0.2-0.2 0.2-0.5 0.2-0.3 0.1-0.6 0.2-0.3 0-0.6 0-0.3 0.1-0.7 0-0.3 0-0.6 0-0.3-0.1-0.6-0.1-0.3-0.1-0.5-0.2c-2-0.8-3.2-2.3-3.9-4.2-0.3-0.7-0.5-1.5-0.6-2.2z"/>
	<path class="s3" d="m715.9 377.6q1.9-0.3 3.9-0.3 0.5 0 1.1 0.1 0.5 0.1 1.1 0.2 0.5 0.1 1 0.3 0.6 0.2 1.1 0.4 0.5 0.3 1 0.6 0.4 0.3 0.9 0.6 0.4 0.4 0.8 0.7 0.4 0.4 0.8 0.9 0.3 0.3 0.6 0.7 0.2 0.4 0.4 0.8 0.3 0.5 0.4 0.9 0.2 0.4 0.4 0.9 0.1 0.5 0.2 0.9 0 0.5 0.1 1 0 0.4 0 0.9 0 0.5-0.1 1c-0.6 3.6-2.8 5.7-5.7 7.7-1.4 0.1-2.9 0.2-4.3-0.2-3-0.7-6.1-3-7.7-5.7-1.1-1.9-1.6-4.2-1.1-6.5 0.8-2.9 2.7-4.4 5.1-5.9z"/>
	<path class="s1" d="m717 380.5c2.4-0.4 4.6-0.4 6.7 1.2 1.4 1.1 2.3 2.7 2.4 4.5 0.1 2.8-1.1 4.4-3 6.4q-0.6 0-1.2 0c-2.5 0.1-4.5-0.4-6.3-2.2-1.2-1.2-1.8-2.7-1.8-4.4 0.1-2.5 1.4-3.9 3.2-5.5z"/>
	<path class="s3" d="m647.6 317.1c1.7 0.1 3.2 0.1 4.8 0.8 2.8 1.2 5.2 3.4 6.2 6.3 0.8 2.2 0.7 4.6-0.3 6.7-1.5 2.8-4.1 4.1-7 5.1-1.8 0-3.5 0-5.2-0.8-2.7-1.2-5-3.6-5.9-6.5-0.7-2.3-0.6-4.7 0.6-6.8 1.4-2.8 3.9-4 6.8-4.8z"/>
	<path class="s1" d="m648.1 319.9c0.8 0.1 1.6 0.2 2.4 0.4 1.9 0.6 3.6 1.6 4.6 3.5 0.7 1.4 0.8 3.1 0.2 4.7-0.9 2.4-2.7 3.5-4.9 4.6-0.8 0-1.5-0.2-2.3-0.4-1.8-0.5-3.3-1.7-4.2-3.4-0.8-1.5-0.9-3.3-0.4-4.9 0.8-2.4 2.4-3.4 4.6-4.5z"/>
	<path class="s3" d="m681 343.5c1.5 0 3 0 4.4 0.4 3.1 0.9 6.2 3.1 7.6 6.1q0.2 0.4 0.4 0.9 0.2 0.4 0.3 0.9 0.1 0.4 0.2 0.9 0 0.5 0.1 0.9 0 0.5-0.1 1 0 0.4-0.1 0.9 0 0.5-0.2 0.9-0.1 0.5-0.3 0.9c-1.2 3.3-3.7 5-6.7 6.4q-1.8 0.1-3.6 0c-2.9-0.5-6-2.3-7.7-4.8q-0.3-0.4-0.5-0.8-0.2-0.4-0.4-0.9-0.2-0.4-0.4-0.9-0.1-0.5-0.2-1-0.1-0.5-0.1-0.9 0-0.5 0-1 0-0.5 0.1-1 0-0.5 0.2-1c0.9-3.9 3.7-6 7-7.9z"/>
	<path class="s1" d="m682.1 346.4c0.6 0 1.3 0 1.9 0.1 2.1 0.4 4.3 1.6 5.5 3.4 0.9 1.4 1.2 3.1 0.9 4.8-0.6 2.7-2.5 4.1-4.8 5.4-1.1 0-2.2 0.1-3.2-0.1-1.9-0.4-3.5-1.4-4.6-3.1-0.9-1.3-1-3-0.7-4.6 0.6-2.9 2.6-4.4 5-5.9z"/>
	<path class="s1" d="m459.4 576.5l1.6-0.1c2 1 3.6 2.8 5.1 4.4q-5.6 1-11.1 2.7c-19.7 6.2-39.4 23.2-52.2 38.9-2.2 2.6-4.9 5.5-6.4 8.6-0.6 1.4-0.7 2.2-0.2 3.7 4 3.4 21.8 1.2 27.4 0.9q-2.4 2.4-4.8 4.8c-15.2 16-34.3 43.3-41.4 64.1q-1.1 3.5-2 7.1-0.9 3.6-1.4 7.3-0.6 3.7-0.8 7.3-0.3 3.7-0.2 7.4c35.2-5.3 64.3-22.7 91.5-44.8q-2.8 6.1-5.3 12.4c-1.4 3.7-4.5 9.9-2.7 13.7 1.2 0.7 1.8 0.9 3.2 0.6 3.8-0.6 8.3-3.8 11.5-5.9q3.7-2.3 7.2-4.9 3.5-2.6 6.9-5.3 3.4-2.8 6.6-5.7 3.3-2.9 6.3-6 3.1-3 6.1-6.3 2.9-3.2 5.6-6.6 2.8-3.3 5.4-6.9 2.6-3.5 5-7.1 4-6.1 7.3-12.7c2-3.9 3.8-8.5 6.5-11.9 1.2-0.3 1.4-0.4 2.6 0.1 0.4 0.6 0.7 1.1 0.7 1.9 0.3 3.6-1.8 8.3-3.2 11.6-7 16.4-16.5 30.5-27.6 44.4-20.7 25.6-45.2 41.7-72.7 59.1 4.3-13.7 10.3-26.8 14-40.6-8.4 5.2-15.8 11.8-24.3 17-28.3 17.2-60.1 29.4-92 38.1 6.4-32.4 25.6-64.9 44.8-91.3 5.2-7.3 14.4-16.3 17.9-24.2-10.1 0.1-20.5 1.8-30.6 0.7 2.5-4.8 8-10.4 11.5-14.7 22.6-27.7 49.9-50.1 84.2-61.8z"/>
	<path class="s0" d="m917.9 97c5.1-1.8 11.6-2.5 17-3.1q0.7 10.2 1 20.5 0.2 10.2 0 20.5-0.2 10.2-0.9 20.5-0.6 10.2-1.7 20.4-1.1 10.2-2.7 20.3-1.5 10.2-3.5 20.2-2 10.1-4.4 20-2.4 10-5.3 19.8c-2.7 9.4-5 19.2-8.6 28.3-3.8-5.1-7.5-10.5-11.5-15.5-3.8-4.8-8.1-9.2-12.1-13.8-11.7-13.2-23.5-25.8-36.6-37.6-7.7-6.9-16.1-13.1-24.2-19.4-4-3.1-10.3-6.7-13.2-10.8-5.3-3.9-10.6-7.5-16.4-10.7-3-1.5-6.1-3.5-8.5-5.8 6.7-6.3 14.2-11.5 21.6-16.8 26.1-18.8 51.2-32.4 80.5-45.7q7.1-3.2 14.4-5.8c4.7-1.7 11-2.9 15.1-5.5z"/>
	<path class="s1" d="m916.9 101.1c-7 4.4-14.4 8.2-21.3 12.7-31.4 20.3-60.5 44.8-84.4 73.5-5.3-3.9-10.6-7.5-16.4-10.7 22.6-22 63.1-45.9 91-61 9.8-5.3 20.4-11.4 31.1-14.5z"/>
	<path class="s0" d="m615.4 322c4.7 3.1 9.4 6 14.1 9.1 1.9 1.3 4 2.6 5.8 4.2 8.7 4.2 16.8 11.6 24.4 17.5 15.5 12.2 31.4 24.4 45.8 37.8 7.2 6.6 13.5 14.2 20.1 21.3 9.3 9.9 18.7 19.4 27.5 29.7 5.1 6 11.3 11.8 15.8 18.2-9.8 7.3-19 15.4-28.9 22.7q-12.6 9.3-25.7 17.9-13.1 8.5-26.7 16.3-13.6 7.8-27.6 14.8-14 6.9-28.4 13c-16 6.8-33.5 12.6-50.7 15.1-3.6 0.5-14.8 0.7-16.9 3l-3.1-2.3c2.5-4.9 17.2-17.6 22-22.4l93.4-94.6c2.8-2.9 11-10 10.6-13.9-0.1-1.8-2.1-4-3.4-5.1-4.5-4-38.5-27.2-43.9-26.8-6.8 4.4-21.1 23.9-26.7 31.2-14.5 18.6-29.2 37.1-42.9 56.1-11.7 16.2-22.6 32.9-33.5 49.5-2.9-3.7-6.7-6.5-9.9-9.9l-5.7-5.1c-5.1-2.7-10.1-7.5-14.2-11.6 2-4.6 3.5-9.6 5.1-14.3 3.3-9.3 6.7-18.4 10.5-27.4 16.8-40.2 36.8-76.4 63.6-110.8 9-11.6 18.7-23.1 29.5-33.2z"/>
	<path class="s1" d="m520.9 519.3c3.3-13.9 9.6-27.8 15.5-40.8q4.6-9.9 9.5-19.7 4.9-9.8 10.1-19.4 5.3-9.6 10.8-19 5.5-9.4 11.4-18.6 5.8-9.3 11.9-18.3 6.2-9.1 12.6-17.9 6.4-8.9 13.1-17.5 6.7-8.6 13.7-17c1.9 1.3 4 2.6 5.8 4.2-38.5 50.5-74 102.1-98.1 161.3-3.7 9-8.1 18.4-10.6 27.8z"/>
	<path class="s0" d="m615.4 322c4.7 3.1 9.4 6 14.1 9.1q-7 8.4-13.7 17-6.7 8.6-13.1 17.5-6.4 8.8-12.6 17.9-6.1 9-11.9 18.3-5.9 9.2-11.4 18.6-5.5 9.4-10.8 19-5.2 9.6-10.1 19.4-4.9 9.8-9.5 19.7c-5.9 13-12.2 26.9-15.5 40.8-5.1-2.7-10.1-7.5-14.2-11.6 2-4.6 3.5-9.6 5.1-14.3 3.3-9.3 6.7-18.4 10.5-27.4 16.8-40.2 36.8-76.4 63.6-110.8 9-11.6 18.7-23.1 29.5-33.2z"/>
	<path class="s1" d="m732 169.6c8.1 2.6 15.9 8.4 23.2 12.9 38.4 23.9 77 53.3 107.4 86.9 12.6 13.9 22.4 29.5 34 44.2-4.6 9.4-8.9 19-13.8 28.2q-8 14.9-16.8 29.5-8.8 14.5-18.2 28.6-9.5 14-19.7 27.6-10.2 13.5-21.1 26.6c-4.8-6.8-10.5-13-15.9-19.2-10.7-12.1-21.8-23.3-33.1-34.7-7.1-7.1-13.9-14.4-21.2-21.4-25.6-24.4-56.5-49.8-85.9-69.4-14.4-9.7-29.2-18.1-44.4-26.5 7.1-11.2 17.8-21.2 27-30.6 30-30.3 62.3-59.9 98.5-82.7z"/>
	<path class="s3" d="m759.8 245.2c14.2-1 28.2 3.7 39.5 12.3q1.1 0.8 2.1 1.7 1 0.9 2 1.8 1 0.9 2 1.9 1 1 1.9 2 0.9 1 1.7 2.1 0.9 1.1 1.7 2.2 0.8 1.1 1.5 2.3 0.7 1.1 1.4 2.3 0.7 1.2 1.3 2.4 0.6 1.2 1.2 2.5 0.6 1.2 1.1 2.5 0.5 1.3 0.9 2.6 0.4 1.3 0.8 2.6 0.4 1.3 0.7 2.6 0.3 1.4 0.5 2.7 0.2 1.4 0.4 2.7c2 15.7-2.1 30.5-11.9 42.9-10.1 12.8-24.6 19.1-40.5 21.1-15.4 0.5-28.3-1.9-40.4-12.1-12.3-10.2-19.8-23.6-21.1-39.6-1.3-15.5 3.3-29.8 13.4-41.7 10.2-11.9 24.3-18.5 39.8-19.8z"/>
	<path class="s1" d="m759.3 249.7c12.3-1.7 26.7 3.5 36.5 10.7q1 0.8 2 1.6 0.9 0.8 1.9 1.6 0.9 0.9 1.8 1.7 0.9 0.9 1.7 1.9 0.9 0.9 1.7 1.9 0.8 0.9 1.5 1.9 0.8 1 1.5 2.1 0.7 1 1.3 2.1 0.7 1.1 1.3 2.2 0.6 1.1 1.1 2.2 0.5 1.2 1 2.3 0.5 1.2 0.9 2.4 0.5 1.1 0.8 2.3 0.4 1.2 0.7 2.5 0.3 1.2 0.6 2.4 0.2 1.2 0.4 2.5c2 14-1.3 27.7-9.9 38.9-9.3 12.3-22.6 19.4-37.8 21.4-13.3 1.2-26.4-2.2-37-10.5-11.2-8.7-18.2-20.8-20-34.8q-0.1-1.4-0.2-2.7-0.1-1.3-0.2-2.6 0-1.3 0-2.6 0-1.4 0.1-2.7 0.1-1.3 0.3-2.6 0.1-1.3 0.4-2.6 0.2-1.3 0.5-2.6 0.3-1.3 0.6-2.6 0.4-1.3 0.8-2.5 0.4-1.3 0.9-2.5 0.5-1.2 1-2.4 0.5-1.2 1.1-2.4 0.6-1.2 1.3-2.3 0.6-1.2 1.4-2.3 0.7-1.1 1.4-2.2 0.8-1.1 1.6-2.1c9.4-11.7 22.3-17.9 37-19.6z"/>
	<path class="s3" d="m761.1 254.7c12-0.7 24.7 4 33.8 11.7q0.9 0.7 1.7 1.5 0.8 0.7 1.6 1.6 0.8 0.8 1.6 1.6 0.7 0.9 1.4 1.8 0.8 0.8 1.4 1.8 0.7 0.9 1.3 1.8 0.6 1 1.2 2 0.6 1 1.1 2 0.5 1 1 2 0.4 1.1 0.9 2.1 0.4 1.1 0.7 2.2 0.4 1 0.7 2.1 0.3 1.1 0.6 2.2 0.2 1.1 0.4 2.3 0.2 1.1 0.4 2.2 0.1 1.1 0.2 2.3c1 12.6-2.6 24.5-10.9 34.1-9 10.5-20.2 16.1-33.9 17.2-12.1 0.5-23.3-2.4-32.7-10.1-10.2-8.4-16.2-19.5-17.4-32.6q-0.1-1.2-0.2-2.3 0-1.2 0-2.4 0-1.2 0.1-2.3 0-1.2 0.2-2.4 0.1-1.1 0.3-2.3 0.2-1.1 0.4-2.3 0.2-1.1 0.5-2.3 0.3-1.1 0.7-2.2 0.3-1.1 0.7-2.2 0.4-1.1 0.9-2.2 0.4-1.1 1-2.2 0.5-1 1-2 0.6-1.1 1.2-2.1 0.6-1 1.2-1.9 0.7-1 1.4-1.9 0.7-1 1.5-1.9c8.9-10.6 20.4-15.7 34-16.9z"/>
	<path class="s1" d="m765.7 260.6c7.4-0.2 16 3.2 22.1 7.3 8.2 5.5 13.3 14.2 15.2 23.8 2.5 12.7-2 23.4-8.9 33.9-0.8 1.2-1.8 2.2-2.8 3.2 2.3-4.1 4.2-8.3 5.6-12.8 3.5-11.7 2.6-23.7-3.3-34.4-5.9-10.9-16.2-17.6-27.9-21z"/>
	<path class="s1" d="m756.7 267.7c6.8-0.7 13.3 0.8 18.9 4.6q0.6 0.4 1.1 0.9 0.6 0.4 1.1 0.9 0.6 0.4 1.1 0.9 0.5 0.5 1 1 0.5 0.5 0.9 1 0.5 0.6 0.9 1.1 0.5 0.6 0.9 1.2 0.4 0.6 0.8 1.2 0.4 0.6 0.7 1.2 0.4 0.6 0.7 1.2 0.3 0.7 0.6 1.3 0.3 0.7 0.5 1.3 0.3 0.7 0.5 1.4 0.2 0.6 0.4 1.3 0.2 0.7 0.3 1.4 0.2 0.7 0.3 1.4c1.3 7.5-0.1 15.3-4.7 21.5-4.6 6.4-10.9 9.9-18.6 11-7.3 0.9-14.7-0.4-20.8-4.6q-0.6-0.4-1.1-0.9-0.6-0.4-1.1-0.9-0.6-0.5-1.1-0.9-0.5-0.5-1-1.1-0.5-0.5-0.9-1-0.5-0.6-0.9-1.2-0.5-0.5-0.9-1.1-0.4-0.6-0.8-1.2-0.3-0.6-0.7-1.3-0.3-0.6-0.6-1.2-0.3-0.7-0.6-1.3-0.3-0.7-0.5-1.4-0.3-0.6-0.5-1.3-0.2-0.7-0.4-1.4-0.1-0.7-0.3-1.4-0.1-0.7-0.2-1.4c-1.2-7.6 0.4-15.5 5.1-21.6 5.1-6.6 12-9.6 19.9-10.6z"/>
	<path class="s0" d="m209.2 62q-0.1-0.4-0.2-0.8c-1-4.8-0.4-9.9 2.4-14q0.4-0.7 1-1.3 0.5-0.6 1-1.1 0.6-0.6 1.2-1 0.6-0.5 1.3-0.9 0.7-0.5 1.4-0.8 0.7-0.3 1.4-0.6 0.8-0.3 1.5-0.5 0.8-0.2 1.6-0.3 0.7-0.1 1.4-0.1 0.7-0.1 1.5 0 0.7 0 1.4 0.1 0.8 0.2 1.5 0.3 0.7 0.2 1.4 0.5 0.6 0.2 1.3 0.6 0.7 0.3 1.3 0.7 0.6 0.4 1.2 0.8c3.9 3.1 5.4 7.5 5.9 12.3 7 2.6 14.2 4.3 21.3 6.5 11.2 3.5 22.6 7.3 33.6 11.4 15.3 5.6 30.5 11.8 45.5 18.1 6.7 2.8 13.2 6 20 8.5 2.1-1.8 4.2-3.4 6.9-4q0.6-0.1 1.2-0.1 0.6-0.1 1.1-0.1 0.6 0 1.2 0.1 0.6 0 1.1 0.2 0.6 0.1 1.1 0.3 0.6 0.1 1.1 0.4 0.6 0.2 1.1 0.5 0.5 0.3 0.9 0.6c4.2 3 5.4 7 6.2 11.7 23.4 12.5 46.8 24.6 69.8 37.8q33.9 19.7 66.4 41.5c10.3 6.8 20.8 13.5 30.9 20.7 7 4.9 13.6 10.7 20.3 16q22.9 18.1 46.5 35.3c-0.8 1.3-1.7 2.5-2.7 3.7-10.8 11.7-20.6 24.6-30 37.5-3.8 5.4-7.4 10.9-11.4 16.1-1.3 2.4-2.5 4.4-4.3 6.4q-13.3 21.6-25.8 43.6l-2.5 5.3c-0.5 1.4-0.7 2.9-1.9 3.9-7.3-0.3-15-4.2-22.2-5.6-37.7-7.2-63.4-2.2-91.8 24.4-7.2 6.8-14.3 14.7-20.1 22.8-3.5 5.1-7.3 10.1-11.1 15.1-8.9 12.4-24.4 28.8-30.8 41.4q-0.1 0.2-0.2 0.4c7.1-5.9 14.2-11.5 21.8-16.7 2-2.2 5.8-4.5 8.5-6-3.8 9-6.7 18.4-9.9 27.6l-12.7 37.7c-5 15.3-10.7 30.3-15.9 45.6-3.8 11.3-6.6 23.5-11.5 34.3 4.5 3.8 7.5 9.1 8.3 15 0.7 5.4-0.3 10.8-3.7 15.1q-0.3 0.4-0.7 0.8-0.3 0.4-0.7 0.8-0.4 0.4-0.7 0.7-0.4 0.4-0.8 0.7-0.4 0.4-0.9 0.7-0.4 0.3-0.8 0.6-0.5 0.3-0.9 0.6-0.5 0.3-0.9 0.5-0.5 0.3-1 0.5-0.5 0.2-1 0.4-0.5 0.2-1 0.4-0.5 0.2-1 0.4-0.5 0.1-1 0.2-0.5 0.2-1 0.3-0.5 0.1-1.1 0.1-0.5 0.1-1 0.2-1 0-2 0-1.1 0-2.1-0.1-1-0.1-2-0.3-0.9-0.3-1.9-0.6-1-0.3-1.9-0.7-0.9-0.4-1.8-0.8-0.9-0.5-1.7-1.1-0.9-0.6-1.7-1.2c-5.1-4.3-7.5-10.6-8-17.2-9-3-17.8-6.5-26.7-9.7l-57.3-20.7q-65.5-24.4-131.6-47c-0.7 1.1-1.4 2.1-2.2 3.1-3.6 4.3-8.2 7-13.8 7.5-6.2 0.6-12.6-1-17.3-5.3-4.3-3.9-6.8-9.7-7-15.4q0-0.6 0-1.1 0-0.5 0.1-1.1 0-0.5 0.1-1 0-0.6 0.1-1.1 0.1-0.5 0.2-1 0.1-0.6 0.3-1.1 0.1-0.5 0.3-1 0.1-0.5 0.3-1 0.2-0.5 0.5-1 0.2-0.5 0.4-0.9 0.3-0.5 0.5-1 0.3-0.4 0.6-0.9 0.3-0.4 0.6-0.8 0.3-0.5 0.7-0.9 0.3-0.4 0.7-0.8 0.3-0.4 0.7-0.8c5.1-5 11-6.3 18-6.3 1.7-12.9 4.6-25.7 6.9-38.6 4.4-24.9 8.7-49.9 13.8-74.6-3.5-2.2-6.2-4.5-8-8.4q-0.3-0.6-0.5-1.4-0.2-0.7-0.4-1.4-0.1-0.7-0.2-1.5-0.1-0.7-0.1-1.5-0.1-0.7 0-1.5 0.1-0.7 0.2-1.4 0.1-0.8 0.3-1.5 0.2-0.7 0.5-1.4c1.6-4.2 4.7-6.9 8.7-8.7-2.1-14.6-3.1-29.4-4.4-44.1-1.4-15.5-3.2-30.9-4.7-46.4l-5.6-56.9c-0.8-8.6-2.2-17.2-2.6-25.8-2.3-0.8-4.5-1.6-6.6-2.8-4.3-2.4-7.8-6.2-9-11-1.3-4.8-0.4-10 2.2-14.2q0.4-0.8 1-1.5 0.5-0.7 1.1-1.4 0.6-0.7 1.3-1.3 0.7-0.6 1.4-1.1 0.7-0.5 1.5-1 0.8-0.4 1.6-0.8 0.8-0.4 1.7-0.7 0.8-0.3 1.7-0.5c5.4-1.3 10 0.1 14.6 2.8 9-6.6 17.6-14.1 26.3-21.2 30.5-24.3 60.1-49.7 90.9-73.7z"/>
	<path class="s1" d="m242.1 62.9c8.7 1.2 18.1 4.9 26.5 7.7q27.2 9.1 53.9 19.7c11.3 4.6 22.4 9.8 33.8 14.3-0.4 3.5 0.2 6 1.7 9.2l-7.9 5.1q-5.3 3.8-10.7 7.3-0.1-0.1-0.2-0.1c-0.9-0.9-1.8-1.8-2.9-2.3-5.6-3-11.6-1.5-17.2 0.2-10.8-7.8-20.8-16.8-31.3-25l-26.7-20.9c-6.3-5-13-9.8-19-15.2z"/>
	<path class="s1" d="m549.1 217.5c6.6 4.8 12.9 10.1 19.4 15.1 7.1 5.5 14.4 10.8 21.6 16.3 7.2 5.6 13.9 11.8 22.1 16.1-10.9 11.7-20.6 24.6-30 37.5-3.8 5.4-7.4 10.9-11.4 16.1-2.2-5.7-4.1-19.2-5.5-26.1q-5.3-25.6-11.1-51.1c-1.8-7.9-3.1-16-5.1-23.9z"/>
	<path class="s1" d="m361.5 117.5c0.1 0.2 0.3 0.3 0.4 0.4 2.6 1.8 6.9 1.1 9.7 0.5 11.4 20.1 21.2 41.2 31.8 61.6l19.1 37.1c5.2 10.2 10.7 20.4 15 31q-4.9-5.2-10-10.4c-10.5-10.4-20.5-21.5-30.8-32.2-18.3-19-36.7-38-54.4-57.6 3-6.3 2.5-11.1 0.7-17.6 5.9-4.6 12.4-8.6 18.5-12.8z"/>
	<path class="s1" d="m444.9 263.4c11 11.2 20.9 23.7 31.1 35.6 21 24.7 41.6 49.8 62.2 74.9-0.5 1.4-0.7 2.9-1.9 3.9-7.3-0.3-15-4.2-22.2-5.6-37.7-7.2-63.4-2.2-91.8 24.4-7.2 6.8-14.3 14.7-20.1 22.8-0.6-1.3-0.1-2.7 0.3-4 2.7-10.3 6.2-20.5 9.1-30.7l25-89.2c2.9-10.4 7-21.4 8.3-32.1z"/>
	<path class="s1" d="m439.4 263.5l0.2 0.2c0.6 3.2-41.9 151-46.3 165.2-4.9-3.6-8.9-8.9-13.2-13.3q-9.2-9.6-18.7-18.7-14.3-13.9-28.9-27.4c3.2-8.4 3.1-15.6-0.5-23.7z"/>
	<path class="s1" d="m377.7 114.2c21.7 9.4 47 24.4 67.6 36.4 9.3 5.4 18.7 10.6 27.8 16.2 11.4 7 22.5 14.5 33.7 21.8 10.8 7.1 21.8 14 31.9 22-9.6 5.3-20 9.7-30.1 14.2l-62.8 29.2c-5.3-11.2-10.4-22.6-15.9-33.7-10.6-21.4-22-42.5-32.7-63.9-6-11.9-14.5-25.9-19.4-37.9-0.6-1.5-0.4-2.7-0.1-4.3z"/>
	<path class="s1" d="m314.5 380.2c6-1.2 10.2-2.4 14.8-6.7q21.5 19.8 42.1 40.6c6.5 6.3 14.4 13 19.7 20.4-8.9 12.4-24.4 28.8-30.8 41.4q-0.1 0.2-0.2 0.4c7.1-5.9 14.2-11.5 21.8-16.7-0.2 6.7-10.5 32.1-13.2 40-4.5 13.1-8.6 26.3-13.2 39.4-6.6 19.2-13.5 38.1-19.2 57.5l-6.7-1.3c0-17.3-2-34.8-3.3-52l-4.7-65.1-4.6-62.4c-0.8-11.8-1.1-23.7-2.5-35.5z"/>
	<path class="s1" d="m448.7 258.5c8.7-5.1 18.8-9 28-13.3 22-10.2 44.4-20 66.2-30.6 4.9 23.5 10.3 46.9 15.4 70.4 2.9 13.2 6.2 26.6 8.2 40q-13.3 21.6-25.8 43.6c-9.6-12.3-19.7-23.9-29.7-35.8l-40.4-47.7c-7.5-8.7-14.4-18-21.9-26.6z"/>
	<path class="s1" d="m236.5 64.9c5.4 3 16.1 12.6 21.5 16.9q28.8 22.8 57.2 45.9-0.9 1.2-1.5 2.4c-2.3 4.6-1.9 10.7-0.4 15.4-11 8.7-22.7 16.7-34.2 24.9l-29.4 21.4c-14.8 10.4-29.6 20.8-44 31.7-1.9-1.1-3.9-1.9-5.8-2.9 0.3-10.5 2.6-21.3 4.3-31.7q4.6-29.4 9.8-58.6l5.8-35.5c1.3-8 2.4-16.3 4.7-24.2 4.3-1.2 8.1-3.4 12-5.7z"/>
	<path class="s1" d="m96.9 184.4q0.2 0 0.5 0.1c7 2.4 80.5 41.4 84.7 45.4 1.2 1.1 1.8 7.6 3.2 9.9q0.1 0.3 0.3 0.6c-4.6 9.5-11.2 18.3-16.9 27.2l-35.5 54.7c-4.6 6.7-23.9 37.9-28.9 40.4-0.9 0.5-0.5 0.4-1.5 0.1-2.5-6-5.2-41.8-6.1-50.3q-6.6-60.8-12.2-121.6c5.2-1.2 8.5-2.9 12.4-6.5z"/>
	<path class="s1" d="m212.6 66c2.3 1.7 4.2 3.2 6.9 4.3-4.6 15.2-5.7 31.7-8.3 47.3l-16.8 101.5c-3.7 1.5-6.8 3.7-10.1 6-5.3-2.7-10.4-6-15.6-8.9q-18.3-10.2-37-19.7c-10.5-5.6-20.7-11.9-31.4-17q0.3-1.2 0.5-2.4c1.2-6.9-0.7-11.4-4.4-16.8 10-9.1 21.1-17.3 31.6-25.8 12-9.5 23.8-19.4 35.7-29q14.1-11.4 28.1-22.9c6.8-5.6 13.5-11.5 20.8-16.6z"/>
	<path class="s1" d="m316.2 149.9c0.6 0.2 0.3 0 1 0.5 3 2.1 6.5 4.2 10.1 4.8 4 0.6 8.4-1.6 11.4-3.8 3.4 4.2 7.3 8.2 11.1 12.2 8.9 9.6 18.2 18.9 27.4 28.3 9.4 9.7 18.3 19.9 27.6 29.6 10.8 11.5 22 22.7 32.7 34.3-9.4-0.6-18.9-2.2-28.3-3.2l-67.1-6.9-80.6-8.8-37.5-3.8c-4.9-0.5-11.5-0.3-15.9-2.2l-0.2-1.1c0.5-1.6 1.3-2.5 2.6-3.6 10.9-9.2 25.6-18.7 37.4-27.1q34.3-24.4 68.3-49.2z"/>
	<path class="s1" d="m207.2 236.1c31.4 4.1 63.1 6.8 94.5 10.1l132.9 13.6c-7.7 6.9-16.1 13-24.4 19.2q-12.3 9.3-24.4 18.9-17.1 12.9-34 26.1c-7.8 6.1-15.5 12.4-23.8 18-2.2-1.7-4.4-3.2-7.2-4-6.9-2.1-13.3-0.8-19.5 2.6-20.7-21-40.3-43.1-60.6-64.6-8.6-9.1-17.3-17.9-25.7-27.2-2.4-2.6-6.1-5.9-7.8-9-0.7-1.4-0.3-2.2 0-3.7z"/>
	<path class="s1" d="m201.8 243.1c3.8 1.3 83.3 89.6 96.2 100.2-5.3 5.2-6.4 9.4-6.7 16.6-10.6 1.1-21.2 1.6-31.8 2.5q-28.9 2.4-57.9 4.5c-18.3 1.1-36.6 2.8-54.9 4.2-10 0.7-20.2 1.9-30.1 1.6-1.8-3.3-3.2-5.4-6.3-7.6 8.7-11.1 16-23.4 23.8-35q28.4-42.5 55.4-85.9c4.5 0.4 8 0.4 12.3-1.1z"/>
	<path class="s1" d="m110.3 390.5c4.3 0.6 183.4 191.1 202.5 210.6-1.9 2.8-3.3 5.7-4.7 8.7q-9.5-3.3-19-6.8c-9.5-3.7-19.2-6.9-28.7-10.4-55.5-20.7-111.6-39.8-167-60.7 0.7-4 0.7-7.7-0.4-11.7-2-6.7-6.9-10.6-12.8-13.7 7.6-37.8 12.5-76.2 21.4-113.7 3.2-0.3 5.8-0.9 8.7-2.3z"/>
	<path class="s1" d="m286.9 365.3c1.3-0.2 3.2-0.5 4.6-0.2 1.6 0.4 5.7 7.5 7.5 9.1 3.2 2.8 6.6 4.1 10.5 5.5 0.3 15.8 2.3 31.8 3.3 47.6l7.1 100.4c1.7 22.6 3.8 45 4.5 67.7-2.9 0.4-5.3 0.9-7.8 2.5-9.4-10.7-19.5-20.6-29.3-30.9q-25-26.6-50.3-52.8l-51.1-53.9q-35.9-36.6-71.2-73.9c1.3-2.6 2.1-5 2.4-7.9q84.9-7.1 169.8-13.2z"/>
</svg>